M48
; DRILL file {KiCad (5.1.6-0-10_14)} date Sunday, October 25, 2020 at 03:01:45 PM
; FORMAT={-:-/ absolute / metric / decimal}
; #@! TF.CreationDate,2020-10-25T15:01:45+09:00
; #@! TF.GenerationSoftware,Kicad,Pcbnew,(5.1.6-0-10_14)
FMAT,2
METRIC
T1C0.400
T2C0.600
T3C0.813
T4C0.900
T5C1.000
T6C1.300
T7C1.500
T8C1.000
T9C1.200
T10C1.750
T11C1.800
T12C2.200
T13C3.000
T14C3.400
T15C3.988
%
G90
G05
T1
X34.225Y-65.6
X35.8Y-28.2
X35.8Y-30.0
X36.2Y-70.0
X37.5Y-58.6
X37.5Y-62.6
X38.4Y-67.8
X38.625Y-33.8
X38.625Y-37.4
X39.254Y-66.546
X39.8Y-41.2
X40.3Y-61.7
X41.575Y-45.0
X41.7Y-41.23
X42.7Y-62.9
X43.2Y-30.0
X43.208Y-63.892
X44.8Y-51.2
X44.8Y-69.95
X46.1Y-35.6
X46.37Y-40.024
X46.375Y-63.8
X46.375Y-66.2
X46.8Y-30.0
X46.83Y-45.354
X46.83Y-46.158
X46.959Y-57.4
X47.05Y-54.3
X47.246Y-35.646
X47.458Y-47.68
X47.6Y-50.4
X47.689Y-55.16
X47.695Y-49.405
X48.064Y-36.026
X48.3Y-32.6
X48.55Y-66.2
X48.6Y-50.3
X48.623Y-54.992
X48.711Y-77.855
X48.747Y-47.0
X49.031Y-67.75
X49.081Y-49.232
X49.12Y-42.411
X49.278Y-51.593
X49.446Y-47.808
X49.9Y-55.3
X50.0Y-46.6
X50.044Y-51.834
X50.696Y-42.296
X50.8Y-66.7
X50.828Y-46.578
X51.151Y-41.034
X51.65Y-46.65
X51.77Y-51.838
X51.875Y-47.425
X52.691Y-56.954
X52.9Y-36.7
X53.425Y-50.1
X53.531Y-48.319
X53.601Y-49.246
X54.0Y-79.3
X54.064Y-60.37
X54.209Y-58.175
X54.875Y-73.295
X54.875Y-75.835
X54.9Y-74.6
X55.73Y-45.17
X56.249Y-36.56
X56.417Y-35.244
X56.427Y-59.195
X56.562Y-78.955
X56.8Y-39.175
X56.841Y-57.636
X56.934Y-35.874
X57.725Y-33.761
X57.755Y-59.409
X57.843Y-60.519
X58.233Y-61.592
X58.5Y-34.7
X59.2Y-29.694
X59.4Y-60.65
X59.4Y-63.1
X60.03Y-30.63
X60.25Y-39.4
X60.631Y-31.163
X61.515Y-40.676
X61.75Y-38.2
X61.8Y-39.25
X63.2Y-39.7
X63.8Y-36.793
X64.547Y-58.803
X65.719Y-41.334
X69.6Y-78.649
X69.89Y-73.918
X70.1Y-51.4
X71.908Y-33.414
X72.05Y-74.375
X73.047Y-69.003
X73.951Y-33.313
X74.913Y-41.825
X76.089Y-58.023
X76.7Y-33.3
X77.15Y-49.55
X77.497Y-71.5
X78.1Y-53.803
X78.2Y-35.35
X78.6Y-52.85
X78.6Y-44.0
X78.6Y-47.25
X78.6Y-71.85
X78.73Y-70.5
X80.367Y-44.133
X81.497Y-47.753
X83.9Y-35.8
X83.95Y-37.9
X84.043Y-71.85
X88.5Y-39.5
X92.097Y-49.953
X92.097Y-69.003
X95.139Y-38.973
X95.139Y-58.023
X97.5Y-33.3
X97.6Y-44.0
X97.6Y-47.25
X97.6Y-52.85
X99.6Y-33.0
X100.0Y-38.65
X100.0Y-57.65
X100.5Y-47.8
X102.028Y-32.971
X111.147Y-49.953
X111.147Y-69.003
X114.189Y-38.973
X114.189Y-58.023
X36.75Y-41.672
X36.75Y-42.522
X36.75Y-43.372
X36.75Y-44.222
X36.75Y-45.072
X36.75Y-45.922
X36.75Y-46.772
X36.75Y-47.622
X38.1Y-41.672
X38.1Y-42.522
X38.1Y-43.372
X38.1Y-44.222
X38.1Y-45.072
X38.1Y-45.922
X38.1Y-46.772
X38.1Y-47.622
T3
X36.5Y-77.0
X39.04Y-77.0
X41.58Y-77.0
X44.12Y-77.0
T4
X32.4Y-34.26
X32.4Y-36.8
X32.4Y-59.8
X32.4Y-62.34
T5
X67.75Y-36.55
X67.75Y-51.05
X70.25Y-36.55
X72.75Y-36.55
X72.75Y-51.05
X41.6Y-59.0
X49.4Y-59.0
X51.0Y-29.8
X51.0Y-32.34
X41.6Y-61.25
X49.4Y-61.25
X67.75Y-55.6
X67.75Y-70.1
X70.25Y-55.6
X72.75Y-55.6
X72.75Y-70.1
X54.769Y-29.8
X54.769Y-32.34
X63.103Y-75.01
X65.643Y-75.01
X68.183Y-75.01
X70.723Y-75.01
X73.263Y-75.01
X75.803Y-75.01
X78.343Y-75.01
X80.883Y-75.01
X83.423Y-75.01
X85.963Y-75.01
X88.503Y-75.01
X91.043Y-75.01
X93.583Y-75.01
X96.123Y-75.01
X98.663Y-75.01
X101.203Y-75.01
X103.743Y-75.01
X106.283Y-75.01
X108.823Y-75.01
X111.363Y-75.01
X63.103Y-32.147
X65.643Y-32.147
X68.183Y-32.147
X70.723Y-32.147
X73.263Y-32.147
X75.803Y-32.147
X78.343Y-32.147
X80.883Y-32.147
X83.423Y-32.147
X85.963Y-32.147
X88.503Y-32.147
X91.043Y-32.147
X93.583Y-32.147
X96.123Y-32.147
X98.663Y-32.147
X101.203Y-32.147
X103.743Y-32.147
X106.283Y-32.147
X108.823Y-32.147
X111.363Y-32.147
T6
X51.15Y-64.4
X57.65Y-64.4
X51.15Y-69.0
X57.65Y-69.0
T8
X94.517Y-39.853
X113.567Y-39.853
X75.467Y-58.903
X94.517Y-58.903
X113.567Y-58.903
T9
X32.5Y-54.5
X39.5Y-54.5
T10
X103.267Y-63.103
X113.427Y-63.103
X84.217Y-44.053
X94.377Y-44.053
X103.267Y-44.053
X113.427Y-44.053
X65.167Y-63.103
X75.327Y-63.103
X84.217Y-63.103
X94.377Y-63.103
T11
X83.797Y-44.053
X94.797Y-44.053
X102.847Y-44.053
X113.847Y-44.053
X64.747Y-63.103
X75.747Y-63.103
X83.797Y-63.103
X94.797Y-63.103
X102.847Y-63.103
X113.847Y-63.103
T12
X116.602Y-77.152
X32.782Y-77.152
X116.602Y-30.162
X32.782Y-30.162
T13
X85.487Y-41.513
X91.837Y-38.973
X84.297Y-47.753
X89.297Y-49.953
X103.347Y-47.753
X108.347Y-49.953
X65.247Y-66.803
X70.247Y-69.003
X84.297Y-66.803
X89.297Y-69.003
X104.537Y-41.513
X110.887Y-38.973
X66.437Y-60.563
X72.787Y-58.023
X103.347Y-66.803
X108.347Y-69.003
X85.487Y-60.563
X91.837Y-58.023
X104.537Y-60.563
X110.887Y-58.023
T14
X89.297Y-44.053
X108.347Y-44.053
X70.247Y-63.103
X89.297Y-63.103
X108.347Y-63.103
T15
X108.347Y-44.053
X70.247Y-63.103
X89.297Y-63.103
X108.347Y-63.103
X89.297Y-44.053
T2
G00X34.14Y-40.322
M15
G01X33.34Y-40.322
M16
G05
G00X34.14Y-48.972
M15
G01X33.34Y-48.972
M16
G05
G00X37.87Y-40.322
M15
G01X36.37Y-40.322
M16
G05
G00X37.87Y-48.972
M15
G01X36.37Y-48.972
M16
G05
G00X33.85Y-52.4
M15
G01X34.75Y-52.4
M16
G05
G00X36.85Y-52.4
M15
G01X37.75Y-52.4
M16
G05
G00X40.85Y-52.4
M15
G01X41.75Y-52.4
M16
G05
G00X42.35Y-56.6
M15
G01X43.25Y-56.6
M16
G05
T7
G00X64.65Y-62.45
M15
G01X64.65Y-63.75
M16
G05
G00X75.85Y-62.45
M15
G01X75.85Y-63.75
M16
G05
G00X64.65Y-43.4
M15
G01X64.65Y-44.7
M16
G05
G00X75.85Y-43.4
M15
G01X75.85Y-44.7
M16
G05
T0
M30
