G04 #@! TF.GenerationSoftware,KiCad,Pcbnew,(5.1.6-0-10_14)*
G04 #@! TF.CreationDate,2020-10-25T15:01:43+09:00*
G04 #@! TF.ProjectId,meishi_stm32,6d656973-6869-45f7-9374-6d33322e6b69,rev?*
G04 #@! TF.SameCoordinates,Original*
G04 #@! TF.FileFunction,Legend,Bot*
G04 #@! TF.FilePolarity,Positive*
%FSLAX46Y46*%
G04 Gerber Fmt 4.6, Leading zero omitted, Abs format (unit mm)*
G04 Created by KiCad (PCBNEW (5.1.6-0-10_14)) date 2020-10-25 15:01:43*
%MOMM*%
%LPD*%
G01*
G04 APERTURE LIST*
%ADD10C,0.150000*%
%ADD11C,0.010000*%
%ADD12R,1.802000X1.802000*%
%ADD13O,1.802000X1.802000*%
%ADD14R,2.102000X2.102000*%
%ADD15C,2.102000*%
%ADD16R,2.102000X3.302000*%
%ADD17C,2.302000*%
%ADD18C,0.802000*%
%ADD19O,2.502000X1.002000*%
%ADD20O,1.802000X1.002000*%
%ADD21R,1.902000X1.902000*%
%ADD22C,1.902000*%
%ADD23C,1.499000*%
%ADD24R,2.652000X2.602000*%
%ADD25C,1.852000*%
%ADD26C,3.102000*%
%ADD27C,4.089800*%
%ADD28C,1.302000*%
%ADD29O,2.302000X1.402000*%
%ADD30C,3.502000*%
%ADD31R,1.702000X2.302000*%
%ADD32C,1.102000*%
%ADD33C,1.702000*%
G04 APERTURE END LIST*
D10*
X112178571Y-79107142D02*
X111964285Y-79178571D01*
X111607142Y-79178571D01*
X111464285Y-79107142D01*
X111392857Y-79035714D01*
X111321428Y-78892857D01*
X111321428Y-78750000D01*
X111392857Y-78607142D01*
X111464285Y-78535714D01*
X111607142Y-78464285D01*
X111892857Y-78392857D01*
X112035714Y-78321428D01*
X112107142Y-78250000D01*
X112178571Y-78107142D01*
X112178571Y-77964285D01*
X112107142Y-77821428D01*
X112035714Y-77750000D01*
X111892857Y-77678571D01*
X111535714Y-77678571D01*
X111321428Y-77750000D01*
X110892857Y-77678571D02*
X110035714Y-77678571D01*
X110464285Y-79178571D02*
X110464285Y-77678571D01*
X109535714Y-79178571D02*
X109535714Y-77678571D01*
X109035714Y-78750000D01*
X108535714Y-77678571D01*
X108535714Y-79178571D01*
X107964285Y-77678571D02*
X107035714Y-77678571D01*
X107535714Y-78250000D01*
X107321428Y-78250000D01*
X107178571Y-78321428D01*
X107107142Y-78392857D01*
X107035714Y-78535714D01*
X107035714Y-78892857D01*
X107107142Y-79035714D01*
X107178571Y-79107142D01*
X107321428Y-79178571D01*
X107750000Y-79178571D01*
X107892857Y-79107142D01*
X107964285Y-79035714D01*
X106392857Y-79178571D02*
X106392857Y-78178571D01*
X106392857Y-77678571D02*
X106464285Y-77750000D01*
X106392857Y-77821428D01*
X106321428Y-77750000D01*
X106392857Y-77678571D01*
X106392857Y-77821428D01*
X105750000Y-77821428D02*
X105678571Y-77750000D01*
X105535714Y-77678571D01*
X105178571Y-77678571D01*
X105035714Y-77750000D01*
X104964285Y-77821428D01*
X104892857Y-77964285D01*
X104892857Y-78107142D01*
X104964285Y-78321428D01*
X105821428Y-79178571D01*
X104892857Y-79178571D01*
X104250000Y-79178571D02*
X104250000Y-77678571D01*
X103607142Y-79178571D02*
X103607142Y-78392857D01*
X103678571Y-78250000D01*
X103821428Y-78178571D01*
X104035714Y-78178571D01*
X104178571Y-78250000D01*
X104250000Y-78321428D01*
X102892857Y-79178571D02*
X102892857Y-78178571D01*
X102892857Y-77678571D02*
X102964285Y-77750000D01*
X102892857Y-77821428D01*
X102821428Y-77750000D01*
X102892857Y-77678571D01*
X102892857Y-77821428D01*
X101178571Y-78178571D02*
X100821428Y-79178571D01*
X100464285Y-78178571D01*
X99892857Y-79035714D02*
X99821428Y-79107142D01*
X99892857Y-79178571D01*
X99964285Y-79107142D01*
X99892857Y-79035714D01*
X99892857Y-79178571D01*
X98392857Y-79178571D02*
X99250000Y-79178571D01*
X98821428Y-79178571D02*
X98821428Y-77678571D01*
X98964285Y-77892857D01*
X99107142Y-78035714D01*
X99250000Y-78107142D01*
X95678571Y-78464285D02*
X95750000Y-78392857D01*
X95892857Y-78321428D01*
X96035714Y-78321428D01*
X96178571Y-78392857D01*
X96250000Y-78464285D01*
X96321428Y-78607142D01*
X96321428Y-78750000D01*
X96250000Y-78892857D01*
X96178571Y-78964285D01*
X96035714Y-79035714D01*
X95892857Y-79035714D01*
X95750000Y-78964285D01*
X95678571Y-78892857D01*
X95678571Y-78321428D02*
X95678571Y-78892857D01*
X95607142Y-78964285D01*
X95535714Y-78964285D01*
X95392857Y-78892857D01*
X95321428Y-78750000D01*
X95321428Y-78392857D01*
X95464285Y-78178571D01*
X95678571Y-78035714D01*
X95964285Y-77964285D01*
X96250000Y-78035714D01*
X96464285Y-78178571D01*
X96607142Y-78392857D01*
X96678571Y-78678571D01*
X96607142Y-78964285D01*
X96464285Y-79178571D01*
X96250000Y-79321428D01*
X95964285Y-79392857D01*
X95678571Y-79321428D01*
X95464285Y-79178571D01*
X94678571Y-78178571D02*
X94678571Y-79464285D01*
X94750000Y-79607142D01*
X94892857Y-79678571D01*
X94964285Y-79678571D01*
X94678571Y-77678571D02*
X94750000Y-77750000D01*
X94678571Y-77821428D01*
X94607142Y-77750000D01*
X94678571Y-77678571D01*
X94678571Y-77821428D01*
X93964285Y-78178571D02*
X93964285Y-79678571D01*
X93964285Y-78250000D02*
X93821428Y-78178571D01*
X93535714Y-78178571D01*
X93392857Y-78250000D01*
X93321428Y-78321428D01*
X93250000Y-78464285D01*
X93250000Y-78892857D01*
X93321428Y-79035714D01*
X93392857Y-79107142D01*
X93535714Y-79178571D01*
X93821428Y-79178571D01*
X93964285Y-79107142D01*
X92678571Y-79107142D02*
X92535714Y-79178571D01*
X92250000Y-79178571D01*
X92107142Y-79107142D01*
X92035714Y-78964285D01*
X92035714Y-78892857D01*
X92107142Y-78750000D01*
X92250000Y-78678571D01*
X92464285Y-78678571D01*
X92607142Y-78607142D01*
X92678571Y-78464285D01*
X92678571Y-78392857D01*
X92607142Y-78250000D01*
X92464285Y-78178571D01*
X92250000Y-78178571D01*
X92107142Y-78250000D01*
X91392857Y-79178571D02*
X91392857Y-77678571D01*
X91250000Y-78607142D02*
X90821428Y-79178571D01*
X90821428Y-78178571D02*
X91392857Y-78750000D01*
X89607142Y-79107142D02*
X89750000Y-79178571D01*
X90035714Y-79178571D01*
X90178571Y-79107142D01*
X90250000Y-78964285D01*
X90250000Y-78392857D01*
X90178571Y-78250000D01*
X90035714Y-78178571D01*
X89750000Y-78178571D01*
X89607142Y-78250000D01*
X89535714Y-78392857D01*
X89535714Y-78535714D01*
X90250000Y-78678571D01*
X88892857Y-78178571D02*
X88892857Y-79178571D01*
X88892857Y-78321428D02*
X88821428Y-78250000D01*
X88678571Y-78178571D01*
X88464285Y-78178571D01*
X88321428Y-78250000D01*
X88250000Y-78392857D01*
X88250000Y-79178571D01*
X87535714Y-78178571D02*
X87535714Y-79178571D01*
X87535714Y-78321428D02*
X87464285Y-78250000D01*
X87321428Y-78178571D01*
X87107142Y-78178571D01*
X86964285Y-78250000D01*
X86892857Y-78392857D01*
X86892857Y-79178571D01*
X81619047Y-78202380D02*
X81619047Y-78916666D01*
X81666666Y-79059523D01*
X81761904Y-79154761D01*
X81904761Y-79202380D01*
X82000000Y-79202380D01*
X80666666Y-79202380D02*
X81142857Y-79202380D01*
X81142857Y-78202380D01*
X79761904Y-79107142D02*
X79809523Y-79154761D01*
X79952380Y-79202380D01*
X80047619Y-79202380D01*
X80190476Y-79154761D01*
X80285714Y-79059523D01*
X80333333Y-78964285D01*
X80380952Y-78773809D01*
X80380952Y-78630952D01*
X80333333Y-78440476D01*
X80285714Y-78345238D01*
X80190476Y-78250000D01*
X80047619Y-78202380D01*
X79952380Y-78202380D01*
X79809523Y-78250000D01*
X79761904Y-78297619D01*
X79047619Y-78202380D02*
X79047619Y-78916666D01*
X79095238Y-79059523D01*
X79190476Y-79154761D01*
X79333333Y-79202380D01*
X79428571Y-79202380D01*
X78095238Y-79202380D02*
X78571428Y-79202380D01*
X78571428Y-78202380D01*
X77190476Y-79107142D02*
X77238095Y-79154761D01*
X77380952Y-79202380D01*
X77476190Y-79202380D01*
X77619047Y-79154761D01*
X77714285Y-79059523D01*
X77761904Y-78964285D01*
X77809523Y-78773809D01*
X77809523Y-78630952D01*
X77761904Y-78440476D01*
X77714285Y-78345238D01*
X77619047Y-78250000D01*
X77476190Y-78202380D01*
X77380952Y-78202380D01*
X77238095Y-78250000D01*
X77190476Y-78297619D01*
X76476190Y-78202380D02*
X76476190Y-78916666D01*
X76523809Y-79059523D01*
X76619047Y-79154761D01*
X76761904Y-79202380D01*
X76857142Y-79202380D01*
X75523809Y-79202380D02*
X76000000Y-79202380D01*
X76000000Y-78202380D01*
X74619047Y-79107142D02*
X74666666Y-79154761D01*
X74809523Y-79202380D01*
X74904761Y-79202380D01*
X75047619Y-79154761D01*
X75142857Y-79059523D01*
X75190476Y-78964285D01*
X75238095Y-78773809D01*
X75238095Y-78630952D01*
X75190476Y-78440476D01*
X75142857Y-78345238D01*
X75047619Y-78250000D01*
X74904761Y-78202380D01*
X74809523Y-78202380D01*
X74666666Y-78250000D01*
X74619047Y-78297619D01*
X73904761Y-78202380D02*
X73904761Y-78916666D01*
X73952380Y-79059523D01*
X74047619Y-79154761D01*
X74190476Y-79202380D01*
X74285714Y-79202380D01*
X72952380Y-79202380D02*
X73428571Y-79202380D01*
X73428571Y-78202380D01*
X72047619Y-79107142D02*
X72095238Y-79154761D01*
X72238095Y-79202380D01*
X72333333Y-79202380D01*
X72476190Y-79154761D01*
X72571428Y-79059523D01*
X72619047Y-78964285D01*
X72666666Y-78773809D01*
X72666666Y-78630952D01*
X72619047Y-78440476D01*
X72571428Y-78345238D01*
X72476190Y-78250000D01*
X72333333Y-78202380D01*
X72238095Y-78202380D01*
X72095238Y-78250000D01*
X72047619Y-78297619D01*
X35230000Y-78270000D02*
X35230000Y-75730000D01*
X45390000Y-78270000D02*
X35230000Y-78270000D01*
X45390000Y-75730000D02*
X45390000Y-78270000D01*
X35230000Y-75730000D02*
X45390000Y-75730000D01*
X91447250Y-51703310D02*
X91447250Y-48153310D01*
X91347250Y-51853310D02*
X91347250Y-48103310D01*
X91247250Y-51953310D02*
X91247250Y-48003310D01*
X91147250Y-52053310D02*
X91147250Y-47853310D01*
X90997250Y-52153310D02*
X90997250Y-47753310D01*
X90847250Y-52203310D02*
X90847250Y-47703310D01*
X90697250Y-52253310D02*
X90697250Y-47703310D01*
X90547250Y-52253310D02*
X90547250Y-47653310D01*
X90397250Y-52253310D02*
X90397250Y-47653310D01*
X90247250Y-52253310D02*
X90247250Y-47653310D01*
X90097250Y-52253310D02*
X90097250Y-47653310D01*
X89947250Y-52253310D02*
X89947250Y-47653310D01*
X89797250Y-52253310D02*
X89797250Y-47653310D01*
X89647250Y-52253310D02*
X89647250Y-47653310D01*
X89497250Y-52253310D02*
X89497250Y-47653310D01*
X89347250Y-52253310D02*
X89347250Y-47653310D01*
X89197250Y-52253310D02*
X89197250Y-47653310D01*
X89047250Y-52253310D02*
X89047250Y-47653310D01*
X88897250Y-52253310D02*
X88897250Y-47653310D01*
X88747250Y-52253310D02*
X88747250Y-47653310D01*
X88597250Y-52253310D02*
X88597250Y-47653310D01*
X88447250Y-52253310D02*
X88447250Y-47653310D01*
X88297250Y-52253310D02*
X88297250Y-47653310D01*
X88147250Y-52253310D02*
X88147250Y-47703310D01*
X87997250Y-52253310D02*
X87997250Y-47653310D01*
X87847250Y-52253310D02*
X87847250Y-47653310D01*
X87697250Y-52203310D02*
X87697250Y-47653310D01*
X87547250Y-52103310D02*
X87547250Y-47553310D01*
X87397250Y-52003310D02*
X87397250Y-47503310D01*
X87297250Y-51853310D02*
X87297250Y-47453310D01*
X87197250Y-51603310D02*
X87197250Y-47403310D01*
X87097250Y-51453310D02*
X87097250Y-47303310D01*
X86997250Y-51253310D02*
X86997250Y-47103310D01*
X86897250Y-51103310D02*
X86897250Y-46953310D01*
X86797250Y-50903310D02*
X86797250Y-46453310D01*
X86647250Y-50753310D02*
X86647250Y-46303310D01*
X86497250Y-50603310D02*
X86497250Y-46203310D01*
X86347250Y-50503310D02*
X86347250Y-46103310D01*
X86197250Y-50403310D02*
X86197250Y-45953310D01*
X86047250Y-50303310D02*
X86047250Y-45853310D01*
X85897250Y-50253310D02*
X85897250Y-45703310D01*
X85747250Y-50153310D02*
X85747250Y-45603310D01*
X85597250Y-50103310D02*
X85597250Y-45503310D01*
X85447250Y-50103310D02*
X85447250Y-45453310D01*
X85297250Y-50103310D02*
X85297250Y-45453310D01*
X85147250Y-50053310D02*
X85147250Y-45503310D01*
X84997250Y-50053310D02*
X84997250Y-45453310D01*
X84847250Y-50053310D02*
X84847250Y-45453310D01*
X84697250Y-50053310D02*
X84697250Y-45453310D01*
X84547250Y-50053310D02*
X84547250Y-45453310D01*
X84397250Y-50053310D02*
X84397250Y-45453310D01*
X84247250Y-50053310D02*
X84247250Y-45453310D01*
X84097250Y-50053310D02*
X84097250Y-45453310D01*
X83947250Y-50053310D02*
X83947250Y-45453310D01*
X83797250Y-50053310D02*
X83797250Y-45453310D01*
X83647250Y-50053310D02*
X83647250Y-45453310D01*
X83497250Y-50053310D02*
X83497250Y-45453310D01*
X83347250Y-50053310D02*
X83347250Y-45453310D01*
X83197250Y-50053310D02*
X83197250Y-45453310D01*
X83047250Y-50053310D02*
X83047250Y-45453310D01*
X82897250Y-49903310D02*
X82897250Y-45553310D01*
X82747250Y-49803310D02*
X82747250Y-45703310D01*
X82597250Y-49653310D02*
X82597250Y-45853310D01*
X82447250Y-49503310D02*
X82447250Y-46003310D01*
X82297250Y-49303310D02*
X82297250Y-46153310D01*
X82147250Y-49203310D02*
X82147250Y-46303310D01*
X85572250Y-45428310D02*
X86847250Y-46453310D01*
X81997250Y-46453310D02*
X83022250Y-45428310D01*
X81997250Y-49053310D02*
X83022250Y-50078310D01*
X81997250Y-46453310D02*
X81997250Y-49053310D01*
X91597250Y-48628310D02*
X91597250Y-51278310D01*
X84997250Y-50078310D02*
X83022250Y-50078310D01*
X85572250Y-45428310D02*
X83022250Y-45428310D01*
X90597250Y-47628310D02*
X88022250Y-47628310D01*
X90597250Y-52278310D02*
X87997250Y-52278310D01*
X86847250Y-46453310D02*
G75*
G03*
X88022250Y-47628310I1175000J0D01*
G01*
X87135051Y-51575214D02*
G75*
G03*
X84997250Y-50078310I-2137801J-778096D01*
G01*
X91597250Y-48628310D02*
G75*
G03*
X90597250Y-47628310I-1000000J0D01*
G01*
X91597250Y-51278310D02*
G75*
G02*
X90597250Y-52278310I-1000000J0D01*
G01*
X87996255Y-52277101D02*
G75*
G02*
X87135051Y-51575214I38796J926887D01*
G01*
X109647330Y-52278310D02*
X107047330Y-52278310D01*
X109647330Y-47628310D02*
X107072330Y-47628310D01*
X104622330Y-45428310D02*
X102072330Y-45428310D01*
X104047330Y-50078310D02*
X102072330Y-50078310D01*
X110647330Y-48628310D02*
X110647330Y-51278310D01*
X101047330Y-46453310D02*
X101047330Y-49053310D01*
X101047330Y-49053310D02*
X102072330Y-50078310D01*
X101047330Y-46453310D02*
X102072330Y-45428310D01*
X104622330Y-45428310D02*
X105897330Y-46453310D01*
X101197330Y-49203310D02*
X101197330Y-46303310D01*
X101347330Y-49303310D02*
X101347330Y-46153310D01*
X101497330Y-49503310D02*
X101497330Y-46003310D01*
X101647330Y-49653310D02*
X101647330Y-45853310D01*
X101797330Y-49803310D02*
X101797330Y-45703310D01*
X101947330Y-49903310D02*
X101947330Y-45553310D01*
X102097330Y-50053310D02*
X102097330Y-45453310D01*
X102247330Y-50053310D02*
X102247330Y-45453310D01*
X102397330Y-50053310D02*
X102397330Y-45453310D01*
X102547330Y-50053310D02*
X102547330Y-45453310D01*
X102697330Y-50053310D02*
X102697330Y-45453310D01*
X102847330Y-50053310D02*
X102847330Y-45453310D01*
X102997330Y-50053310D02*
X102997330Y-45453310D01*
X103147330Y-50053310D02*
X103147330Y-45453310D01*
X103297330Y-50053310D02*
X103297330Y-45453310D01*
X103447330Y-50053310D02*
X103447330Y-45453310D01*
X103597330Y-50053310D02*
X103597330Y-45453310D01*
X103747330Y-50053310D02*
X103747330Y-45453310D01*
X103897330Y-50053310D02*
X103897330Y-45453310D01*
X104047330Y-50053310D02*
X104047330Y-45453310D01*
X104197330Y-50053310D02*
X104197330Y-45503310D01*
X104347330Y-50103310D02*
X104347330Y-45453310D01*
X104497330Y-50103310D02*
X104497330Y-45453310D01*
X104647330Y-50103310D02*
X104647330Y-45503310D01*
X104797330Y-50153310D02*
X104797330Y-45603310D01*
X104947330Y-50253310D02*
X104947330Y-45703310D01*
X105097330Y-50303310D02*
X105097330Y-45853310D01*
X105247330Y-50403310D02*
X105247330Y-45953310D01*
X105397330Y-50503310D02*
X105397330Y-46103310D01*
X105547330Y-50603310D02*
X105547330Y-46203310D01*
X105697330Y-50753310D02*
X105697330Y-46303310D01*
X105847330Y-50903310D02*
X105847330Y-46453310D01*
X105947330Y-51103310D02*
X105947330Y-46953310D01*
X106047330Y-51253310D02*
X106047330Y-47103310D01*
X106147330Y-51453310D02*
X106147330Y-47303310D01*
X106247330Y-51603310D02*
X106247330Y-47403310D01*
X106347330Y-51853310D02*
X106347330Y-47453310D01*
X106447330Y-52003310D02*
X106447330Y-47503310D01*
X106597330Y-52103310D02*
X106597330Y-47553310D01*
X106747330Y-52203310D02*
X106747330Y-47653310D01*
X106897330Y-52253310D02*
X106897330Y-47653310D01*
X107047330Y-52253310D02*
X107047330Y-47653310D01*
X107197330Y-52253310D02*
X107197330Y-47703310D01*
X107347330Y-52253310D02*
X107347330Y-47653310D01*
X107497330Y-52253310D02*
X107497330Y-47653310D01*
X107647330Y-52253310D02*
X107647330Y-47653310D01*
X107797330Y-52253310D02*
X107797330Y-47653310D01*
X107947330Y-52253310D02*
X107947330Y-47653310D01*
X108097330Y-52253310D02*
X108097330Y-47653310D01*
X108247330Y-52253310D02*
X108247330Y-47653310D01*
X108397330Y-52253310D02*
X108397330Y-47653310D01*
X108547330Y-52253310D02*
X108547330Y-47653310D01*
X108697330Y-52253310D02*
X108697330Y-47653310D01*
X108847330Y-52253310D02*
X108847330Y-47653310D01*
X108997330Y-52253310D02*
X108997330Y-47653310D01*
X109147330Y-52253310D02*
X109147330Y-47653310D01*
X109297330Y-52253310D02*
X109297330Y-47653310D01*
X109447330Y-52253310D02*
X109447330Y-47653310D01*
X109597330Y-52253310D02*
X109597330Y-47653310D01*
X109747330Y-52253310D02*
X109747330Y-47703310D01*
X109897330Y-52203310D02*
X109897330Y-47703310D01*
X110047330Y-52153310D02*
X110047330Y-47753310D01*
X110197330Y-52053310D02*
X110197330Y-47853310D01*
X110297330Y-51953310D02*
X110297330Y-48003310D01*
X110397330Y-51853310D02*
X110397330Y-48103310D01*
X110497330Y-51703310D02*
X110497330Y-48153310D01*
X107046335Y-52277101D02*
G75*
G02*
X106185131Y-51575214I38796J926887D01*
G01*
X110647330Y-51278310D02*
G75*
G02*
X109647330Y-52278310I-1000000J0D01*
G01*
X110647330Y-48628310D02*
G75*
G03*
X109647330Y-47628310I-1000000J0D01*
G01*
X106185131Y-51575214D02*
G75*
G03*
X104047330Y-50078310I-2137801J-778096D01*
G01*
X105897330Y-46453310D02*
G75*
G03*
X107072330Y-47628310I1175000J0D01*
G01*
X71547170Y-71328390D02*
X68947170Y-71328390D01*
X71547170Y-66678390D02*
X68972170Y-66678390D01*
X66522170Y-64478390D02*
X63972170Y-64478390D01*
X65947170Y-69128390D02*
X63972170Y-69128390D01*
X72547170Y-67678390D02*
X72547170Y-70328390D01*
X62947170Y-65503390D02*
X62947170Y-68103390D01*
X62947170Y-68103390D02*
X63972170Y-69128390D01*
X62947170Y-65503390D02*
X63972170Y-64478390D01*
X66522170Y-64478390D02*
X67797170Y-65503390D01*
X63097170Y-68253390D02*
X63097170Y-65353390D01*
X63247170Y-68353390D02*
X63247170Y-65203390D01*
X63397170Y-68553390D02*
X63397170Y-65053390D01*
X63547170Y-68703390D02*
X63547170Y-64903390D01*
X63697170Y-68853390D02*
X63697170Y-64753390D01*
X63847170Y-68953390D02*
X63847170Y-64603390D01*
X63997170Y-69103390D02*
X63997170Y-64503390D01*
X64147170Y-69103390D02*
X64147170Y-64503390D01*
X64297170Y-69103390D02*
X64297170Y-64503390D01*
X64447170Y-69103390D02*
X64447170Y-64503390D01*
X64597170Y-69103390D02*
X64597170Y-64503390D01*
X64747170Y-69103390D02*
X64747170Y-64503390D01*
X64897170Y-69103390D02*
X64897170Y-64503390D01*
X65047170Y-69103390D02*
X65047170Y-64503390D01*
X65197170Y-69103390D02*
X65197170Y-64503390D01*
X65347170Y-69103390D02*
X65347170Y-64503390D01*
X65497170Y-69103390D02*
X65497170Y-64503390D01*
X65647170Y-69103390D02*
X65647170Y-64503390D01*
X65797170Y-69103390D02*
X65797170Y-64503390D01*
X65947170Y-69103390D02*
X65947170Y-64503390D01*
X66097170Y-69103390D02*
X66097170Y-64553390D01*
X66247170Y-69153390D02*
X66247170Y-64503390D01*
X66397170Y-69153390D02*
X66397170Y-64503390D01*
X66547170Y-69153390D02*
X66547170Y-64553390D01*
X66697170Y-69203390D02*
X66697170Y-64653390D01*
X66847170Y-69303390D02*
X66847170Y-64753390D01*
X66997170Y-69353390D02*
X66997170Y-64903390D01*
X67147170Y-69453390D02*
X67147170Y-65003390D01*
X67297170Y-69553390D02*
X67297170Y-65153390D01*
X67447170Y-69653390D02*
X67447170Y-65253390D01*
X67597170Y-69803390D02*
X67597170Y-65353390D01*
X67747170Y-69953390D02*
X67747170Y-65503390D01*
X67847170Y-70153390D02*
X67847170Y-66003390D01*
X67947170Y-70303390D02*
X67947170Y-66153390D01*
X68047170Y-70503390D02*
X68047170Y-66353390D01*
X68147170Y-70653390D02*
X68147170Y-66453390D01*
X68247170Y-70903390D02*
X68247170Y-66503390D01*
X68347170Y-71053390D02*
X68347170Y-66553390D01*
X68497170Y-71153390D02*
X68497170Y-66603390D01*
X68647170Y-71253390D02*
X68647170Y-66703390D01*
X68797170Y-71303390D02*
X68797170Y-66703390D01*
X68947170Y-71303390D02*
X68947170Y-66703390D01*
X69097170Y-71303390D02*
X69097170Y-66753390D01*
X69247170Y-71303390D02*
X69247170Y-66703390D01*
X69397170Y-71303390D02*
X69397170Y-66703390D01*
X69547170Y-71303390D02*
X69547170Y-66703390D01*
X69697170Y-71303390D02*
X69697170Y-66703390D01*
X69847170Y-71303390D02*
X69847170Y-66703390D01*
X69997170Y-71303390D02*
X69997170Y-66703390D01*
X70147170Y-71303390D02*
X70147170Y-66703390D01*
X70297170Y-71303390D02*
X70297170Y-66703390D01*
X70447170Y-71303390D02*
X70447170Y-66703390D01*
X70597170Y-71303390D02*
X70597170Y-66703390D01*
X70747170Y-71303390D02*
X70747170Y-66703390D01*
X70897170Y-71303390D02*
X70897170Y-66703390D01*
X71047170Y-71303390D02*
X71047170Y-66703390D01*
X71197170Y-71303390D02*
X71197170Y-66703390D01*
X71347170Y-71303390D02*
X71347170Y-66703390D01*
X71497170Y-71303390D02*
X71497170Y-66703390D01*
X71647170Y-71303390D02*
X71647170Y-66753390D01*
X71797170Y-71253390D02*
X71797170Y-66753390D01*
X71947170Y-71203390D02*
X71947170Y-66803390D01*
X72097170Y-71103390D02*
X72097170Y-66903390D01*
X72197170Y-71003390D02*
X72197170Y-67053390D01*
X72297170Y-70903390D02*
X72297170Y-67153390D01*
X72397170Y-70753390D02*
X72397170Y-67203390D01*
X68946175Y-71327181D02*
G75*
G02*
X68084971Y-70625294I38796J926887D01*
G01*
X72547170Y-70328390D02*
G75*
G02*
X71547170Y-71328390I-1000000J0D01*
G01*
X72547170Y-67678390D02*
G75*
G03*
X71547170Y-66678390I-1000000J0D01*
G01*
X68084971Y-70625294D02*
G75*
G03*
X65947170Y-69128390I-2137801J-778096D01*
G01*
X67797170Y-65503390D02*
G75*
G03*
X68972170Y-66678390I1175000J0D01*
G01*
X90597250Y-71328390D02*
X87997250Y-71328390D01*
X90597250Y-66678390D02*
X88022250Y-66678390D01*
X85572250Y-64478390D02*
X83022250Y-64478390D01*
X84997250Y-69128390D02*
X83022250Y-69128390D01*
X91597250Y-67678390D02*
X91597250Y-70328390D01*
X81997250Y-65503390D02*
X81997250Y-68103390D01*
X81997250Y-68103390D02*
X83022250Y-69128390D01*
X81997250Y-65503390D02*
X83022250Y-64478390D01*
X85572250Y-64478390D02*
X86847250Y-65503390D01*
X82147250Y-68253390D02*
X82147250Y-65353390D01*
X82297250Y-68353390D02*
X82297250Y-65203390D01*
X82447250Y-68553390D02*
X82447250Y-65053390D01*
X82597250Y-68703390D02*
X82597250Y-64903390D01*
X82747250Y-68853390D02*
X82747250Y-64753390D01*
X82897250Y-68953390D02*
X82897250Y-64603390D01*
X83047250Y-69103390D02*
X83047250Y-64503390D01*
X83197250Y-69103390D02*
X83197250Y-64503390D01*
X83347250Y-69103390D02*
X83347250Y-64503390D01*
X83497250Y-69103390D02*
X83497250Y-64503390D01*
X83647250Y-69103390D02*
X83647250Y-64503390D01*
X83797250Y-69103390D02*
X83797250Y-64503390D01*
X83947250Y-69103390D02*
X83947250Y-64503390D01*
X84097250Y-69103390D02*
X84097250Y-64503390D01*
X84247250Y-69103390D02*
X84247250Y-64503390D01*
X84397250Y-69103390D02*
X84397250Y-64503390D01*
X84547250Y-69103390D02*
X84547250Y-64503390D01*
X84697250Y-69103390D02*
X84697250Y-64503390D01*
X84847250Y-69103390D02*
X84847250Y-64503390D01*
X84997250Y-69103390D02*
X84997250Y-64503390D01*
X85147250Y-69103390D02*
X85147250Y-64553390D01*
X85297250Y-69153390D02*
X85297250Y-64503390D01*
X85447250Y-69153390D02*
X85447250Y-64503390D01*
X85597250Y-69153390D02*
X85597250Y-64553390D01*
X85747250Y-69203390D02*
X85747250Y-64653390D01*
X85897250Y-69303390D02*
X85897250Y-64753390D01*
X86047250Y-69353390D02*
X86047250Y-64903390D01*
X86197250Y-69453390D02*
X86197250Y-65003390D01*
X86347250Y-69553390D02*
X86347250Y-65153390D01*
X86497250Y-69653390D02*
X86497250Y-65253390D01*
X86647250Y-69803390D02*
X86647250Y-65353390D01*
X86797250Y-69953390D02*
X86797250Y-65503390D01*
X86897250Y-70153390D02*
X86897250Y-66003390D01*
X86997250Y-70303390D02*
X86997250Y-66153390D01*
X87097250Y-70503390D02*
X87097250Y-66353390D01*
X87197250Y-70653390D02*
X87197250Y-66453390D01*
X87297250Y-70903390D02*
X87297250Y-66503390D01*
X87397250Y-71053390D02*
X87397250Y-66553390D01*
X87547250Y-71153390D02*
X87547250Y-66603390D01*
X87697250Y-71253390D02*
X87697250Y-66703390D01*
X87847250Y-71303390D02*
X87847250Y-66703390D01*
X87997250Y-71303390D02*
X87997250Y-66703390D01*
X88147250Y-71303390D02*
X88147250Y-66753390D01*
X88297250Y-71303390D02*
X88297250Y-66703390D01*
X88447250Y-71303390D02*
X88447250Y-66703390D01*
X88597250Y-71303390D02*
X88597250Y-66703390D01*
X88747250Y-71303390D02*
X88747250Y-66703390D01*
X88897250Y-71303390D02*
X88897250Y-66703390D01*
X89047250Y-71303390D02*
X89047250Y-66703390D01*
X89197250Y-71303390D02*
X89197250Y-66703390D01*
X89347250Y-71303390D02*
X89347250Y-66703390D01*
X89497250Y-71303390D02*
X89497250Y-66703390D01*
X89647250Y-71303390D02*
X89647250Y-66703390D01*
X89797250Y-71303390D02*
X89797250Y-66703390D01*
X89947250Y-71303390D02*
X89947250Y-66703390D01*
X90097250Y-71303390D02*
X90097250Y-66703390D01*
X90247250Y-71303390D02*
X90247250Y-66703390D01*
X90397250Y-71303390D02*
X90397250Y-66703390D01*
X90547250Y-71303390D02*
X90547250Y-66703390D01*
X90697250Y-71303390D02*
X90697250Y-66753390D01*
X90847250Y-71253390D02*
X90847250Y-66753390D01*
X90997250Y-71203390D02*
X90997250Y-66803390D01*
X91147250Y-71103390D02*
X91147250Y-66903390D01*
X91247250Y-71003390D02*
X91247250Y-67053390D01*
X91347250Y-70903390D02*
X91347250Y-67153390D01*
X91447250Y-70753390D02*
X91447250Y-67203390D01*
X87996255Y-71327181D02*
G75*
G02*
X87135051Y-70625294I38796J926887D01*
G01*
X91597250Y-70328390D02*
G75*
G02*
X90597250Y-71328390I-1000000J0D01*
G01*
X91597250Y-67678390D02*
G75*
G03*
X90597250Y-66678390I-1000000J0D01*
G01*
X87135051Y-70625294D02*
G75*
G03*
X84997250Y-69128390I-2137801J-778096D01*
G01*
X86847250Y-65503390D02*
G75*
G03*
X88022250Y-66678390I1175000J0D01*
G01*
X110497330Y-70753390D02*
X110497330Y-67203390D01*
X110397330Y-70903390D02*
X110397330Y-67153390D01*
X110297330Y-71003390D02*
X110297330Y-67053390D01*
X110197330Y-71103390D02*
X110197330Y-66903390D01*
X110047330Y-71203390D02*
X110047330Y-66803390D01*
X109897330Y-71253390D02*
X109897330Y-66753390D01*
X109747330Y-71303390D02*
X109747330Y-66753390D01*
X109597330Y-71303390D02*
X109597330Y-66703390D01*
X109447330Y-71303390D02*
X109447330Y-66703390D01*
X109297330Y-71303390D02*
X109297330Y-66703390D01*
X109147330Y-71303390D02*
X109147330Y-66703390D01*
X108997330Y-71303390D02*
X108997330Y-66703390D01*
X108847330Y-71303390D02*
X108847330Y-66703390D01*
X108697330Y-71303390D02*
X108697330Y-66703390D01*
X108547330Y-71303390D02*
X108547330Y-66703390D01*
X108397330Y-71303390D02*
X108397330Y-66703390D01*
X108247330Y-71303390D02*
X108247330Y-66703390D01*
X108097330Y-71303390D02*
X108097330Y-66703390D01*
X107947330Y-71303390D02*
X107947330Y-66703390D01*
X107797330Y-71303390D02*
X107797330Y-66703390D01*
X107647330Y-71303390D02*
X107647330Y-66703390D01*
X107497330Y-71303390D02*
X107497330Y-66703390D01*
X107347330Y-71303390D02*
X107347330Y-66703390D01*
X107197330Y-71303390D02*
X107197330Y-66753390D01*
X107047330Y-71303390D02*
X107047330Y-66703390D01*
X106897330Y-71303390D02*
X106897330Y-66703390D01*
X106747330Y-71253390D02*
X106747330Y-66703390D01*
X106597330Y-71153390D02*
X106597330Y-66603390D01*
X106447330Y-71053390D02*
X106447330Y-66553390D01*
X106347330Y-70903390D02*
X106347330Y-66503390D01*
X106247330Y-70653390D02*
X106247330Y-66453390D01*
X106147330Y-70503390D02*
X106147330Y-66353390D01*
X106047330Y-70303390D02*
X106047330Y-66153390D01*
X105947330Y-70153390D02*
X105947330Y-66003390D01*
X105847330Y-69953390D02*
X105847330Y-65503390D01*
X105697330Y-69803390D02*
X105697330Y-65353390D01*
X105547330Y-69653390D02*
X105547330Y-65253390D01*
X105397330Y-69553390D02*
X105397330Y-65153390D01*
X105247330Y-69453390D02*
X105247330Y-65003390D01*
X105097330Y-69353390D02*
X105097330Y-64903390D01*
X104947330Y-69303390D02*
X104947330Y-64753390D01*
X104797330Y-69203390D02*
X104797330Y-64653390D01*
X104647330Y-69153390D02*
X104647330Y-64553390D01*
X104497330Y-69153390D02*
X104497330Y-64503390D01*
X104347330Y-69153390D02*
X104347330Y-64503390D01*
X104197330Y-69103390D02*
X104197330Y-64553390D01*
X104047330Y-69103390D02*
X104047330Y-64503390D01*
X103897330Y-69103390D02*
X103897330Y-64503390D01*
X103747330Y-69103390D02*
X103747330Y-64503390D01*
X103597330Y-69103390D02*
X103597330Y-64503390D01*
X103447330Y-69103390D02*
X103447330Y-64503390D01*
X103297330Y-69103390D02*
X103297330Y-64503390D01*
X103147330Y-69103390D02*
X103147330Y-64503390D01*
X102997330Y-69103390D02*
X102997330Y-64503390D01*
X102847330Y-69103390D02*
X102847330Y-64503390D01*
X102697330Y-69103390D02*
X102697330Y-64503390D01*
X102547330Y-69103390D02*
X102547330Y-64503390D01*
X102397330Y-69103390D02*
X102397330Y-64503390D01*
X102247330Y-69103390D02*
X102247330Y-64503390D01*
X102097330Y-69103390D02*
X102097330Y-64503390D01*
X101947330Y-68953390D02*
X101947330Y-64603390D01*
X101797330Y-68853390D02*
X101797330Y-64753390D01*
X101647330Y-68703390D02*
X101647330Y-64903390D01*
X101497330Y-68553390D02*
X101497330Y-65053390D01*
X101347330Y-68353390D02*
X101347330Y-65203390D01*
X101197330Y-68253390D02*
X101197330Y-65353390D01*
X104622330Y-64478390D02*
X105897330Y-65503390D01*
X101047330Y-65503390D02*
X102072330Y-64478390D01*
X101047330Y-68103390D02*
X102072330Y-69128390D01*
X101047330Y-65503390D02*
X101047330Y-68103390D01*
X110647330Y-67678390D02*
X110647330Y-70328390D01*
X104047330Y-69128390D02*
X102072330Y-69128390D01*
X104622330Y-64478390D02*
X102072330Y-64478390D01*
X109647330Y-66678390D02*
X107072330Y-66678390D01*
X109647330Y-71328390D02*
X107047330Y-71328390D01*
X105897330Y-65503390D02*
G75*
G03*
X107072330Y-66678390I1175000J0D01*
G01*
X106185131Y-70625294D02*
G75*
G03*
X104047330Y-69128390I-2137801J-778096D01*
G01*
X110647330Y-67678390D02*
G75*
G03*
X109647330Y-66678390I-1000000J0D01*
G01*
X110647330Y-70328390D02*
G75*
G02*
X109647330Y-71328390I-1000000J0D01*
G01*
X107046335Y-71327181D02*
G75*
G02*
X106185131Y-70625294I38796J926887D01*
G01*
D11*
G36*
X48617825Y-34403033D02*
G01*
X47685609Y-34532151D01*
X46785999Y-34752012D01*
X45901645Y-35066435D01*
X45413897Y-35281797D01*
X44944215Y-35503223D01*
X45179451Y-35747506D01*
X45358428Y-35945113D01*
X45572097Y-36200001D01*
X45810557Y-36498534D01*
X46063909Y-36827077D01*
X46322251Y-37171992D01*
X46575684Y-37519645D01*
X46814308Y-37856398D01*
X47028222Y-38168616D01*
X47207526Y-38442663D01*
X47342320Y-38664901D01*
X47422704Y-38821696D01*
X47434676Y-38853766D01*
X47489745Y-38947187D01*
X47551530Y-38936358D01*
X47594828Y-38852343D01*
X47679624Y-38694403D01*
X47821725Y-38525021D01*
X47984847Y-38384510D01*
X48054040Y-38342161D01*
X48163930Y-38294748D01*
X48230837Y-38313919D01*
X48299640Y-38405474D01*
X48358975Y-38549805D01*
X48401613Y-38758131D01*
X48414128Y-38882859D01*
X48435474Y-39218092D01*
X48787514Y-38977077D01*
X49244383Y-38697840D01*
X49781307Y-38425326D01*
X50371445Y-38169567D01*
X50987956Y-37940592D01*
X51603999Y-37748430D01*
X52192733Y-37603112D01*
X52688850Y-37519210D01*
X53100958Y-37491997D01*
X53489073Y-37510241D01*
X53837618Y-37569964D01*
X54131019Y-37667190D01*
X54353700Y-37797940D01*
X54490087Y-37958237D01*
X54501056Y-37981967D01*
X54551730Y-38138320D01*
X54568095Y-38303160D01*
X54549124Y-38504035D01*
X54493789Y-38768492D01*
X54467831Y-38872621D01*
X54243063Y-39539446D01*
X53918462Y-40181686D01*
X53500221Y-40788747D01*
X53053283Y-41291834D01*
X52706908Y-41609025D01*
X52386363Y-41834970D01*
X52077841Y-41977756D01*
X51767537Y-42045469D01*
X51766256Y-42045602D01*
X51487407Y-42074381D01*
X51666605Y-42371969D01*
X51902124Y-42837225D01*
X52073052Y-43332743D01*
X52173320Y-43832325D01*
X52196862Y-44309771D01*
X52173697Y-44561489D01*
X52060822Y-45012241D01*
X51870098Y-45390699D01*
X51600582Y-45697722D01*
X51251326Y-45934167D01*
X50821387Y-46100894D01*
X50380589Y-46189954D01*
X49835454Y-46221349D01*
X49339264Y-46164439D01*
X48897184Y-46020527D01*
X48514379Y-45790915D01*
X48393304Y-45688660D01*
X48185163Y-45473272D01*
X48006033Y-45230961D01*
X47848123Y-44945630D01*
X47703645Y-44601180D01*
X47564811Y-44181513D01*
X47431810Y-43701425D01*
X47364326Y-43445305D01*
X47305227Y-43228988D01*
X47260081Y-43072275D01*
X47234454Y-42994970D01*
X47231952Y-42990549D01*
X47210486Y-43026302D01*
X47176074Y-43140526D01*
X47143258Y-43277250D01*
X47077587Y-43526126D01*
X46983250Y-43819877D01*
X46871804Y-44127923D01*
X46754803Y-44419688D01*
X46643803Y-44664594D01*
X46562918Y-44812901D01*
X46426367Y-45028842D01*
X46380221Y-44868421D01*
X46362851Y-44715397D01*
X46369364Y-44484563D01*
X46396596Y-44201579D01*
X46441384Y-43892104D01*
X46500563Y-43581799D01*
X46570969Y-43296325D01*
X46576392Y-43277398D01*
X46696754Y-42861842D01*
X46156482Y-43386337D01*
X45804062Y-43719523D01*
X45501668Y-43983763D01*
X45231385Y-44192709D01*
X44975301Y-44360011D01*
X44715502Y-44499320D01*
X44663396Y-44524147D01*
X44259908Y-44666902D01*
X43847681Y-44728468D01*
X43456524Y-44705155D01*
X43363252Y-44685063D01*
X43044756Y-44560130D01*
X42713604Y-44351202D01*
X42389472Y-44076229D01*
X42092035Y-43753159D01*
X41840969Y-43399941D01*
X41725863Y-43191409D01*
X41640356Y-43007123D01*
X41588647Y-42854910D01*
X41562514Y-42694979D01*
X41553732Y-42487540D01*
X41553273Y-42356282D01*
X41571040Y-42019715D01*
X41631390Y-41741016D01*
X41747379Y-41488589D01*
X41932065Y-41230839D01*
X42094823Y-41045816D01*
X42319836Y-40829947D01*
X42604764Y-40595707D01*
X42912956Y-40370687D01*
X43207761Y-40182477D01*
X43333191Y-40113599D01*
X43509961Y-40023224D01*
X43348228Y-39839020D01*
X43128036Y-39552205D01*
X42909090Y-39203015D01*
X42717143Y-38833177D01*
X42688527Y-38770074D01*
X42588824Y-38528204D01*
X42494047Y-38268956D01*
X42413137Y-38020120D01*
X42355033Y-37809486D01*
X42328678Y-37664844D01*
X42328003Y-37649474D01*
X42318864Y-37591335D01*
X42281400Y-37604515D01*
X42198091Y-37695912D01*
X42192164Y-37702947D01*
X41539589Y-38549859D01*
X40991366Y-39415770D01*
X40545934Y-40304855D01*
X40201730Y-41221289D01*
X39957192Y-42169245D01*
X39810758Y-43152899D01*
X39760866Y-44176425D01*
X39760842Y-44200000D01*
X39811613Y-45241626D01*
X39963357Y-46248499D01*
X40215223Y-47218561D01*
X40566356Y-48149757D01*
X41015903Y-49040030D01*
X41563014Y-49887325D01*
X42206833Y-50689585D01*
X42645359Y-51154641D01*
X43412939Y-51852294D01*
X44224580Y-52453203D01*
X45083152Y-52958819D01*
X45991528Y-53370593D01*
X46952579Y-53689975D01*
X47969178Y-53918416D01*
X48189328Y-53954867D01*
X48584326Y-53999882D01*
X49051874Y-54026736D01*
X49559173Y-54035667D01*
X50073422Y-54026914D01*
X50561822Y-54000716D01*
X50991570Y-53957310D01*
X51150737Y-53933317D01*
X52173205Y-53710126D01*
X53136275Y-53398815D01*
X54044236Y-52997175D01*
X54901379Y-52503003D01*
X55711995Y-51914091D01*
X56480373Y-51228233D01*
X56554641Y-51154641D01*
X57256865Y-50380779D01*
X57862898Y-49560630D01*
X58248564Y-48905684D01*
X54907563Y-48905684D01*
X54871290Y-49132947D01*
X54829761Y-49306682D01*
X54772109Y-49453418D01*
X54757230Y-49479070D01*
X54624252Y-49594018D01*
X54418065Y-49669621D01*
X54166725Y-49700919D01*
X53898291Y-49682954D01*
X53766976Y-49654099D01*
X53534351Y-49542967D01*
X53380937Y-49360276D01*
X53305890Y-49104976D01*
X53302787Y-49076706D01*
X53300760Y-48845597D01*
X53354072Y-48663716D01*
X53476249Y-48511842D01*
X53680815Y-48370757D01*
X53867529Y-48274217D01*
X54067110Y-48176178D01*
X54188832Y-48105083D01*
X54251902Y-48042979D01*
X54275529Y-47971914D01*
X54278947Y-47889684D01*
X54269092Y-47762656D01*
X54219142Y-47706396D01*
X54104508Y-47685722D01*
X53981759Y-47685650D01*
X53923733Y-47736677D01*
X53897298Y-47832774D01*
X53870550Y-47930167D01*
X53820544Y-47978545D01*
X53716077Y-47994984D01*
X53597891Y-47996632D01*
X53331256Y-47996632D01*
X53367602Y-47802891D01*
X53430337Y-47584729D01*
X53534837Y-47440764D01*
X53705068Y-47339739D01*
X53730870Y-47329090D01*
X53838112Y-47301474D01*
X53236210Y-47301474D01*
X53236210Y-47729263D01*
X52701474Y-47729263D01*
X52701474Y-49654316D01*
X52220210Y-49654316D01*
X52220210Y-47729263D01*
X51685474Y-47729263D01*
X51685474Y-47301474D01*
X51525053Y-47301474D01*
X51525053Y-49654316D01*
X51043789Y-49654316D01*
X51034413Y-48130316D01*
X50864620Y-48878947D01*
X50694827Y-49627579D01*
X50480510Y-49643423D01*
X50266193Y-49659268D01*
X49947579Y-48183790D01*
X49932701Y-48919053D01*
X49917824Y-49654316D01*
X49439579Y-49654316D01*
X49439579Y-48960332D01*
X49172210Y-48960332D01*
X49129306Y-49252091D01*
X49009497Y-49478688D01*
X48826138Y-49631122D01*
X48592583Y-49700394D01*
X48322188Y-49677503D01*
X48253166Y-49654316D01*
X47728421Y-49654316D01*
X47458403Y-49654316D01*
X47460211Y-49547369D01*
X47193684Y-49547369D01*
X47187628Y-49591634D01*
X47157912Y-49621651D01*
X47087218Y-49640173D01*
X46958225Y-49649952D01*
X46753614Y-49653744D01*
X46521014Y-49654316D01*
X45848344Y-49654316D01*
X45886143Y-49480526D01*
X45930117Y-49308841D01*
X45988065Y-49167063D01*
X46076055Y-49031025D01*
X46210161Y-48876560D01*
X46406451Y-48679501D01*
X46441289Y-48645706D01*
X46617465Y-48467551D01*
X46764617Y-48304368D01*
X46864826Y-48176903D01*
X46898736Y-48116108D01*
X46906607Y-47929845D01*
X46841325Y-47745598D01*
X46721218Y-47604910D01*
X46656939Y-47568010D01*
X46479836Y-47542326D01*
X46329263Y-47615212D01*
X46215960Y-47779464D01*
X46177723Y-47889541D01*
X46127522Y-48030769D01*
X46063439Y-48092734D01*
X45991827Y-48103579D01*
X45909629Y-48093439D01*
X45880920Y-48042714D01*
X45890745Y-47920948D01*
X45893366Y-47903053D01*
X45966281Y-47648669D01*
X46103885Y-47471179D01*
X46270698Y-47372888D01*
X46516410Y-47317280D01*
X46752048Y-47346733D01*
X46953643Y-47451369D01*
X47097224Y-47621309D01*
X47140803Y-47731464D01*
X47177867Y-47941206D01*
X47161454Y-48130120D01*
X47082990Y-48316733D01*
X46933903Y-48519575D01*
X46705619Y-48757175D01*
X46635252Y-48824099D01*
X46404872Y-49045405D01*
X46256442Y-49206532D01*
X46190735Y-49316930D01*
X46208526Y-49386048D01*
X46310586Y-49423336D01*
X46497689Y-49438242D01*
X46685684Y-49440421D01*
X46921791Y-49442036D01*
X47070806Y-49449665D01*
X47152565Y-49467485D01*
X47186908Y-49499672D01*
X47193684Y-49547369D01*
X47460211Y-49547369D01*
X47473096Y-48785369D01*
X47479023Y-48462787D01*
X47485760Y-48231525D01*
X47495687Y-48075963D01*
X47511184Y-47980485D01*
X47534630Y-47929473D01*
X47568406Y-47907310D01*
X47608105Y-47899334D01*
X47728421Y-47882246D01*
X47728421Y-49654316D01*
X48253166Y-49654316D01*
X48179305Y-49629504D01*
X47998272Y-49502643D01*
X47913654Y-49363853D01*
X47848626Y-49179041D01*
X47844784Y-49069049D01*
X47904404Y-49019434D01*
X47969053Y-49012632D01*
X48073458Y-49037291D01*
X48102737Y-49122010D01*
X48148267Y-49254970D01*
X48260775Y-49382867D01*
X48404139Y-49472217D01*
X48503912Y-49493895D01*
X48667491Y-49445057D01*
X48802842Y-49316769D01*
X48887552Y-49136369D01*
X48904842Y-49004823D01*
X48862428Y-48791464D01*
X48734914Y-48642712D01*
X48521897Y-48558111D01*
X48506772Y-48555137D01*
X48368931Y-48510612D01*
X48318051Y-48438321D01*
X48316631Y-48418470D01*
X48345228Y-48343404D01*
X48447313Y-48317981D01*
X48474969Y-48317474D01*
X48652836Y-48271514D01*
X48780577Y-48151608D01*
X48843505Y-47984711D01*
X48826935Y-47797782D01*
X48796669Y-47726973D01*
X48675055Y-47590567D01*
X48521388Y-47539312D01*
X48363064Y-47569451D01*
X48227477Y-47677232D01*
X48154387Y-47814999D01*
X48091922Y-47945052D01*
X48005078Y-47993928D01*
X47966584Y-47996632D01*
X47872758Y-47973889D01*
X47859317Y-47929790D01*
X47885779Y-47829386D01*
X47911760Y-47717375D01*
X48000276Y-47529344D01*
X48112593Y-47435158D01*
X47728421Y-47435158D01*
X47718433Y-47561725D01*
X47673486Y-47613539D01*
X47594737Y-47622316D01*
X47504332Y-47608333D01*
X47467321Y-47545408D01*
X47461053Y-47435158D01*
X47471041Y-47308591D01*
X47515987Y-47256776D01*
X47594737Y-47248000D01*
X45536000Y-47248000D01*
X45536000Y-49654316D01*
X45268631Y-49654316D01*
X45268631Y-49090187D01*
X45255986Y-48729234D01*
X45214157Y-48461728D01*
X45137308Y-48276744D01*
X45019599Y-48163363D01*
X44855193Y-48110660D01*
X44741291Y-48103579D01*
X44571368Y-48150530D01*
X44470407Y-48244475D01*
X44422367Y-48316941D01*
X44390458Y-48403864D01*
X44371489Y-48527567D01*
X44362270Y-48710372D01*
X44359610Y-48974604D01*
X44359579Y-49019843D01*
X44359579Y-49654316D01*
X44092210Y-49654316D01*
X43664421Y-49654316D01*
X43394403Y-49654316D01*
X43409096Y-48785369D01*
X43415023Y-48462787D01*
X43421760Y-48231525D01*
X43431687Y-48075963D01*
X43447184Y-47980485D01*
X43470630Y-47929473D01*
X43504406Y-47907310D01*
X43544105Y-47899334D01*
X43664421Y-47882246D01*
X43664421Y-49654316D01*
X44092210Y-49654316D01*
X44093486Y-49106211D01*
X44102267Y-48736463D01*
X44129007Y-48456535D01*
X44177235Y-48250276D01*
X44250481Y-48101535D01*
X44333024Y-48010000D01*
X44514274Y-47916163D01*
X44738912Y-47885324D01*
X44963532Y-47918000D01*
X45127736Y-48000513D01*
X45268631Y-48111341D01*
X45268631Y-47679671D01*
X45270025Y-47466338D01*
X45272133Y-47435158D01*
X43664421Y-47435158D01*
X43654433Y-47561725D01*
X43609486Y-47613539D01*
X43530737Y-47622316D01*
X43440332Y-47608333D01*
X43403321Y-47545408D01*
X43397053Y-47435158D01*
X43407041Y-47308591D01*
X43451987Y-47256776D01*
X43530737Y-47248000D01*
X43621142Y-47261983D01*
X43658152Y-47324908D01*
X43664421Y-47435158D01*
X45272133Y-47435158D01*
X45278690Y-47338229D01*
X45301355Y-47273619D01*
X45344747Y-47250787D01*
X45402316Y-47248000D01*
X45536000Y-47248000D01*
X47594737Y-47248000D01*
X47685142Y-47261983D01*
X47722152Y-47324908D01*
X47728421Y-47435158D01*
X48112593Y-47435158D01*
X48154556Y-47399969D01*
X48350075Y-47330582D01*
X48562310Y-47322518D01*
X48766736Y-47377108D01*
X48938828Y-47495687D01*
X49044780Y-47655773D01*
X49098303Y-47890427D01*
X49072596Y-48117761D01*
X48972289Y-48302650D01*
X48957390Y-48318400D01*
X48897373Y-48386813D01*
X48894908Y-48442899D01*
X48957596Y-48521702D01*
X49013846Y-48578672D01*
X49126905Y-48722521D01*
X49169305Y-48881327D01*
X49172210Y-48960332D01*
X49439579Y-48960332D01*
X49439579Y-47301474D01*
X50173908Y-47301474D01*
X50325127Y-48063474D01*
X50384017Y-48356338D01*
X50426912Y-48555071D01*
X50457698Y-48670626D01*
X50480259Y-48713955D01*
X50498482Y-48696011D01*
X50516252Y-48627746D01*
X50519577Y-48611579D01*
X50549141Y-48466746D01*
X50593384Y-48251713D01*
X50645198Y-48000985D01*
X50676586Y-47849579D01*
X50790362Y-47301474D01*
X51525053Y-47301474D01*
X51685474Y-47301474D01*
X53236210Y-47301474D01*
X53838112Y-47301474D01*
X54029333Y-47252233D01*
X54301437Y-47261952D01*
X54532722Y-47350380D01*
X54708727Y-47509652D01*
X54814989Y-47731904D01*
X54840221Y-47932445D01*
X54820702Y-48154166D01*
X54751033Y-48326201D01*
X54615208Y-48469412D01*
X54397221Y-48604663D01*
X54279748Y-48662959D01*
X54067213Y-48770787D01*
X53935776Y-48857854D01*
X53865746Y-48939175D01*
X53844047Y-48995188D01*
X53840206Y-49125861D01*
X53921635Y-49229367D01*
X53925920Y-49232867D01*
X54070271Y-49293929D01*
X54212410Y-49269317D01*
X54319578Y-49174157D01*
X54359158Y-49032821D01*
X54368511Y-48957971D01*
X54414512Y-48920186D01*
X54524070Y-48906990D01*
X54633361Y-48905684D01*
X54907563Y-48905684D01*
X58248564Y-48905684D01*
X58371888Y-48696253D01*
X58782981Y-47789702D01*
X59095325Y-46843034D01*
X59308067Y-45858306D01*
X59420355Y-44837573D01*
X59439158Y-44200000D01*
X59388387Y-43158374D01*
X59236642Y-42151501D01*
X58984777Y-41181439D01*
X58633644Y-40250243D01*
X58184096Y-39359970D01*
X57636986Y-38512675D01*
X56993167Y-37710415D01*
X56554641Y-37245359D01*
X55780778Y-36543135D01*
X54960630Y-35937102D01*
X54096252Y-35428112D01*
X53189702Y-35017019D01*
X52243034Y-34704675D01*
X51258306Y-34491933D01*
X50237573Y-34379645D01*
X49600000Y-34360842D01*
X48617825Y-34403033D01*
G37*
X48617825Y-34403033D02*
X47685609Y-34532151D01*
X46785999Y-34752012D01*
X45901645Y-35066435D01*
X45413897Y-35281797D01*
X44944215Y-35503223D01*
X45179451Y-35747506D01*
X45358428Y-35945113D01*
X45572097Y-36200001D01*
X45810557Y-36498534D01*
X46063909Y-36827077D01*
X46322251Y-37171992D01*
X46575684Y-37519645D01*
X46814308Y-37856398D01*
X47028222Y-38168616D01*
X47207526Y-38442663D01*
X47342320Y-38664901D01*
X47422704Y-38821696D01*
X47434676Y-38853766D01*
X47489745Y-38947187D01*
X47551530Y-38936358D01*
X47594828Y-38852343D01*
X47679624Y-38694403D01*
X47821725Y-38525021D01*
X47984847Y-38384510D01*
X48054040Y-38342161D01*
X48163930Y-38294748D01*
X48230837Y-38313919D01*
X48299640Y-38405474D01*
X48358975Y-38549805D01*
X48401613Y-38758131D01*
X48414128Y-38882859D01*
X48435474Y-39218092D01*
X48787514Y-38977077D01*
X49244383Y-38697840D01*
X49781307Y-38425326D01*
X50371445Y-38169567D01*
X50987956Y-37940592D01*
X51603999Y-37748430D01*
X52192733Y-37603112D01*
X52688850Y-37519210D01*
X53100958Y-37491997D01*
X53489073Y-37510241D01*
X53837618Y-37569964D01*
X54131019Y-37667190D01*
X54353700Y-37797940D01*
X54490087Y-37958237D01*
X54501056Y-37981967D01*
X54551730Y-38138320D01*
X54568095Y-38303160D01*
X54549124Y-38504035D01*
X54493789Y-38768492D01*
X54467831Y-38872621D01*
X54243063Y-39539446D01*
X53918462Y-40181686D01*
X53500221Y-40788747D01*
X53053283Y-41291834D01*
X52706908Y-41609025D01*
X52386363Y-41834970D01*
X52077841Y-41977756D01*
X51767537Y-42045469D01*
X51766256Y-42045602D01*
X51487407Y-42074381D01*
X51666605Y-42371969D01*
X51902124Y-42837225D01*
X52073052Y-43332743D01*
X52173320Y-43832325D01*
X52196862Y-44309771D01*
X52173697Y-44561489D01*
X52060822Y-45012241D01*
X51870098Y-45390699D01*
X51600582Y-45697722D01*
X51251326Y-45934167D01*
X50821387Y-46100894D01*
X50380589Y-46189954D01*
X49835454Y-46221349D01*
X49339264Y-46164439D01*
X48897184Y-46020527D01*
X48514379Y-45790915D01*
X48393304Y-45688660D01*
X48185163Y-45473272D01*
X48006033Y-45230961D01*
X47848123Y-44945630D01*
X47703645Y-44601180D01*
X47564811Y-44181513D01*
X47431810Y-43701425D01*
X47364326Y-43445305D01*
X47305227Y-43228988D01*
X47260081Y-43072275D01*
X47234454Y-42994970D01*
X47231952Y-42990549D01*
X47210486Y-43026302D01*
X47176074Y-43140526D01*
X47143258Y-43277250D01*
X47077587Y-43526126D01*
X46983250Y-43819877D01*
X46871804Y-44127923D01*
X46754803Y-44419688D01*
X46643803Y-44664594D01*
X46562918Y-44812901D01*
X46426367Y-45028842D01*
X46380221Y-44868421D01*
X46362851Y-44715397D01*
X46369364Y-44484563D01*
X46396596Y-44201579D01*
X46441384Y-43892104D01*
X46500563Y-43581799D01*
X46570969Y-43296325D01*
X46576392Y-43277398D01*
X46696754Y-42861842D01*
X46156482Y-43386337D01*
X45804062Y-43719523D01*
X45501668Y-43983763D01*
X45231385Y-44192709D01*
X44975301Y-44360011D01*
X44715502Y-44499320D01*
X44663396Y-44524147D01*
X44259908Y-44666902D01*
X43847681Y-44728468D01*
X43456524Y-44705155D01*
X43363252Y-44685063D01*
X43044756Y-44560130D01*
X42713604Y-44351202D01*
X42389472Y-44076229D01*
X42092035Y-43753159D01*
X41840969Y-43399941D01*
X41725863Y-43191409D01*
X41640356Y-43007123D01*
X41588647Y-42854910D01*
X41562514Y-42694979D01*
X41553732Y-42487540D01*
X41553273Y-42356282D01*
X41571040Y-42019715D01*
X41631390Y-41741016D01*
X41747379Y-41488589D01*
X41932065Y-41230839D01*
X42094823Y-41045816D01*
X42319836Y-40829947D01*
X42604764Y-40595707D01*
X42912956Y-40370687D01*
X43207761Y-40182477D01*
X43333191Y-40113599D01*
X43509961Y-40023224D01*
X43348228Y-39839020D01*
X43128036Y-39552205D01*
X42909090Y-39203015D01*
X42717143Y-38833177D01*
X42688527Y-38770074D01*
X42588824Y-38528204D01*
X42494047Y-38268956D01*
X42413137Y-38020120D01*
X42355033Y-37809486D01*
X42328678Y-37664844D01*
X42328003Y-37649474D01*
X42318864Y-37591335D01*
X42281400Y-37604515D01*
X42198091Y-37695912D01*
X42192164Y-37702947D01*
X41539589Y-38549859D01*
X40991366Y-39415770D01*
X40545934Y-40304855D01*
X40201730Y-41221289D01*
X39957192Y-42169245D01*
X39810758Y-43152899D01*
X39760866Y-44176425D01*
X39760842Y-44200000D01*
X39811613Y-45241626D01*
X39963357Y-46248499D01*
X40215223Y-47218561D01*
X40566356Y-48149757D01*
X41015903Y-49040030D01*
X41563014Y-49887325D01*
X42206833Y-50689585D01*
X42645359Y-51154641D01*
X43412939Y-51852294D01*
X44224580Y-52453203D01*
X45083152Y-52958819D01*
X45991528Y-53370593D01*
X46952579Y-53689975D01*
X47969178Y-53918416D01*
X48189328Y-53954867D01*
X48584326Y-53999882D01*
X49051874Y-54026736D01*
X49559173Y-54035667D01*
X50073422Y-54026914D01*
X50561822Y-54000716D01*
X50991570Y-53957310D01*
X51150737Y-53933317D01*
X52173205Y-53710126D01*
X53136275Y-53398815D01*
X54044236Y-52997175D01*
X54901379Y-52503003D01*
X55711995Y-51914091D01*
X56480373Y-51228233D01*
X56554641Y-51154641D01*
X57256865Y-50380779D01*
X57862898Y-49560630D01*
X58248564Y-48905684D01*
X54907563Y-48905684D01*
X54871290Y-49132947D01*
X54829761Y-49306682D01*
X54772109Y-49453418D01*
X54757230Y-49479070D01*
X54624252Y-49594018D01*
X54418065Y-49669621D01*
X54166725Y-49700919D01*
X53898291Y-49682954D01*
X53766976Y-49654099D01*
X53534351Y-49542967D01*
X53380937Y-49360276D01*
X53305890Y-49104976D01*
X53302787Y-49076706D01*
X53300760Y-48845597D01*
X53354072Y-48663716D01*
X53476249Y-48511842D01*
X53680815Y-48370757D01*
X53867529Y-48274217D01*
X54067110Y-48176178D01*
X54188832Y-48105083D01*
X54251902Y-48042979D01*
X54275529Y-47971914D01*
X54278947Y-47889684D01*
X54269092Y-47762656D01*
X54219142Y-47706396D01*
X54104508Y-47685722D01*
X53981759Y-47685650D01*
X53923733Y-47736677D01*
X53897298Y-47832774D01*
X53870550Y-47930167D01*
X53820544Y-47978545D01*
X53716077Y-47994984D01*
X53597891Y-47996632D01*
X53331256Y-47996632D01*
X53367602Y-47802891D01*
X53430337Y-47584729D01*
X53534837Y-47440764D01*
X53705068Y-47339739D01*
X53730870Y-47329090D01*
X53838112Y-47301474D01*
X53236210Y-47301474D01*
X53236210Y-47729263D01*
X52701474Y-47729263D01*
X52701474Y-49654316D01*
X52220210Y-49654316D01*
X52220210Y-47729263D01*
X51685474Y-47729263D01*
X51685474Y-47301474D01*
X51525053Y-47301474D01*
X51525053Y-49654316D01*
X51043789Y-49654316D01*
X51034413Y-48130316D01*
X50864620Y-48878947D01*
X50694827Y-49627579D01*
X50480510Y-49643423D01*
X50266193Y-49659268D01*
X49947579Y-48183790D01*
X49932701Y-48919053D01*
X49917824Y-49654316D01*
X49439579Y-49654316D01*
X49439579Y-48960332D01*
X49172210Y-48960332D01*
X49129306Y-49252091D01*
X49009497Y-49478688D01*
X48826138Y-49631122D01*
X48592583Y-49700394D01*
X48322188Y-49677503D01*
X48253166Y-49654316D01*
X47728421Y-49654316D01*
X47458403Y-49654316D01*
X47460211Y-49547369D01*
X47193684Y-49547369D01*
X47187628Y-49591634D01*
X47157912Y-49621651D01*
X47087218Y-49640173D01*
X46958225Y-49649952D01*
X46753614Y-49653744D01*
X46521014Y-49654316D01*
X45848344Y-49654316D01*
X45886143Y-49480526D01*
X45930117Y-49308841D01*
X45988065Y-49167063D01*
X46076055Y-49031025D01*
X46210161Y-48876560D01*
X46406451Y-48679501D01*
X46441289Y-48645706D01*
X46617465Y-48467551D01*
X46764617Y-48304368D01*
X46864826Y-48176903D01*
X46898736Y-48116108D01*
X46906607Y-47929845D01*
X46841325Y-47745598D01*
X46721218Y-47604910D01*
X46656939Y-47568010D01*
X46479836Y-47542326D01*
X46329263Y-47615212D01*
X46215960Y-47779464D01*
X46177723Y-47889541D01*
X46127522Y-48030769D01*
X46063439Y-48092734D01*
X45991827Y-48103579D01*
X45909629Y-48093439D01*
X45880920Y-48042714D01*
X45890745Y-47920948D01*
X45893366Y-47903053D01*
X45966281Y-47648669D01*
X46103885Y-47471179D01*
X46270698Y-47372888D01*
X46516410Y-47317280D01*
X46752048Y-47346733D01*
X46953643Y-47451369D01*
X47097224Y-47621309D01*
X47140803Y-47731464D01*
X47177867Y-47941206D01*
X47161454Y-48130120D01*
X47082990Y-48316733D01*
X46933903Y-48519575D01*
X46705619Y-48757175D01*
X46635252Y-48824099D01*
X46404872Y-49045405D01*
X46256442Y-49206532D01*
X46190735Y-49316930D01*
X46208526Y-49386048D01*
X46310586Y-49423336D01*
X46497689Y-49438242D01*
X46685684Y-49440421D01*
X46921791Y-49442036D01*
X47070806Y-49449665D01*
X47152565Y-49467485D01*
X47186908Y-49499672D01*
X47193684Y-49547369D01*
X47460211Y-49547369D01*
X47473096Y-48785369D01*
X47479023Y-48462787D01*
X47485760Y-48231525D01*
X47495687Y-48075963D01*
X47511184Y-47980485D01*
X47534630Y-47929473D01*
X47568406Y-47907310D01*
X47608105Y-47899334D01*
X47728421Y-47882246D01*
X47728421Y-49654316D01*
X48253166Y-49654316D01*
X48179305Y-49629504D01*
X47998272Y-49502643D01*
X47913654Y-49363853D01*
X47848626Y-49179041D01*
X47844784Y-49069049D01*
X47904404Y-49019434D01*
X47969053Y-49012632D01*
X48073458Y-49037291D01*
X48102737Y-49122010D01*
X48148267Y-49254970D01*
X48260775Y-49382867D01*
X48404139Y-49472217D01*
X48503912Y-49493895D01*
X48667491Y-49445057D01*
X48802842Y-49316769D01*
X48887552Y-49136369D01*
X48904842Y-49004823D01*
X48862428Y-48791464D01*
X48734914Y-48642712D01*
X48521897Y-48558111D01*
X48506772Y-48555137D01*
X48368931Y-48510612D01*
X48318051Y-48438321D01*
X48316631Y-48418470D01*
X48345228Y-48343404D01*
X48447313Y-48317981D01*
X48474969Y-48317474D01*
X48652836Y-48271514D01*
X48780577Y-48151608D01*
X48843505Y-47984711D01*
X48826935Y-47797782D01*
X48796669Y-47726973D01*
X48675055Y-47590567D01*
X48521388Y-47539312D01*
X48363064Y-47569451D01*
X48227477Y-47677232D01*
X48154387Y-47814999D01*
X48091922Y-47945052D01*
X48005078Y-47993928D01*
X47966584Y-47996632D01*
X47872758Y-47973889D01*
X47859317Y-47929790D01*
X47885779Y-47829386D01*
X47911760Y-47717375D01*
X48000276Y-47529344D01*
X48112593Y-47435158D01*
X47728421Y-47435158D01*
X47718433Y-47561725D01*
X47673486Y-47613539D01*
X47594737Y-47622316D01*
X47504332Y-47608333D01*
X47467321Y-47545408D01*
X47461053Y-47435158D01*
X47471041Y-47308591D01*
X47515987Y-47256776D01*
X47594737Y-47248000D01*
X45536000Y-47248000D01*
X45536000Y-49654316D01*
X45268631Y-49654316D01*
X45268631Y-49090187D01*
X45255986Y-48729234D01*
X45214157Y-48461728D01*
X45137308Y-48276744D01*
X45019599Y-48163363D01*
X44855193Y-48110660D01*
X44741291Y-48103579D01*
X44571368Y-48150530D01*
X44470407Y-48244475D01*
X44422367Y-48316941D01*
X44390458Y-48403864D01*
X44371489Y-48527567D01*
X44362270Y-48710372D01*
X44359610Y-48974604D01*
X44359579Y-49019843D01*
X44359579Y-49654316D01*
X44092210Y-49654316D01*
X43664421Y-49654316D01*
X43394403Y-49654316D01*
X43409096Y-48785369D01*
X43415023Y-48462787D01*
X43421760Y-48231525D01*
X43431687Y-48075963D01*
X43447184Y-47980485D01*
X43470630Y-47929473D01*
X43504406Y-47907310D01*
X43544105Y-47899334D01*
X43664421Y-47882246D01*
X43664421Y-49654316D01*
X44092210Y-49654316D01*
X44093486Y-49106211D01*
X44102267Y-48736463D01*
X44129007Y-48456535D01*
X44177235Y-48250276D01*
X44250481Y-48101535D01*
X44333024Y-48010000D01*
X44514274Y-47916163D01*
X44738912Y-47885324D01*
X44963532Y-47918000D01*
X45127736Y-48000513D01*
X45268631Y-48111341D01*
X45268631Y-47679671D01*
X45270025Y-47466338D01*
X45272133Y-47435158D01*
X43664421Y-47435158D01*
X43654433Y-47561725D01*
X43609486Y-47613539D01*
X43530737Y-47622316D01*
X43440332Y-47608333D01*
X43403321Y-47545408D01*
X43397053Y-47435158D01*
X43407041Y-47308591D01*
X43451987Y-47256776D01*
X43530737Y-47248000D01*
X43621142Y-47261983D01*
X43658152Y-47324908D01*
X43664421Y-47435158D01*
X45272133Y-47435158D01*
X45278690Y-47338229D01*
X45301355Y-47273619D01*
X45344747Y-47250787D01*
X45402316Y-47248000D01*
X45536000Y-47248000D01*
X47594737Y-47248000D01*
X47685142Y-47261983D01*
X47722152Y-47324908D01*
X47728421Y-47435158D01*
X48112593Y-47435158D01*
X48154556Y-47399969D01*
X48350075Y-47330582D01*
X48562310Y-47322518D01*
X48766736Y-47377108D01*
X48938828Y-47495687D01*
X49044780Y-47655773D01*
X49098303Y-47890427D01*
X49072596Y-48117761D01*
X48972289Y-48302650D01*
X48957390Y-48318400D01*
X48897373Y-48386813D01*
X48894908Y-48442899D01*
X48957596Y-48521702D01*
X49013846Y-48578672D01*
X49126905Y-48722521D01*
X49169305Y-48881327D01*
X49172210Y-48960332D01*
X49439579Y-48960332D01*
X49439579Y-47301474D01*
X50173908Y-47301474D01*
X50325127Y-48063474D01*
X50384017Y-48356338D01*
X50426912Y-48555071D01*
X50457698Y-48670626D01*
X50480259Y-48713955D01*
X50498482Y-48696011D01*
X50516252Y-48627746D01*
X50519577Y-48611579D01*
X50549141Y-48466746D01*
X50593384Y-48251713D01*
X50645198Y-48000985D01*
X50676586Y-47849579D01*
X50790362Y-47301474D01*
X51525053Y-47301474D01*
X51685474Y-47301474D01*
X53236210Y-47301474D01*
X53838112Y-47301474D01*
X54029333Y-47252233D01*
X54301437Y-47261952D01*
X54532722Y-47350380D01*
X54708727Y-47509652D01*
X54814989Y-47731904D01*
X54840221Y-47932445D01*
X54820702Y-48154166D01*
X54751033Y-48326201D01*
X54615208Y-48469412D01*
X54397221Y-48604663D01*
X54279748Y-48662959D01*
X54067213Y-48770787D01*
X53935776Y-48857854D01*
X53865746Y-48939175D01*
X53844047Y-48995188D01*
X53840206Y-49125861D01*
X53921635Y-49229367D01*
X53925920Y-49232867D01*
X54070271Y-49293929D01*
X54212410Y-49269317D01*
X54319578Y-49174157D01*
X54359158Y-49032821D01*
X54368511Y-48957971D01*
X54414512Y-48920186D01*
X54524070Y-48906990D01*
X54633361Y-48905684D01*
X54907563Y-48905684D01*
X58248564Y-48905684D01*
X58371888Y-48696253D01*
X58782981Y-47789702D01*
X59095325Y-46843034D01*
X59308067Y-45858306D01*
X59420355Y-44837573D01*
X59439158Y-44200000D01*
X59388387Y-43158374D01*
X59236642Y-42151501D01*
X58984777Y-41181439D01*
X58633644Y-40250243D01*
X58184096Y-39359970D01*
X57636986Y-38512675D01*
X56993167Y-37710415D01*
X56554641Y-37245359D01*
X55780778Y-36543135D01*
X54960630Y-35937102D01*
X54096252Y-35428112D01*
X53189702Y-35017019D01*
X52243034Y-34704675D01*
X51258306Y-34491933D01*
X50237573Y-34379645D01*
X49600000Y-34360842D01*
X48617825Y-34403033D01*
D10*
X98333333Y-35904761D02*
X98190476Y-35952380D01*
X97952380Y-35952380D01*
X97857142Y-35904761D01*
X97809523Y-35857142D01*
X97761904Y-35761904D01*
X97761904Y-35666666D01*
X97809523Y-35571428D01*
X97857142Y-35523809D01*
X97952380Y-35476190D01*
X98142857Y-35428571D01*
X98238095Y-35380952D01*
X98285714Y-35333333D01*
X98333333Y-35238095D01*
X98333333Y-35142857D01*
X98285714Y-35047619D01*
X98238095Y-35000000D01*
X98142857Y-34952380D01*
X97904761Y-34952380D01*
X97761904Y-35000000D01*
X97428571Y-34952380D02*
X97190476Y-35952380D01*
X97000000Y-35238095D01*
X96809523Y-35952380D01*
X96571428Y-34952380D01*
X96238095Y-35047619D02*
X96190476Y-35000000D01*
X96095238Y-34952380D01*
X95857142Y-34952380D01*
X95761904Y-35000000D01*
X95714285Y-35047619D01*
X95666666Y-35142857D01*
X95666666Y-35238095D01*
X95714285Y-35380952D01*
X96285714Y-35952380D01*
X95666666Y-35952380D01*
X117333333Y-35904761D02*
X117190476Y-35952380D01*
X116952380Y-35952380D01*
X116857142Y-35904761D01*
X116809523Y-35857142D01*
X116761904Y-35761904D01*
X116761904Y-35666666D01*
X116809523Y-35571428D01*
X116857142Y-35523809D01*
X116952380Y-35476190D01*
X117142857Y-35428571D01*
X117238095Y-35380952D01*
X117285714Y-35333333D01*
X117333333Y-35238095D01*
X117333333Y-35142857D01*
X117285714Y-35047619D01*
X117238095Y-35000000D01*
X117142857Y-34952380D01*
X116904761Y-34952380D01*
X116761904Y-35000000D01*
X116428571Y-34952380D02*
X116190476Y-35952380D01*
X116000000Y-35238095D01*
X115809523Y-35952380D01*
X115571428Y-34952380D01*
X115285714Y-34952380D02*
X114666666Y-34952380D01*
X115000000Y-35333333D01*
X114857142Y-35333333D01*
X114761904Y-35380952D01*
X114714285Y-35428571D01*
X114666666Y-35523809D01*
X114666666Y-35761904D01*
X114714285Y-35857142D01*
X114761904Y-35904761D01*
X114857142Y-35952380D01*
X115142857Y-35952380D01*
X115238095Y-35904761D01*
X115285714Y-35857142D01*
X76933333Y-55504761D02*
X76790476Y-55552380D01*
X76552380Y-55552380D01*
X76457142Y-55504761D01*
X76409523Y-55457142D01*
X76361904Y-55361904D01*
X76361904Y-55266666D01*
X76409523Y-55171428D01*
X76457142Y-55123809D01*
X76552380Y-55076190D01*
X76742857Y-55028571D01*
X76838095Y-54980952D01*
X76885714Y-54933333D01*
X76933333Y-54838095D01*
X76933333Y-54742857D01*
X76885714Y-54647619D01*
X76838095Y-54600000D01*
X76742857Y-54552380D01*
X76504761Y-54552380D01*
X76361904Y-54600000D01*
X76028571Y-54552380D02*
X75790476Y-55552380D01*
X75600000Y-54838095D01*
X75409523Y-55552380D01*
X75171428Y-54552380D01*
X74314285Y-54552380D02*
X74790476Y-54552380D01*
X74838095Y-55028571D01*
X74790476Y-54980952D01*
X74695238Y-54933333D01*
X74457142Y-54933333D01*
X74361904Y-54980952D01*
X74314285Y-55028571D01*
X74266666Y-55123809D01*
X74266666Y-55361904D01*
X74314285Y-55457142D01*
X74361904Y-55504761D01*
X74457142Y-55552380D01*
X74695238Y-55552380D01*
X74790476Y-55504761D01*
X74838095Y-55457142D01*
X98433333Y-54904761D02*
X98290476Y-54952380D01*
X98052380Y-54952380D01*
X97957142Y-54904761D01*
X97909523Y-54857142D01*
X97861904Y-54761904D01*
X97861904Y-54666666D01*
X97909523Y-54571428D01*
X97957142Y-54523809D01*
X98052380Y-54476190D01*
X98242857Y-54428571D01*
X98338095Y-54380952D01*
X98385714Y-54333333D01*
X98433333Y-54238095D01*
X98433333Y-54142857D01*
X98385714Y-54047619D01*
X98338095Y-54000000D01*
X98242857Y-53952380D01*
X98004761Y-53952380D01*
X97861904Y-54000000D01*
X97528571Y-53952380D02*
X97290476Y-54952380D01*
X97100000Y-54238095D01*
X96909523Y-54952380D01*
X96671428Y-53952380D01*
X95861904Y-53952380D02*
X96052380Y-53952380D01*
X96147619Y-54000000D01*
X96195238Y-54047619D01*
X96290476Y-54190476D01*
X96338095Y-54380952D01*
X96338095Y-54761904D01*
X96290476Y-54857142D01*
X96242857Y-54904761D01*
X96147619Y-54952380D01*
X95957142Y-54952380D01*
X95861904Y-54904761D01*
X95814285Y-54857142D01*
X95766666Y-54761904D01*
X95766666Y-54523809D01*
X95814285Y-54428571D01*
X95861904Y-54380952D01*
X95957142Y-54333333D01*
X96147619Y-54333333D01*
X96242857Y-54380952D01*
X96290476Y-54428571D01*
X96338095Y-54523809D01*
X117433333Y-54904761D02*
X117290476Y-54952380D01*
X117052380Y-54952380D01*
X116957142Y-54904761D01*
X116909523Y-54857142D01*
X116861904Y-54761904D01*
X116861904Y-54666666D01*
X116909523Y-54571428D01*
X116957142Y-54523809D01*
X117052380Y-54476190D01*
X117242857Y-54428571D01*
X117338095Y-54380952D01*
X117385714Y-54333333D01*
X117433333Y-54238095D01*
X117433333Y-54142857D01*
X117385714Y-54047619D01*
X117338095Y-54000000D01*
X117242857Y-53952380D01*
X117004761Y-53952380D01*
X116861904Y-54000000D01*
X116528571Y-53952380D02*
X116290476Y-54952380D01*
X116100000Y-54238095D01*
X115909523Y-54952380D01*
X115671428Y-53952380D01*
X115385714Y-53952380D02*
X114719047Y-53952380D01*
X115147619Y-54952380D01*
X83709523Y-53004761D02*
X83566666Y-53052380D01*
X83328571Y-53052380D01*
X83233333Y-53004761D01*
X83185714Y-52957142D01*
X83138095Y-52861904D01*
X83138095Y-52766666D01*
X83185714Y-52671428D01*
X83233333Y-52623809D01*
X83328571Y-52576190D01*
X83519047Y-52528571D01*
X83614285Y-52480952D01*
X83661904Y-52433333D01*
X83709523Y-52338095D01*
X83709523Y-52242857D01*
X83661904Y-52147619D01*
X83614285Y-52100000D01*
X83519047Y-52052380D01*
X83280952Y-52052380D01*
X83138095Y-52100000D01*
X82804761Y-52052380D02*
X82566666Y-53052380D01*
X82376190Y-52338095D01*
X82185714Y-53052380D01*
X81947619Y-52052380D01*
X81042857Y-53052380D02*
X81614285Y-53052380D01*
X81328571Y-53052380D02*
X81328571Y-52052380D01*
X81423809Y-52195238D01*
X81519047Y-52290476D01*
X81614285Y-52338095D01*
X80423809Y-52052380D02*
X80328571Y-52052380D01*
X80233333Y-52100000D01*
X80185714Y-52147619D01*
X80138095Y-52242857D01*
X80090476Y-52433333D01*
X80090476Y-52671428D01*
X80138095Y-52861904D01*
X80185714Y-52957142D01*
X80233333Y-53004761D01*
X80328571Y-53052380D01*
X80423809Y-53052380D01*
X80519047Y-53004761D01*
X80566666Y-52957142D01*
X80614285Y-52861904D01*
X80661904Y-52671428D01*
X80661904Y-52433333D01*
X80614285Y-52242857D01*
X80566666Y-52147619D01*
X80519047Y-52100000D01*
X80423809Y-52052380D01*
X102809523Y-53004761D02*
X102666666Y-53052380D01*
X102428571Y-53052380D01*
X102333333Y-53004761D01*
X102285714Y-52957142D01*
X102238095Y-52861904D01*
X102238095Y-52766666D01*
X102285714Y-52671428D01*
X102333333Y-52623809D01*
X102428571Y-52576190D01*
X102619047Y-52528571D01*
X102714285Y-52480952D01*
X102761904Y-52433333D01*
X102809523Y-52338095D01*
X102809523Y-52242857D01*
X102761904Y-52147619D01*
X102714285Y-52100000D01*
X102619047Y-52052380D01*
X102380952Y-52052380D01*
X102238095Y-52100000D01*
X101904761Y-52052380D02*
X101666666Y-53052380D01*
X101476190Y-52338095D01*
X101285714Y-53052380D01*
X101047619Y-52052380D01*
X100142857Y-53052380D02*
X100714285Y-53052380D01*
X100428571Y-53052380D02*
X100428571Y-52052380D01*
X100523809Y-52195238D01*
X100619047Y-52290476D01*
X100714285Y-52338095D01*
X99190476Y-53052380D02*
X99761904Y-53052380D01*
X99476190Y-53052380D02*
X99476190Y-52052380D01*
X99571428Y-52195238D01*
X99666666Y-52290476D01*
X99761904Y-52338095D01*
X64709523Y-72104761D02*
X64566666Y-72152380D01*
X64328571Y-72152380D01*
X64233333Y-72104761D01*
X64185714Y-72057142D01*
X64138095Y-71961904D01*
X64138095Y-71866666D01*
X64185714Y-71771428D01*
X64233333Y-71723809D01*
X64328571Y-71676190D01*
X64519047Y-71628571D01*
X64614285Y-71580952D01*
X64661904Y-71533333D01*
X64709523Y-71438095D01*
X64709523Y-71342857D01*
X64661904Y-71247619D01*
X64614285Y-71200000D01*
X64519047Y-71152380D01*
X64280952Y-71152380D01*
X64138095Y-71200000D01*
X63804761Y-71152380D02*
X63566666Y-72152380D01*
X63376190Y-71438095D01*
X63185714Y-72152380D01*
X62947619Y-71152380D01*
X62042857Y-72152380D02*
X62614285Y-72152380D01*
X62328571Y-72152380D02*
X62328571Y-71152380D01*
X62423809Y-71295238D01*
X62519047Y-71390476D01*
X62614285Y-71438095D01*
X61661904Y-71247619D02*
X61614285Y-71200000D01*
X61519047Y-71152380D01*
X61280952Y-71152380D01*
X61185714Y-71200000D01*
X61138095Y-71247619D01*
X61090476Y-71342857D01*
X61090476Y-71438095D01*
X61138095Y-71580952D01*
X61709523Y-72152380D01*
X61090476Y-72152380D01*
X83609523Y-72204761D02*
X83466666Y-72252380D01*
X83228571Y-72252380D01*
X83133333Y-72204761D01*
X83085714Y-72157142D01*
X83038095Y-72061904D01*
X83038095Y-71966666D01*
X83085714Y-71871428D01*
X83133333Y-71823809D01*
X83228571Y-71776190D01*
X83419047Y-71728571D01*
X83514285Y-71680952D01*
X83561904Y-71633333D01*
X83609523Y-71538095D01*
X83609523Y-71442857D01*
X83561904Y-71347619D01*
X83514285Y-71300000D01*
X83419047Y-71252380D01*
X83180952Y-71252380D01*
X83038095Y-71300000D01*
X82704761Y-71252380D02*
X82466666Y-72252380D01*
X82276190Y-71538095D01*
X82085714Y-72252380D01*
X81847619Y-71252380D01*
X80942857Y-72252380D02*
X81514285Y-72252380D01*
X81228571Y-72252380D02*
X81228571Y-71252380D01*
X81323809Y-71395238D01*
X81419047Y-71490476D01*
X81514285Y-71538095D01*
X80609523Y-71252380D02*
X79990476Y-71252380D01*
X80323809Y-71633333D01*
X80180952Y-71633333D01*
X80085714Y-71680952D01*
X80038095Y-71728571D01*
X79990476Y-71823809D01*
X79990476Y-72061904D01*
X80038095Y-72157142D01*
X80085714Y-72204761D01*
X80180952Y-72252380D01*
X80466666Y-72252380D01*
X80561904Y-72204761D01*
X80609523Y-72157142D01*
X102809523Y-72104761D02*
X102666666Y-72152380D01*
X102428571Y-72152380D01*
X102333333Y-72104761D01*
X102285714Y-72057142D01*
X102238095Y-71961904D01*
X102238095Y-71866666D01*
X102285714Y-71771428D01*
X102333333Y-71723809D01*
X102428571Y-71676190D01*
X102619047Y-71628571D01*
X102714285Y-71580952D01*
X102761904Y-71533333D01*
X102809523Y-71438095D01*
X102809523Y-71342857D01*
X102761904Y-71247619D01*
X102714285Y-71200000D01*
X102619047Y-71152380D01*
X102380952Y-71152380D01*
X102238095Y-71200000D01*
X101904761Y-71152380D02*
X101666666Y-72152380D01*
X101476190Y-71438095D01*
X101285714Y-72152380D01*
X101047619Y-71152380D01*
X100142857Y-72152380D02*
X100714285Y-72152380D01*
X100428571Y-72152380D02*
X100428571Y-71152380D01*
X100523809Y-71295238D01*
X100619047Y-71390476D01*
X100714285Y-71438095D01*
X99285714Y-71485714D02*
X99285714Y-72152380D01*
X99523809Y-71104761D02*
X99761904Y-71819047D01*
X99142857Y-71819047D01*
%LPC*%
D12*
X63103390Y-32147010D03*
D13*
X65643390Y-32147010D03*
X68183390Y-32147010D03*
X70723390Y-32147010D03*
X73263390Y-32147010D03*
X75803390Y-32147010D03*
X78343390Y-32147010D03*
X80883390Y-32147010D03*
X83423390Y-32147010D03*
X85963390Y-32147010D03*
X88503390Y-32147010D03*
X91043390Y-32147010D03*
X93583390Y-32147010D03*
X96123390Y-32147010D03*
X98663390Y-32147010D03*
X101203390Y-32147010D03*
X103743390Y-32147010D03*
X106283390Y-32147010D03*
X108823390Y-32147010D03*
X111363390Y-32147010D03*
D14*
X72750000Y-36550000D03*
D15*
X70250000Y-36550000D03*
X67750000Y-36550000D03*
D16*
X75850000Y-44050000D03*
X64650000Y-44050000D03*
D15*
X72750000Y-51050000D03*
X67750000Y-51050000D03*
D17*
X116601810Y-30162440D03*
X116601810Y-77152440D03*
X32781810Y-77152440D03*
X32781810Y-30162440D03*
D18*
X38100160Y-41672050D03*
X38100160Y-42522050D03*
X38100160Y-43372050D03*
X38100160Y-44222050D03*
X38100160Y-45072050D03*
X38100160Y-45922050D03*
X38100160Y-46772050D03*
X38100160Y-47622050D03*
X36750160Y-42522050D03*
X36750160Y-44222050D03*
X36750160Y-43372050D03*
X36750160Y-41672050D03*
X36750160Y-45922050D03*
X36750160Y-46772050D03*
X36750160Y-47622050D03*
X36750160Y-45072050D03*
D19*
X37120160Y-40322050D03*
X37120160Y-48972050D03*
D20*
X33740160Y-40322050D03*
X33740160Y-48972050D03*
D12*
X51000000Y-29800000D03*
D13*
X51000000Y-32340000D03*
X54768980Y-32340000D03*
D12*
X54768980Y-29800000D03*
D21*
X32400000Y-36800000D03*
D22*
X32400000Y-34260000D03*
X32400000Y-62340000D03*
D21*
X32400000Y-59800000D03*
D23*
X36500000Y-77000000D03*
X39040000Y-77000000D03*
X41580000Y-77000000D03*
X44120000Y-77000000D03*
D24*
X95139250Y-38973310D03*
X82212250Y-41513310D03*
D25*
X94377250Y-44053310D03*
X84217250Y-44053310D03*
D26*
X85487250Y-41513310D03*
D27*
X89297250Y-44053310D03*
D26*
X91837250Y-38973310D03*
X110887330Y-38973310D03*
D27*
X108347330Y-44053310D03*
D26*
X104537330Y-41513310D03*
D25*
X103267330Y-44053310D03*
X113427330Y-44053310D03*
D24*
X101262330Y-41513310D03*
X114189330Y-38973310D03*
D15*
X67750000Y-70100000D03*
X72750000Y-70100000D03*
D16*
X64650000Y-63100000D03*
X75850000Y-63100000D03*
D15*
X67750000Y-55600000D03*
X70250000Y-55600000D03*
D14*
X72750000Y-55600000D03*
D24*
X76089170Y-58023390D03*
X63162170Y-60563390D03*
D25*
X75327170Y-63103390D03*
X65167170Y-63103390D03*
D26*
X66437170Y-60563390D03*
D27*
X70247170Y-63103390D03*
D26*
X72787170Y-58023390D03*
X91837250Y-58023390D03*
D27*
X89297250Y-63103390D03*
D26*
X85487250Y-60563390D03*
D25*
X84217250Y-63103390D03*
X94377250Y-63103390D03*
D24*
X82212250Y-60563390D03*
X95139250Y-58023390D03*
D26*
X110887330Y-58023390D03*
D27*
X108347330Y-63103390D03*
D26*
X104537330Y-60563390D03*
D25*
X103267330Y-63103390D03*
X113427330Y-63103390D03*
D24*
X101262330Y-60563390D03*
X114189330Y-58023390D03*
D15*
X57650000Y-69000000D03*
X51150000Y-69000000D03*
X57650000Y-64400000D03*
X51150000Y-64400000D03*
D28*
X32500000Y-54500000D03*
X39500000Y-54500000D03*
D29*
X34300000Y-52400000D03*
X37300000Y-52400000D03*
X41300000Y-52400000D03*
X42800000Y-56600000D03*
D22*
X94797250Y-44053310D03*
X83797250Y-44053310D03*
D30*
X89297250Y-44053310D03*
D26*
X89297250Y-49953310D03*
X84297250Y-47753310D03*
D31*
X92097250Y-49953310D03*
X81497250Y-47753310D03*
D32*
X94517250Y-39853310D03*
X113567330Y-39853310D03*
D31*
X100547330Y-47753310D03*
X111147330Y-49953310D03*
D26*
X103347330Y-47753310D03*
X108347330Y-49953310D03*
D30*
X108347330Y-44053310D03*
D22*
X102847330Y-44053310D03*
X113847330Y-44053310D03*
D32*
X75467170Y-58903390D03*
D31*
X62447170Y-66803390D03*
X73047170Y-69003390D03*
D26*
X65247170Y-66803390D03*
X70247170Y-69003390D03*
D30*
X70247170Y-63103390D03*
D22*
X64747170Y-63103390D03*
X75747170Y-63103390D03*
D32*
X94517250Y-58903390D03*
D31*
X81497250Y-66803390D03*
X92097250Y-69003390D03*
D26*
X84297250Y-66803390D03*
X89297250Y-69003390D03*
D30*
X89297250Y-63103390D03*
D22*
X83797250Y-63103390D03*
X94797250Y-63103390D03*
X113847330Y-63103390D03*
X102847330Y-63103390D03*
D30*
X108347330Y-63103390D03*
D26*
X108347330Y-69003390D03*
X103347330Y-66803390D03*
D31*
X111147330Y-69003390D03*
X100547330Y-66803390D03*
D32*
X113567330Y-58903390D03*
D13*
X111363390Y-75009690D03*
X108823390Y-75009690D03*
X106283390Y-75009690D03*
X103743390Y-75009690D03*
X101203390Y-75009690D03*
X98663390Y-75009690D03*
X96123390Y-75009690D03*
X93583390Y-75009690D03*
X91043390Y-75009690D03*
X88503390Y-75009690D03*
X85963390Y-75009690D03*
X83423390Y-75009690D03*
X80883390Y-75009690D03*
X78343390Y-75009690D03*
X75803390Y-75009690D03*
X73263390Y-75009690D03*
X70723390Y-75009690D03*
X68183390Y-75009690D03*
X65643390Y-75009690D03*
D12*
X63103390Y-75009690D03*
D33*
X41600000Y-59000000D03*
X49400000Y-59000000D03*
X49400000Y-61250000D03*
X41600000Y-61250000D03*
M02*
