G04 #@! TF.GenerationSoftware,KiCad,Pcbnew,(5.1.6-0-10_14)*
G04 #@! TF.CreationDate,2020-10-25T15:01:43+09:00*
G04 #@! TF.ProjectId,meishi_stm32,6d656973-6869-45f7-9374-6d33322e6b69,rev?*
G04 #@! TF.SameCoordinates,Original*
G04 #@! TF.FileFunction,Legend,Top*
G04 #@! TF.FilePolarity,Positive*
%FSLAX46Y46*%
G04 Gerber Fmt 4.6, Leading zero omitted, Abs format (unit mm)*
G04 Created by KiCad (PCBNEW (5.1.6-0-10_14)) date 2020-10-25 15:01:43*
%MOMM*%
%LPD*%
G01*
G04 APERTURE LIST*
%ADD10C,0.120000*%
%ADD11C,0.150000*%
%ADD12C,0.100000*%
%ADD13R,1.802000X1.802000*%
%ADD14O,1.802000X1.802000*%
%ADD15R,2.102000X2.102000*%
%ADD16C,2.102000*%
%ADD17R,2.102000X3.302000*%
%ADD18C,2.302000*%
%ADD19R,1.302000X1.002000*%
%ADD20R,1.702000X0.952000*%
%ADD21R,1.502000X1.302000*%
%ADD22R,1.502000X1.102000*%
%ADD23C,0.802000*%
%ADD24O,2.502000X1.002000*%
%ADD25O,1.802000X1.002000*%
%ADD26R,1.602000X1.102000*%
%ADD27R,1.902000X1.902000*%
%ADD28C,1.902000*%
%ADD29R,1.402000X3.502000*%
%ADD30C,1.499000*%
%ADD31C,1.852000*%
%ADD32C,3.102000*%
%ADD33C,4.089800*%
%ADD34R,1.002000X0.902000*%
%ADD35R,2.202000X1.902000*%
%ADD36C,1.302000*%
%ADD37O,2.302000X1.402000*%
%ADD38C,3.502000*%
%ADD39C,1.102000*%
%ADD40C,1.702000*%
%ADD41R,1.602000X1.302000*%
G04 APERTURE END LIST*
D10*
X61773390Y-33477010D02*
X61773390Y-32147010D01*
X63103390Y-33477010D02*
X61773390Y-33477010D01*
X64373390Y-33477010D02*
X64373390Y-30817010D01*
X64373390Y-30817010D02*
X112693390Y-30817010D01*
X64373390Y-33477010D02*
X112693390Y-33477010D01*
X112693390Y-33477010D02*
X112693390Y-30817010D01*
X70250000Y-43550000D02*
X70250000Y-44550000D01*
X70750000Y-44050000D02*
X69750000Y-44050000D01*
X66750000Y-50150000D02*
X64350000Y-50150000D01*
X71550000Y-50150000D02*
X68950000Y-50150000D01*
X76150000Y-50150000D02*
X73750000Y-50150000D01*
X74350000Y-36850000D02*
X74050000Y-36550000D01*
X74350000Y-36250000D02*
X74350000Y-36850000D01*
X74050000Y-36550000D02*
X74350000Y-36250000D01*
X76150000Y-37950000D02*
X64350000Y-37950000D01*
X76150000Y-42050000D02*
X76150000Y-37950000D01*
X64350000Y-42050000D02*
X64350000Y-37950000D01*
X64350000Y-50150000D02*
X64350000Y-46050000D01*
X76150000Y-46050000D02*
X76150000Y-50150000D01*
X73250000Y-44050000D02*
G75*
G03*
X73250000Y-44050000I-3000000J0D01*
G01*
X47110000Y-38738748D02*
X47110000Y-39261252D01*
X45690000Y-38738748D02*
X45690000Y-39261252D01*
X51690000Y-38738748D02*
X51690000Y-39261252D01*
X53110000Y-38738748D02*
X53110000Y-39261252D01*
X59488748Y-54710000D02*
X60011252Y-54710000D01*
X59488748Y-53290000D02*
X60011252Y-53290000D01*
X59113748Y-46090000D02*
X59636252Y-46090000D01*
X59113748Y-47510000D02*
X59636252Y-47510000D01*
X57510000Y-39938748D02*
X57510000Y-40461252D01*
X56090000Y-39938748D02*
X56090000Y-40461252D01*
X53890000Y-39938748D02*
X53890000Y-40461252D01*
X55310000Y-39938748D02*
X55310000Y-40461252D01*
X47138748Y-64510000D02*
X47661252Y-64510000D01*
X47138748Y-63090000D02*
X47661252Y-63090000D01*
X52519370Y-58938748D02*
X52519370Y-59461252D01*
X51099370Y-58938748D02*
X51099370Y-59461252D01*
X53499370Y-58938748D02*
X53499370Y-59461252D01*
X54919370Y-58938748D02*
X54919370Y-59461252D01*
X56110000Y-54738748D02*
X56110000Y-55261252D01*
X54690000Y-54738748D02*
X54690000Y-55261252D01*
X44910000Y-53861252D02*
X44910000Y-53338748D01*
X43490000Y-53861252D02*
X43490000Y-53338748D01*
X77500000Y-39250000D02*
X77500000Y-35350000D01*
X79500000Y-39250000D02*
X79500000Y-35350000D01*
X77500000Y-39250000D02*
X79500000Y-39250000D01*
X80000000Y-39250000D02*
X80000000Y-35350000D01*
X82000000Y-39250000D02*
X82000000Y-35350000D01*
X80000000Y-39250000D02*
X82000000Y-39250000D01*
X99000000Y-39250000D02*
X99000000Y-35350000D01*
X101000000Y-39250000D02*
X101000000Y-35350000D01*
X99000000Y-39250000D02*
X101000000Y-39250000D01*
X58400000Y-61250000D02*
X60400000Y-61250000D01*
X60400000Y-61250000D02*
X60400000Y-57350000D01*
X58400000Y-61250000D02*
X58400000Y-57350000D01*
X80000000Y-58250000D02*
X82000000Y-58250000D01*
X82000000Y-58250000D02*
X82000000Y-54350000D01*
X80000000Y-58250000D02*
X80000000Y-54350000D01*
X99000000Y-58250000D02*
X101000000Y-58250000D01*
X101000000Y-58250000D02*
X101000000Y-54350000D01*
X99000000Y-58250000D02*
X99000000Y-54350000D01*
X34650000Y-27150000D02*
X40550000Y-27150000D01*
X34650000Y-31050000D02*
X40550000Y-31050000D01*
X40550000Y-31050000D02*
X40550000Y-29975000D01*
X47950000Y-31050000D02*
X47950000Y-29975000D01*
X42050000Y-31050000D02*
X47950000Y-31050000D01*
X42050000Y-27150000D02*
X47950000Y-27150000D01*
X60800000Y-39850000D02*
X62800000Y-39850000D01*
X62800000Y-39850000D02*
X62800000Y-35950000D01*
X60800000Y-39850000D02*
X60800000Y-35950000D01*
X77600000Y-47850000D02*
X79600000Y-47850000D01*
X79600000Y-47850000D02*
X79600000Y-43950000D01*
X77600000Y-47850000D02*
X77600000Y-43950000D01*
X96600000Y-47850000D02*
X96600000Y-43950000D01*
X98600000Y-47850000D02*
X98600000Y-43950000D01*
X96600000Y-47850000D02*
X98600000Y-47850000D01*
X77600000Y-53450000D02*
X77600000Y-49550000D01*
X79600000Y-53450000D02*
X79600000Y-49550000D01*
X77600000Y-53450000D02*
X79600000Y-53450000D01*
X96600000Y-53450000D02*
X98600000Y-53450000D01*
X98600000Y-53450000D02*
X98600000Y-49550000D01*
X96600000Y-53450000D02*
X96600000Y-49550000D01*
X115600000Y-53450000D02*
X115600000Y-49550000D01*
X117600000Y-53450000D02*
X117600000Y-49550000D01*
X115600000Y-53450000D02*
X117600000Y-53450000D01*
X77600000Y-72450000D02*
X77600000Y-68550000D01*
X79600000Y-72450000D02*
X79600000Y-68550000D01*
X77600000Y-72450000D02*
X79600000Y-72450000D01*
X96600000Y-72450000D02*
X96600000Y-68550000D01*
X98600000Y-72450000D02*
X98600000Y-68550000D01*
X96600000Y-72450000D02*
X98600000Y-72450000D01*
X115800000Y-72450000D02*
X117800000Y-72450000D01*
X117800000Y-72450000D02*
X117800000Y-68550000D01*
X115800000Y-72450000D02*
X115800000Y-68550000D01*
X44000000Y-40450000D02*
X41050000Y-40450000D01*
X41600000Y-43550000D02*
X44000000Y-43550000D01*
X43202064Y-37690000D02*
X41997936Y-37690000D01*
X43202064Y-39510000D02*
X41997936Y-39510000D01*
X29370160Y-40052050D02*
X29370160Y-49242050D01*
X38780160Y-40172050D02*
X38780160Y-49122050D01*
X32100160Y-49242050D02*
X29370160Y-49242050D01*
X32100160Y-40052050D02*
X29370160Y-40052050D01*
X35700160Y-49242050D02*
X34800160Y-49242050D01*
X35700160Y-40052050D02*
X34800160Y-40052050D01*
X49670000Y-28470000D02*
X51000000Y-28470000D01*
X49670000Y-29800000D02*
X49670000Y-28470000D01*
X49670000Y-31070000D02*
X52330000Y-31070000D01*
X52330000Y-31070000D02*
X52330000Y-33670000D01*
X49670000Y-31070000D02*
X49670000Y-33670000D01*
X49670000Y-33670000D02*
X52330000Y-33670000D01*
X53438980Y-33670000D02*
X56098980Y-33670000D01*
X53438980Y-31070000D02*
X53438980Y-33670000D01*
X56098980Y-31070000D02*
X56098980Y-33670000D01*
X53438980Y-31070000D02*
X56098980Y-31070000D01*
X53438980Y-29800000D02*
X53438980Y-28470000D01*
X53438980Y-28470000D02*
X54768980Y-28470000D01*
X38500000Y-64650000D02*
X36500000Y-64650000D01*
X38500000Y-61850000D02*
X38500000Y-64650000D01*
X36500000Y-61850000D02*
X38500000Y-61850000D01*
X36500000Y-64650000D02*
X36500000Y-61850000D01*
X36500000Y-60650000D02*
X36500000Y-57850000D01*
X36500000Y-57850000D02*
X38500000Y-57850000D01*
X38500000Y-57850000D02*
X38500000Y-60650000D01*
X38500000Y-60650000D02*
X36500000Y-60650000D01*
X33480000Y-37590000D02*
X33799000Y-37590000D01*
X31001000Y-37590000D02*
X31320000Y-37590000D01*
X31319276Y-33286758D02*
G75*
G03*
X31001251Y-37590000I1080724J-2243242D01*
G01*
X33480724Y-33286758D02*
G75*
G02*
X33798749Y-37590000I-1080724J-2243242D01*
G01*
X31319039Y-33847287D02*
G75*
G03*
X31320000Y-37213330I1080961J-1682713D01*
G01*
X33480961Y-33847287D02*
G75*
G02*
X33480000Y-37213330I-1080961J-1682713D01*
G01*
X33799000Y-59010000D02*
X33480000Y-59010000D01*
X31320000Y-59010000D02*
X31001000Y-59010000D01*
X31319039Y-62752713D02*
G75*
G02*
X31320000Y-59386670I1080961J1682713D01*
G01*
X33480961Y-62752713D02*
G75*
G03*
X33480000Y-59386670I-1080961J1682713D01*
G01*
X31319276Y-63313242D02*
G75*
G02*
X31001251Y-59010000I1080724J2243242D01*
G01*
X33480724Y-63313242D02*
G75*
G03*
X33798749Y-59010000I-1080724J2243242D01*
G01*
X35840000Y-68790000D02*
X35840000Y-66140000D01*
X35840000Y-66140000D02*
X45060000Y-66140000D01*
X45060000Y-66140000D02*
X45060000Y-68790000D01*
X45060000Y-72710000D02*
X45060000Y-75360000D01*
X45060000Y-75360000D02*
X35840000Y-75360000D01*
X35840000Y-75360000D02*
X35840000Y-72710000D01*
X35840000Y-68790000D02*
X35510000Y-68790000D01*
D11*
X35230000Y-78270000D02*
X35230000Y-75730000D01*
X45390000Y-75730000D02*
X45390000Y-78270000D01*
X35230000Y-75730000D02*
X45390000Y-75730000D01*
X35230000Y-78270000D02*
X45390000Y-78270000D01*
D10*
X32938748Y-66310000D02*
X33461252Y-66310000D01*
X32938748Y-64890000D02*
X33461252Y-64890000D01*
X37338748Y-34510000D02*
X37861252Y-34510000D01*
X37338748Y-33090000D02*
X37861252Y-33090000D01*
X47138748Y-65490000D02*
X47661252Y-65490000D01*
X47138748Y-66910000D02*
X47661252Y-66910000D01*
X42861252Y-44290000D02*
X42338748Y-44290000D01*
X42861252Y-45710000D02*
X42338748Y-45710000D01*
X42861252Y-47910000D02*
X42338748Y-47910000D01*
X42861252Y-46490000D02*
X42338748Y-46490000D01*
X42861252Y-50110000D02*
X42338748Y-50110000D01*
X42861252Y-48690000D02*
X42338748Y-48690000D01*
X37338748Y-38110000D02*
X37861252Y-38110000D01*
X37338748Y-36690000D02*
X37861252Y-36690000D01*
X73250000Y-63100000D02*
G75*
G03*
X73250000Y-63100000I-3000000J0D01*
G01*
X76150000Y-65100000D02*
X76150000Y-69200000D01*
X64350000Y-69200000D02*
X64350000Y-65100000D01*
X64350000Y-61100000D02*
X64350000Y-57000000D01*
X76150000Y-61100000D02*
X76150000Y-57000000D01*
X76150000Y-57000000D02*
X64350000Y-57000000D01*
X74050000Y-55600000D02*
X74350000Y-55300000D01*
X74350000Y-55300000D02*
X74350000Y-55900000D01*
X74350000Y-55900000D02*
X74050000Y-55600000D01*
X76150000Y-69200000D02*
X73750000Y-69200000D01*
X71550000Y-69200000D02*
X68950000Y-69200000D01*
X66750000Y-69200000D02*
X64350000Y-69200000D01*
X70750000Y-63100000D02*
X69750000Y-63100000D01*
X70250000Y-62600000D02*
X70250000Y-63600000D01*
D11*
X57400000Y-67250000D02*
X51400000Y-67250000D01*
X51400000Y-67250000D02*
X51400000Y-67500000D01*
X57400000Y-67250000D02*
X57400000Y-67500000D01*
X57400000Y-70750000D02*
X57400000Y-70500000D01*
X57400000Y-70750000D02*
X51400000Y-70750000D01*
X51400000Y-70750000D02*
X51400000Y-70500000D01*
X57400000Y-62650000D02*
X57400000Y-62900000D01*
X51400000Y-62650000D02*
X57400000Y-62650000D01*
X51400000Y-62650000D02*
X51400000Y-62900000D01*
X51400000Y-66150000D02*
X51400000Y-65900000D01*
X57400000Y-66150000D02*
X57400000Y-65900000D01*
X51400000Y-66150000D02*
X57400000Y-66150000D01*
D10*
X48640000Y-37420000D02*
X50100000Y-37420000D01*
X48640000Y-40580000D02*
X50800000Y-40580000D01*
X48640000Y-40580000D02*
X48640000Y-39650000D01*
X48640000Y-37420000D02*
X48640000Y-38350000D01*
X54110000Y-52660000D02*
X55400000Y-52660000D01*
X54110000Y-53110000D02*
X54110000Y-52660000D01*
X53660000Y-53110000D02*
X54110000Y-53110000D01*
X46890000Y-53110000D02*
X46890000Y-52660000D01*
X47340000Y-53110000D02*
X46890000Y-53110000D01*
X54110000Y-45890000D02*
X54110000Y-46340000D01*
X53660000Y-45890000D02*
X54110000Y-45890000D01*
X46890000Y-45890000D02*
X46890000Y-46340000D01*
X47340000Y-45890000D02*
X46890000Y-45890000D01*
X52400000Y-72640000D02*
X48950000Y-72640000D01*
X52400000Y-72640000D02*
X54350000Y-72640000D01*
X52400000Y-77760000D02*
X50450000Y-77760000D01*
X52400000Y-77760000D02*
X54350000Y-77760000D01*
X56650000Y-52750000D02*
X62050000Y-52750000D01*
X56650000Y-48250000D02*
X56650000Y-52750000D01*
D12*
X43000000Y-51500000D02*
X43000000Y-55500000D01*
X31000000Y-51500000D02*
X43000000Y-51500000D01*
X31000000Y-57500000D02*
X43000000Y-57500000D01*
D10*
X112693390Y-76339690D02*
X112693390Y-73679690D01*
X64373390Y-76339690D02*
X112693390Y-76339690D01*
X64373390Y-73679690D02*
X112693390Y-73679690D01*
X64373390Y-76339690D02*
X64373390Y-73679690D01*
X63103390Y-76339690D02*
X61773390Y-76339690D01*
X61773390Y-76339690D02*
X61773390Y-75009690D01*
X45290000Y-43261252D02*
X45290000Y-42738748D01*
X46710000Y-43261252D02*
X46710000Y-42738748D01*
D11*
X48294000Y-59762000D02*
X48040000Y-60016000D01*
X48040000Y-60016000D02*
X47786000Y-60016000D01*
X47786000Y-60016000D02*
X47532000Y-59762000D01*
X47532000Y-59762000D02*
X43468000Y-59762000D01*
X43468000Y-59762000D02*
X43214000Y-60016000D01*
X43214000Y-60016000D02*
X42960000Y-60016000D01*
X42960000Y-60016000D02*
X42706000Y-59762000D01*
X42706000Y-59762000D02*
X42706000Y-58238000D01*
X42706000Y-58238000D02*
X42960000Y-57984000D01*
X42960000Y-57984000D02*
X43214000Y-57984000D01*
X43214000Y-57984000D02*
X43468000Y-58238000D01*
X43468000Y-58238000D02*
X47532000Y-58238000D01*
X47532000Y-58238000D02*
X47786000Y-57984000D01*
X47786000Y-57984000D02*
X48040000Y-57984000D01*
X48040000Y-57984000D02*
X48294000Y-58238000D01*
X48294000Y-58238000D02*
X48294000Y-59762000D01*
X48802000Y-59000000D02*
X48294000Y-59000000D01*
X42706000Y-59000000D02*
X42198000Y-59000000D01*
X42706000Y-61250000D02*
X42198000Y-61250000D01*
X48802000Y-61250000D02*
X48294000Y-61250000D01*
X48294000Y-60488000D02*
X48294000Y-62012000D01*
X48040000Y-60234000D02*
X48294000Y-60488000D01*
X47786000Y-60234000D02*
X48040000Y-60234000D01*
X47532000Y-60488000D02*
X47786000Y-60234000D01*
X43468000Y-60488000D02*
X47532000Y-60488000D01*
X43214000Y-60234000D02*
X43468000Y-60488000D01*
X42960000Y-60234000D02*
X43214000Y-60234000D01*
X42706000Y-60488000D02*
X42960000Y-60234000D01*
X42706000Y-62012000D02*
X42706000Y-60488000D01*
X42960000Y-62266000D02*
X42706000Y-62012000D01*
X43214000Y-62266000D02*
X42960000Y-62266000D01*
X43468000Y-62012000D02*
X43214000Y-62266000D01*
X47532000Y-62012000D02*
X43468000Y-62012000D01*
X47786000Y-62266000D02*
X47532000Y-62012000D01*
X48040000Y-62266000D02*
X47786000Y-62266000D01*
X48294000Y-62012000D02*
X48040000Y-62266000D01*
X60225770Y-32733333D02*
X60940056Y-32733333D01*
X61082913Y-32780952D01*
X61178151Y-32876190D01*
X61225770Y-33019047D01*
X61225770Y-33114285D01*
X60321009Y-32304761D02*
X60273390Y-32257142D01*
X60225770Y-32161904D01*
X60225770Y-31923809D01*
X60273390Y-31828571D01*
X60321009Y-31780952D01*
X60416247Y-31733333D01*
X60511485Y-31733333D01*
X60654342Y-31780952D01*
X61225770Y-32352380D01*
X61225770Y-31733333D01*
X61787976Y-29957142D02*
X62397500Y-29957142D01*
X62092738Y-30261904D02*
X62092738Y-29652380D01*
X63159404Y-29461904D02*
X62778452Y-29461904D01*
X62740357Y-29842857D01*
X62778452Y-29804761D01*
X62854642Y-29766666D01*
X63045119Y-29766666D01*
X63121309Y-29804761D01*
X63159404Y-29842857D01*
X63197500Y-29919047D01*
X63197500Y-30109523D01*
X63159404Y-30185714D01*
X63121309Y-30223809D01*
X63045119Y-30261904D01*
X62854642Y-30261904D01*
X62778452Y-30223809D01*
X62740357Y-30185714D01*
X63426071Y-29461904D02*
X63692738Y-30261904D01*
X63959404Y-29461904D01*
X65292738Y-30261904D02*
X65026071Y-29880952D01*
X64835595Y-30261904D02*
X64835595Y-29461904D01*
X65140357Y-29461904D01*
X65216547Y-29500000D01*
X65254642Y-29538095D01*
X65292738Y-29614285D01*
X65292738Y-29728571D01*
X65254642Y-29804761D01*
X65216547Y-29842857D01*
X65140357Y-29880952D01*
X64835595Y-29880952D01*
X65635595Y-29842857D02*
X65902261Y-29842857D01*
X66016547Y-30261904D02*
X65635595Y-30261904D01*
X65635595Y-29461904D01*
X66016547Y-29461904D01*
X66778452Y-30261904D02*
X66321309Y-30261904D01*
X66549880Y-30261904D02*
X66549880Y-29461904D01*
X66473690Y-29576190D01*
X66397500Y-29652380D01*
X66321309Y-29690476D01*
X67464166Y-30261904D02*
X67464166Y-29842857D01*
X67426071Y-29766666D01*
X67349880Y-29728571D01*
X67197500Y-29728571D01*
X67121309Y-29766666D01*
X67464166Y-30223809D02*
X67387976Y-30261904D01*
X67197500Y-30261904D01*
X67121309Y-30223809D01*
X67083214Y-30147619D01*
X67083214Y-30071428D01*
X67121309Y-29995238D01*
X67197500Y-29957142D01*
X67387976Y-29957142D01*
X67464166Y-29919047D01*
X68416547Y-29423809D02*
X67730833Y-30452380D01*
X68683214Y-30261904D02*
X68683214Y-29461904D01*
X68683214Y-29766666D02*
X68759404Y-29728571D01*
X68911785Y-29728571D01*
X68987976Y-29766666D01*
X69026071Y-29804761D01*
X69064166Y-29880952D01*
X69064166Y-30109523D01*
X69026071Y-30185714D01*
X68987976Y-30223809D01*
X68911785Y-30261904D01*
X68759404Y-30261904D01*
X68683214Y-30223809D01*
X70473690Y-30261904D02*
X70207023Y-29880952D01*
X70016547Y-30261904D02*
X70016547Y-29461904D01*
X70321309Y-29461904D01*
X70397500Y-29500000D01*
X70435595Y-29538095D01*
X70473690Y-29614285D01*
X70473690Y-29728571D01*
X70435595Y-29804761D01*
X70397500Y-29842857D01*
X70321309Y-29880952D01*
X70016547Y-29880952D01*
X70816547Y-29842857D02*
X71083214Y-29842857D01*
X71197500Y-30261904D02*
X70816547Y-30261904D01*
X70816547Y-29461904D01*
X71197500Y-29461904D01*
X71502261Y-29538095D02*
X71540357Y-29500000D01*
X71616547Y-29461904D01*
X71807023Y-29461904D01*
X71883214Y-29500000D01*
X71921309Y-29538095D01*
X71959404Y-29614285D01*
X71959404Y-29690476D01*
X71921309Y-29804761D01*
X71464166Y-30261904D01*
X71959404Y-30261904D01*
X72645119Y-30261904D02*
X72645119Y-29842857D01*
X72607023Y-29766666D01*
X72530833Y-29728571D01*
X72378452Y-29728571D01*
X72302261Y-29766666D01*
X72645119Y-30223809D02*
X72568928Y-30261904D01*
X72378452Y-30261904D01*
X72302261Y-30223809D01*
X72264166Y-30147619D01*
X72264166Y-30071428D01*
X72302261Y-29995238D01*
X72378452Y-29957142D01*
X72568928Y-29957142D01*
X72645119Y-29919047D01*
X73597500Y-29423809D02*
X72911785Y-30452380D01*
X73864166Y-30261904D02*
X73864166Y-29461904D01*
X73864166Y-29766666D02*
X73940357Y-29728571D01*
X74092738Y-29728571D01*
X74168928Y-29766666D01*
X74207023Y-29804761D01*
X74245119Y-29880952D01*
X74245119Y-30109523D01*
X74207023Y-30185714D01*
X74168928Y-30223809D01*
X74092738Y-30261904D01*
X73940357Y-30261904D01*
X73864166Y-30223809D01*
X75464166Y-29842857D02*
X75578452Y-29880952D01*
X75616547Y-29919047D01*
X75654642Y-29995238D01*
X75654642Y-30109523D01*
X75616547Y-30185714D01*
X75578452Y-30223809D01*
X75502261Y-30261904D01*
X75197500Y-30261904D01*
X75197500Y-29461904D01*
X75464166Y-29461904D01*
X75540357Y-29500000D01*
X75578452Y-29538095D01*
X75616547Y-29614285D01*
X75616547Y-29690476D01*
X75578452Y-29766666D01*
X75540357Y-29804761D01*
X75464166Y-29842857D01*
X75197500Y-29842857D01*
X76416547Y-30261904D02*
X75959404Y-30261904D01*
X76187976Y-30261904D02*
X76187976Y-29461904D01*
X76111785Y-29576190D01*
X76035595Y-29652380D01*
X75959404Y-29690476D01*
X76721309Y-29538095D02*
X76759404Y-29500000D01*
X76835595Y-29461904D01*
X77026071Y-29461904D01*
X77102261Y-29500000D01*
X77140357Y-29538095D01*
X77178452Y-29614285D01*
X77178452Y-29690476D01*
X77140357Y-29804761D01*
X76683214Y-30261904D01*
X77178452Y-30261904D01*
X78092738Y-29423809D02*
X77407023Y-30452380D01*
X78778452Y-30261904D02*
X78321309Y-30261904D01*
X78549880Y-30261904D02*
X78549880Y-29461904D01*
X78473690Y-29576190D01*
X78397500Y-29652380D01*
X78321309Y-29690476D01*
X79045119Y-29461904D02*
X79540357Y-29461904D01*
X79273690Y-29766666D01*
X79387976Y-29766666D01*
X79464166Y-29804761D01*
X79502261Y-29842857D01*
X79540357Y-29919047D01*
X79540357Y-30109523D01*
X79502261Y-30185714D01*
X79464166Y-30223809D01*
X79387976Y-30261904D01*
X79159404Y-30261904D01*
X79083214Y-30223809D01*
X79045119Y-30185714D01*
X80454642Y-29423809D02*
X79768928Y-30452380D01*
X81140357Y-30261904D02*
X80683214Y-30261904D01*
X80911785Y-30261904D02*
X80911785Y-29461904D01*
X80835595Y-29576190D01*
X80759404Y-29652380D01*
X80683214Y-29690476D01*
X81826071Y-29728571D02*
X81826071Y-30261904D01*
X81635595Y-29423809D02*
X81445119Y-29995238D01*
X81940357Y-29995238D01*
X83311785Y-30185714D02*
X83273690Y-30223809D01*
X83159404Y-30261904D01*
X83083214Y-30261904D01*
X82968928Y-30223809D01*
X82892738Y-30147619D01*
X82854642Y-30071428D01*
X82816547Y-29919047D01*
X82816547Y-29804761D01*
X82854642Y-29652380D01*
X82892738Y-29576190D01*
X82968928Y-29500000D01*
X83083214Y-29461904D01*
X83159404Y-29461904D01*
X83273690Y-29500000D01*
X83311785Y-29538095D01*
X83807023Y-29461904D02*
X83959404Y-29461904D01*
X84035595Y-29500000D01*
X84111785Y-29576190D01*
X84149880Y-29728571D01*
X84149880Y-29995238D01*
X84111785Y-30147619D01*
X84035595Y-30223809D01*
X83959404Y-30261904D01*
X83807023Y-30261904D01*
X83730833Y-30223809D01*
X83654642Y-30147619D01*
X83616547Y-29995238D01*
X83616547Y-29728571D01*
X83654642Y-29576190D01*
X83730833Y-29500000D01*
X83807023Y-29461904D01*
X84873690Y-30261904D02*
X84492738Y-30261904D01*
X84492738Y-29461904D01*
X85559404Y-30261904D02*
X85102261Y-30261904D01*
X85330833Y-30261904D02*
X85330833Y-29461904D01*
X85254642Y-29576190D01*
X85178452Y-29652380D01*
X85102261Y-29690476D01*
X86473690Y-29423809D02*
X85787976Y-30452380D01*
X86702261Y-29538095D02*
X86740357Y-29500000D01*
X86816547Y-29461904D01*
X87007023Y-29461904D01*
X87083214Y-29500000D01*
X87121309Y-29538095D01*
X87159404Y-29614285D01*
X87159404Y-29690476D01*
X87121309Y-29804761D01*
X86664166Y-30261904D01*
X87159404Y-30261904D01*
X88073690Y-29423809D02*
X87387976Y-30452380D01*
X88264166Y-29461904D02*
X88759404Y-29461904D01*
X88492738Y-29766666D01*
X88607023Y-29766666D01*
X88683214Y-29804761D01*
X88721309Y-29842857D01*
X88759404Y-29919047D01*
X88759404Y-30109523D01*
X88721309Y-30185714D01*
X88683214Y-30223809D01*
X88607023Y-30261904D01*
X88378452Y-30261904D01*
X88302261Y-30223809D01*
X88264166Y-30185714D01*
X90283214Y-30033333D02*
X90664166Y-30033333D01*
X90207023Y-30261904D02*
X90473690Y-29461904D01*
X90740357Y-30261904D01*
X90930833Y-29461904D02*
X91426071Y-29461904D01*
X91159404Y-29766666D01*
X91273690Y-29766666D01*
X91349880Y-29804761D01*
X91387976Y-29842857D01*
X91426071Y-29919047D01*
X91426071Y-30109523D01*
X91387976Y-30185714D01*
X91349880Y-30223809D01*
X91273690Y-30261904D01*
X91045119Y-30261904D01*
X90968928Y-30223809D01*
X90930833Y-30185714D01*
X93368928Y-30261904D02*
X92987976Y-30261904D01*
X92987976Y-29461904D01*
X93635595Y-29842857D02*
X93902261Y-29842857D01*
X94016547Y-30261904D02*
X93635595Y-30261904D01*
X93635595Y-29461904D01*
X94016547Y-29461904D01*
X94359404Y-30261904D02*
X94359404Y-29461904D01*
X94549880Y-29461904D01*
X94664166Y-29500000D01*
X94740357Y-29576190D01*
X94778452Y-29652380D01*
X94816547Y-29804761D01*
X94816547Y-29919047D01*
X94778452Y-30071428D01*
X94740357Y-30147619D01*
X94664166Y-30223809D01*
X94549880Y-30261904D01*
X94359404Y-30261904D01*
X95768928Y-29957142D02*
X96378452Y-29957142D01*
X97826071Y-30261904D02*
X97559404Y-29880952D01*
X97368928Y-30261904D02*
X97368928Y-29461904D01*
X97673690Y-29461904D01*
X97749880Y-29500000D01*
X97787976Y-29538095D01*
X97826071Y-29614285D01*
X97826071Y-29728571D01*
X97787976Y-29804761D01*
X97749880Y-29842857D01*
X97673690Y-29880952D01*
X97368928Y-29880952D01*
X98321309Y-29461904D02*
X98473690Y-29461904D01*
X98549880Y-29500000D01*
X98626071Y-29576190D01*
X98664166Y-29728571D01*
X98664166Y-29995238D01*
X98626071Y-30147619D01*
X98549880Y-30223809D01*
X98473690Y-30261904D01*
X98321309Y-30261904D01*
X98245119Y-30223809D01*
X98168928Y-30147619D01*
X98130833Y-29995238D01*
X98130833Y-29728571D01*
X98168928Y-29576190D01*
X98245119Y-29500000D01*
X98321309Y-29461904D01*
X98930833Y-29461904D02*
X99121309Y-30261904D01*
X99273690Y-29690476D01*
X99426071Y-30261904D01*
X99616547Y-29461904D01*
X100340357Y-30261904D02*
X99883214Y-30261904D01*
X100111785Y-30261904D02*
X100111785Y-29461904D01*
X100035595Y-29576190D01*
X99959404Y-29652380D01*
X99883214Y-29690476D01*
X101254642Y-29423809D02*
X100568928Y-30452380D01*
X101483214Y-29538095D02*
X101521309Y-29500000D01*
X101597500Y-29461904D01*
X101787976Y-29461904D01*
X101864166Y-29500000D01*
X101902261Y-29538095D01*
X101940357Y-29614285D01*
X101940357Y-29690476D01*
X101902261Y-29804761D01*
X101445119Y-30261904D01*
X101940357Y-30261904D01*
X102854642Y-30223809D02*
X102968928Y-30261904D01*
X103159404Y-30261904D01*
X103235595Y-30223809D01*
X103273690Y-30185714D01*
X103311785Y-30109523D01*
X103311785Y-30033333D01*
X103273690Y-29957142D01*
X103235595Y-29919047D01*
X103159404Y-29880952D01*
X103007023Y-29842857D01*
X102930833Y-29804761D01*
X102892738Y-29766666D01*
X102854642Y-29690476D01*
X102854642Y-29614285D01*
X102892738Y-29538095D01*
X102930833Y-29500000D01*
X103007023Y-29461904D01*
X103197500Y-29461904D01*
X103311785Y-29500000D01*
X104111785Y-30185714D02*
X104073690Y-30223809D01*
X103959404Y-30261904D01*
X103883214Y-30261904D01*
X103768928Y-30223809D01*
X103692738Y-30147619D01*
X103654642Y-30071428D01*
X103616547Y-29919047D01*
X103616547Y-29804761D01*
X103654642Y-29652380D01*
X103692738Y-29576190D01*
X103768928Y-29500000D01*
X103883214Y-29461904D01*
X103959404Y-29461904D01*
X104073690Y-29500000D01*
X104111785Y-29538095D01*
X104835595Y-30261904D02*
X104454642Y-30261904D01*
X104454642Y-29461904D01*
X105673690Y-30223809D02*
X105787976Y-30261904D01*
X105978452Y-30261904D01*
X106054642Y-30223809D01*
X106092738Y-30185714D01*
X106130833Y-30109523D01*
X106130833Y-30033333D01*
X106092738Y-29957142D01*
X106054642Y-29919047D01*
X105978452Y-29880952D01*
X105826071Y-29842857D01*
X105749880Y-29804761D01*
X105711785Y-29766666D01*
X105673690Y-29690476D01*
X105673690Y-29614285D01*
X105711785Y-29538095D01*
X105749880Y-29500000D01*
X105826071Y-29461904D01*
X106016547Y-29461904D01*
X106130833Y-29500000D01*
X106473690Y-30261904D02*
X106473690Y-29461904D01*
X106664166Y-29461904D01*
X106778452Y-29500000D01*
X106854642Y-29576190D01*
X106892738Y-29652380D01*
X106930833Y-29804761D01*
X106930833Y-29919047D01*
X106892738Y-30071428D01*
X106854642Y-30147619D01*
X106778452Y-30223809D01*
X106664166Y-30261904D01*
X106473690Y-30261904D01*
X107235595Y-30033333D02*
X107616547Y-30033333D01*
X107159404Y-30261904D02*
X107426071Y-29461904D01*
X107692738Y-30261904D01*
X108568928Y-29957142D02*
X109178452Y-29957142D01*
X111387976Y-29957142D02*
X111997499Y-29957142D01*
X103387976Y-29061904D02*
X103387976Y-28261904D01*
X103730833Y-28338095D02*
X103768928Y-28300000D01*
X103845119Y-28261904D01*
X104035595Y-28261904D01*
X104111785Y-28300000D01*
X104149880Y-28338095D01*
X104187976Y-28414285D01*
X104187976Y-28490476D01*
X104149880Y-28604761D01*
X103692738Y-29061904D01*
X104187976Y-29061904D01*
X104987976Y-28985714D02*
X104949880Y-29023809D01*
X104835595Y-29061904D01*
X104759404Y-29061904D01*
X104645119Y-29023809D01*
X104568928Y-28947619D01*
X104530833Y-28871428D01*
X104492738Y-28719047D01*
X104492738Y-28604761D01*
X104530833Y-28452380D01*
X104568928Y-28376190D01*
X104645119Y-28300000D01*
X104759404Y-28261904D01*
X104835595Y-28261904D01*
X104949880Y-28300000D01*
X104987976Y-28338095D01*
X105330833Y-28757142D02*
X105940357Y-28757142D01*
X106283214Y-28338095D02*
X106321309Y-28300000D01*
X106397500Y-28261904D01*
X106587976Y-28261904D01*
X106664166Y-28300000D01*
X106702261Y-28338095D01*
X106740357Y-28414285D01*
X106740357Y-28490476D01*
X106702261Y-28604761D01*
X106245119Y-29061904D01*
X106740357Y-29061904D01*
X64766666Y-39304761D02*
X64909523Y-39352380D01*
X65147619Y-39352380D01*
X65242857Y-39304761D01*
X65290476Y-39257142D01*
X65338095Y-39161904D01*
X65338095Y-39066666D01*
X65290476Y-38971428D01*
X65242857Y-38923809D01*
X65147619Y-38876190D01*
X64957142Y-38828571D01*
X64861904Y-38780952D01*
X64814285Y-38733333D01*
X64766666Y-38638095D01*
X64766666Y-38542857D01*
X64814285Y-38447619D01*
X64861904Y-38400000D01*
X64957142Y-38352380D01*
X65195238Y-38352380D01*
X65338095Y-38400000D01*
X65671428Y-38352380D02*
X65909523Y-39352380D01*
X66100000Y-38638095D01*
X66290476Y-39352380D01*
X66528571Y-38352380D01*
X67433333Y-39352380D02*
X66861904Y-39352380D01*
X67147619Y-39352380D02*
X67147619Y-38352380D01*
X67052380Y-38495238D01*
X66957142Y-38590476D01*
X66861904Y-38638095D01*
X45557142Y-36366666D02*
X45604761Y-36414285D01*
X45652380Y-36557142D01*
X45652380Y-36652380D01*
X45604761Y-36795238D01*
X45509523Y-36890476D01*
X45414285Y-36938095D01*
X45223809Y-36985714D01*
X45080952Y-36985714D01*
X44890476Y-36938095D01*
X44795238Y-36890476D01*
X44700000Y-36795238D01*
X44652380Y-36652380D01*
X44652380Y-36557142D01*
X44700000Y-36414285D01*
X44747619Y-36366666D01*
X45652380Y-35414285D02*
X45652380Y-35985714D01*
X45652380Y-35700000D02*
X44652380Y-35700000D01*
X44795238Y-35795238D01*
X44890476Y-35890476D01*
X44938095Y-35985714D01*
X52657142Y-41966666D02*
X52704761Y-42014285D01*
X52752380Y-42157142D01*
X52752380Y-42252380D01*
X52704761Y-42395238D01*
X52609523Y-42490476D01*
X52514285Y-42538095D01*
X52323809Y-42585714D01*
X52180952Y-42585714D01*
X51990476Y-42538095D01*
X51895238Y-42490476D01*
X51800000Y-42395238D01*
X51752380Y-42252380D01*
X51752380Y-42157142D01*
X51800000Y-42014285D01*
X51847619Y-41966666D01*
X51847619Y-41585714D02*
X51800000Y-41538095D01*
X51752380Y-41442857D01*
X51752380Y-41204761D01*
X51800000Y-41109523D01*
X51847619Y-41061904D01*
X51942857Y-41014285D01*
X52038095Y-41014285D01*
X52180952Y-41061904D01*
X52752380Y-41633333D01*
X52752380Y-41014285D01*
X62383333Y-54457142D02*
X62335714Y-54504761D01*
X62192857Y-54552380D01*
X62097619Y-54552380D01*
X61954761Y-54504761D01*
X61859523Y-54409523D01*
X61811904Y-54314285D01*
X61764285Y-54123809D01*
X61764285Y-53980952D01*
X61811904Y-53790476D01*
X61859523Y-53695238D01*
X61954761Y-53600000D01*
X62097619Y-53552380D01*
X62192857Y-53552380D01*
X62335714Y-53600000D01*
X62383333Y-53647619D01*
X62716666Y-53552380D02*
X63335714Y-53552380D01*
X63002380Y-53933333D01*
X63145238Y-53933333D01*
X63240476Y-53980952D01*
X63288095Y-54028571D01*
X63335714Y-54123809D01*
X63335714Y-54361904D01*
X63288095Y-54457142D01*
X63240476Y-54504761D01*
X63145238Y-54552380D01*
X62859523Y-54552380D01*
X62764285Y-54504761D01*
X62716666Y-54457142D01*
X59208333Y-45507142D02*
X59160714Y-45554761D01*
X59017857Y-45602380D01*
X58922619Y-45602380D01*
X58779761Y-45554761D01*
X58684523Y-45459523D01*
X58636904Y-45364285D01*
X58589285Y-45173809D01*
X58589285Y-45030952D01*
X58636904Y-44840476D01*
X58684523Y-44745238D01*
X58779761Y-44650000D01*
X58922619Y-44602380D01*
X59017857Y-44602380D01*
X59160714Y-44650000D01*
X59208333Y-44697619D01*
X60065476Y-44935714D02*
X60065476Y-45602380D01*
X59827380Y-44554761D02*
X59589285Y-45269047D01*
X60208333Y-45269047D01*
X58807142Y-40366666D02*
X58854761Y-40414285D01*
X58902380Y-40557142D01*
X58902380Y-40652380D01*
X58854761Y-40795238D01*
X58759523Y-40890476D01*
X58664285Y-40938095D01*
X58473809Y-40985714D01*
X58330952Y-40985714D01*
X58140476Y-40938095D01*
X58045238Y-40890476D01*
X57950000Y-40795238D01*
X57902380Y-40652380D01*
X57902380Y-40557142D01*
X57950000Y-40414285D01*
X57997619Y-40366666D01*
X57902380Y-39461904D02*
X57902380Y-39938095D01*
X58378571Y-39985714D01*
X58330952Y-39938095D01*
X58283333Y-39842857D01*
X58283333Y-39604761D01*
X58330952Y-39509523D01*
X58378571Y-39461904D01*
X58473809Y-39414285D01*
X58711904Y-39414285D01*
X58807142Y-39461904D01*
X58854761Y-39509523D01*
X58902380Y-39604761D01*
X58902380Y-39842857D01*
X58854761Y-39938095D01*
X58807142Y-39985714D01*
X54957142Y-43166666D02*
X55004761Y-43214285D01*
X55052380Y-43357142D01*
X55052380Y-43452380D01*
X55004761Y-43595238D01*
X54909523Y-43690476D01*
X54814285Y-43738095D01*
X54623809Y-43785714D01*
X54480952Y-43785714D01*
X54290476Y-43738095D01*
X54195238Y-43690476D01*
X54100000Y-43595238D01*
X54052380Y-43452380D01*
X54052380Y-43357142D01*
X54100000Y-43214285D01*
X54147619Y-43166666D01*
X54052380Y-42309523D02*
X54052380Y-42500000D01*
X54100000Y-42595238D01*
X54147619Y-42642857D01*
X54290476Y-42738095D01*
X54480952Y-42785714D01*
X54861904Y-42785714D01*
X54957142Y-42738095D01*
X55004761Y-42690476D01*
X55052380Y-42595238D01*
X55052380Y-42404761D01*
X55004761Y-42309523D01*
X54957142Y-42261904D01*
X54861904Y-42214285D01*
X54623809Y-42214285D01*
X54528571Y-42261904D01*
X54480952Y-42309523D01*
X54433333Y-42404761D01*
X54433333Y-42595238D01*
X54480952Y-42690476D01*
X54528571Y-42738095D01*
X54623809Y-42785714D01*
X44433333Y-64457142D02*
X44385714Y-64504761D01*
X44242857Y-64552380D01*
X44147619Y-64552380D01*
X44004761Y-64504761D01*
X43909523Y-64409523D01*
X43861904Y-64314285D01*
X43814285Y-64123809D01*
X43814285Y-63980952D01*
X43861904Y-63790476D01*
X43909523Y-63695238D01*
X44004761Y-63600000D01*
X44147619Y-63552380D01*
X44242857Y-63552380D01*
X44385714Y-63600000D01*
X44433333Y-63647619D01*
X44766666Y-63552380D02*
X45433333Y-63552380D01*
X45004761Y-64552380D01*
X51657142Y-56666666D02*
X51704761Y-56714285D01*
X51752380Y-56857142D01*
X51752380Y-56952380D01*
X51704761Y-57095238D01*
X51609523Y-57190476D01*
X51514285Y-57238095D01*
X51323809Y-57285714D01*
X51180952Y-57285714D01*
X50990476Y-57238095D01*
X50895238Y-57190476D01*
X50800000Y-57095238D01*
X50752380Y-56952380D01*
X50752380Y-56857142D01*
X50800000Y-56714285D01*
X50847619Y-56666666D01*
X51180952Y-56095238D02*
X51133333Y-56190476D01*
X51085714Y-56238095D01*
X50990476Y-56285714D01*
X50942857Y-56285714D01*
X50847619Y-56238095D01*
X50800000Y-56190476D01*
X50752380Y-56095238D01*
X50752380Y-55904761D01*
X50800000Y-55809523D01*
X50847619Y-55761904D01*
X50942857Y-55714285D01*
X50990476Y-55714285D01*
X51085714Y-55761904D01*
X51133333Y-55809523D01*
X51180952Y-55904761D01*
X51180952Y-56095238D01*
X51228571Y-56190476D01*
X51276190Y-56238095D01*
X51371428Y-56285714D01*
X51561904Y-56285714D01*
X51657142Y-56238095D01*
X51704761Y-56190476D01*
X51752380Y-56095238D01*
X51752380Y-55904761D01*
X51704761Y-55809523D01*
X51657142Y-55761904D01*
X51561904Y-55714285D01*
X51371428Y-55714285D01*
X51276190Y-55761904D01*
X51228571Y-55809523D01*
X51180952Y-55904761D01*
X56257142Y-60466666D02*
X56304761Y-60514285D01*
X56352380Y-60657142D01*
X56352380Y-60752380D01*
X56304761Y-60895238D01*
X56209523Y-60990476D01*
X56114285Y-61038095D01*
X55923809Y-61085714D01*
X55780952Y-61085714D01*
X55590476Y-61038095D01*
X55495238Y-60990476D01*
X55400000Y-60895238D01*
X55352380Y-60752380D01*
X55352380Y-60657142D01*
X55400000Y-60514285D01*
X55447619Y-60466666D01*
X56352380Y-59990476D02*
X56352380Y-59800000D01*
X56304761Y-59704761D01*
X56257142Y-59657142D01*
X56114285Y-59561904D01*
X55923809Y-59514285D01*
X55542857Y-59514285D01*
X55447619Y-59561904D01*
X55400000Y-59609523D01*
X55352380Y-59704761D01*
X55352380Y-59895238D01*
X55400000Y-59990476D01*
X55447619Y-60038095D01*
X55542857Y-60085714D01*
X55780952Y-60085714D01*
X55876190Y-60038095D01*
X55923809Y-59990476D01*
X55971428Y-59895238D01*
X55971428Y-59704761D01*
X55923809Y-59609523D01*
X55876190Y-59561904D01*
X55780952Y-59514285D01*
X57407142Y-55642857D02*
X57454761Y-55690476D01*
X57502380Y-55833333D01*
X57502380Y-55928571D01*
X57454761Y-56071428D01*
X57359523Y-56166666D01*
X57264285Y-56214285D01*
X57073809Y-56261904D01*
X56930952Y-56261904D01*
X56740476Y-56214285D01*
X56645238Y-56166666D01*
X56550000Y-56071428D01*
X56502380Y-55928571D01*
X56502380Y-55833333D01*
X56550000Y-55690476D01*
X56597619Y-55642857D01*
X57502380Y-54690476D02*
X57502380Y-55261904D01*
X57502380Y-54976190D02*
X56502380Y-54976190D01*
X56645238Y-55071428D01*
X56740476Y-55166666D01*
X56788095Y-55261904D01*
X56502380Y-54071428D02*
X56502380Y-53976190D01*
X56550000Y-53880952D01*
X56597619Y-53833333D01*
X56692857Y-53785714D01*
X56883333Y-53738095D01*
X57121428Y-53738095D01*
X57311904Y-53785714D01*
X57407142Y-53833333D01*
X57454761Y-53880952D01*
X57502380Y-53976190D01*
X57502380Y-54071428D01*
X57454761Y-54166666D01*
X57407142Y-54214285D01*
X57311904Y-54261904D01*
X57121428Y-54309523D01*
X56883333Y-54309523D01*
X56692857Y-54261904D01*
X56597619Y-54214285D01*
X56550000Y-54166666D01*
X56502380Y-54071428D01*
X46157142Y-54842857D02*
X46204761Y-54890476D01*
X46252380Y-55033333D01*
X46252380Y-55128571D01*
X46204761Y-55271428D01*
X46109523Y-55366666D01*
X46014285Y-55414285D01*
X45823809Y-55461904D01*
X45680952Y-55461904D01*
X45490476Y-55414285D01*
X45395238Y-55366666D01*
X45300000Y-55271428D01*
X45252380Y-55128571D01*
X45252380Y-55033333D01*
X45300000Y-54890476D01*
X45347619Y-54842857D01*
X46252380Y-53890476D02*
X46252380Y-54461904D01*
X46252380Y-54176190D02*
X45252380Y-54176190D01*
X45395238Y-54271428D01*
X45490476Y-54366666D01*
X45538095Y-54461904D01*
X46252380Y-52938095D02*
X46252380Y-53509523D01*
X46252380Y-53223809D02*
X45252380Y-53223809D01*
X45395238Y-53319047D01*
X45490476Y-53414285D01*
X45538095Y-53509523D01*
X76952380Y-37638095D02*
X75952380Y-37638095D01*
X75952380Y-37400000D01*
X76000000Y-37257142D01*
X76095238Y-37161904D01*
X76190476Y-37114285D01*
X76380952Y-37066666D01*
X76523809Y-37066666D01*
X76714285Y-37114285D01*
X76809523Y-37161904D01*
X76904761Y-37257142D01*
X76952380Y-37400000D01*
X76952380Y-37638095D01*
X76952380Y-36114285D02*
X76952380Y-36685714D01*
X76952380Y-36400000D02*
X75952380Y-36400000D01*
X76095238Y-36495238D01*
X76190476Y-36590476D01*
X76238095Y-36685714D01*
X83552380Y-37738095D02*
X82552380Y-37738095D01*
X82552380Y-37500000D01*
X82600000Y-37357142D01*
X82695238Y-37261904D01*
X82790476Y-37214285D01*
X82980952Y-37166666D01*
X83123809Y-37166666D01*
X83314285Y-37214285D01*
X83409523Y-37261904D01*
X83504761Y-37357142D01*
X83552380Y-37500000D01*
X83552380Y-37738095D01*
X82647619Y-36785714D02*
X82600000Y-36738095D01*
X82552380Y-36642857D01*
X82552380Y-36404761D01*
X82600000Y-36309523D01*
X82647619Y-36261904D01*
X82742857Y-36214285D01*
X82838095Y-36214285D01*
X82980952Y-36261904D01*
X83552380Y-36833333D01*
X83552380Y-36214285D01*
X98452380Y-37738095D02*
X97452380Y-37738095D01*
X97452380Y-37500000D01*
X97500000Y-37357142D01*
X97595238Y-37261904D01*
X97690476Y-37214285D01*
X97880952Y-37166666D01*
X98023809Y-37166666D01*
X98214285Y-37214285D01*
X98309523Y-37261904D01*
X98404761Y-37357142D01*
X98452380Y-37500000D01*
X98452380Y-37738095D01*
X97452380Y-36833333D02*
X97452380Y-36214285D01*
X97833333Y-36547619D01*
X97833333Y-36404761D01*
X97880952Y-36309523D01*
X97928571Y-36261904D01*
X98023809Y-36214285D01*
X98261904Y-36214285D01*
X98357142Y-36261904D01*
X98404761Y-36309523D01*
X98452380Y-36404761D01*
X98452380Y-36690476D01*
X98404761Y-36785714D01*
X98357142Y-36833333D01*
X58152380Y-58338095D02*
X57152380Y-58338095D01*
X57152380Y-58100000D01*
X57200000Y-57957142D01*
X57295238Y-57861904D01*
X57390476Y-57814285D01*
X57580952Y-57766666D01*
X57723809Y-57766666D01*
X57914285Y-57814285D01*
X58009523Y-57861904D01*
X58104761Y-57957142D01*
X58152380Y-58100000D01*
X58152380Y-58338095D01*
X57485714Y-56909523D02*
X58152380Y-56909523D01*
X57104761Y-57147619D02*
X57819047Y-57385714D01*
X57819047Y-56766666D01*
X79452380Y-56738095D02*
X78452380Y-56738095D01*
X78452380Y-56500000D01*
X78500000Y-56357142D01*
X78595238Y-56261904D01*
X78690476Y-56214285D01*
X78880952Y-56166666D01*
X79023809Y-56166666D01*
X79214285Y-56214285D01*
X79309523Y-56261904D01*
X79404761Y-56357142D01*
X79452380Y-56500000D01*
X79452380Y-56738095D01*
X78452380Y-55261904D02*
X78452380Y-55738095D01*
X78928571Y-55785714D01*
X78880952Y-55738095D01*
X78833333Y-55642857D01*
X78833333Y-55404761D01*
X78880952Y-55309523D01*
X78928571Y-55261904D01*
X79023809Y-55214285D01*
X79261904Y-55214285D01*
X79357142Y-55261904D01*
X79404761Y-55309523D01*
X79452380Y-55404761D01*
X79452380Y-55642857D01*
X79404761Y-55738095D01*
X79357142Y-55785714D01*
X98452380Y-56738095D02*
X97452380Y-56738095D01*
X97452380Y-56500000D01*
X97500000Y-56357142D01*
X97595238Y-56261904D01*
X97690476Y-56214285D01*
X97880952Y-56166666D01*
X98023809Y-56166666D01*
X98214285Y-56214285D01*
X98309523Y-56261904D01*
X98404761Y-56357142D01*
X98452380Y-56500000D01*
X98452380Y-56738095D01*
X97452380Y-55309523D02*
X97452380Y-55500000D01*
X97500000Y-55595238D01*
X97547619Y-55642857D01*
X97690476Y-55738095D01*
X97880952Y-55785714D01*
X98261904Y-55785714D01*
X98357142Y-55738095D01*
X98404761Y-55690476D01*
X98452380Y-55595238D01*
X98452380Y-55404761D01*
X98404761Y-55309523D01*
X98357142Y-55261904D01*
X98261904Y-55214285D01*
X98023809Y-55214285D01*
X97928571Y-55261904D01*
X97880952Y-55309523D01*
X97833333Y-55404761D01*
X97833333Y-55595238D01*
X97880952Y-55690476D01*
X97928571Y-55738095D01*
X98023809Y-55785714D01*
X38961904Y-32352380D02*
X38961904Y-31352380D01*
X39200000Y-31352380D01*
X39342857Y-31400000D01*
X39438095Y-31495238D01*
X39485714Y-31590476D01*
X39533333Y-31780952D01*
X39533333Y-31923809D01*
X39485714Y-32114285D01*
X39438095Y-32209523D01*
X39342857Y-32304761D01*
X39200000Y-32352380D01*
X38961904Y-32352380D01*
X39866666Y-31352380D02*
X40533333Y-31352380D01*
X40104761Y-32352380D01*
X46461904Y-32352380D02*
X46461904Y-31352380D01*
X46700000Y-31352380D01*
X46842857Y-31400000D01*
X46938095Y-31495238D01*
X46985714Y-31590476D01*
X47033333Y-31780952D01*
X47033333Y-31923809D01*
X46985714Y-32114285D01*
X46938095Y-32209523D01*
X46842857Y-32304761D01*
X46700000Y-32352380D01*
X46461904Y-32352380D01*
X47604761Y-31780952D02*
X47509523Y-31733333D01*
X47461904Y-31685714D01*
X47414285Y-31590476D01*
X47414285Y-31542857D01*
X47461904Y-31447619D01*
X47509523Y-31400000D01*
X47604761Y-31352380D01*
X47795238Y-31352380D01*
X47890476Y-31400000D01*
X47938095Y-31447619D01*
X47985714Y-31542857D01*
X47985714Y-31590476D01*
X47938095Y-31685714D01*
X47890476Y-31733333D01*
X47795238Y-31780952D01*
X47604761Y-31780952D01*
X47509523Y-31828571D01*
X47461904Y-31876190D01*
X47414285Y-31971428D01*
X47414285Y-32161904D01*
X47461904Y-32257142D01*
X47509523Y-32304761D01*
X47604761Y-32352380D01*
X47795238Y-32352380D01*
X47890476Y-32304761D01*
X47938095Y-32257142D01*
X47985714Y-32161904D01*
X47985714Y-31971428D01*
X47938095Y-31876190D01*
X47890476Y-31828571D01*
X47795238Y-31780952D01*
X60252380Y-38338095D02*
X59252380Y-38338095D01*
X59252380Y-38100000D01*
X59300000Y-37957142D01*
X59395238Y-37861904D01*
X59490476Y-37814285D01*
X59680952Y-37766666D01*
X59823809Y-37766666D01*
X60014285Y-37814285D01*
X60109523Y-37861904D01*
X60204761Y-37957142D01*
X60252380Y-38100000D01*
X60252380Y-38338095D01*
X60252380Y-37290476D02*
X60252380Y-37100000D01*
X60204761Y-37004761D01*
X60157142Y-36957142D01*
X60014285Y-36861904D01*
X59823809Y-36814285D01*
X59442857Y-36814285D01*
X59347619Y-36861904D01*
X59300000Y-36909523D01*
X59252380Y-37004761D01*
X59252380Y-37195238D01*
X59300000Y-37290476D01*
X59347619Y-37338095D01*
X59442857Y-37385714D01*
X59680952Y-37385714D01*
X59776190Y-37338095D01*
X59823809Y-37290476D01*
X59871428Y-37195238D01*
X59871428Y-37004761D01*
X59823809Y-36909523D01*
X59776190Y-36861904D01*
X59680952Y-36814285D01*
X77352380Y-48614285D02*
X76352380Y-48614285D01*
X76352380Y-48376190D01*
X76400000Y-48233333D01*
X76495238Y-48138095D01*
X76590476Y-48090476D01*
X76780952Y-48042857D01*
X76923809Y-48042857D01*
X77114285Y-48090476D01*
X77209523Y-48138095D01*
X77304761Y-48233333D01*
X77352380Y-48376190D01*
X77352380Y-48614285D01*
X77352380Y-47090476D02*
X77352380Y-47661904D01*
X77352380Y-47376190D02*
X76352380Y-47376190D01*
X76495238Y-47471428D01*
X76590476Y-47566666D01*
X76638095Y-47661904D01*
X76352380Y-46471428D02*
X76352380Y-46376190D01*
X76400000Y-46280952D01*
X76447619Y-46233333D01*
X76542857Y-46185714D01*
X76733333Y-46138095D01*
X76971428Y-46138095D01*
X77161904Y-46185714D01*
X77257142Y-46233333D01*
X77304761Y-46280952D01*
X77352380Y-46376190D01*
X77352380Y-46471428D01*
X77304761Y-46566666D01*
X77257142Y-46614285D01*
X77161904Y-46661904D01*
X76971428Y-46709523D01*
X76733333Y-46709523D01*
X76542857Y-46661904D01*
X76447619Y-46614285D01*
X76400000Y-46566666D01*
X76352380Y-46471428D01*
X96052380Y-47814285D02*
X95052380Y-47814285D01*
X95052380Y-47576190D01*
X95100000Y-47433333D01*
X95195238Y-47338095D01*
X95290476Y-47290476D01*
X95480952Y-47242857D01*
X95623809Y-47242857D01*
X95814285Y-47290476D01*
X95909523Y-47338095D01*
X96004761Y-47433333D01*
X96052380Y-47576190D01*
X96052380Y-47814285D01*
X96052380Y-46290476D02*
X96052380Y-46861904D01*
X96052380Y-46576190D02*
X95052380Y-46576190D01*
X95195238Y-46671428D01*
X95290476Y-46766666D01*
X95338095Y-46861904D01*
X96052380Y-45338095D02*
X96052380Y-45909523D01*
X96052380Y-45623809D02*
X95052380Y-45623809D01*
X95195238Y-45719047D01*
X95290476Y-45814285D01*
X95338095Y-45909523D01*
X77252380Y-52914285D02*
X76252380Y-52914285D01*
X76252380Y-52676190D01*
X76300000Y-52533333D01*
X76395238Y-52438095D01*
X76490476Y-52390476D01*
X76680952Y-52342857D01*
X76823809Y-52342857D01*
X77014285Y-52390476D01*
X77109523Y-52438095D01*
X77204761Y-52533333D01*
X77252380Y-52676190D01*
X77252380Y-52914285D01*
X77252380Y-51390476D02*
X77252380Y-51961904D01*
X77252380Y-51676190D02*
X76252380Y-51676190D01*
X76395238Y-51771428D01*
X76490476Y-51866666D01*
X76538095Y-51961904D01*
X76347619Y-51009523D02*
X76300000Y-50961904D01*
X76252380Y-50866666D01*
X76252380Y-50628571D01*
X76300000Y-50533333D01*
X76347619Y-50485714D01*
X76442857Y-50438095D01*
X76538095Y-50438095D01*
X76680952Y-50485714D01*
X77252380Y-51057142D01*
X77252380Y-50438095D01*
X96052380Y-52414285D02*
X95052380Y-52414285D01*
X95052380Y-52176190D01*
X95100000Y-52033333D01*
X95195238Y-51938095D01*
X95290476Y-51890476D01*
X95480952Y-51842857D01*
X95623809Y-51842857D01*
X95814285Y-51890476D01*
X95909523Y-51938095D01*
X96004761Y-52033333D01*
X96052380Y-52176190D01*
X96052380Y-52414285D01*
X96052380Y-50890476D02*
X96052380Y-51461904D01*
X96052380Y-51176190D02*
X95052380Y-51176190D01*
X95195238Y-51271428D01*
X95290476Y-51366666D01*
X95338095Y-51461904D01*
X95052380Y-50557142D02*
X95052380Y-49938095D01*
X95433333Y-50271428D01*
X95433333Y-50128571D01*
X95480952Y-50033333D01*
X95528571Y-49985714D01*
X95623809Y-49938095D01*
X95861904Y-49938095D01*
X95957142Y-49985714D01*
X96004761Y-50033333D01*
X96052380Y-50128571D01*
X96052380Y-50414285D01*
X96004761Y-50509523D01*
X95957142Y-50557142D01*
X115052380Y-52414285D02*
X114052380Y-52414285D01*
X114052380Y-52176190D01*
X114100000Y-52033333D01*
X114195238Y-51938095D01*
X114290476Y-51890476D01*
X114480952Y-51842857D01*
X114623809Y-51842857D01*
X114814285Y-51890476D01*
X114909523Y-51938095D01*
X115004761Y-52033333D01*
X115052380Y-52176190D01*
X115052380Y-52414285D01*
X115052380Y-50890476D02*
X115052380Y-51461904D01*
X115052380Y-51176190D02*
X114052380Y-51176190D01*
X114195238Y-51271428D01*
X114290476Y-51366666D01*
X114338095Y-51461904D01*
X114385714Y-50033333D02*
X115052380Y-50033333D01*
X114004761Y-50271428D02*
X114719047Y-50509523D01*
X114719047Y-49890476D01*
X77052380Y-72214285D02*
X76052380Y-72214285D01*
X76052380Y-71976190D01*
X76100000Y-71833333D01*
X76195238Y-71738095D01*
X76290476Y-71690476D01*
X76480952Y-71642857D01*
X76623809Y-71642857D01*
X76814285Y-71690476D01*
X76909523Y-71738095D01*
X77004761Y-71833333D01*
X77052380Y-71976190D01*
X77052380Y-72214285D01*
X77052380Y-70690476D02*
X77052380Y-71261904D01*
X77052380Y-70976190D02*
X76052380Y-70976190D01*
X76195238Y-71071428D01*
X76290476Y-71166666D01*
X76338095Y-71261904D01*
X76052380Y-69785714D02*
X76052380Y-70261904D01*
X76528571Y-70309523D01*
X76480952Y-70261904D01*
X76433333Y-70166666D01*
X76433333Y-69928571D01*
X76480952Y-69833333D01*
X76528571Y-69785714D01*
X76623809Y-69738095D01*
X76861904Y-69738095D01*
X76957142Y-69785714D01*
X77004761Y-69833333D01*
X77052380Y-69928571D01*
X77052380Y-70166666D01*
X77004761Y-70261904D01*
X76957142Y-70309523D01*
X96052380Y-71414285D02*
X95052380Y-71414285D01*
X95052380Y-71176190D01*
X95100000Y-71033333D01*
X95195238Y-70938095D01*
X95290476Y-70890476D01*
X95480952Y-70842857D01*
X95623809Y-70842857D01*
X95814285Y-70890476D01*
X95909523Y-70938095D01*
X96004761Y-71033333D01*
X96052380Y-71176190D01*
X96052380Y-71414285D01*
X96052380Y-69890476D02*
X96052380Y-70461904D01*
X96052380Y-70176190D02*
X95052380Y-70176190D01*
X95195238Y-70271428D01*
X95290476Y-70366666D01*
X95338095Y-70461904D01*
X95052380Y-69033333D02*
X95052380Y-69223809D01*
X95100000Y-69319047D01*
X95147619Y-69366666D01*
X95290476Y-69461904D01*
X95480952Y-69509523D01*
X95861904Y-69509523D01*
X95957142Y-69461904D01*
X96004761Y-69414285D01*
X96052380Y-69319047D01*
X96052380Y-69128571D01*
X96004761Y-69033333D01*
X95957142Y-68985714D01*
X95861904Y-68938095D01*
X95623809Y-68938095D01*
X95528571Y-68985714D01*
X95480952Y-69033333D01*
X95433333Y-69128571D01*
X95433333Y-69319047D01*
X95480952Y-69414285D01*
X95528571Y-69461904D01*
X95623809Y-69509523D01*
X115252380Y-71414285D02*
X114252380Y-71414285D01*
X114252380Y-71176190D01*
X114300000Y-71033333D01*
X114395238Y-70938095D01*
X114490476Y-70890476D01*
X114680952Y-70842857D01*
X114823809Y-70842857D01*
X115014285Y-70890476D01*
X115109523Y-70938095D01*
X115204761Y-71033333D01*
X115252380Y-71176190D01*
X115252380Y-71414285D01*
X115252380Y-69890476D02*
X115252380Y-70461904D01*
X115252380Y-70176190D02*
X114252380Y-70176190D01*
X114395238Y-70271428D01*
X114490476Y-70366666D01*
X114538095Y-70461904D01*
X114252380Y-69557142D02*
X114252380Y-68890476D01*
X115252380Y-69319047D01*
X41485714Y-40452380D02*
X41485714Y-39452380D01*
X41723809Y-39452380D01*
X41866666Y-39500000D01*
X41961904Y-39595238D01*
X42009523Y-39690476D01*
X42057142Y-39880952D01*
X42057142Y-40023809D01*
X42009523Y-40214285D01*
X41961904Y-40309523D01*
X41866666Y-40404761D01*
X41723809Y-40452380D01*
X41485714Y-40452380D01*
X43009523Y-40452380D02*
X42438095Y-40452380D01*
X42723809Y-40452380D02*
X42723809Y-39452380D01*
X42628571Y-39595238D01*
X42533333Y-39690476D01*
X42438095Y-39738095D01*
X43580952Y-39880952D02*
X43485714Y-39833333D01*
X43438095Y-39785714D01*
X43390476Y-39690476D01*
X43390476Y-39642857D01*
X43438095Y-39547619D01*
X43485714Y-39500000D01*
X43580952Y-39452380D01*
X43771428Y-39452380D01*
X43866666Y-39500000D01*
X43914285Y-39547619D01*
X43961904Y-39642857D01*
X43961904Y-39690476D01*
X43914285Y-39785714D01*
X43866666Y-39833333D01*
X43771428Y-39880952D01*
X43580952Y-39880952D01*
X43485714Y-39928571D01*
X43438095Y-39976190D01*
X43390476Y-40071428D01*
X43390476Y-40261904D01*
X43438095Y-40357142D01*
X43485714Y-40404761D01*
X43580952Y-40452380D01*
X43771428Y-40452380D01*
X43866666Y-40404761D01*
X43914285Y-40357142D01*
X43961904Y-40261904D01*
X43961904Y-40071428D01*
X43914285Y-39976190D01*
X43866666Y-39928571D01*
X43771428Y-39880952D01*
X42266666Y-36728571D02*
X41933333Y-36728571D01*
X41933333Y-37252380D02*
X41933333Y-36252380D01*
X42409523Y-36252380D01*
X43314285Y-37252380D02*
X42742857Y-37252380D01*
X43028571Y-37252380D02*
X43028571Y-36252380D01*
X42933333Y-36395238D01*
X42838095Y-36490476D01*
X42742857Y-36538095D01*
X39352380Y-42833333D02*
X40066666Y-42833333D01*
X40209523Y-42880952D01*
X40304761Y-42976190D01*
X40352380Y-43119047D01*
X40352380Y-43214285D01*
X39352380Y-42452380D02*
X39352380Y-41833333D01*
X39733333Y-42166666D01*
X39733333Y-42023809D01*
X39780952Y-41928571D01*
X39828571Y-41880952D01*
X39923809Y-41833333D01*
X40161904Y-41833333D01*
X40257142Y-41880952D01*
X40304761Y-41928571D01*
X40352380Y-42023809D01*
X40352380Y-42309523D01*
X40304761Y-42404761D01*
X40257142Y-42452380D01*
X49047619Y-27852380D02*
X49047619Y-26852380D01*
X49619047Y-27852380D01*
X49619047Y-26852380D01*
X50238095Y-27852380D02*
X50142857Y-27804761D01*
X50095238Y-27757142D01*
X50047619Y-27661904D01*
X50047619Y-27376190D01*
X50095238Y-27280952D01*
X50142857Y-27233333D01*
X50238095Y-27185714D01*
X50380952Y-27185714D01*
X50476190Y-27233333D01*
X50523809Y-27280952D01*
X50571428Y-27376190D01*
X50571428Y-27661904D01*
X50523809Y-27757142D01*
X50476190Y-27804761D01*
X50380952Y-27852380D01*
X50238095Y-27852380D01*
X50999999Y-27852380D02*
X50999999Y-27185714D01*
X50999999Y-27376190D02*
X51047619Y-27280952D01*
X51095238Y-27233333D01*
X51190476Y-27185714D01*
X51285714Y-27185714D01*
X51619047Y-27852380D02*
X51619047Y-27185714D01*
X51619047Y-27280952D02*
X51666666Y-27233333D01*
X51761904Y-27185714D01*
X51904761Y-27185714D01*
X51999999Y-27233333D01*
X52047619Y-27328571D01*
X52047619Y-27852380D01*
X52047619Y-27328571D02*
X52095238Y-27233333D01*
X52190476Y-27185714D01*
X52333333Y-27185714D01*
X52428571Y-27233333D01*
X52476190Y-27328571D01*
X52476190Y-27852380D01*
X52952380Y-27757142D02*
X52999999Y-27804761D01*
X52952380Y-27852380D01*
X52904761Y-27804761D01*
X52952380Y-27757142D01*
X52952380Y-27852380D01*
X54578503Y-27852380D02*
X54245170Y-27376190D01*
X54007075Y-27852380D02*
X54007075Y-26852380D01*
X54388027Y-26852380D01*
X54483265Y-26900000D01*
X54530884Y-26947619D01*
X54578503Y-27042857D01*
X54578503Y-27185714D01*
X54530884Y-27280952D01*
X54483265Y-27328571D01*
X54388027Y-27376190D01*
X54007075Y-27376190D01*
X55578503Y-27852380D02*
X55245170Y-27376190D01*
X55007075Y-27852380D02*
X55007075Y-26852380D01*
X55388027Y-26852380D01*
X55483265Y-26900000D01*
X55530884Y-26947619D01*
X55578503Y-27042857D01*
X55578503Y-27185714D01*
X55530884Y-27280952D01*
X55483265Y-27328571D01*
X55388027Y-27376190D01*
X55007075Y-27376190D01*
X35152380Y-64283333D02*
X35866666Y-64283333D01*
X36009523Y-64330952D01*
X36104761Y-64426190D01*
X36152380Y-64569047D01*
X36152380Y-64664285D01*
X36152380Y-63807142D02*
X35152380Y-63807142D01*
X35152380Y-63426190D01*
X35200000Y-63330952D01*
X35247619Y-63283333D01*
X35342857Y-63235714D01*
X35485714Y-63235714D01*
X35580952Y-63283333D01*
X35628571Y-63330952D01*
X35676190Y-63426190D01*
X35676190Y-63807142D01*
X35152380Y-62330952D02*
X35152380Y-62807142D01*
X35628571Y-62854761D01*
X35580952Y-62807142D01*
X35533333Y-62711904D01*
X35533333Y-62473809D01*
X35580952Y-62378571D01*
X35628571Y-62330952D01*
X35723809Y-62283333D01*
X35961904Y-62283333D01*
X36057142Y-62330952D01*
X36104761Y-62378571D01*
X36152380Y-62473809D01*
X36152380Y-62711904D01*
X36104761Y-62807142D01*
X36057142Y-62854761D01*
X35152380Y-60283333D02*
X35866666Y-60283333D01*
X36009523Y-60330952D01*
X36104761Y-60426190D01*
X36152380Y-60569047D01*
X36152380Y-60664285D01*
X36152380Y-59807142D02*
X35152380Y-59807142D01*
X35152380Y-59426190D01*
X35200000Y-59330952D01*
X35247619Y-59283333D01*
X35342857Y-59235714D01*
X35485714Y-59235714D01*
X35580952Y-59283333D01*
X35628571Y-59330952D01*
X35676190Y-59426190D01*
X35676190Y-59807142D01*
X35152380Y-58378571D02*
X35152380Y-58569047D01*
X35200000Y-58664285D01*
X35247619Y-58711904D01*
X35390476Y-58807142D01*
X35580952Y-58854761D01*
X35961904Y-58854761D01*
X36057142Y-58807142D01*
X36104761Y-58759523D01*
X36152380Y-58664285D01*
X36152380Y-58473809D01*
X36104761Y-58378571D01*
X36057142Y-58330952D01*
X35961904Y-58283333D01*
X35723809Y-58283333D01*
X35628571Y-58330952D01*
X35580952Y-58378571D01*
X35533333Y-58473809D01*
X35533333Y-58664285D01*
X35580952Y-58759523D01*
X35628571Y-58807142D01*
X35723809Y-58854761D01*
X29752380Y-32190476D02*
X29752380Y-32666666D01*
X30228571Y-32714285D01*
X30180952Y-32666666D01*
X30133333Y-32571428D01*
X30133333Y-32333333D01*
X30180952Y-32238095D01*
X30228571Y-32190476D01*
X30323809Y-32142857D01*
X30561904Y-32142857D01*
X30657142Y-32190476D01*
X30704761Y-32238095D01*
X30752380Y-32333333D01*
X30752380Y-32571428D01*
X30704761Y-32666666D01*
X30657142Y-32714285D01*
X29752380Y-31857142D02*
X30752380Y-31523809D01*
X29752380Y-31190476D01*
X29752380Y-66976190D02*
X29752380Y-66357142D01*
X30133333Y-66690476D01*
X30133333Y-66547619D01*
X30180952Y-66452380D01*
X30228571Y-66404761D01*
X30323809Y-66357142D01*
X30561904Y-66357142D01*
X30657142Y-66404761D01*
X30704761Y-66452380D01*
X30752380Y-66547619D01*
X30752380Y-66833333D01*
X30704761Y-66928571D01*
X30657142Y-66976190D01*
X30657142Y-65928571D02*
X30704761Y-65880952D01*
X30752380Y-65928571D01*
X30704761Y-65976190D01*
X30657142Y-65928571D01*
X30752380Y-65928571D01*
X29752380Y-65547619D02*
X29752380Y-64928571D01*
X30133333Y-65261904D01*
X30133333Y-65119047D01*
X30180952Y-65023809D01*
X30228571Y-64976190D01*
X30323809Y-64928571D01*
X30561904Y-64928571D01*
X30657142Y-64976190D01*
X30704761Y-65023809D01*
X30752380Y-65119047D01*
X30752380Y-65404761D01*
X30704761Y-65500000D01*
X30657142Y-65547619D01*
X29752380Y-64642857D02*
X30752380Y-64309523D01*
X29752380Y-63976190D01*
X33657142Y-74452380D02*
X33180952Y-74452380D01*
X33180952Y-73452380D01*
X33942857Y-74404761D02*
X34085714Y-74452380D01*
X34323809Y-74452380D01*
X34419047Y-74404761D01*
X34466666Y-74357142D01*
X34514285Y-74261904D01*
X34514285Y-74166666D01*
X34466666Y-74071428D01*
X34419047Y-74023809D01*
X34323809Y-73976190D01*
X34133333Y-73928571D01*
X34038095Y-73880952D01*
X33990476Y-73833333D01*
X33942857Y-73738095D01*
X33942857Y-73642857D01*
X33990476Y-73547619D01*
X34038095Y-73500000D01*
X34133333Y-73452380D01*
X34371428Y-73452380D01*
X34514285Y-73500000D01*
X35466666Y-74452380D02*
X34895238Y-74452380D01*
X35180952Y-74452380D02*
X35180952Y-73452380D01*
X35085714Y-73595238D01*
X34990476Y-73690476D01*
X34895238Y-73738095D01*
X38847619Y-78552380D02*
X39038095Y-78552380D01*
X39133333Y-78600000D01*
X39228571Y-78695238D01*
X39276190Y-78885714D01*
X39276190Y-79219047D01*
X39228571Y-79409523D01*
X39133333Y-79504761D01*
X39038095Y-79552380D01*
X38847619Y-79552380D01*
X38752380Y-79504761D01*
X38657142Y-79409523D01*
X38609523Y-79219047D01*
X38609523Y-78885714D01*
X38657142Y-78695238D01*
X38752380Y-78600000D01*
X38847619Y-78552380D01*
X40180952Y-79552380D02*
X39704761Y-79552380D01*
X39704761Y-78552380D01*
X40514285Y-79028571D02*
X40847619Y-79028571D01*
X40990476Y-79552380D02*
X40514285Y-79552380D01*
X40514285Y-78552380D01*
X40990476Y-78552380D01*
X41419047Y-79552380D02*
X41419047Y-78552380D01*
X41657142Y-78552380D01*
X41800000Y-78600000D01*
X41895238Y-78695238D01*
X41942857Y-78790476D01*
X41990476Y-78980952D01*
X41990476Y-79123809D01*
X41942857Y-79314285D01*
X41895238Y-79409523D01*
X41800000Y-79504761D01*
X41657142Y-79552380D01*
X41419047Y-79552380D01*
X33033333Y-67752380D02*
X32700000Y-67276190D01*
X32461904Y-67752380D02*
X32461904Y-66752380D01*
X32842857Y-66752380D01*
X32938095Y-66800000D01*
X32985714Y-66847619D01*
X33033333Y-66942857D01*
X33033333Y-67085714D01*
X32985714Y-67180952D01*
X32938095Y-67228571D01*
X32842857Y-67276190D01*
X32461904Y-67276190D01*
X33985714Y-67752380D02*
X33414285Y-67752380D01*
X33700000Y-67752380D02*
X33700000Y-66752380D01*
X33604761Y-66895238D01*
X33509523Y-66990476D01*
X33414285Y-67038095D01*
X36533333Y-32602380D02*
X36200000Y-32126190D01*
X35961904Y-32602380D02*
X35961904Y-31602380D01*
X36342857Y-31602380D01*
X36438095Y-31650000D01*
X36485714Y-31697619D01*
X36533333Y-31792857D01*
X36533333Y-31935714D01*
X36485714Y-32030952D01*
X36438095Y-32078571D01*
X36342857Y-32126190D01*
X35961904Y-32126190D01*
X36914285Y-31697619D02*
X36961904Y-31650000D01*
X37057142Y-31602380D01*
X37295238Y-31602380D01*
X37390476Y-31650000D01*
X37438095Y-31697619D01*
X37485714Y-31792857D01*
X37485714Y-31888095D01*
X37438095Y-32030952D01*
X36866666Y-32602380D01*
X37485714Y-32602380D01*
X47233333Y-68352380D02*
X46900000Y-67876190D01*
X46661904Y-68352380D02*
X46661904Y-67352380D01*
X47042857Y-67352380D01*
X47138095Y-67400000D01*
X47185714Y-67447619D01*
X47233333Y-67542857D01*
X47233333Y-67685714D01*
X47185714Y-67780952D01*
X47138095Y-67828571D01*
X47042857Y-67876190D01*
X46661904Y-67876190D01*
X47566666Y-67352380D02*
X48185714Y-67352380D01*
X47852380Y-67733333D01*
X47995238Y-67733333D01*
X48090476Y-67780952D01*
X48138095Y-67828571D01*
X48185714Y-67923809D01*
X48185714Y-68161904D01*
X48138095Y-68257142D01*
X48090476Y-68304761D01*
X47995238Y-68352380D01*
X47709523Y-68352380D01*
X47614285Y-68304761D01*
X47566666Y-68257142D01*
X39633333Y-45452380D02*
X39300000Y-44976190D01*
X39061904Y-45452380D02*
X39061904Y-44452380D01*
X39442857Y-44452380D01*
X39538095Y-44500000D01*
X39585714Y-44547619D01*
X39633333Y-44642857D01*
X39633333Y-44785714D01*
X39585714Y-44880952D01*
X39538095Y-44928571D01*
X39442857Y-44976190D01*
X39061904Y-44976190D01*
X40490476Y-44785714D02*
X40490476Y-45452380D01*
X40252380Y-44404761D02*
X40014285Y-45119047D01*
X40633333Y-45119047D01*
X39633333Y-47752380D02*
X39300000Y-47276190D01*
X39061904Y-47752380D02*
X39061904Y-46752380D01*
X39442857Y-46752380D01*
X39538095Y-46800000D01*
X39585714Y-46847619D01*
X39633333Y-46942857D01*
X39633333Y-47085714D01*
X39585714Y-47180952D01*
X39538095Y-47228571D01*
X39442857Y-47276190D01*
X39061904Y-47276190D01*
X40538095Y-46752380D02*
X40061904Y-46752380D01*
X40014285Y-47228571D01*
X40061904Y-47180952D01*
X40157142Y-47133333D01*
X40395238Y-47133333D01*
X40490476Y-47180952D01*
X40538095Y-47228571D01*
X40585714Y-47323809D01*
X40585714Y-47561904D01*
X40538095Y-47657142D01*
X40490476Y-47704761D01*
X40395238Y-47752380D01*
X40157142Y-47752380D01*
X40061904Y-47704761D01*
X40014285Y-47657142D01*
X39633333Y-49852380D02*
X39300000Y-49376190D01*
X39061904Y-49852380D02*
X39061904Y-48852380D01*
X39442857Y-48852380D01*
X39538095Y-48900000D01*
X39585714Y-48947619D01*
X39633333Y-49042857D01*
X39633333Y-49185714D01*
X39585714Y-49280952D01*
X39538095Y-49328571D01*
X39442857Y-49376190D01*
X39061904Y-49376190D01*
X40490476Y-48852380D02*
X40300000Y-48852380D01*
X40204761Y-48900000D01*
X40157142Y-48947619D01*
X40061904Y-49090476D01*
X40014285Y-49280952D01*
X40014285Y-49661904D01*
X40061904Y-49757142D01*
X40109523Y-49804761D01*
X40204761Y-49852380D01*
X40395238Y-49852380D01*
X40490476Y-49804761D01*
X40538095Y-49757142D01*
X40585714Y-49661904D01*
X40585714Y-49423809D01*
X40538095Y-49328571D01*
X40490476Y-49280952D01*
X40395238Y-49233333D01*
X40204761Y-49233333D01*
X40109523Y-49280952D01*
X40061904Y-49328571D01*
X40014285Y-49423809D01*
X36533333Y-36202380D02*
X36200000Y-35726190D01*
X35961904Y-36202380D02*
X35961904Y-35202380D01*
X36342857Y-35202380D01*
X36438095Y-35250000D01*
X36485714Y-35297619D01*
X36533333Y-35392857D01*
X36533333Y-35535714D01*
X36485714Y-35630952D01*
X36438095Y-35678571D01*
X36342857Y-35726190D01*
X35961904Y-35726190D01*
X36866666Y-35202380D02*
X37533333Y-35202380D01*
X37104761Y-36202380D01*
X64866666Y-58304761D02*
X65009523Y-58352380D01*
X65247619Y-58352380D01*
X65342857Y-58304761D01*
X65390476Y-58257142D01*
X65438095Y-58161904D01*
X65438095Y-58066666D01*
X65390476Y-57971428D01*
X65342857Y-57923809D01*
X65247619Y-57876190D01*
X65057142Y-57828571D01*
X64961904Y-57780952D01*
X64914285Y-57733333D01*
X64866666Y-57638095D01*
X64866666Y-57542857D01*
X64914285Y-57447619D01*
X64961904Y-57400000D01*
X65057142Y-57352380D01*
X65295238Y-57352380D01*
X65438095Y-57400000D01*
X65771428Y-57352380D02*
X66009523Y-58352380D01*
X66200000Y-57638095D01*
X66390476Y-58352380D01*
X66628571Y-57352380D01*
X67438095Y-57685714D02*
X67438095Y-58352380D01*
X67200000Y-57304761D02*
X66961904Y-58019047D01*
X67580952Y-58019047D01*
X58966666Y-70428571D02*
X59109523Y-70476190D01*
X59157142Y-70523809D01*
X59204761Y-70619047D01*
X59204761Y-70761904D01*
X59157142Y-70857142D01*
X59109523Y-70904761D01*
X59014285Y-70952380D01*
X58633333Y-70952380D01*
X58633333Y-69952380D01*
X58966666Y-69952380D01*
X59061904Y-70000000D01*
X59109523Y-70047619D01*
X59157142Y-70142857D01*
X59157142Y-70238095D01*
X59109523Y-70333333D01*
X59061904Y-70380952D01*
X58966666Y-70428571D01*
X58633333Y-70428571D01*
X59823809Y-69952380D02*
X60014285Y-69952380D01*
X60109523Y-70000000D01*
X60204761Y-70095238D01*
X60252380Y-70285714D01*
X60252380Y-70619047D01*
X60204761Y-70809523D01*
X60109523Y-70904761D01*
X60014285Y-70952380D01*
X59823809Y-70952380D01*
X59728571Y-70904761D01*
X59633333Y-70809523D01*
X59585714Y-70619047D01*
X59585714Y-70285714D01*
X59633333Y-70095238D01*
X59728571Y-70000000D01*
X59823809Y-69952380D01*
X60871428Y-69952380D02*
X61061904Y-69952380D01*
X61157142Y-70000000D01*
X61252380Y-70095238D01*
X61300000Y-70285714D01*
X61300000Y-70619047D01*
X61252380Y-70809523D01*
X61157142Y-70904761D01*
X61061904Y-70952380D01*
X60871428Y-70952380D01*
X60776190Y-70904761D01*
X60680952Y-70809523D01*
X60633333Y-70619047D01*
X60633333Y-70285714D01*
X60680952Y-70095238D01*
X60776190Y-70000000D01*
X60871428Y-69952380D01*
X61585714Y-69952380D02*
X62157142Y-69952380D01*
X61871428Y-70952380D02*
X61871428Y-69952380D01*
X62680952Y-69952380D02*
X62776190Y-69952380D01*
X62871428Y-70000000D01*
X62919047Y-70047619D01*
X62966666Y-70142857D01*
X63014285Y-70333333D01*
X63014285Y-70571428D01*
X62966666Y-70761904D01*
X62919047Y-70857142D01*
X62871428Y-70904761D01*
X62776190Y-70952380D01*
X62680952Y-70952380D01*
X62585714Y-70904761D01*
X62538095Y-70857142D01*
X62490476Y-70761904D01*
X62442857Y-70571428D01*
X62442857Y-70333333D01*
X62490476Y-70142857D01*
X62538095Y-70047619D01*
X62585714Y-70000000D01*
X62680952Y-69952380D01*
X59152380Y-66352380D02*
X58819047Y-65876190D01*
X58580952Y-66352380D02*
X58580952Y-65352380D01*
X58961904Y-65352380D01*
X59057142Y-65400000D01*
X59104761Y-65447619D01*
X59152380Y-65542857D01*
X59152380Y-65685714D01*
X59104761Y-65780952D01*
X59057142Y-65828571D01*
X58961904Y-65876190D01*
X58580952Y-65876190D01*
X59533333Y-66304761D02*
X59676190Y-66352380D01*
X59914285Y-66352380D01*
X60009523Y-66304761D01*
X60057142Y-66257142D01*
X60104761Y-66161904D01*
X60104761Y-66066666D01*
X60057142Y-65971428D01*
X60009523Y-65923809D01*
X59914285Y-65876190D01*
X59723809Y-65828571D01*
X59628571Y-65780952D01*
X59580952Y-65733333D01*
X59533333Y-65638095D01*
X59533333Y-65542857D01*
X59580952Y-65447619D01*
X59628571Y-65400000D01*
X59723809Y-65352380D01*
X59961904Y-65352380D01*
X60104761Y-65400000D01*
X60390476Y-65352380D02*
X60961904Y-65352380D01*
X60676190Y-66352380D02*
X60676190Y-65352380D01*
X48638095Y-40952380D02*
X48638095Y-41761904D01*
X48685714Y-41857142D01*
X48733333Y-41904761D01*
X48828571Y-41952380D01*
X49019047Y-41952380D01*
X49114285Y-41904761D01*
X49161904Y-41857142D01*
X49209523Y-41761904D01*
X49209523Y-40952380D01*
X50209523Y-41952380D02*
X49638095Y-41952380D01*
X49923809Y-41952380D02*
X49923809Y-40952380D01*
X49828571Y-41095238D01*
X49733333Y-41190476D01*
X49638095Y-41238095D01*
X52338095Y-54802380D02*
X52338095Y-55611904D01*
X52385714Y-55707142D01*
X52433333Y-55754761D01*
X52528571Y-55802380D01*
X52719047Y-55802380D01*
X52814285Y-55754761D01*
X52861904Y-55707142D01*
X52909523Y-55611904D01*
X52909523Y-54802380D01*
X53338095Y-54897619D02*
X53385714Y-54850000D01*
X53480952Y-54802380D01*
X53719047Y-54802380D01*
X53814285Y-54850000D01*
X53861904Y-54897619D01*
X53909523Y-54992857D01*
X53909523Y-55088095D01*
X53861904Y-55230952D01*
X53290476Y-55802380D01*
X53909523Y-55802380D01*
X51638095Y-71252380D02*
X51638095Y-72061904D01*
X51685714Y-72157142D01*
X51733333Y-72204761D01*
X51828571Y-72252380D01*
X52019047Y-72252380D01*
X52114285Y-72204761D01*
X52161904Y-72157142D01*
X52209523Y-72061904D01*
X52209523Y-71252380D01*
X52590476Y-71252380D02*
X53209523Y-71252380D01*
X52876190Y-71633333D01*
X53019047Y-71633333D01*
X53114285Y-71680952D01*
X53161904Y-71728571D01*
X53209523Y-71823809D01*
X53209523Y-72061904D01*
X53161904Y-72157142D01*
X53114285Y-72204761D01*
X53019047Y-72252380D01*
X52733333Y-72252380D01*
X52638095Y-72204761D01*
X52590476Y-72157142D01*
X62723809Y-50276190D02*
X62723809Y-50752380D01*
X62390476Y-49752380D02*
X62723809Y-50276190D01*
X63057142Y-49752380D01*
X63914285Y-50752380D02*
X63342857Y-50752380D01*
X63628571Y-50752380D02*
X63628571Y-49752380D01*
X63533333Y-49895238D01*
X63438095Y-49990476D01*
X63342857Y-50038095D01*
X32738095Y-49952380D02*
X32738095Y-50761904D01*
X32785714Y-50857142D01*
X32833333Y-50904761D01*
X32928571Y-50952380D01*
X33119047Y-50952380D01*
X33214285Y-50904761D01*
X33261904Y-50857142D01*
X33309523Y-50761904D01*
X33309523Y-49952380D01*
X34214285Y-50285714D02*
X34214285Y-50952380D01*
X33976190Y-49904761D02*
X33738095Y-50619047D01*
X34357142Y-50619047D01*
X60225770Y-75343023D02*
X60940056Y-75343023D01*
X61082913Y-75390642D01*
X61178151Y-75485880D01*
X61225770Y-75628737D01*
X61225770Y-75723975D01*
X61225770Y-74343023D02*
X61225770Y-74914451D01*
X61225770Y-74628737D02*
X60225770Y-74628737D01*
X60368628Y-74723975D01*
X60463866Y-74819213D01*
X60511485Y-74914451D01*
X61387976Y-77257142D02*
X61997500Y-77257142D01*
X61692738Y-77561904D02*
X61692738Y-76952380D01*
X62302261Y-76761904D02*
X62797500Y-76761904D01*
X62530833Y-77066666D01*
X62645119Y-77066666D01*
X62721309Y-77104761D01*
X62759404Y-77142857D01*
X62797500Y-77219047D01*
X62797500Y-77409523D01*
X62759404Y-77485714D01*
X62721309Y-77523809D01*
X62645119Y-77561904D01*
X62416547Y-77561904D01*
X62340357Y-77523809D01*
X62302261Y-77485714D01*
X63026071Y-76761904D02*
X63292738Y-77561904D01*
X63559404Y-76761904D01*
X64702261Y-77142857D02*
X64816547Y-77180952D01*
X64854642Y-77219047D01*
X64892738Y-77295238D01*
X64892738Y-77409523D01*
X64854642Y-77485714D01*
X64816547Y-77523809D01*
X64740357Y-77561904D01*
X64435595Y-77561904D01*
X64435595Y-76761904D01*
X64702261Y-76761904D01*
X64778452Y-76800000D01*
X64816547Y-76838095D01*
X64854642Y-76914285D01*
X64854642Y-76990476D01*
X64816547Y-77066666D01*
X64778452Y-77104761D01*
X64702261Y-77142857D01*
X64435595Y-77142857D01*
X65121309Y-76761904D02*
X65578452Y-76761904D01*
X65349880Y-77561904D02*
X65349880Y-76761904D01*
X65997500Y-76761904D02*
X66073690Y-76761904D01*
X66149880Y-76800000D01*
X66187976Y-76838095D01*
X66226071Y-76914285D01*
X66264166Y-77066666D01*
X66264166Y-77257142D01*
X66226071Y-77409523D01*
X66187976Y-77485714D01*
X66149880Y-77523809D01*
X66073690Y-77561904D01*
X65997500Y-77561904D01*
X65921309Y-77523809D01*
X65883214Y-77485714D01*
X65845119Y-77409523D01*
X65807023Y-77257142D01*
X65807023Y-77066666D01*
X65845119Y-76914285D01*
X65883214Y-76838095D01*
X65921309Y-76800000D01*
X65997500Y-76761904D01*
X67826071Y-77257142D02*
X68435595Y-77257142D01*
X69883214Y-77485714D02*
X69845119Y-77523809D01*
X69730833Y-77561904D01*
X69654642Y-77561904D01*
X69540357Y-77523809D01*
X69464166Y-77447619D01*
X69426071Y-77371428D01*
X69387976Y-77219047D01*
X69387976Y-77104761D01*
X69426071Y-76952380D01*
X69464166Y-76876190D01*
X69540357Y-76800000D01*
X69654642Y-76761904D01*
X69730833Y-76761904D01*
X69845119Y-76800000D01*
X69883214Y-76838095D01*
X70645119Y-77561904D02*
X70187976Y-77561904D01*
X70416547Y-77561904D02*
X70416547Y-76761904D01*
X70340357Y-76876190D01*
X70264166Y-76952380D01*
X70187976Y-76990476D01*
X71330833Y-77028571D02*
X71330833Y-77561904D01*
X71140357Y-76723809D02*
X70949880Y-77295238D01*
X71445119Y-77295238D01*
X72321309Y-76723809D02*
X71635595Y-77752380D01*
X73007023Y-77561904D02*
X72549880Y-77561904D01*
X72778452Y-77561904D02*
X72778452Y-76761904D01*
X72702261Y-76876190D01*
X72626071Y-76952380D01*
X72549880Y-76990476D01*
X73730833Y-76761904D02*
X73349880Y-76761904D01*
X73311785Y-77142857D01*
X73349880Y-77104761D01*
X73426071Y-77066666D01*
X73616547Y-77066666D01*
X73692738Y-77104761D01*
X73730833Y-77142857D01*
X73768928Y-77219047D01*
X73768928Y-77409523D01*
X73730833Y-77485714D01*
X73692738Y-77523809D01*
X73616547Y-77561904D01*
X73426071Y-77561904D01*
X73349880Y-77523809D01*
X73311785Y-77485714D01*
X75787976Y-77561904D02*
X75521309Y-77180952D01*
X75330833Y-77561904D02*
X75330833Y-76761904D01*
X75635595Y-76761904D01*
X75711785Y-76800000D01*
X75749880Y-76838095D01*
X75787976Y-76914285D01*
X75787976Y-77028571D01*
X75749880Y-77104761D01*
X75711785Y-77142857D01*
X75635595Y-77180952D01*
X75330833Y-77180952D01*
X76587976Y-77561904D02*
X76321309Y-77180952D01*
X76130833Y-77561904D02*
X76130833Y-76761904D01*
X76435595Y-76761904D01*
X76511785Y-76800000D01*
X76549880Y-76838095D01*
X76587976Y-76914285D01*
X76587976Y-77028571D01*
X76549880Y-77104761D01*
X76511785Y-77142857D01*
X76435595Y-77180952D01*
X76130833Y-77180952D01*
X77349880Y-77561904D02*
X76892738Y-77561904D01*
X77121309Y-77561904D02*
X77121309Y-76761904D01*
X77045119Y-76876190D01*
X76968928Y-76952380D01*
X76892738Y-76990476D01*
X78264166Y-76723809D02*
X77578452Y-77752380D01*
X78492738Y-76838095D02*
X78530833Y-76800000D01*
X78607023Y-76761904D01*
X78797500Y-76761904D01*
X78873690Y-76800000D01*
X78911785Y-76838095D01*
X78949880Y-76914285D01*
X78949880Y-76990476D01*
X78911785Y-77104761D01*
X78454642Y-77561904D01*
X78949880Y-77561904D01*
X79864166Y-76723809D02*
X79178452Y-77752380D01*
X80054642Y-76761904D02*
X80549880Y-76761904D01*
X80283214Y-77066666D01*
X80397500Y-77066666D01*
X80473690Y-77104761D01*
X80511785Y-77142857D01*
X80549880Y-77219047D01*
X80549880Y-77409523D01*
X80511785Y-77485714D01*
X80473690Y-77523809D01*
X80397500Y-77561904D01*
X80168928Y-77561904D01*
X80092738Y-77523809D01*
X80054642Y-77485714D01*
X81730833Y-76761904D02*
X81730833Y-77333333D01*
X81692738Y-77447619D01*
X81616547Y-77523809D01*
X81502261Y-77561904D01*
X81426071Y-77561904D01*
X81997500Y-76761904D02*
X82454642Y-76761904D01*
X82226071Y-77561904D02*
X82226071Y-76761904D01*
X82721309Y-77561904D02*
X82721309Y-76761904D01*
X82911785Y-76761904D01*
X83026071Y-76800000D01*
X83102261Y-76876190D01*
X83140357Y-76952380D01*
X83178452Y-77104761D01*
X83178452Y-77219047D01*
X83140357Y-77371428D01*
X83102261Y-77447619D01*
X83026071Y-77523809D01*
X82911785Y-77561904D01*
X82721309Y-77561904D01*
X83673690Y-76761904D02*
X83826071Y-76761904D01*
X83902261Y-76800000D01*
X83978452Y-76876190D01*
X84016547Y-77028571D01*
X84016547Y-77295238D01*
X83978452Y-77447619D01*
X83902261Y-77523809D01*
X83826071Y-77561904D01*
X83673690Y-77561904D01*
X83597500Y-77523809D01*
X83521309Y-77447619D01*
X83483214Y-77295238D01*
X83483214Y-77028571D01*
X83521309Y-76876190D01*
X83597500Y-76800000D01*
X83673690Y-76761904D01*
X84930833Y-76723809D02*
X84245119Y-77752380D01*
X85654642Y-77561904D02*
X85387976Y-77180952D01*
X85197500Y-77561904D02*
X85197500Y-76761904D01*
X85502261Y-76761904D01*
X85578452Y-76800000D01*
X85616547Y-76838095D01*
X85654642Y-76914285D01*
X85654642Y-77028571D01*
X85616547Y-77104761D01*
X85578452Y-77142857D01*
X85502261Y-77180952D01*
X85197500Y-77180952D01*
X85959404Y-77523809D02*
X86073690Y-77561904D01*
X86264166Y-77561904D01*
X86340357Y-77523809D01*
X86378452Y-77485714D01*
X86416547Y-77409523D01*
X86416547Y-77333333D01*
X86378452Y-77257142D01*
X86340357Y-77219047D01*
X86264166Y-77180952D01*
X86111785Y-77142857D01*
X86035595Y-77104761D01*
X85997500Y-77066666D01*
X85959404Y-76990476D01*
X85959404Y-76914285D01*
X85997500Y-76838095D01*
X86035595Y-76800000D01*
X86111785Y-76761904D01*
X86302261Y-76761904D01*
X86416547Y-76800000D01*
X86645119Y-76761904D02*
X87102261Y-76761904D01*
X86873690Y-77561904D02*
X86873690Y-76761904D01*
X88587976Y-77257142D02*
X89197500Y-77257142D01*
X90797500Y-77257142D02*
X91407023Y-77257142D01*
X93007023Y-77257142D02*
X93616547Y-77257142D01*
X95178452Y-77523809D02*
X95292738Y-77561904D01*
X95483214Y-77561904D01*
X95559404Y-77523809D01*
X95597500Y-77485714D01*
X95635595Y-77409523D01*
X95635595Y-77333333D01*
X95597500Y-77257142D01*
X95559404Y-77219047D01*
X95483214Y-77180952D01*
X95330833Y-77142857D01*
X95254642Y-77104761D01*
X95216547Y-77066666D01*
X95178452Y-76990476D01*
X95178452Y-76914285D01*
X95216547Y-76838095D01*
X95254642Y-76800000D01*
X95330833Y-76761904D01*
X95521309Y-76761904D01*
X95635595Y-76800000D01*
X96435595Y-77485714D02*
X96397500Y-77523809D01*
X96283214Y-77561904D01*
X96207023Y-77561904D01*
X96092738Y-77523809D01*
X96016547Y-77447619D01*
X95978452Y-77371428D01*
X95940357Y-77219047D01*
X95940357Y-77104761D01*
X95978452Y-76952380D01*
X96016547Y-76876190D01*
X96092738Y-76800000D01*
X96207023Y-76761904D01*
X96283214Y-76761904D01*
X96397500Y-76800000D01*
X96435595Y-76838095D01*
X97159404Y-77561904D02*
X96778452Y-77561904D01*
X96778452Y-76761904D01*
X97997500Y-77523809D02*
X98111785Y-77561904D01*
X98302261Y-77561904D01*
X98378452Y-77523809D01*
X98416547Y-77485714D01*
X98454642Y-77409523D01*
X98454642Y-77333333D01*
X98416547Y-77257142D01*
X98378452Y-77219047D01*
X98302261Y-77180952D01*
X98149880Y-77142857D01*
X98073690Y-77104761D01*
X98035595Y-77066666D01*
X97997500Y-76990476D01*
X97997500Y-76914285D01*
X98035595Y-76838095D01*
X98073690Y-76800000D01*
X98149880Y-76761904D01*
X98340357Y-76761904D01*
X98454642Y-76800000D01*
X98797500Y-77561904D02*
X98797500Y-76761904D01*
X98987976Y-76761904D01*
X99102261Y-76800000D01*
X99178452Y-76876190D01*
X99216547Y-76952380D01*
X99254642Y-77104761D01*
X99254642Y-77219047D01*
X99216547Y-77371428D01*
X99178452Y-77447619D01*
X99102261Y-77523809D01*
X98987976Y-77561904D01*
X98797500Y-77561904D01*
X99559404Y-77333333D02*
X99940357Y-77333333D01*
X99483214Y-77561904D02*
X99749880Y-76761904D01*
X100016547Y-77561904D01*
X101121309Y-76761904D02*
X101121309Y-77333333D01*
X101083214Y-77447619D01*
X101007023Y-77523809D01*
X100892738Y-77561904D01*
X100816547Y-77561904D01*
X101387976Y-76761904D02*
X101845119Y-76761904D01*
X101616547Y-77561904D02*
X101616547Y-76761904D01*
X102111785Y-77561904D02*
X102111785Y-76761904D01*
X102378452Y-77333333D01*
X102645119Y-76761904D01*
X102645119Y-77561904D01*
X102987976Y-77523809D02*
X103102261Y-77561904D01*
X103292738Y-77561904D01*
X103368928Y-77523809D01*
X103407023Y-77485714D01*
X103445119Y-77409523D01*
X103445119Y-77333333D01*
X103407023Y-77257142D01*
X103368928Y-77219047D01*
X103292738Y-77180952D01*
X103140357Y-77142857D01*
X103064166Y-77104761D01*
X103026071Y-77066666D01*
X102987976Y-76990476D01*
X102987976Y-76914285D01*
X103026071Y-76838095D01*
X103064166Y-76800000D01*
X103140357Y-76761904D01*
X103330833Y-76761904D01*
X103445119Y-76800000D01*
X104359404Y-76723809D02*
X103673690Y-77752380D01*
X105083214Y-77485714D02*
X105045119Y-77523809D01*
X104930833Y-77561904D01*
X104854642Y-77561904D01*
X104740357Y-77523809D01*
X104664166Y-77447619D01*
X104626071Y-77371428D01*
X104587976Y-77219047D01*
X104587976Y-77104761D01*
X104626071Y-76952380D01*
X104664166Y-76876190D01*
X104740357Y-76800000D01*
X104854642Y-76761904D01*
X104930833Y-76761904D01*
X105045119Y-76800000D01*
X105083214Y-76838095D01*
X105426071Y-77561904D02*
X105426071Y-76761904D01*
X105883214Y-77561904D02*
X105540357Y-77104761D01*
X105883214Y-76761904D02*
X105426071Y-77219047D01*
X106797499Y-76723809D02*
X106111785Y-77752380D01*
X107064166Y-77561904D02*
X107064166Y-76761904D01*
X107254642Y-76761904D01*
X107368928Y-76800000D01*
X107445119Y-76876190D01*
X107483214Y-76952380D01*
X107521309Y-77104761D01*
X107521309Y-77219047D01*
X107483214Y-77371428D01*
X107445119Y-77447619D01*
X107368928Y-77523809D01*
X107254642Y-77561904D01*
X107064166Y-77561904D01*
X107864166Y-77561904D02*
X107864166Y-76761904D01*
X109311785Y-77561904D02*
X109045119Y-77180952D01*
X108854642Y-77561904D02*
X108854642Y-76761904D01*
X109159404Y-76761904D01*
X109235595Y-76800000D01*
X109273690Y-76838095D01*
X109311785Y-76914285D01*
X109311785Y-77028571D01*
X109273690Y-77104761D01*
X109235595Y-77142857D01*
X109159404Y-77180952D01*
X108854642Y-77180952D01*
X109616547Y-77523809D02*
X109730833Y-77561904D01*
X109921309Y-77561904D01*
X109997499Y-77523809D01*
X110035595Y-77485714D01*
X110073690Y-77409523D01*
X110073690Y-77333333D01*
X110035595Y-77257142D01*
X109997499Y-77219047D01*
X109921309Y-77180952D01*
X109768928Y-77142857D01*
X109692738Y-77104761D01*
X109654642Y-77066666D01*
X109616547Y-76990476D01*
X109616547Y-76914285D01*
X109654642Y-76838095D01*
X109692738Y-76800000D01*
X109768928Y-76761904D01*
X109959404Y-76761904D01*
X110073690Y-76800000D01*
X110302261Y-76761904D02*
X110759404Y-76761904D01*
X110530833Y-77561904D02*
X110530833Y-76761904D01*
X112054642Y-76800000D02*
X111978452Y-76761904D01*
X111864166Y-76761904D01*
X111749880Y-76800000D01*
X111673690Y-76876190D01*
X111635595Y-76952380D01*
X111597499Y-77104761D01*
X111597499Y-77219047D01*
X111635595Y-77371428D01*
X111673690Y-77447619D01*
X111749880Y-77523809D01*
X111864166Y-77561904D01*
X111940357Y-77561904D01*
X112054642Y-77523809D01*
X112092738Y-77485714D01*
X112092738Y-77219047D01*
X111940357Y-77219047D01*
X112435595Y-77561904D02*
X112435595Y-76761904D01*
X112892738Y-77561904D01*
X112892738Y-76761904D01*
X113273690Y-77561904D02*
X113273690Y-76761904D01*
X113464166Y-76761904D01*
X113578452Y-76800000D01*
X113654642Y-76876190D01*
X113692738Y-76952380D01*
X113730833Y-77104761D01*
X113730833Y-77219047D01*
X113692738Y-77371428D01*
X113654642Y-77447619D01*
X113578452Y-77523809D01*
X113464166Y-77561904D01*
X113273690Y-77561904D01*
X95587976Y-78761904D02*
X95587976Y-77961904D01*
X95930833Y-78038095D02*
X95968928Y-78000000D01*
X96045119Y-77961904D01*
X96235595Y-77961904D01*
X96311785Y-78000000D01*
X96349880Y-78038095D01*
X96387976Y-78114285D01*
X96387976Y-78190476D01*
X96349880Y-78304761D01*
X95892738Y-78761904D01*
X96387976Y-78761904D01*
X97187976Y-78685714D02*
X97149880Y-78723809D01*
X97035595Y-78761904D01*
X96959404Y-78761904D01*
X96845119Y-78723809D01*
X96768928Y-78647619D01*
X96730833Y-78571428D01*
X96692738Y-78419047D01*
X96692738Y-78304761D01*
X96730833Y-78152380D01*
X96768928Y-78076190D01*
X96845119Y-78000000D01*
X96959404Y-77961904D01*
X97035595Y-77961904D01*
X97149880Y-78000000D01*
X97187976Y-78038095D01*
X97530833Y-78457142D02*
X98140357Y-78457142D01*
X98940357Y-78761904D02*
X98483214Y-78761904D01*
X98711785Y-78761904D02*
X98711785Y-77961904D01*
X98635595Y-78076190D01*
X98559404Y-78152380D01*
X98483214Y-78190476D01*
X99249880Y-73123809D02*
X99364166Y-73161904D01*
X99554642Y-73161904D01*
X99630833Y-73123809D01*
X99668928Y-73085714D01*
X99707023Y-73009523D01*
X99707023Y-72933333D01*
X99668928Y-72857142D01*
X99630833Y-72819047D01*
X99554642Y-72780952D01*
X99402261Y-72742857D01*
X99326071Y-72704761D01*
X99287976Y-72666666D01*
X99249880Y-72590476D01*
X99249880Y-72514285D01*
X99287976Y-72438095D01*
X99326071Y-72400000D01*
X99402261Y-72361904D01*
X99592738Y-72361904D01*
X99707023Y-72400000D01*
X99973690Y-72361904D02*
X100164166Y-73161904D01*
X100316547Y-72590476D01*
X100468928Y-73161904D01*
X100659404Y-72361904D01*
X100964166Y-73161904D02*
X100964166Y-72361904D01*
X101154642Y-72361904D01*
X101268928Y-72400000D01*
X101345119Y-72476190D01*
X101383214Y-72552380D01*
X101421309Y-72704761D01*
X101421309Y-72819047D01*
X101383214Y-72971428D01*
X101345119Y-73047619D01*
X101268928Y-73123809D01*
X101154642Y-73161904D01*
X100964166Y-73161904D01*
X101764166Y-73161904D02*
X101764166Y-72361904D01*
X102297500Y-72361904D02*
X102449880Y-72361904D01*
X102526071Y-72400000D01*
X102602261Y-72476190D01*
X102640357Y-72628571D01*
X102640357Y-72895238D01*
X102602261Y-73047619D01*
X102526071Y-73123809D01*
X102449880Y-73161904D01*
X102297500Y-73161904D01*
X102221309Y-73123809D01*
X102145119Y-73047619D01*
X102107023Y-72895238D01*
X102107023Y-72628571D01*
X102145119Y-72476190D01*
X102221309Y-72400000D01*
X102297500Y-72361904D01*
X103554642Y-72323809D02*
X102868928Y-73352380D01*
X104278452Y-73085714D02*
X104240357Y-73123809D01*
X104126071Y-73161904D01*
X104049880Y-73161904D01*
X103935595Y-73123809D01*
X103859404Y-73047619D01*
X103821309Y-72971428D01*
X103783214Y-72819047D01*
X103783214Y-72704761D01*
X103821309Y-72552380D01*
X103859404Y-72476190D01*
X103935595Y-72400000D01*
X104049880Y-72361904D01*
X104126071Y-72361904D01*
X104240357Y-72400000D01*
X104278452Y-72438095D01*
X105002261Y-73161904D02*
X104621309Y-73161904D01*
X104621309Y-72361904D01*
X105268928Y-73161904D02*
X105268928Y-72361904D01*
X105726071Y-73161904D02*
X105383214Y-72704761D01*
X105726071Y-72361904D02*
X105268928Y-72819047D01*
X47957142Y-43642857D02*
X48004761Y-43690476D01*
X48052380Y-43833333D01*
X48052380Y-43928571D01*
X48004761Y-44071428D01*
X47909523Y-44166666D01*
X47814285Y-44214285D01*
X47623809Y-44261904D01*
X47480952Y-44261904D01*
X47290476Y-44214285D01*
X47195238Y-44166666D01*
X47100000Y-44071428D01*
X47052380Y-43928571D01*
X47052380Y-43833333D01*
X47100000Y-43690476D01*
X47147619Y-43642857D01*
X48052380Y-42690476D02*
X48052380Y-43261904D01*
X48052380Y-42976190D02*
X47052380Y-42976190D01*
X47195238Y-43071428D01*
X47290476Y-43166666D01*
X47338095Y-43261904D01*
X47147619Y-42309523D02*
X47100000Y-42261904D01*
X47052380Y-42166666D01*
X47052380Y-41928571D01*
X47100000Y-41833333D01*
X47147619Y-41785714D01*
X47242857Y-41738095D01*
X47338095Y-41738095D01*
X47480952Y-41785714D01*
X48052380Y-42357142D01*
X48052380Y-41738095D01*
X45011114Y-57861904D02*
X44744447Y-57480952D01*
X44553971Y-57861904D02*
X44553971Y-57061904D01*
X44858733Y-57061904D01*
X44934923Y-57100000D01*
X44973019Y-57138095D01*
X45011114Y-57214285D01*
X45011114Y-57328571D01*
X44973019Y-57404761D01*
X44934923Y-57442857D01*
X44858733Y-57480952D01*
X44553971Y-57480952D01*
X45773019Y-57861904D02*
X45315876Y-57861904D01*
X45544447Y-57861904D02*
X45544447Y-57061904D01*
X45468257Y-57176190D01*
X45392066Y-57252380D01*
X45315876Y-57290476D01*
X46268257Y-57061904D02*
X46344447Y-57061904D01*
X46420638Y-57100000D01*
X46458733Y-57138095D01*
X46496828Y-57214285D01*
X46534923Y-57366666D01*
X46534923Y-57557142D01*
X46496828Y-57709523D01*
X46458733Y-57785714D01*
X46420638Y-57823809D01*
X46344447Y-57861904D01*
X46268257Y-57861904D01*
X46192066Y-57823809D01*
X46153971Y-57785714D01*
X46115876Y-57709523D01*
X46077780Y-57557142D01*
X46077780Y-57366666D01*
X46115876Y-57214285D01*
X46153971Y-57138095D01*
X46192066Y-57100000D01*
X46268257Y-57061904D01*
X43985714Y-63061904D02*
X43719047Y-62680952D01*
X43528571Y-63061904D02*
X43528571Y-62261904D01*
X43833333Y-62261904D01*
X43909523Y-62300000D01*
X43947619Y-62338095D01*
X43985714Y-62414285D01*
X43985714Y-62528571D01*
X43947619Y-62604761D01*
X43909523Y-62642857D01*
X43833333Y-62680952D01*
X43528571Y-62680952D01*
X44747619Y-63061904D02*
X44290476Y-63061904D01*
X44519047Y-63061904D02*
X44519047Y-62261904D01*
X44442857Y-62376190D01*
X44366666Y-62452380D01*
X44290476Y-62490476D01*
X45509523Y-63061904D02*
X45052380Y-63061904D01*
X45280952Y-63061904D02*
X45280952Y-62261904D01*
X45204761Y-62376190D01*
X45128571Y-62452380D01*
X45052380Y-62490476D01*
%LPC*%
D13*
X63103390Y-32147010D03*
D14*
X65643390Y-32147010D03*
X68183390Y-32147010D03*
X70723390Y-32147010D03*
X73263390Y-32147010D03*
X75803390Y-32147010D03*
X78343390Y-32147010D03*
X80883390Y-32147010D03*
X83423390Y-32147010D03*
X85963390Y-32147010D03*
X88503390Y-32147010D03*
X91043390Y-32147010D03*
X93583390Y-32147010D03*
X96123390Y-32147010D03*
X98663390Y-32147010D03*
X101203390Y-32147010D03*
X103743390Y-32147010D03*
X106283390Y-32147010D03*
X108823390Y-32147010D03*
X111363390Y-32147010D03*
D15*
X72750000Y-36550000D03*
D16*
X70250000Y-36550000D03*
X67750000Y-36550000D03*
D17*
X75850000Y-44050000D03*
X64650000Y-44050000D03*
D16*
X72750000Y-51050000D03*
X67750000Y-51050000D03*
D18*
X116601810Y-30162440D03*
X116601810Y-77152440D03*
X32781810Y-77152440D03*
X32781810Y-30162440D03*
G36*
G01*
X45921173Y-39399000D02*
X46878827Y-39399000D01*
G75*
G02*
X47151000Y-39671173I0J-272173D01*
G01*
X47151000Y-40378827D01*
G75*
G02*
X46878827Y-40651000I-272173J0D01*
G01*
X45921173Y-40651000D01*
G75*
G02*
X45649000Y-40378827I0J272173D01*
G01*
X45649000Y-39671173D01*
G75*
G02*
X45921173Y-39399000I272173J0D01*
G01*
G37*
G36*
G01*
X45921173Y-37349000D02*
X46878827Y-37349000D01*
G75*
G02*
X47151000Y-37621173I0J-272173D01*
G01*
X47151000Y-38328827D01*
G75*
G02*
X46878827Y-38601000I-272173J0D01*
G01*
X45921173Y-38601000D01*
G75*
G02*
X45649000Y-38328827I0J272173D01*
G01*
X45649000Y-37621173D01*
G75*
G02*
X45921173Y-37349000I272173J0D01*
G01*
G37*
G36*
G01*
X51921173Y-37349000D02*
X52878827Y-37349000D01*
G75*
G02*
X53151000Y-37621173I0J-272173D01*
G01*
X53151000Y-38328827D01*
G75*
G02*
X52878827Y-38601000I-272173J0D01*
G01*
X51921173Y-38601000D01*
G75*
G02*
X51649000Y-38328827I0J272173D01*
G01*
X51649000Y-37621173D01*
G75*
G02*
X51921173Y-37349000I272173J0D01*
G01*
G37*
G36*
G01*
X51921173Y-39399000D02*
X52878827Y-39399000D01*
G75*
G02*
X53151000Y-39671173I0J-272173D01*
G01*
X53151000Y-40378827D01*
G75*
G02*
X52878827Y-40651000I-272173J0D01*
G01*
X51921173Y-40651000D01*
G75*
G02*
X51649000Y-40378827I0J272173D01*
G01*
X51649000Y-39671173D01*
G75*
G02*
X51921173Y-39399000I272173J0D01*
G01*
G37*
G36*
G01*
X58099000Y-54478827D02*
X58099000Y-53521173D01*
G75*
G02*
X58371173Y-53249000I272173J0D01*
G01*
X59078827Y-53249000D01*
G75*
G02*
X59351000Y-53521173I0J-272173D01*
G01*
X59351000Y-54478827D01*
G75*
G02*
X59078827Y-54751000I-272173J0D01*
G01*
X58371173Y-54751000D01*
G75*
G02*
X58099000Y-54478827I0J272173D01*
G01*
G37*
G36*
G01*
X60149000Y-54478827D02*
X60149000Y-53521173D01*
G75*
G02*
X60421173Y-53249000I272173J0D01*
G01*
X61128827Y-53249000D01*
G75*
G02*
X61401000Y-53521173I0J-272173D01*
G01*
X61401000Y-54478827D01*
G75*
G02*
X61128827Y-54751000I-272173J0D01*
G01*
X60421173Y-54751000D01*
G75*
G02*
X60149000Y-54478827I0J272173D01*
G01*
G37*
G36*
G01*
X59774000Y-47278827D02*
X59774000Y-46321173D01*
G75*
G02*
X60046173Y-46049000I272173J0D01*
G01*
X60753827Y-46049000D01*
G75*
G02*
X61026000Y-46321173I0J-272173D01*
G01*
X61026000Y-47278827D01*
G75*
G02*
X60753827Y-47551000I-272173J0D01*
G01*
X60046173Y-47551000D01*
G75*
G02*
X59774000Y-47278827I0J272173D01*
G01*
G37*
G36*
G01*
X57724000Y-47278827D02*
X57724000Y-46321173D01*
G75*
G02*
X57996173Y-46049000I272173J0D01*
G01*
X58703827Y-46049000D01*
G75*
G02*
X58976000Y-46321173I0J-272173D01*
G01*
X58976000Y-47278827D01*
G75*
G02*
X58703827Y-47551000I-272173J0D01*
G01*
X57996173Y-47551000D01*
G75*
G02*
X57724000Y-47278827I0J272173D01*
G01*
G37*
G36*
G01*
X56321173Y-40599000D02*
X57278827Y-40599000D01*
G75*
G02*
X57551000Y-40871173I0J-272173D01*
G01*
X57551000Y-41578827D01*
G75*
G02*
X57278827Y-41851000I-272173J0D01*
G01*
X56321173Y-41851000D01*
G75*
G02*
X56049000Y-41578827I0J272173D01*
G01*
X56049000Y-40871173D01*
G75*
G02*
X56321173Y-40599000I272173J0D01*
G01*
G37*
G36*
G01*
X56321173Y-38549000D02*
X57278827Y-38549000D01*
G75*
G02*
X57551000Y-38821173I0J-272173D01*
G01*
X57551000Y-39528827D01*
G75*
G02*
X57278827Y-39801000I-272173J0D01*
G01*
X56321173Y-39801000D01*
G75*
G02*
X56049000Y-39528827I0J272173D01*
G01*
X56049000Y-38821173D01*
G75*
G02*
X56321173Y-38549000I272173J0D01*
G01*
G37*
G36*
G01*
X54121173Y-38549000D02*
X55078827Y-38549000D01*
G75*
G02*
X55351000Y-38821173I0J-272173D01*
G01*
X55351000Y-39528827D01*
G75*
G02*
X55078827Y-39801000I-272173J0D01*
G01*
X54121173Y-39801000D01*
G75*
G02*
X53849000Y-39528827I0J272173D01*
G01*
X53849000Y-38821173D01*
G75*
G02*
X54121173Y-38549000I272173J0D01*
G01*
G37*
G36*
G01*
X54121173Y-40599000D02*
X55078827Y-40599000D01*
G75*
G02*
X55351000Y-40871173I0J-272173D01*
G01*
X55351000Y-41578827D01*
G75*
G02*
X55078827Y-41851000I-272173J0D01*
G01*
X54121173Y-41851000D01*
G75*
G02*
X53849000Y-41578827I0J272173D01*
G01*
X53849000Y-40871173D01*
G75*
G02*
X54121173Y-40599000I272173J0D01*
G01*
G37*
G36*
G01*
X45749000Y-64278827D02*
X45749000Y-63321173D01*
G75*
G02*
X46021173Y-63049000I272173J0D01*
G01*
X46728827Y-63049000D01*
G75*
G02*
X47001000Y-63321173I0J-272173D01*
G01*
X47001000Y-64278827D01*
G75*
G02*
X46728827Y-64551000I-272173J0D01*
G01*
X46021173Y-64551000D01*
G75*
G02*
X45749000Y-64278827I0J272173D01*
G01*
G37*
G36*
G01*
X47799000Y-64278827D02*
X47799000Y-63321173D01*
G75*
G02*
X48071173Y-63049000I272173J0D01*
G01*
X48778827Y-63049000D01*
G75*
G02*
X49051000Y-63321173I0J-272173D01*
G01*
X49051000Y-64278827D01*
G75*
G02*
X48778827Y-64551000I-272173J0D01*
G01*
X48071173Y-64551000D01*
G75*
G02*
X47799000Y-64278827I0J272173D01*
G01*
G37*
G36*
G01*
X51330543Y-59599000D02*
X52288197Y-59599000D01*
G75*
G02*
X52560370Y-59871173I0J-272173D01*
G01*
X52560370Y-60578827D01*
G75*
G02*
X52288197Y-60851000I-272173J0D01*
G01*
X51330543Y-60851000D01*
G75*
G02*
X51058370Y-60578827I0J272173D01*
G01*
X51058370Y-59871173D01*
G75*
G02*
X51330543Y-59599000I272173J0D01*
G01*
G37*
G36*
G01*
X51330543Y-57549000D02*
X52288197Y-57549000D01*
G75*
G02*
X52560370Y-57821173I0J-272173D01*
G01*
X52560370Y-58528827D01*
G75*
G02*
X52288197Y-58801000I-272173J0D01*
G01*
X51330543Y-58801000D01*
G75*
G02*
X51058370Y-58528827I0J272173D01*
G01*
X51058370Y-57821173D01*
G75*
G02*
X51330543Y-57549000I272173J0D01*
G01*
G37*
G36*
G01*
X53730543Y-57549000D02*
X54688197Y-57549000D01*
G75*
G02*
X54960370Y-57821173I0J-272173D01*
G01*
X54960370Y-58528827D01*
G75*
G02*
X54688197Y-58801000I-272173J0D01*
G01*
X53730543Y-58801000D01*
G75*
G02*
X53458370Y-58528827I0J272173D01*
G01*
X53458370Y-57821173D01*
G75*
G02*
X53730543Y-57549000I272173J0D01*
G01*
G37*
G36*
G01*
X53730543Y-59599000D02*
X54688197Y-59599000D01*
G75*
G02*
X54960370Y-59871173I0J-272173D01*
G01*
X54960370Y-60578827D01*
G75*
G02*
X54688197Y-60851000I-272173J0D01*
G01*
X53730543Y-60851000D01*
G75*
G02*
X53458370Y-60578827I0J272173D01*
G01*
X53458370Y-59871173D01*
G75*
G02*
X53730543Y-59599000I272173J0D01*
G01*
G37*
G36*
G01*
X54921173Y-55399000D02*
X55878827Y-55399000D01*
G75*
G02*
X56151000Y-55671173I0J-272173D01*
G01*
X56151000Y-56378827D01*
G75*
G02*
X55878827Y-56651000I-272173J0D01*
G01*
X54921173Y-56651000D01*
G75*
G02*
X54649000Y-56378827I0J272173D01*
G01*
X54649000Y-55671173D01*
G75*
G02*
X54921173Y-55399000I272173J0D01*
G01*
G37*
G36*
G01*
X54921173Y-53349000D02*
X55878827Y-53349000D01*
G75*
G02*
X56151000Y-53621173I0J-272173D01*
G01*
X56151000Y-54328827D01*
G75*
G02*
X55878827Y-54601000I-272173J0D01*
G01*
X54921173Y-54601000D01*
G75*
G02*
X54649000Y-54328827I0J272173D01*
G01*
X54649000Y-53621173D01*
G75*
G02*
X54921173Y-53349000I272173J0D01*
G01*
G37*
G36*
G01*
X44678827Y-55251000D02*
X43721173Y-55251000D01*
G75*
G02*
X43449000Y-54978827I0J272173D01*
G01*
X43449000Y-54271173D01*
G75*
G02*
X43721173Y-53999000I272173J0D01*
G01*
X44678827Y-53999000D01*
G75*
G02*
X44951000Y-54271173I0J-272173D01*
G01*
X44951000Y-54978827D01*
G75*
G02*
X44678827Y-55251000I-272173J0D01*
G01*
G37*
G36*
G01*
X44678827Y-53201000D02*
X43721173Y-53201000D01*
G75*
G02*
X43449000Y-52928827I0J272173D01*
G01*
X43449000Y-52221173D01*
G75*
G02*
X43721173Y-51949000I272173J0D01*
G01*
X44678827Y-51949000D01*
G75*
G02*
X44951000Y-52221173I0J-272173D01*
G01*
X44951000Y-52928827D01*
G75*
G02*
X44678827Y-53201000I-272173J0D01*
G01*
G37*
D19*
X78500000Y-38650000D03*
X78500000Y-35350000D03*
X81000000Y-38650000D03*
X81000000Y-35350000D03*
X100000000Y-38650000D03*
X100000000Y-35350000D03*
X59400000Y-57350000D03*
X59400000Y-60650000D03*
X81000000Y-54350000D03*
X81000000Y-57650000D03*
X100000000Y-54350000D03*
X100000000Y-57650000D03*
D20*
X35850000Y-28225000D03*
X35850000Y-29975000D03*
X39350000Y-28225000D03*
X39350000Y-29975000D03*
X46750000Y-29975000D03*
X46750000Y-28225000D03*
X43250000Y-29975000D03*
X43250000Y-28225000D03*
D19*
X61800000Y-35950000D03*
X61800000Y-39250000D03*
X78600000Y-43950000D03*
X78600000Y-47250000D03*
X97600000Y-47250000D03*
X97600000Y-43950000D03*
X78600000Y-52850000D03*
X78600000Y-49550000D03*
X97600000Y-49550000D03*
X97600000Y-52850000D03*
X116600000Y-52850000D03*
X116600000Y-49550000D03*
X78600000Y-71850000D03*
X78600000Y-68550000D03*
X97600000Y-71850000D03*
X97600000Y-68550000D03*
X116800000Y-68550000D03*
X116800000Y-71850000D03*
D21*
X41700000Y-41230000D03*
D22*
X41700000Y-42950000D03*
X43900000Y-42950000D03*
X43900000Y-41050000D03*
G36*
G01*
X44851000Y-37941895D02*
X44851000Y-39258105D01*
G75*
G02*
X44583105Y-39526000I-267895J0D01*
G01*
X43591895Y-39526000D01*
G75*
G02*
X43324000Y-39258105I0J267895D01*
G01*
X43324000Y-37941895D01*
G75*
G02*
X43591895Y-37674000I267895J0D01*
G01*
X44583105Y-37674000D01*
G75*
G02*
X44851000Y-37941895I0J-267895D01*
G01*
G37*
G36*
G01*
X41876000Y-37941895D02*
X41876000Y-39258105D01*
G75*
G02*
X41608105Y-39526000I-267895J0D01*
G01*
X40616895Y-39526000D01*
G75*
G02*
X40349000Y-39258105I0J267895D01*
G01*
X40349000Y-37941895D01*
G75*
G02*
X40616895Y-37674000I267895J0D01*
G01*
X41608105Y-37674000D01*
G75*
G02*
X41876000Y-37941895I0J-267895D01*
G01*
G37*
D23*
X38100160Y-41672050D03*
X38100160Y-42522050D03*
X38100160Y-43372050D03*
X38100160Y-44222050D03*
X38100160Y-45072050D03*
X38100160Y-45922050D03*
X38100160Y-46772050D03*
X38100160Y-47622050D03*
X36750160Y-42522050D03*
X36750160Y-44222050D03*
X36750160Y-43372050D03*
X36750160Y-41672050D03*
X36750160Y-45922050D03*
X36750160Y-46772050D03*
X36750160Y-47622050D03*
X36750160Y-45072050D03*
D24*
X37120160Y-40322050D03*
X37120160Y-48972050D03*
D25*
X33740160Y-40322050D03*
X33740160Y-48972050D03*
D13*
X51000000Y-29800000D03*
D14*
X51000000Y-32340000D03*
X54768980Y-32340000D03*
D13*
X54768980Y-29800000D03*
D26*
X37500000Y-63900000D03*
X37500000Y-62600000D03*
X37500000Y-58600000D03*
X37500000Y-59900000D03*
D27*
X32400000Y-36800000D03*
D28*
X32400000Y-34260000D03*
X32400000Y-62340000D03*
D27*
X32400000Y-59800000D03*
D29*
X36100000Y-70750000D03*
X44800000Y-70750000D03*
D30*
X36500000Y-77000000D03*
X39040000Y-77000000D03*
X41580000Y-77000000D03*
X44120000Y-77000000D03*
G36*
G01*
X31549000Y-66078827D02*
X31549000Y-65121173D01*
G75*
G02*
X31821173Y-64849000I272173J0D01*
G01*
X32528827Y-64849000D01*
G75*
G02*
X32801000Y-65121173I0J-272173D01*
G01*
X32801000Y-66078827D01*
G75*
G02*
X32528827Y-66351000I-272173J0D01*
G01*
X31821173Y-66351000D01*
G75*
G02*
X31549000Y-66078827I0J272173D01*
G01*
G37*
G36*
G01*
X33599000Y-66078827D02*
X33599000Y-65121173D01*
G75*
G02*
X33871173Y-64849000I272173J0D01*
G01*
X34578827Y-64849000D01*
G75*
G02*
X34851000Y-65121173I0J-272173D01*
G01*
X34851000Y-66078827D01*
G75*
G02*
X34578827Y-66351000I-272173J0D01*
G01*
X33871173Y-66351000D01*
G75*
G02*
X33599000Y-66078827I0J272173D01*
G01*
G37*
G36*
G01*
X35949000Y-34278827D02*
X35949000Y-33321173D01*
G75*
G02*
X36221173Y-33049000I272173J0D01*
G01*
X36928827Y-33049000D01*
G75*
G02*
X37201000Y-33321173I0J-272173D01*
G01*
X37201000Y-34278827D01*
G75*
G02*
X36928827Y-34551000I-272173J0D01*
G01*
X36221173Y-34551000D01*
G75*
G02*
X35949000Y-34278827I0J272173D01*
G01*
G37*
G36*
G01*
X37999000Y-34278827D02*
X37999000Y-33321173D01*
G75*
G02*
X38271173Y-33049000I272173J0D01*
G01*
X38978827Y-33049000D01*
G75*
G02*
X39251000Y-33321173I0J-272173D01*
G01*
X39251000Y-34278827D01*
G75*
G02*
X38978827Y-34551000I-272173J0D01*
G01*
X38271173Y-34551000D01*
G75*
G02*
X37999000Y-34278827I0J272173D01*
G01*
G37*
G36*
G01*
X47799000Y-66678827D02*
X47799000Y-65721173D01*
G75*
G02*
X48071173Y-65449000I272173J0D01*
G01*
X48778827Y-65449000D01*
G75*
G02*
X49051000Y-65721173I0J-272173D01*
G01*
X49051000Y-66678827D01*
G75*
G02*
X48778827Y-66951000I-272173J0D01*
G01*
X48071173Y-66951000D01*
G75*
G02*
X47799000Y-66678827I0J272173D01*
G01*
G37*
G36*
G01*
X45749000Y-66678827D02*
X45749000Y-65721173D01*
G75*
G02*
X46021173Y-65449000I272173J0D01*
G01*
X46728827Y-65449000D01*
G75*
G02*
X47001000Y-65721173I0J-272173D01*
G01*
X47001000Y-66678827D01*
G75*
G02*
X46728827Y-66951000I-272173J0D01*
G01*
X46021173Y-66951000D01*
G75*
G02*
X45749000Y-66678827I0J272173D01*
G01*
G37*
G36*
G01*
X44251000Y-44521173D02*
X44251000Y-45478827D01*
G75*
G02*
X43978827Y-45751000I-272173J0D01*
G01*
X43271173Y-45751000D01*
G75*
G02*
X42999000Y-45478827I0J272173D01*
G01*
X42999000Y-44521173D01*
G75*
G02*
X43271173Y-44249000I272173J0D01*
G01*
X43978827Y-44249000D01*
G75*
G02*
X44251000Y-44521173I0J-272173D01*
G01*
G37*
G36*
G01*
X42201000Y-44521173D02*
X42201000Y-45478827D01*
G75*
G02*
X41928827Y-45751000I-272173J0D01*
G01*
X41221173Y-45751000D01*
G75*
G02*
X40949000Y-45478827I0J272173D01*
G01*
X40949000Y-44521173D01*
G75*
G02*
X41221173Y-44249000I272173J0D01*
G01*
X41928827Y-44249000D01*
G75*
G02*
X42201000Y-44521173I0J-272173D01*
G01*
G37*
G36*
G01*
X42201000Y-46721173D02*
X42201000Y-47678827D01*
G75*
G02*
X41928827Y-47951000I-272173J0D01*
G01*
X41221173Y-47951000D01*
G75*
G02*
X40949000Y-47678827I0J272173D01*
G01*
X40949000Y-46721173D01*
G75*
G02*
X41221173Y-46449000I272173J0D01*
G01*
X41928827Y-46449000D01*
G75*
G02*
X42201000Y-46721173I0J-272173D01*
G01*
G37*
G36*
G01*
X44251000Y-46721173D02*
X44251000Y-47678827D01*
G75*
G02*
X43978827Y-47951000I-272173J0D01*
G01*
X43271173Y-47951000D01*
G75*
G02*
X42999000Y-47678827I0J272173D01*
G01*
X42999000Y-46721173D01*
G75*
G02*
X43271173Y-46449000I272173J0D01*
G01*
X43978827Y-46449000D01*
G75*
G02*
X44251000Y-46721173I0J-272173D01*
G01*
G37*
G36*
G01*
X42201000Y-48921173D02*
X42201000Y-49878827D01*
G75*
G02*
X41928827Y-50151000I-272173J0D01*
G01*
X41221173Y-50151000D01*
G75*
G02*
X40949000Y-49878827I0J272173D01*
G01*
X40949000Y-48921173D01*
G75*
G02*
X41221173Y-48649000I272173J0D01*
G01*
X41928827Y-48649000D01*
G75*
G02*
X42201000Y-48921173I0J-272173D01*
G01*
G37*
G36*
G01*
X44251000Y-48921173D02*
X44251000Y-49878827D01*
G75*
G02*
X43978827Y-50151000I-272173J0D01*
G01*
X43271173Y-50151000D01*
G75*
G02*
X42999000Y-49878827I0J272173D01*
G01*
X42999000Y-48921173D01*
G75*
G02*
X43271173Y-48649000I272173J0D01*
G01*
X43978827Y-48649000D01*
G75*
G02*
X44251000Y-48921173I0J-272173D01*
G01*
G37*
G36*
G01*
X35949000Y-37878827D02*
X35949000Y-36921173D01*
G75*
G02*
X36221173Y-36649000I272173J0D01*
G01*
X36928827Y-36649000D01*
G75*
G02*
X37201000Y-36921173I0J-272173D01*
G01*
X37201000Y-37878827D01*
G75*
G02*
X36928827Y-38151000I-272173J0D01*
G01*
X36221173Y-38151000D01*
G75*
G02*
X35949000Y-37878827I0J272173D01*
G01*
G37*
G36*
G01*
X37999000Y-37878827D02*
X37999000Y-36921173D01*
G75*
G02*
X38271173Y-36649000I272173J0D01*
G01*
X38978827Y-36649000D01*
G75*
G02*
X39251000Y-36921173I0J-272173D01*
G01*
X39251000Y-37878827D01*
G75*
G02*
X38978827Y-38151000I-272173J0D01*
G01*
X38271173Y-38151000D01*
G75*
G02*
X37999000Y-37878827I0J272173D01*
G01*
G37*
D31*
X94377250Y-44053310D03*
X84217250Y-44053310D03*
D32*
X85487250Y-41513310D03*
D33*
X89297250Y-44053310D03*
D32*
X91837250Y-38973310D03*
X110887330Y-38973310D03*
D33*
X108347330Y-44053310D03*
D32*
X104537330Y-41513310D03*
D31*
X103267330Y-44053310D03*
X113427330Y-44053310D03*
D16*
X67750000Y-70100000D03*
X72750000Y-70100000D03*
D17*
X64650000Y-63100000D03*
X75850000Y-63100000D03*
D16*
X67750000Y-55600000D03*
X70250000Y-55600000D03*
D15*
X72750000Y-55600000D03*
D31*
X75327170Y-63103390D03*
X65167170Y-63103390D03*
D32*
X66437170Y-60563390D03*
D33*
X70247170Y-63103390D03*
D32*
X72787170Y-58023390D03*
X91837250Y-58023390D03*
D33*
X89297250Y-63103390D03*
D32*
X85487250Y-60563390D03*
D31*
X84217250Y-63103390D03*
X94377250Y-63103390D03*
D32*
X110887330Y-58023390D03*
D33*
X108347330Y-63103390D03*
D32*
X104537330Y-60563390D03*
D31*
X103267330Y-63103390D03*
X113427330Y-63103390D03*
D34*
X50400000Y-39950000D03*
X50400000Y-38050000D03*
X48400000Y-39000000D03*
G36*
G01*
X55451000Y-52149500D02*
X55451000Y-52350500D01*
G75*
G02*
X55350500Y-52451000I-100500J0D01*
G01*
X53974500Y-52451000D01*
G75*
G02*
X53874000Y-52350500I0J100500D01*
G01*
X53874000Y-52149500D01*
G75*
G02*
X53974500Y-52049000I100500J0D01*
G01*
X55350500Y-52049000D01*
G75*
G02*
X55451000Y-52149500I0J-100500D01*
G01*
G37*
G36*
G01*
X55451000Y-51649500D02*
X55451000Y-51850500D01*
G75*
G02*
X55350500Y-51951000I-100500J0D01*
G01*
X53974500Y-51951000D01*
G75*
G02*
X53874000Y-51850500I0J100500D01*
G01*
X53874000Y-51649500D01*
G75*
G02*
X53974500Y-51549000I100500J0D01*
G01*
X55350500Y-51549000D01*
G75*
G02*
X55451000Y-51649500I0J-100500D01*
G01*
G37*
G36*
G01*
X55451000Y-51149500D02*
X55451000Y-51350500D01*
G75*
G02*
X55350500Y-51451000I-100500J0D01*
G01*
X53974500Y-51451000D01*
G75*
G02*
X53874000Y-51350500I0J100500D01*
G01*
X53874000Y-51149500D01*
G75*
G02*
X53974500Y-51049000I100500J0D01*
G01*
X55350500Y-51049000D01*
G75*
G02*
X55451000Y-51149500I0J-100500D01*
G01*
G37*
G36*
G01*
X55451000Y-50649500D02*
X55451000Y-50850500D01*
G75*
G02*
X55350500Y-50951000I-100500J0D01*
G01*
X53974500Y-50951000D01*
G75*
G02*
X53874000Y-50850500I0J100500D01*
G01*
X53874000Y-50649500D01*
G75*
G02*
X53974500Y-50549000I100500J0D01*
G01*
X55350500Y-50549000D01*
G75*
G02*
X55451000Y-50649500I0J-100500D01*
G01*
G37*
G36*
G01*
X55451000Y-50149500D02*
X55451000Y-50350500D01*
G75*
G02*
X55350500Y-50451000I-100500J0D01*
G01*
X53974500Y-50451000D01*
G75*
G02*
X53874000Y-50350500I0J100500D01*
G01*
X53874000Y-50149500D01*
G75*
G02*
X53974500Y-50049000I100500J0D01*
G01*
X55350500Y-50049000D01*
G75*
G02*
X55451000Y-50149500I0J-100500D01*
G01*
G37*
G36*
G01*
X55451000Y-49649500D02*
X55451000Y-49850500D01*
G75*
G02*
X55350500Y-49951000I-100500J0D01*
G01*
X53974500Y-49951000D01*
G75*
G02*
X53874000Y-49850500I0J100500D01*
G01*
X53874000Y-49649500D01*
G75*
G02*
X53974500Y-49549000I100500J0D01*
G01*
X55350500Y-49549000D01*
G75*
G02*
X55451000Y-49649500I0J-100500D01*
G01*
G37*
G36*
G01*
X55451000Y-49149500D02*
X55451000Y-49350500D01*
G75*
G02*
X55350500Y-49451000I-100500J0D01*
G01*
X53974500Y-49451000D01*
G75*
G02*
X53874000Y-49350500I0J100500D01*
G01*
X53874000Y-49149500D01*
G75*
G02*
X53974500Y-49049000I100500J0D01*
G01*
X55350500Y-49049000D01*
G75*
G02*
X55451000Y-49149500I0J-100500D01*
G01*
G37*
G36*
G01*
X55451000Y-48649500D02*
X55451000Y-48850500D01*
G75*
G02*
X55350500Y-48951000I-100500J0D01*
G01*
X53974500Y-48951000D01*
G75*
G02*
X53874000Y-48850500I0J100500D01*
G01*
X53874000Y-48649500D01*
G75*
G02*
X53974500Y-48549000I100500J0D01*
G01*
X55350500Y-48549000D01*
G75*
G02*
X55451000Y-48649500I0J-100500D01*
G01*
G37*
G36*
G01*
X55451000Y-48149500D02*
X55451000Y-48350500D01*
G75*
G02*
X55350500Y-48451000I-100500J0D01*
G01*
X53974500Y-48451000D01*
G75*
G02*
X53874000Y-48350500I0J100500D01*
G01*
X53874000Y-48149500D01*
G75*
G02*
X53974500Y-48049000I100500J0D01*
G01*
X55350500Y-48049000D01*
G75*
G02*
X55451000Y-48149500I0J-100500D01*
G01*
G37*
G36*
G01*
X55451000Y-47649500D02*
X55451000Y-47850500D01*
G75*
G02*
X55350500Y-47951000I-100500J0D01*
G01*
X53974500Y-47951000D01*
G75*
G02*
X53874000Y-47850500I0J100500D01*
G01*
X53874000Y-47649500D01*
G75*
G02*
X53974500Y-47549000I100500J0D01*
G01*
X55350500Y-47549000D01*
G75*
G02*
X55451000Y-47649500I0J-100500D01*
G01*
G37*
G36*
G01*
X55451000Y-47149500D02*
X55451000Y-47350500D01*
G75*
G02*
X55350500Y-47451000I-100500J0D01*
G01*
X53974500Y-47451000D01*
G75*
G02*
X53874000Y-47350500I0J100500D01*
G01*
X53874000Y-47149500D01*
G75*
G02*
X53974500Y-47049000I100500J0D01*
G01*
X55350500Y-47049000D01*
G75*
G02*
X55451000Y-47149500I0J-100500D01*
G01*
G37*
G36*
G01*
X55451000Y-46649500D02*
X55451000Y-46850500D01*
G75*
G02*
X55350500Y-46951000I-100500J0D01*
G01*
X53974500Y-46951000D01*
G75*
G02*
X53874000Y-46850500I0J100500D01*
G01*
X53874000Y-46649500D01*
G75*
G02*
X53974500Y-46549000I100500J0D01*
G01*
X55350500Y-46549000D01*
G75*
G02*
X55451000Y-46649500I0J-100500D01*
G01*
G37*
G36*
G01*
X53451000Y-44649500D02*
X53451000Y-46025500D01*
G75*
G02*
X53350500Y-46126000I-100500J0D01*
G01*
X53149500Y-46126000D01*
G75*
G02*
X53049000Y-46025500I0J100500D01*
G01*
X53049000Y-44649500D01*
G75*
G02*
X53149500Y-44549000I100500J0D01*
G01*
X53350500Y-44549000D01*
G75*
G02*
X53451000Y-44649500I0J-100500D01*
G01*
G37*
G36*
G01*
X52951000Y-44649500D02*
X52951000Y-46025500D01*
G75*
G02*
X52850500Y-46126000I-100500J0D01*
G01*
X52649500Y-46126000D01*
G75*
G02*
X52549000Y-46025500I0J100500D01*
G01*
X52549000Y-44649500D01*
G75*
G02*
X52649500Y-44549000I100500J0D01*
G01*
X52850500Y-44549000D01*
G75*
G02*
X52951000Y-44649500I0J-100500D01*
G01*
G37*
G36*
G01*
X52451000Y-44649500D02*
X52451000Y-46025500D01*
G75*
G02*
X52350500Y-46126000I-100500J0D01*
G01*
X52149500Y-46126000D01*
G75*
G02*
X52049000Y-46025500I0J100500D01*
G01*
X52049000Y-44649500D01*
G75*
G02*
X52149500Y-44549000I100500J0D01*
G01*
X52350500Y-44549000D01*
G75*
G02*
X52451000Y-44649500I0J-100500D01*
G01*
G37*
G36*
G01*
X51951000Y-44649500D02*
X51951000Y-46025500D01*
G75*
G02*
X51850500Y-46126000I-100500J0D01*
G01*
X51649500Y-46126000D01*
G75*
G02*
X51549000Y-46025500I0J100500D01*
G01*
X51549000Y-44649500D01*
G75*
G02*
X51649500Y-44549000I100500J0D01*
G01*
X51850500Y-44549000D01*
G75*
G02*
X51951000Y-44649500I0J-100500D01*
G01*
G37*
G36*
G01*
X51451000Y-44649500D02*
X51451000Y-46025500D01*
G75*
G02*
X51350500Y-46126000I-100500J0D01*
G01*
X51149500Y-46126000D01*
G75*
G02*
X51049000Y-46025500I0J100500D01*
G01*
X51049000Y-44649500D01*
G75*
G02*
X51149500Y-44549000I100500J0D01*
G01*
X51350500Y-44549000D01*
G75*
G02*
X51451000Y-44649500I0J-100500D01*
G01*
G37*
G36*
G01*
X50951000Y-44649500D02*
X50951000Y-46025500D01*
G75*
G02*
X50850500Y-46126000I-100500J0D01*
G01*
X50649500Y-46126000D01*
G75*
G02*
X50549000Y-46025500I0J100500D01*
G01*
X50549000Y-44649500D01*
G75*
G02*
X50649500Y-44549000I100500J0D01*
G01*
X50850500Y-44549000D01*
G75*
G02*
X50951000Y-44649500I0J-100500D01*
G01*
G37*
G36*
G01*
X50451000Y-44649500D02*
X50451000Y-46025500D01*
G75*
G02*
X50350500Y-46126000I-100500J0D01*
G01*
X50149500Y-46126000D01*
G75*
G02*
X50049000Y-46025500I0J100500D01*
G01*
X50049000Y-44649500D01*
G75*
G02*
X50149500Y-44549000I100500J0D01*
G01*
X50350500Y-44549000D01*
G75*
G02*
X50451000Y-44649500I0J-100500D01*
G01*
G37*
G36*
G01*
X49951000Y-44649500D02*
X49951000Y-46025500D01*
G75*
G02*
X49850500Y-46126000I-100500J0D01*
G01*
X49649500Y-46126000D01*
G75*
G02*
X49549000Y-46025500I0J100500D01*
G01*
X49549000Y-44649500D01*
G75*
G02*
X49649500Y-44549000I100500J0D01*
G01*
X49850500Y-44549000D01*
G75*
G02*
X49951000Y-44649500I0J-100500D01*
G01*
G37*
G36*
G01*
X49451000Y-44649500D02*
X49451000Y-46025500D01*
G75*
G02*
X49350500Y-46126000I-100500J0D01*
G01*
X49149500Y-46126000D01*
G75*
G02*
X49049000Y-46025500I0J100500D01*
G01*
X49049000Y-44649500D01*
G75*
G02*
X49149500Y-44549000I100500J0D01*
G01*
X49350500Y-44549000D01*
G75*
G02*
X49451000Y-44649500I0J-100500D01*
G01*
G37*
G36*
G01*
X48951000Y-44649500D02*
X48951000Y-46025500D01*
G75*
G02*
X48850500Y-46126000I-100500J0D01*
G01*
X48649500Y-46126000D01*
G75*
G02*
X48549000Y-46025500I0J100500D01*
G01*
X48549000Y-44649500D01*
G75*
G02*
X48649500Y-44549000I100500J0D01*
G01*
X48850500Y-44549000D01*
G75*
G02*
X48951000Y-44649500I0J-100500D01*
G01*
G37*
G36*
G01*
X48451000Y-44649500D02*
X48451000Y-46025500D01*
G75*
G02*
X48350500Y-46126000I-100500J0D01*
G01*
X48149500Y-46126000D01*
G75*
G02*
X48049000Y-46025500I0J100500D01*
G01*
X48049000Y-44649500D01*
G75*
G02*
X48149500Y-44549000I100500J0D01*
G01*
X48350500Y-44549000D01*
G75*
G02*
X48451000Y-44649500I0J-100500D01*
G01*
G37*
G36*
G01*
X47951000Y-44649500D02*
X47951000Y-46025500D01*
G75*
G02*
X47850500Y-46126000I-100500J0D01*
G01*
X47649500Y-46126000D01*
G75*
G02*
X47549000Y-46025500I0J100500D01*
G01*
X47549000Y-44649500D01*
G75*
G02*
X47649500Y-44549000I100500J0D01*
G01*
X47850500Y-44549000D01*
G75*
G02*
X47951000Y-44649500I0J-100500D01*
G01*
G37*
G36*
G01*
X47126000Y-46649500D02*
X47126000Y-46850500D01*
G75*
G02*
X47025500Y-46951000I-100500J0D01*
G01*
X45649500Y-46951000D01*
G75*
G02*
X45549000Y-46850500I0J100500D01*
G01*
X45549000Y-46649500D01*
G75*
G02*
X45649500Y-46549000I100500J0D01*
G01*
X47025500Y-46549000D01*
G75*
G02*
X47126000Y-46649500I0J-100500D01*
G01*
G37*
G36*
G01*
X47126000Y-47149500D02*
X47126000Y-47350500D01*
G75*
G02*
X47025500Y-47451000I-100500J0D01*
G01*
X45649500Y-47451000D01*
G75*
G02*
X45549000Y-47350500I0J100500D01*
G01*
X45549000Y-47149500D01*
G75*
G02*
X45649500Y-47049000I100500J0D01*
G01*
X47025500Y-47049000D01*
G75*
G02*
X47126000Y-47149500I0J-100500D01*
G01*
G37*
G36*
G01*
X47126000Y-47649500D02*
X47126000Y-47850500D01*
G75*
G02*
X47025500Y-47951000I-100500J0D01*
G01*
X45649500Y-47951000D01*
G75*
G02*
X45549000Y-47850500I0J100500D01*
G01*
X45549000Y-47649500D01*
G75*
G02*
X45649500Y-47549000I100500J0D01*
G01*
X47025500Y-47549000D01*
G75*
G02*
X47126000Y-47649500I0J-100500D01*
G01*
G37*
G36*
G01*
X47126000Y-48149500D02*
X47126000Y-48350500D01*
G75*
G02*
X47025500Y-48451000I-100500J0D01*
G01*
X45649500Y-48451000D01*
G75*
G02*
X45549000Y-48350500I0J100500D01*
G01*
X45549000Y-48149500D01*
G75*
G02*
X45649500Y-48049000I100500J0D01*
G01*
X47025500Y-48049000D01*
G75*
G02*
X47126000Y-48149500I0J-100500D01*
G01*
G37*
G36*
G01*
X47126000Y-48649500D02*
X47126000Y-48850500D01*
G75*
G02*
X47025500Y-48951000I-100500J0D01*
G01*
X45649500Y-48951000D01*
G75*
G02*
X45549000Y-48850500I0J100500D01*
G01*
X45549000Y-48649500D01*
G75*
G02*
X45649500Y-48549000I100500J0D01*
G01*
X47025500Y-48549000D01*
G75*
G02*
X47126000Y-48649500I0J-100500D01*
G01*
G37*
G36*
G01*
X47126000Y-49149500D02*
X47126000Y-49350500D01*
G75*
G02*
X47025500Y-49451000I-100500J0D01*
G01*
X45649500Y-49451000D01*
G75*
G02*
X45549000Y-49350500I0J100500D01*
G01*
X45549000Y-49149500D01*
G75*
G02*
X45649500Y-49049000I100500J0D01*
G01*
X47025500Y-49049000D01*
G75*
G02*
X47126000Y-49149500I0J-100500D01*
G01*
G37*
G36*
G01*
X47126000Y-49649500D02*
X47126000Y-49850500D01*
G75*
G02*
X47025500Y-49951000I-100500J0D01*
G01*
X45649500Y-49951000D01*
G75*
G02*
X45549000Y-49850500I0J100500D01*
G01*
X45549000Y-49649500D01*
G75*
G02*
X45649500Y-49549000I100500J0D01*
G01*
X47025500Y-49549000D01*
G75*
G02*
X47126000Y-49649500I0J-100500D01*
G01*
G37*
G36*
G01*
X47126000Y-50149500D02*
X47126000Y-50350500D01*
G75*
G02*
X47025500Y-50451000I-100500J0D01*
G01*
X45649500Y-50451000D01*
G75*
G02*
X45549000Y-50350500I0J100500D01*
G01*
X45549000Y-50149500D01*
G75*
G02*
X45649500Y-50049000I100500J0D01*
G01*
X47025500Y-50049000D01*
G75*
G02*
X47126000Y-50149500I0J-100500D01*
G01*
G37*
G36*
G01*
X47126000Y-50649500D02*
X47126000Y-50850500D01*
G75*
G02*
X47025500Y-50951000I-100500J0D01*
G01*
X45649500Y-50951000D01*
G75*
G02*
X45549000Y-50850500I0J100500D01*
G01*
X45549000Y-50649500D01*
G75*
G02*
X45649500Y-50549000I100500J0D01*
G01*
X47025500Y-50549000D01*
G75*
G02*
X47126000Y-50649500I0J-100500D01*
G01*
G37*
G36*
G01*
X47126000Y-51149500D02*
X47126000Y-51350500D01*
G75*
G02*
X47025500Y-51451000I-100500J0D01*
G01*
X45649500Y-51451000D01*
G75*
G02*
X45549000Y-51350500I0J100500D01*
G01*
X45549000Y-51149500D01*
G75*
G02*
X45649500Y-51049000I100500J0D01*
G01*
X47025500Y-51049000D01*
G75*
G02*
X47126000Y-51149500I0J-100500D01*
G01*
G37*
G36*
G01*
X47126000Y-51649500D02*
X47126000Y-51850500D01*
G75*
G02*
X47025500Y-51951000I-100500J0D01*
G01*
X45649500Y-51951000D01*
G75*
G02*
X45549000Y-51850500I0J100500D01*
G01*
X45549000Y-51649500D01*
G75*
G02*
X45649500Y-51549000I100500J0D01*
G01*
X47025500Y-51549000D01*
G75*
G02*
X47126000Y-51649500I0J-100500D01*
G01*
G37*
G36*
G01*
X47126000Y-52149500D02*
X47126000Y-52350500D01*
G75*
G02*
X47025500Y-52451000I-100500J0D01*
G01*
X45649500Y-52451000D01*
G75*
G02*
X45549000Y-52350500I0J100500D01*
G01*
X45549000Y-52149500D01*
G75*
G02*
X45649500Y-52049000I100500J0D01*
G01*
X47025500Y-52049000D01*
G75*
G02*
X47126000Y-52149500I0J-100500D01*
G01*
G37*
G36*
G01*
X47951000Y-52974500D02*
X47951000Y-54350500D01*
G75*
G02*
X47850500Y-54451000I-100500J0D01*
G01*
X47649500Y-54451000D01*
G75*
G02*
X47549000Y-54350500I0J100500D01*
G01*
X47549000Y-52974500D01*
G75*
G02*
X47649500Y-52874000I100500J0D01*
G01*
X47850500Y-52874000D01*
G75*
G02*
X47951000Y-52974500I0J-100500D01*
G01*
G37*
G36*
G01*
X48451000Y-52974500D02*
X48451000Y-54350500D01*
G75*
G02*
X48350500Y-54451000I-100500J0D01*
G01*
X48149500Y-54451000D01*
G75*
G02*
X48049000Y-54350500I0J100500D01*
G01*
X48049000Y-52974500D01*
G75*
G02*
X48149500Y-52874000I100500J0D01*
G01*
X48350500Y-52874000D01*
G75*
G02*
X48451000Y-52974500I0J-100500D01*
G01*
G37*
G36*
G01*
X48951000Y-52974500D02*
X48951000Y-54350500D01*
G75*
G02*
X48850500Y-54451000I-100500J0D01*
G01*
X48649500Y-54451000D01*
G75*
G02*
X48549000Y-54350500I0J100500D01*
G01*
X48549000Y-52974500D01*
G75*
G02*
X48649500Y-52874000I100500J0D01*
G01*
X48850500Y-52874000D01*
G75*
G02*
X48951000Y-52974500I0J-100500D01*
G01*
G37*
G36*
G01*
X49451000Y-52974500D02*
X49451000Y-54350500D01*
G75*
G02*
X49350500Y-54451000I-100500J0D01*
G01*
X49149500Y-54451000D01*
G75*
G02*
X49049000Y-54350500I0J100500D01*
G01*
X49049000Y-52974500D01*
G75*
G02*
X49149500Y-52874000I100500J0D01*
G01*
X49350500Y-52874000D01*
G75*
G02*
X49451000Y-52974500I0J-100500D01*
G01*
G37*
G36*
G01*
X49951000Y-52974500D02*
X49951000Y-54350500D01*
G75*
G02*
X49850500Y-54451000I-100500J0D01*
G01*
X49649500Y-54451000D01*
G75*
G02*
X49549000Y-54350500I0J100500D01*
G01*
X49549000Y-52974500D01*
G75*
G02*
X49649500Y-52874000I100500J0D01*
G01*
X49850500Y-52874000D01*
G75*
G02*
X49951000Y-52974500I0J-100500D01*
G01*
G37*
G36*
G01*
X50451000Y-52974500D02*
X50451000Y-54350500D01*
G75*
G02*
X50350500Y-54451000I-100500J0D01*
G01*
X50149500Y-54451000D01*
G75*
G02*
X50049000Y-54350500I0J100500D01*
G01*
X50049000Y-52974500D01*
G75*
G02*
X50149500Y-52874000I100500J0D01*
G01*
X50350500Y-52874000D01*
G75*
G02*
X50451000Y-52974500I0J-100500D01*
G01*
G37*
G36*
G01*
X50951000Y-52974500D02*
X50951000Y-54350500D01*
G75*
G02*
X50850500Y-54451000I-100500J0D01*
G01*
X50649500Y-54451000D01*
G75*
G02*
X50549000Y-54350500I0J100500D01*
G01*
X50549000Y-52974500D01*
G75*
G02*
X50649500Y-52874000I100500J0D01*
G01*
X50850500Y-52874000D01*
G75*
G02*
X50951000Y-52974500I0J-100500D01*
G01*
G37*
G36*
G01*
X51451000Y-52974500D02*
X51451000Y-54350500D01*
G75*
G02*
X51350500Y-54451000I-100500J0D01*
G01*
X51149500Y-54451000D01*
G75*
G02*
X51049000Y-54350500I0J100500D01*
G01*
X51049000Y-52974500D01*
G75*
G02*
X51149500Y-52874000I100500J0D01*
G01*
X51350500Y-52874000D01*
G75*
G02*
X51451000Y-52974500I0J-100500D01*
G01*
G37*
G36*
G01*
X51951000Y-52974500D02*
X51951000Y-54350500D01*
G75*
G02*
X51850500Y-54451000I-100500J0D01*
G01*
X51649500Y-54451000D01*
G75*
G02*
X51549000Y-54350500I0J100500D01*
G01*
X51549000Y-52974500D01*
G75*
G02*
X51649500Y-52874000I100500J0D01*
G01*
X51850500Y-52874000D01*
G75*
G02*
X51951000Y-52974500I0J-100500D01*
G01*
G37*
G36*
G01*
X52451000Y-52974500D02*
X52451000Y-54350500D01*
G75*
G02*
X52350500Y-54451000I-100500J0D01*
G01*
X52149500Y-54451000D01*
G75*
G02*
X52049000Y-54350500I0J100500D01*
G01*
X52049000Y-52974500D01*
G75*
G02*
X52149500Y-52874000I100500J0D01*
G01*
X52350500Y-52874000D01*
G75*
G02*
X52451000Y-52974500I0J-100500D01*
G01*
G37*
G36*
G01*
X52951000Y-52974500D02*
X52951000Y-54350500D01*
G75*
G02*
X52850500Y-54451000I-100500J0D01*
G01*
X52649500Y-54451000D01*
G75*
G02*
X52549000Y-54350500I0J100500D01*
G01*
X52549000Y-52974500D01*
G75*
G02*
X52649500Y-52874000I100500J0D01*
G01*
X52850500Y-52874000D01*
G75*
G02*
X52951000Y-52974500I0J-100500D01*
G01*
G37*
G36*
G01*
X53451000Y-52974500D02*
X53451000Y-54350500D01*
G75*
G02*
X53350500Y-54451000I-100500J0D01*
G01*
X53149500Y-54451000D01*
G75*
G02*
X53049000Y-54350500I0J100500D01*
G01*
X53049000Y-52974500D01*
G75*
G02*
X53149500Y-52874000I100500J0D01*
G01*
X53350500Y-52874000D01*
G75*
G02*
X53451000Y-52974500I0J-100500D01*
G01*
G37*
G36*
G01*
X48899000Y-73470500D02*
X48899000Y-73119500D01*
G75*
G02*
X49074500Y-72944000I175500J0D01*
G01*
X50775500Y-72944000D01*
G75*
G02*
X50951000Y-73119500I0J-175500D01*
G01*
X50951000Y-73470500D01*
G75*
G02*
X50775500Y-73646000I-175500J0D01*
G01*
X49074500Y-73646000D01*
G75*
G02*
X48899000Y-73470500I0J175500D01*
G01*
G37*
G36*
G01*
X48899000Y-74740500D02*
X48899000Y-74389500D01*
G75*
G02*
X49074500Y-74214000I175500J0D01*
G01*
X50775500Y-74214000D01*
G75*
G02*
X50951000Y-74389500I0J-175500D01*
G01*
X50951000Y-74740500D01*
G75*
G02*
X50775500Y-74916000I-175500J0D01*
G01*
X49074500Y-74916000D01*
G75*
G02*
X48899000Y-74740500I0J175500D01*
G01*
G37*
G36*
G01*
X48899000Y-76010500D02*
X48899000Y-75659500D01*
G75*
G02*
X49074500Y-75484000I175500J0D01*
G01*
X50775500Y-75484000D01*
G75*
G02*
X50951000Y-75659500I0J-175500D01*
G01*
X50951000Y-76010500D01*
G75*
G02*
X50775500Y-76186000I-175500J0D01*
G01*
X49074500Y-76186000D01*
G75*
G02*
X48899000Y-76010500I0J175500D01*
G01*
G37*
G36*
G01*
X48899000Y-77280500D02*
X48899000Y-76929500D01*
G75*
G02*
X49074500Y-76754000I175500J0D01*
G01*
X50775500Y-76754000D01*
G75*
G02*
X50951000Y-76929500I0J-175500D01*
G01*
X50951000Y-77280500D01*
G75*
G02*
X50775500Y-77456000I-175500J0D01*
G01*
X49074500Y-77456000D01*
G75*
G02*
X48899000Y-77280500I0J175500D01*
G01*
G37*
G36*
G01*
X53849000Y-77280500D02*
X53849000Y-76929500D01*
G75*
G02*
X54024500Y-76754000I175500J0D01*
G01*
X55725500Y-76754000D01*
G75*
G02*
X55901000Y-76929500I0J-175500D01*
G01*
X55901000Y-77280500D01*
G75*
G02*
X55725500Y-77456000I-175500J0D01*
G01*
X54024500Y-77456000D01*
G75*
G02*
X53849000Y-77280500I0J175500D01*
G01*
G37*
G36*
G01*
X53849000Y-76010500D02*
X53849000Y-75659500D01*
G75*
G02*
X54024500Y-75484000I175500J0D01*
G01*
X55725500Y-75484000D01*
G75*
G02*
X55901000Y-75659500I0J-175500D01*
G01*
X55901000Y-76010500D01*
G75*
G02*
X55725500Y-76186000I-175500J0D01*
G01*
X54024500Y-76186000D01*
G75*
G02*
X53849000Y-76010500I0J175500D01*
G01*
G37*
G36*
G01*
X53849000Y-74740500D02*
X53849000Y-74389500D01*
G75*
G02*
X54024500Y-74214000I175500J0D01*
G01*
X55725500Y-74214000D01*
G75*
G02*
X55901000Y-74389500I0J-175500D01*
G01*
X55901000Y-74740500D01*
G75*
G02*
X55725500Y-74916000I-175500J0D01*
G01*
X54024500Y-74916000D01*
G75*
G02*
X53849000Y-74740500I0J175500D01*
G01*
G37*
G36*
G01*
X53849000Y-73470500D02*
X53849000Y-73119500D01*
G75*
G02*
X54024500Y-72944000I175500J0D01*
G01*
X55725500Y-72944000D01*
G75*
G02*
X55901000Y-73119500I0J-175500D01*
G01*
X55901000Y-73470500D01*
G75*
G02*
X55725500Y-73646000I-175500J0D01*
G01*
X54024500Y-73646000D01*
G75*
G02*
X53849000Y-73470500I0J175500D01*
G01*
G37*
D35*
X57900000Y-51650000D03*
X60800000Y-51650000D03*
X60800000Y-49350000D03*
X57900000Y-49350000D03*
D36*
X32500000Y-54500000D03*
X39500000Y-54500000D03*
D37*
X34300000Y-52400000D03*
X37300000Y-52400000D03*
X41300000Y-52400000D03*
X42800000Y-56600000D03*
D28*
X94797250Y-44053310D03*
X83797250Y-44053310D03*
D38*
X89297250Y-44053310D03*
D32*
X89297250Y-49953310D03*
X84297250Y-47753310D03*
D39*
X94517250Y-39853310D03*
X113567330Y-39853310D03*
D32*
X103347330Y-47753310D03*
X108347330Y-49953310D03*
D38*
X108347330Y-44053310D03*
D28*
X102847330Y-44053310D03*
X113847330Y-44053310D03*
D39*
X75467170Y-58903390D03*
D32*
X65247170Y-66803390D03*
X70247170Y-69003390D03*
D38*
X70247170Y-63103390D03*
D28*
X64747170Y-63103390D03*
X75747170Y-63103390D03*
D39*
X94517250Y-58903390D03*
D32*
X84297250Y-66803390D03*
X89297250Y-69003390D03*
D38*
X89297250Y-63103390D03*
D28*
X83797250Y-63103390D03*
X94797250Y-63103390D03*
X113847330Y-63103390D03*
X102847330Y-63103390D03*
D38*
X108347330Y-63103390D03*
D32*
X108347330Y-69003390D03*
X103347330Y-66803390D03*
D39*
X113567330Y-58903390D03*
D14*
X111363390Y-75009690D03*
X108823390Y-75009690D03*
X106283390Y-75009690D03*
X103743390Y-75009690D03*
X101203390Y-75009690D03*
X98663390Y-75009690D03*
X96123390Y-75009690D03*
X93583390Y-75009690D03*
X91043390Y-75009690D03*
X88503390Y-75009690D03*
X85963390Y-75009690D03*
X83423390Y-75009690D03*
X80883390Y-75009690D03*
X78343390Y-75009690D03*
X75803390Y-75009690D03*
X73263390Y-75009690D03*
X70723390Y-75009690D03*
X68183390Y-75009690D03*
X65643390Y-75009690D03*
D13*
X63103390Y-75009690D03*
G36*
G01*
X46478827Y-44651000D02*
X45521173Y-44651000D01*
G75*
G02*
X45249000Y-44378827I0J272173D01*
G01*
X45249000Y-43671173D01*
G75*
G02*
X45521173Y-43399000I272173J0D01*
G01*
X46478827Y-43399000D01*
G75*
G02*
X46751000Y-43671173I0J-272173D01*
G01*
X46751000Y-44378827D01*
G75*
G02*
X46478827Y-44651000I-272173J0D01*
G01*
G37*
G36*
G01*
X46478827Y-42601000D02*
X45521173Y-42601000D01*
G75*
G02*
X45249000Y-42328827I0J272173D01*
G01*
X45249000Y-41621173D01*
G75*
G02*
X45521173Y-41349000I272173J0D01*
G01*
X46478827Y-41349000D01*
G75*
G02*
X46751000Y-41621173I0J-272173D01*
G01*
X46751000Y-42328827D01*
G75*
G02*
X46478827Y-42601000I-272173J0D01*
G01*
G37*
D40*
X41600000Y-59000000D03*
X49400000Y-59000000D03*
D41*
X46850000Y-59000000D03*
X44150000Y-59000000D03*
X44150000Y-61250000D03*
X46850000Y-61250000D03*
D40*
X49400000Y-61250000D03*
X41600000Y-61250000D03*
M02*
