G04 #@! TF.GenerationSoftware,KiCad,Pcbnew,(5.1.6-0-10_14)*
G04 #@! TF.CreationDate,2020-10-25T15:01:43+09:00*
G04 #@! TF.ProjectId,meishi_stm32,6d656973-6869-45f7-9374-6d33322e6b69,rev?*
G04 #@! TF.SameCoordinates,Original*
G04 #@! TF.FileFunction,Paste,Top*
G04 #@! TF.FilePolarity,Positive*
%FSLAX46Y46*%
G04 Gerber Fmt 4.6, Leading zero omitted, Abs format (unit mm)*
G04 Created by KiCad (PCBNEW (5.1.6-0-10_14)) date 2020-10-25 15:01:43*
%MOMM*%
%LPD*%
G01*
G04 APERTURE LIST*
%ADD10R,1.200000X0.900000*%
%ADD11R,1.600000X0.850000*%
%ADD12R,1.400000X1.200000*%
%ADD13R,1.400000X1.000000*%
%ADD14R,1.300000X3.400000*%
%ADD15R,0.900000X0.800000*%
%ADD16R,2.100000X1.800000*%
%ADD17R,1.500000X1.200000*%
G04 APERTURE END LIST*
G36*
G01*
X45949999Y-39450000D02*
X46850001Y-39450000D01*
G75*
G02*
X47100000Y-39699999I0J-249999D01*
G01*
X47100000Y-40350001D01*
G75*
G02*
X46850001Y-40600000I-249999J0D01*
G01*
X45949999Y-40600000D01*
G75*
G02*
X45700000Y-40350001I0J249999D01*
G01*
X45700000Y-39699999D01*
G75*
G02*
X45949999Y-39450000I249999J0D01*
G01*
G37*
G36*
G01*
X45949999Y-37400000D02*
X46850001Y-37400000D01*
G75*
G02*
X47100000Y-37649999I0J-249999D01*
G01*
X47100000Y-38300001D01*
G75*
G02*
X46850001Y-38550000I-249999J0D01*
G01*
X45949999Y-38550000D01*
G75*
G02*
X45700000Y-38300001I0J249999D01*
G01*
X45700000Y-37649999D01*
G75*
G02*
X45949999Y-37400000I249999J0D01*
G01*
G37*
G36*
G01*
X51949999Y-37400000D02*
X52850001Y-37400000D01*
G75*
G02*
X53100000Y-37649999I0J-249999D01*
G01*
X53100000Y-38300001D01*
G75*
G02*
X52850001Y-38550000I-249999J0D01*
G01*
X51949999Y-38550000D01*
G75*
G02*
X51700000Y-38300001I0J249999D01*
G01*
X51700000Y-37649999D01*
G75*
G02*
X51949999Y-37400000I249999J0D01*
G01*
G37*
G36*
G01*
X51949999Y-39450000D02*
X52850001Y-39450000D01*
G75*
G02*
X53100000Y-39699999I0J-249999D01*
G01*
X53100000Y-40350001D01*
G75*
G02*
X52850001Y-40600000I-249999J0D01*
G01*
X51949999Y-40600000D01*
G75*
G02*
X51700000Y-40350001I0J249999D01*
G01*
X51700000Y-39699999D01*
G75*
G02*
X51949999Y-39450000I249999J0D01*
G01*
G37*
G36*
G01*
X58150000Y-54450001D02*
X58150000Y-53549999D01*
G75*
G02*
X58399999Y-53300000I249999J0D01*
G01*
X59050001Y-53300000D01*
G75*
G02*
X59300000Y-53549999I0J-249999D01*
G01*
X59300000Y-54450001D01*
G75*
G02*
X59050001Y-54700000I-249999J0D01*
G01*
X58399999Y-54700000D01*
G75*
G02*
X58150000Y-54450001I0J249999D01*
G01*
G37*
G36*
G01*
X60200000Y-54450001D02*
X60200000Y-53549999D01*
G75*
G02*
X60449999Y-53300000I249999J0D01*
G01*
X61100001Y-53300000D01*
G75*
G02*
X61350000Y-53549999I0J-249999D01*
G01*
X61350000Y-54450001D01*
G75*
G02*
X61100001Y-54700000I-249999J0D01*
G01*
X60449999Y-54700000D01*
G75*
G02*
X60200000Y-54450001I0J249999D01*
G01*
G37*
G36*
G01*
X59825000Y-47250001D02*
X59825000Y-46349999D01*
G75*
G02*
X60074999Y-46100000I249999J0D01*
G01*
X60725001Y-46100000D01*
G75*
G02*
X60975000Y-46349999I0J-249999D01*
G01*
X60975000Y-47250001D01*
G75*
G02*
X60725001Y-47500000I-249999J0D01*
G01*
X60074999Y-47500000D01*
G75*
G02*
X59825000Y-47250001I0J249999D01*
G01*
G37*
G36*
G01*
X57775000Y-47250001D02*
X57775000Y-46349999D01*
G75*
G02*
X58024999Y-46100000I249999J0D01*
G01*
X58675001Y-46100000D01*
G75*
G02*
X58925000Y-46349999I0J-249999D01*
G01*
X58925000Y-47250001D01*
G75*
G02*
X58675001Y-47500000I-249999J0D01*
G01*
X58024999Y-47500000D01*
G75*
G02*
X57775000Y-47250001I0J249999D01*
G01*
G37*
G36*
G01*
X56349999Y-40650000D02*
X57250001Y-40650000D01*
G75*
G02*
X57500000Y-40899999I0J-249999D01*
G01*
X57500000Y-41550001D01*
G75*
G02*
X57250001Y-41800000I-249999J0D01*
G01*
X56349999Y-41800000D01*
G75*
G02*
X56100000Y-41550001I0J249999D01*
G01*
X56100000Y-40899999D01*
G75*
G02*
X56349999Y-40650000I249999J0D01*
G01*
G37*
G36*
G01*
X56349999Y-38600000D02*
X57250001Y-38600000D01*
G75*
G02*
X57500000Y-38849999I0J-249999D01*
G01*
X57500000Y-39500001D01*
G75*
G02*
X57250001Y-39750000I-249999J0D01*
G01*
X56349999Y-39750000D01*
G75*
G02*
X56100000Y-39500001I0J249999D01*
G01*
X56100000Y-38849999D01*
G75*
G02*
X56349999Y-38600000I249999J0D01*
G01*
G37*
G36*
G01*
X54149999Y-38600000D02*
X55050001Y-38600000D01*
G75*
G02*
X55300000Y-38849999I0J-249999D01*
G01*
X55300000Y-39500001D01*
G75*
G02*
X55050001Y-39750000I-249999J0D01*
G01*
X54149999Y-39750000D01*
G75*
G02*
X53900000Y-39500001I0J249999D01*
G01*
X53900000Y-38849999D01*
G75*
G02*
X54149999Y-38600000I249999J0D01*
G01*
G37*
G36*
G01*
X54149999Y-40650000D02*
X55050001Y-40650000D01*
G75*
G02*
X55300000Y-40899999I0J-249999D01*
G01*
X55300000Y-41550001D01*
G75*
G02*
X55050001Y-41800000I-249999J0D01*
G01*
X54149999Y-41800000D01*
G75*
G02*
X53900000Y-41550001I0J249999D01*
G01*
X53900000Y-40899999D01*
G75*
G02*
X54149999Y-40650000I249999J0D01*
G01*
G37*
G36*
G01*
X45800000Y-64250001D02*
X45800000Y-63349999D01*
G75*
G02*
X46049999Y-63100000I249999J0D01*
G01*
X46700001Y-63100000D01*
G75*
G02*
X46950000Y-63349999I0J-249999D01*
G01*
X46950000Y-64250001D01*
G75*
G02*
X46700001Y-64500000I-249999J0D01*
G01*
X46049999Y-64500000D01*
G75*
G02*
X45800000Y-64250001I0J249999D01*
G01*
G37*
G36*
G01*
X47850000Y-64250001D02*
X47850000Y-63349999D01*
G75*
G02*
X48099999Y-63100000I249999J0D01*
G01*
X48750001Y-63100000D01*
G75*
G02*
X49000000Y-63349999I0J-249999D01*
G01*
X49000000Y-64250001D01*
G75*
G02*
X48750001Y-64500000I-249999J0D01*
G01*
X48099999Y-64500000D01*
G75*
G02*
X47850000Y-64250001I0J249999D01*
G01*
G37*
G36*
G01*
X51359369Y-59650000D02*
X52259371Y-59650000D01*
G75*
G02*
X52509370Y-59899999I0J-249999D01*
G01*
X52509370Y-60550001D01*
G75*
G02*
X52259371Y-60800000I-249999J0D01*
G01*
X51359369Y-60800000D01*
G75*
G02*
X51109370Y-60550001I0J249999D01*
G01*
X51109370Y-59899999D01*
G75*
G02*
X51359369Y-59650000I249999J0D01*
G01*
G37*
G36*
G01*
X51359369Y-57600000D02*
X52259371Y-57600000D01*
G75*
G02*
X52509370Y-57849999I0J-249999D01*
G01*
X52509370Y-58500001D01*
G75*
G02*
X52259371Y-58750000I-249999J0D01*
G01*
X51359369Y-58750000D01*
G75*
G02*
X51109370Y-58500001I0J249999D01*
G01*
X51109370Y-57849999D01*
G75*
G02*
X51359369Y-57600000I249999J0D01*
G01*
G37*
G36*
G01*
X53759369Y-57600000D02*
X54659371Y-57600000D01*
G75*
G02*
X54909370Y-57849999I0J-249999D01*
G01*
X54909370Y-58500001D01*
G75*
G02*
X54659371Y-58750000I-249999J0D01*
G01*
X53759369Y-58750000D01*
G75*
G02*
X53509370Y-58500001I0J249999D01*
G01*
X53509370Y-57849999D01*
G75*
G02*
X53759369Y-57600000I249999J0D01*
G01*
G37*
G36*
G01*
X53759369Y-59650000D02*
X54659371Y-59650000D01*
G75*
G02*
X54909370Y-59899999I0J-249999D01*
G01*
X54909370Y-60550001D01*
G75*
G02*
X54659371Y-60800000I-249999J0D01*
G01*
X53759369Y-60800000D01*
G75*
G02*
X53509370Y-60550001I0J249999D01*
G01*
X53509370Y-59899999D01*
G75*
G02*
X53759369Y-59650000I249999J0D01*
G01*
G37*
G36*
G01*
X54949999Y-55450000D02*
X55850001Y-55450000D01*
G75*
G02*
X56100000Y-55699999I0J-249999D01*
G01*
X56100000Y-56350001D01*
G75*
G02*
X55850001Y-56600000I-249999J0D01*
G01*
X54949999Y-56600000D01*
G75*
G02*
X54700000Y-56350001I0J249999D01*
G01*
X54700000Y-55699999D01*
G75*
G02*
X54949999Y-55450000I249999J0D01*
G01*
G37*
G36*
G01*
X54949999Y-53400000D02*
X55850001Y-53400000D01*
G75*
G02*
X56100000Y-53649999I0J-249999D01*
G01*
X56100000Y-54300001D01*
G75*
G02*
X55850001Y-54550000I-249999J0D01*
G01*
X54949999Y-54550000D01*
G75*
G02*
X54700000Y-54300001I0J249999D01*
G01*
X54700000Y-53649999D01*
G75*
G02*
X54949999Y-53400000I249999J0D01*
G01*
G37*
G36*
G01*
X44650001Y-55200000D02*
X43749999Y-55200000D01*
G75*
G02*
X43500000Y-54950001I0J249999D01*
G01*
X43500000Y-54299999D01*
G75*
G02*
X43749999Y-54050000I249999J0D01*
G01*
X44650001Y-54050000D01*
G75*
G02*
X44900000Y-54299999I0J-249999D01*
G01*
X44900000Y-54950001D01*
G75*
G02*
X44650001Y-55200000I-249999J0D01*
G01*
G37*
G36*
G01*
X44650001Y-53150000D02*
X43749999Y-53150000D01*
G75*
G02*
X43500000Y-52900001I0J249999D01*
G01*
X43500000Y-52249999D01*
G75*
G02*
X43749999Y-52000000I249999J0D01*
G01*
X44650001Y-52000000D01*
G75*
G02*
X44900000Y-52249999I0J-249999D01*
G01*
X44900000Y-52900001D01*
G75*
G02*
X44650001Y-53150000I-249999J0D01*
G01*
G37*
D10*
X78500000Y-38650000D03*
X78500000Y-35350000D03*
X81000000Y-38650000D03*
X81000000Y-35350000D03*
X100000000Y-38650000D03*
X100000000Y-35350000D03*
X59400000Y-57350000D03*
X59400000Y-60650000D03*
X81000000Y-54350000D03*
X81000000Y-57650000D03*
X100000000Y-54350000D03*
X100000000Y-57650000D03*
D11*
X35850000Y-28225000D03*
X35850000Y-29975000D03*
X39350000Y-28225000D03*
X39350000Y-29975000D03*
X46750000Y-29975000D03*
X46750000Y-28225000D03*
X43250000Y-29975000D03*
X43250000Y-28225000D03*
D10*
X61800000Y-35950000D03*
X61800000Y-39250000D03*
X78600000Y-43950000D03*
X78600000Y-47250000D03*
X97600000Y-47250000D03*
X97600000Y-43950000D03*
X78600000Y-52850000D03*
X78600000Y-49550000D03*
X97600000Y-49550000D03*
X97600000Y-52850000D03*
X116600000Y-52850000D03*
X116600000Y-49550000D03*
X78600000Y-71850000D03*
X78600000Y-68550000D03*
X97600000Y-71850000D03*
X97600000Y-68550000D03*
X116800000Y-68550000D03*
X116800000Y-71850000D03*
D12*
X41700000Y-41230000D03*
D13*
X41700000Y-42950000D03*
X43900000Y-42950000D03*
X43900000Y-41050000D03*
G36*
G01*
X44800000Y-37975000D02*
X44800000Y-39225000D01*
G75*
G02*
X44550000Y-39475000I-250000J0D01*
G01*
X43625000Y-39475000D01*
G75*
G02*
X43375000Y-39225000I0J250000D01*
G01*
X43375000Y-37975000D01*
G75*
G02*
X43625000Y-37725000I250000J0D01*
G01*
X44550000Y-37725000D01*
G75*
G02*
X44800000Y-37975000I0J-250000D01*
G01*
G37*
G36*
G01*
X41825000Y-37975000D02*
X41825000Y-39225000D01*
G75*
G02*
X41575000Y-39475000I-250000J0D01*
G01*
X40650000Y-39475000D01*
G75*
G02*
X40400000Y-39225000I0J250000D01*
G01*
X40400000Y-37975000D01*
G75*
G02*
X40650000Y-37725000I250000J0D01*
G01*
X41575000Y-37725000D01*
G75*
G02*
X41825000Y-37975000I0J-250000D01*
G01*
G37*
D14*
X36100000Y-70750000D03*
X44800000Y-70750000D03*
G36*
G01*
X31600000Y-66050001D02*
X31600000Y-65149999D01*
G75*
G02*
X31849999Y-64900000I249999J0D01*
G01*
X32500001Y-64900000D01*
G75*
G02*
X32750000Y-65149999I0J-249999D01*
G01*
X32750000Y-66050001D01*
G75*
G02*
X32500001Y-66300000I-249999J0D01*
G01*
X31849999Y-66300000D01*
G75*
G02*
X31600000Y-66050001I0J249999D01*
G01*
G37*
G36*
G01*
X33650000Y-66050001D02*
X33650000Y-65149999D01*
G75*
G02*
X33899999Y-64900000I249999J0D01*
G01*
X34550001Y-64900000D01*
G75*
G02*
X34800000Y-65149999I0J-249999D01*
G01*
X34800000Y-66050001D01*
G75*
G02*
X34550001Y-66300000I-249999J0D01*
G01*
X33899999Y-66300000D01*
G75*
G02*
X33650000Y-66050001I0J249999D01*
G01*
G37*
G36*
G01*
X36000000Y-34250001D02*
X36000000Y-33349999D01*
G75*
G02*
X36249999Y-33100000I249999J0D01*
G01*
X36900001Y-33100000D01*
G75*
G02*
X37150000Y-33349999I0J-249999D01*
G01*
X37150000Y-34250001D01*
G75*
G02*
X36900001Y-34500000I-249999J0D01*
G01*
X36249999Y-34500000D01*
G75*
G02*
X36000000Y-34250001I0J249999D01*
G01*
G37*
G36*
G01*
X38050000Y-34250001D02*
X38050000Y-33349999D01*
G75*
G02*
X38299999Y-33100000I249999J0D01*
G01*
X38950001Y-33100000D01*
G75*
G02*
X39200000Y-33349999I0J-249999D01*
G01*
X39200000Y-34250001D01*
G75*
G02*
X38950001Y-34500000I-249999J0D01*
G01*
X38299999Y-34500000D01*
G75*
G02*
X38050000Y-34250001I0J249999D01*
G01*
G37*
G36*
G01*
X47850000Y-66650001D02*
X47850000Y-65749999D01*
G75*
G02*
X48099999Y-65500000I249999J0D01*
G01*
X48750001Y-65500000D01*
G75*
G02*
X49000000Y-65749999I0J-249999D01*
G01*
X49000000Y-66650001D01*
G75*
G02*
X48750001Y-66900000I-249999J0D01*
G01*
X48099999Y-66900000D01*
G75*
G02*
X47850000Y-66650001I0J249999D01*
G01*
G37*
G36*
G01*
X45800000Y-66650001D02*
X45800000Y-65749999D01*
G75*
G02*
X46049999Y-65500000I249999J0D01*
G01*
X46700001Y-65500000D01*
G75*
G02*
X46950000Y-65749999I0J-249999D01*
G01*
X46950000Y-66650001D01*
G75*
G02*
X46700001Y-66900000I-249999J0D01*
G01*
X46049999Y-66900000D01*
G75*
G02*
X45800000Y-66650001I0J249999D01*
G01*
G37*
G36*
G01*
X44200000Y-44549999D02*
X44200000Y-45450001D01*
G75*
G02*
X43950001Y-45700000I-249999J0D01*
G01*
X43299999Y-45700000D01*
G75*
G02*
X43050000Y-45450001I0J249999D01*
G01*
X43050000Y-44549999D01*
G75*
G02*
X43299999Y-44300000I249999J0D01*
G01*
X43950001Y-44300000D01*
G75*
G02*
X44200000Y-44549999I0J-249999D01*
G01*
G37*
G36*
G01*
X42150000Y-44549999D02*
X42150000Y-45450001D01*
G75*
G02*
X41900001Y-45700000I-249999J0D01*
G01*
X41249999Y-45700000D01*
G75*
G02*
X41000000Y-45450001I0J249999D01*
G01*
X41000000Y-44549999D01*
G75*
G02*
X41249999Y-44300000I249999J0D01*
G01*
X41900001Y-44300000D01*
G75*
G02*
X42150000Y-44549999I0J-249999D01*
G01*
G37*
G36*
G01*
X42150000Y-46749999D02*
X42150000Y-47650001D01*
G75*
G02*
X41900001Y-47900000I-249999J0D01*
G01*
X41249999Y-47900000D01*
G75*
G02*
X41000000Y-47650001I0J249999D01*
G01*
X41000000Y-46749999D01*
G75*
G02*
X41249999Y-46500000I249999J0D01*
G01*
X41900001Y-46500000D01*
G75*
G02*
X42150000Y-46749999I0J-249999D01*
G01*
G37*
G36*
G01*
X44200000Y-46749999D02*
X44200000Y-47650001D01*
G75*
G02*
X43950001Y-47900000I-249999J0D01*
G01*
X43299999Y-47900000D01*
G75*
G02*
X43050000Y-47650001I0J249999D01*
G01*
X43050000Y-46749999D01*
G75*
G02*
X43299999Y-46500000I249999J0D01*
G01*
X43950001Y-46500000D01*
G75*
G02*
X44200000Y-46749999I0J-249999D01*
G01*
G37*
G36*
G01*
X42150000Y-48949999D02*
X42150000Y-49850001D01*
G75*
G02*
X41900001Y-50100000I-249999J0D01*
G01*
X41249999Y-50100000D01*
G75*
G02*
X41000000Y-49850001I0J249999D01*
G01*
X41000000Y-48949999D01*
G75*
G02*
X41249999Y-48700000I249999J0D01*
G01*
X41900001Y-48700000D01*
G75*
G02*
X42150000Y-48949999I0J-249999D01*
G01*
G37*
G36*
G01*
X44200000Y-48949999D02*
X44200000Y-49850001D01*
G75*
G02*
X43950001Y-50100000I-249999J0D01*
G01*
X43299999Y-50100000D01*
G75*
G02*
X43050000Y-49850001I0J249999D01*
G01*
X43050000Y-48949999D01*
G75*
G02*
X43299999Y-48700000I249999J0D01*
G01*
X43950001Y-48700000D01*
G75*
G02*
X44200000Y-48949999I0J-249999D01*
G01*
G37*
G36*
G01*
X36000000Y-37850001D02*
X36000000Y-36949999D01*
G75*
G02*
X36249999Y-36700000I249999J0D01*
G01*
X36900001Y-36700000D01*
G75*
G02*
X37150000Y-36949999I0J-249999D01*
G01*
X37150000Y-37850001D01*
G75*
G02*
X36900001Y-38100000I-249999J0D01*
G01*
X36249999Y-38100000D01*
G75*
G02*
X36000000Y-37850001I0J249999D01*
G01*
G37*
G36*
G01*
X38050000Y-37850001D02*
X38050000Y-36949999D01*
G75*
G02*
X38299999Y-36700000I249999J0D01*
G01*
X38950001Y-36700000D01*
G75*
G02*
X39200000Y-36949999I0J-249999D01*
G01*
X39200000Y-37850001D01*
G75*
G02*
X38950001Y-38100000I-249999J0D01*
G01*
X38299999Y-38100000D01*
G75*
G02*
X38050000Y-37850001I0J249999D01*
G01*
G37*
D15*
X50400000Y-39950000D03*
X50400000Y-38050000D03*
X48400000Y-39000000D03*
G36*
G01*
X55400000Y-52175000D02*
X55400000Y-52325000D01*
G75*
G02*
X55325000Y-52400000I-75000J0D01*
G01*
X54000000Y-52400000D01*
G75*
G02*
X53925000Y-52325000I0J75000D01*
G01*
X53925000Y-52175000D01*
G75*
G02*
X54000000Y-52100000I75000J0D01*
G01*
X55325000Y-52100000D01*
G75*
G02*
X55400000Y-52175000I0J-75000D01*
G01*
G37*
G36*
G01*
X55400000Y-51675000D02*
X55400000Y-51825000D01*
G75*
G02*
X55325000Y-51900000I-75000J0D01*
G01*
X54000000Y-51900000D01*
G75*
G02*
X53925000Y-51825000I0J75000D01*
G01*
X53925000Y-51675000D01*
G75*
G02*
X54000000Y-51600000I75000J0D01*
G01*
X55325000Y-51600000D01*
G75*
G02*
X55400000Y-51675000I0J-75000D01*
G01*
G37*
G36*
G01*
X55400000Y-51175000D02*
X55400000Y-51325000D01*
G75*
G02*
X55325000Y-51400000I-75000J0D01*
G01*
X54000000Y-51400000D01*
G75*
G02*
X53925000Y-51325000I0J75000D01*
G01*
X53925000Y-51175000D01*
G75*
G02*
X54000000Y-51100000I75000J0D01*
G01*
X55325000Y-51100000D01*
G75*
G02*
X55400000Y-51175000I0J-75000D01*
G01*
G37*
G36*
G01*
X55400000Y-50675000D02*
X55400000Y-50825000D01*
G75*
G02*
X55325000Y-50900000I-75000J0D01*
G01*
X54000000Y-50900000D01*
G75*
G02*
X53925000Y-50825000I0J75000D01*
G01*
X53925000Y-50675000D01*
G75*
G02*
X54000000Y-50600000I75000J0D01*
G01*
X55325000Y-50600000D01*
G75*
G02*
X55400000Y-50675000I0J-75000D01*
G01*
G37*
G36*
G01*
X55400000Y-50175000D02*
X55400000Y-50325000D01*
G75*
G02*
X55325000Y-50400000I-75000J0D01*
G01*
X54000000Y-50400000D01*
G75*
G02*
X53925000Y-50325000I0J75000D01*
G01*
X53925000Y-50175000D01*
G75*
G02*
X54000000Y-50100000I75000J0D01*
G01*
X55325000Y-50100000D01*
G75*
G02*
X55400000Y-50175000I0J-75000D01*
G01*
G37*
G36*
G01*
X55400000Y-49675000D02*
X55400000Y-49825000D01*
G75*
G02*
X55325000Y-49900000I-75000J0D01*
G01*
X54000000Y-49900000D01*
G75*
G02*
X53925000Y-49825000I0J75000D01*
G01*
X53925000Y-49675000D01*
G75*
G02*
X54000000Y-49600000I75000J0D01*
G01*
X55325000Y-49600000D01*
G75*
G02*
X55400000Y-49675000I0J-75000D01*
G01*
G37*
G36*
G01*
X55400000Y-49175000D02*
X55400000Y-49325000D01*
G75*
G02*
X55325000Y-49400000I-75000J0D01*
G01*
X54000000Y-49400000D01*
G75*
G02*
X53925000Y-49325000I0J75000D01*
G01*
X53925000Y-49175000D01*
G75*
G02*
X54000000Y-49100000I75000J0D01*
G01*
X55325000Y-49100000D01*
G75*
G02*
X55400000Y-49175000I0J-75000D01*
G01*
G37*
G36*
G01*
X55400000Y-48675000D02*
X55400000Y-48825000D01*
G75*
G02*
X55325000Y-48900000I-75000J0D01*
G01*
X54000000Y-48900000D01*
G75*
G02*
X53925000Y-48825000I0J75000D01*
G01*
X53925000Y-48675000D01*
G75*
G02*
X54000000Y-48600000I75000J0D01*
G01*
X55325000Y-48600000D01*
G75*
G02*
X55400000Y-48675000I0J-75000D01*
G01*
G37*
G36*
G01*
X55400000Y-48175000D02*
X55400000Y-48325000D01*
G75*
G02*
X55325000Y-48400000I-75000J0D01*
G01*
X54000000Y-48400000D01*
G75*
G02*
X53925000Y-48325000I0J75000D01*
G01*
X53925000Y-48175000D01*
G75*
G02*
X54000000Y-48100000I75000J0D01*
G01*
X55325000Y-48100000D01*
G75*
G02*
X55400000Y-48175000I0J-75000D01*
G01*
G37*
G36*
G01*
X55400000Y-47675000D02*
X55400000Y-47825000D01*
G75*
G02*
X55325000Y-47900000I-75000J0D01*
G01*
X54000000Y-47900000D01*
G75*
G02*
X53925000Y-47825000I0J75000D01*
G01*
X53925000Y-47675000D01*
G75*
G02*
X54000000Y-47600000I75000J0D01*
G01*
X55325000Y-47600000D01*
G75*
G02*
X55400000Y-47675000I0J-75000D01*
G01*
G37*
G36*
G01*
X55400000Y-47175000D02*
X55400000Y-47325000D01*
G75*
G02*
X55325000Y-47400000I-75000J0D01*
G01*
X54000000Y-47400000D01*
G75*
G02*
X53925000Y-47325000I0J75000D01*
G01*
X53925000Y-47175000D01*
G75*
G02*
X54000000Y-47100000I75000J0D01*
G01*
X55325000Y-47100000D01*
G75*
G02*
X55400000Y-47175000I0J-75000D01*
G01*
G37*
G36*
G01*
X55400000Y-46675000D02*
X55400000Y-46825000D01*
G75*
G02*
X55325000Y-46900000I-75000J0D01*
G01*
X54000000Y-46900000D01*
G75*
G02*
X53925000Y-46825000I0J75000D01*
G01*
X53925000Y-46675000D01*
G75*
G02*
X54000000Y-46600000I75000J0D01*
G01*
X55325000Y-46600000D01*
G75*
G02*
X55400000Y-46675000I0J-75000D01*
G01*
G37*
G36*
G01*
X53400000Y-44675000D02*
X53400000Y-46000000D01*
G75*
G02*
X53325000Y-46075000I-75000J0D01*
G01*
X53175000Y-46075000D01*
G75*
G02*
X53100000Y-46000000I0J75000D01*
G01*
X53100000Y-44675000D01*
G75*
G02*
X53175000Y-44600000I75000J0D01*
G01*
X53325000Y-44600000D01*
G75*
G02*
X53400000Y-44675000I0J-75000D01*
G01*
G37*
G36*
G01*
X52900000Y-44675000D02*
X52900000Y-46000000D01*
G75*
G02*
X52825000Y-46075000I-75000J0D01*
G01*
X52675000Y-46075000D01*
G75*
G02*
X52600000Y-46000000I0J75000D01*
G01*
X52600000Y-44675000D01*
G75*
G02*
X52675000Y-44600000I75000J0D01*
G01*
X52825000Y-44600000D01*
G75*
G02*
X52900000Y-44675000I0J-75000D01*
G01*
G37*
G36*
G01*
X52400000Y-44675000D02*
X52400000Y-46000000D01*
G75*
G02*
X52325000Y-46075000I-75000J0D01*
G01*
X52175000Y-46075000D01*
G75*
G02*
X52100000Y-46000000I0J75000D01*
G01*
X52100000Y-44675000D01*
G75*
G02*
X52175000Y-44600000I75000J0D01*
G01*
X52325000Y-44600000D01*
G75*
G02*
X52400000Y-44675000I0J-75000D01*
G01*
G37*
G36*
G01*
X51900000Y-44675000D02*
X51900000Y-46000000D01*
G75*
G02*
X51825000Y-46075000I-75000J0D01*
G01*
X51675000Y-46075000D01*
G75*
G02*
X51600000Y-46000000I0J75000D01*
G01*
X51600000Y-44675000D01*
G75*
G02*
X51675000Y-44600000I75000J0D01*
G01*
X51825000Y-44600000D01*
G75*
G02*
X51900000Y-44675000I0J-75000D01*
G01*
G37*
G36*
G01*
X51400000Y-44675000D02*
X51400000Y-46000000D01*
G75*
G02*
X51325000Y-46075000I-75000J0D01*
G01*
X51175000Y-46075000D01*
G75*
G02*
X51100000Y-46000000I0J75000D01*
G01*
X51100000Y-44675000D01*
G75*
G02*
X51175000Y-44600000I75000J0D01*
G01*
X51325000Y-44600000D01*
G75*
G02*
X51400000Y-44675000I0J-75000D01*
G01*
G37*
G36*
G01*
X50900000Y-44675000D02*
X50900000Y-46000000D01*
G75*
G02*
X50825000Y-46075000I-75000J0D01*
G01*
X50675000Y-46075000D01*
G75*
G02*
X50600000Y-46000000I0J75000D01*
G01*
X50600000Y-44675000D01*
G75*
G02*
X50675000Y-44600000I75000J0D01*
G01*
X50825000Y-44600000D01*
G75*
G02*
X50900000Y-44675000I0J-75000D01*
G01*
G37*
G36*
G01*
X50400000Y-44675000D02*
X50400000Y-46000000D01*
G75*
G02*
X50325000Y-46075000I-75000J0D01*
G01*
X50175000Y-46075000D01*
G75*
G02*
X50100000Y-46000000I0J75000D01*
G01*
X50100000Y-44675000D01*
G75*
G02*
X50175000Y-44600000I75000J0D01*
G01*
X50325000Y-44600000D01*
G75*
G02*
X50400000Y-44675000I0J-75000D01*
G01*
G37*
G36*
G01*
X49900000Y-44675000D02*
X49900000Y-46000000D01*
G75*
G02*
X49825000Y-46075000I-75000J0D01*
G01*
X49675000Y-46075000D01*
G75*
G02*
X49600000Y-46000000I0J75000D01*
G01*
X49600000Y-44675000D01*
G75*
G02*
X49675000Y-44600000I75000J0D01*
G01*
X49825000Y-44600000D01*
G75*
G02*
X49900000Y-44675000I0J-75000D01*
G01*
G37*
G36*
G01*
X49400000Y-44675000D02*
X49400000Y-46000000D01*
G75*
G02*
X49325000Y-46075000I-75000J0D01*
G01*
X49175000Y-46075000D01*
G75*
G02*
X49100000Y-46000000I0J75000D01*
G01*
X49100000Y-44675000D01*
G75*
G02*
X49175000Y-44600000I75000J0D01*
G01*
X49325000Y-44600000D01*
G75*
G02*
X49400000Y-44675000I0J-75000D01*
G01*
G37*
G36*
G01*
X48900000Y-44675000D02*
X48900000Y-46000000D01*
G75*
G02*
X48825000Y-46075000I-75000J0D01*
G01*
X48675000Y-46075000D01*
G75*
G02*
X48600000Y-46000000I0J75000D01*
G01*
X48600000Y-44675000D01*
G75*
G02*
X48675000Y-44600000I75000J0D01*
G01*
X48825000Y-44600000D01*
G75*
G02*
X48900000Y-44675000I0J-75000D01*
G01*
G37*
G36*
G01*
X48400000Y-44675000D02*
X48400000Y-46000000D01*
G75*
G02*
X48325000Y-46075000I-75000J0D01*
G01*
X48175000Y-46075000D01*
G75*
G02*
X48100000Y-46000000I0J75000D01*
G01*
X48100000Y-44675000D01*
G75*
G02*
X48175000Y-44600000I75000J0D01*
G01*
X48325000Y-44600000D01*
G75*
G02*
X48400000Y-44675000I0J-75000D01*
G01*
G37*
G36*
G01*
X47900000Y-44675000D02*
X47900000Y-46000000D01*
G75*
G02*
X47825000Y-46075000I-75000J0D01*
G01*
X47675000Y-46075000D01*
G75*
G02*
X47600000Y-46000000I0J75000D01*
G01*
X47600000Y-44675000D01*
G75*
G02*
X47675000Y-44600000I75000J0D01*
G01*
X47825000Y-44600000D01*
G75*
G02*
X47900000Y-44675000I0J-75000D01*
G01*
G37*
G36*
G01*
X47075000Y-46675000D02*
X47075000Y-46825000D01*
G75*
G02*
X47000000Y-46900000I-75000J0D01*
G01*
X45675000Y-46900000D01*
G75*
G02*
X45600000Y-46825000I0J75000D01*
G01*
X45600000Y-46675000D01*
G75*
G02*
X45675000Y-46600000I75000J0D01*
G01*
X47000000Y-46600000D01*
G75*
G02*
X47075000Y-46675000I0J-75000D01*
G01*
G37*
G36*
G01*
X47075000Y-47175000D02*
X47075000Y-47325000D01*
G75*
G02*
X47000000Y-47400000I-75000J0D01*
G01*
X45675000Y-47400000D01*
G75*
G02*
X45600000Y-47325000I0J75000D01*
G01*
X45600000Y-47175000D01*
G75*
G02*
X45675000Y-47100000I75000J0D01*
G01*
X47000000Y-47100000D01*
G75*
G02*
X47075000Y-47175000I0J-75000D01*
G01*
G37*
G36*
G01*
X47075000Y-47675000D02*
X47075000Y-47825000D01*
G75*
G02*
X47000000Y-47900000I-75000J0D01*
G01*
X45675000Y-47900000D01*
G75*
G02*
X45600000Y-47825000I0J75000D01*
G01*
X45600000Y-47675000D01*
G75*
G02*
X45675000Y-47600000I75000J0D01*
G01*
X47000000Y-47600000D01*
G75*
G02*
X47075000Y-47675000I0J-75000D01*
G01*
G37*
G36*
G01*
X47075000Y-48175000D02*
X47075000Y-48325000D01*
G75*
G02*
X47000000Y-48400000I-75000J0D01*
G01*
X45675000Y-48400000D01*
G75*
G02*
X45600000Y-48325000I0J75000D01*
G01*
X45600000Y-48175000D01*
G75*
G02*
X45675000Y-48100000I75000J0D01*
G01*
X47000000Y-48100000D01*
G75*
G02*
X47075000Y-48175000I0J-75000D01*
G01*
G37*
G36*
G01*
X47075000Y-48675000D02*
X47075000Y-48825000D01*
G75*
G02*
X47000000Y-48900000I-75000J0D01*
G01*
X45675000Y-48900000D01*
G75*
G02*
X45600000Y-48825000I0J75000D01*
G01*
X45600000Y-48675000D01*
G75*
G02*
X45675000Y-48600000I75000J0D01*
G01*
X47000000Y-48600000D01*
G75*
G02*
X47075000Y-48675000I0J-75000D01*
G01*
G37*
G36*
G01*
X47075000Y-49175000D02*
X47075000Y-49325000D01*
G75*
G02*
X47000000Y-49400000I-75000J0D01*
G01*
X45675000Y-49400000D01*
G75*
G02*
X45600000Y-49325000I0J75000D01*
G01*
X45600000Y-49175000D01*
G75*
G02*
X45675000Y-49100000I75000J0D01*
G01*
X47000000Y-49100000D01*
G75*
G02*
X47075000Y-49175000I0J-75000D01*
G01*
G37*
G36*
G01*
X47075000Y-49675000D02*
X47075000Y-49825000D01*
G75*
G02*
X47000000Y-49900000I-75000J0D01*
G01*
X45675000Y-49900000D01*
G75*
G02*
X45600000Y-49825000I0J75000D01*
G01*
X45600000Y-49675000D01*
G75*
G02*
X45675000Y-49600000I75000J0D01*
G01*
X47000000Y-49600000D01*
G75*
G02*
X47075000Y-49675000I0J-75000D01*
G01*
G37*
G36*
G01*
X47075000Y-50175000D02*
X47075000Y-50325000D01*
G75*
G02*
X47000000Y-50400000I-75000J0D01*
G01*
X45675000Y-50400000D01*
G75*
G02*
X45600000Y-50325000I0J75000D01*
G01*
X45600000Y-50175000D01*
G75*
G02*
X45675000Y-50100000I75000J0D01*
G01*
X47000000Y-50100000D01*
G75*
G02*
X47075000Y-50175000I0J-75000D01*
G01*
G37*
G36*
G01*
X47075000Y-50675000D02*
X47075000Y-50825000D01*
G75*
G02*
X47000000Y-50900000I-75000J0D01*
G01*
X45675000Y-50900000D01*
G75*
G02*
X45600000Y-50825000I0J75000D01*
G01*
X45600000Y-50675000D01*
G75*
G02*
X45675000Y-50600000I75000J0D01*
G01*
X47000000Y-50600000D01*
G75*
G02*
X47075000Y-50675000I0J-75000D01*
G01*
G37*
G36*
G01*
X47075000Y-51175000D02*
X47075000Y-51325000D01*
G75*
G02*
X47000000Y-51400000I-75000J0D01*
G01*
X45675000Y-51400000D01*
G75*
G02*
X45600000Y-51325000I0J75000D01*
G01*
X45600000Y-51175000D01*
G75*
G02*
X45675000Y-51100000I75000J0D01*
G01*
X47000000Y-51100000D01*
G75*
G02*
X47075000Y-51175000I0J-75000D01*
G01*
G37*
G36*
G01*
X47075000Y-51675000D02*
X47075000Y-51825000D01*
G75*
G02*
X47000000Y-51900000I-75000J0D01*
G01*
X45675000Y-51900000D01*
G75*
G02*
X45600000Y-51825000I0J75000D01*
G01*
X45600000Y-51675000D01*
G75*
G02*
X45675000Y-51600000I75000J0D01*
G01*
X47000000Y-51600000D01*
G75*
G02*
X47075000Y-51675000I0J-75000D01*
G01*
G37*
G36*
G01*
X47075000Y-52175000D02*
X47075000Y-52325000D01*
G75*
G02*
X47000000Y-52400000I-75000J0D01*
G01*
X45675000Y-52400000D01*
G75*
G02*
X45600000Y-52325000I0J75000D01*
G01*
X45600000Y-52175000D01*
G75*
G02*
X45675000Y-52100000I75000J0D01*
G01*
X47000000Y-52100000D01*
G75*
G02*
X47075000Y-52175000I0J-75000D01*
G01*
G37*
G36*
G01*
X47900000Y-53000000D02*
X47900000Y-54325000D01*
G75*
G02*
X47825000Y-54400000I-75000J0D01*
G01*
X47675000Y-54400000D01*
G75*
G02*
X47600000Y-54325000I0J75000D01*
G01*
X47600000Y-53000000D01*
G75*
G02*
X47675000Y-52925000I75000J0D01*
G01*
X47825000Y-52925000D01*
G75*
G02*
X47900000Y-53000000I0J-75000D01*
G01*
G37*
G36*
G01*
X48400000Y-53000000D02*
X48400000Y-54325000D01*
G75*
G02*
X48325000Y-54400000I-75000J0D01*
G01*
X48175000Y-54400000D01*
G75*
G02*
X48100000Y-54325000I0J75000D01*
G01*
X48100000Y-53000000D01*
G75*
G02*
X48175000Y-52925000I75000J0D01*
G01*
X48325000Y-52925000D01*
G75*
G02*
X48400000Y-53000000I0J-75000D01*
G01*
G37*
G36*
G01*
X48900000Y-53000000D02*
X48900000Y-54325000D01*
G75*
G02*
X48825000Y-54400000I-75000J0D01*
G01*
X48675000Y-54400000D01*
G75*
G02*
X48600000Y-54325000I0J75000D01*
G01*
X48600000Y-53000000D01*
G75*
G02*
X48675000Y-52925000I75000J0D01*
G01*
X48825000Y-52925000D01*
G75*
G02*
X48900000Y-53000000I0J-75000D01*
G01*
G37*
G36*
G01*
X49400000Y-53000000D02*
X49400000Y-54325000D01*
G75*
G02*
X49325000Y-54400000I-75000J0D01*
G01*
X49175000Y-54400000D01*
G75*
G02*
X49100000Y-54325000I0J75000D01*
G01*
X49100000Y-53000000D01*
G75*
G02*
X49175000Y-52925000I75000J0D01*
G01*
X49325000Y-52925000D01*
G75*
G02*
X49400000Y-53000000I0J-75000D01*
G01*
G37*
G36*
G01*
X49900000Y-53000000D02*
X49900000Y-54325000D01*
G75*
G02*
X49825000Y-54400000I-75000J0D01*
G01*
X49675000Y-54400000D01*
G75*
G02*
X49600000Y-54325000I0J75000D01*
G01*
X49600000Y-53000000D01*
G75*
G02*
X49675000Y-52925000I75000J0D01*
G01*
X49825000Y-52925000D01*
G75*
G02*
X49900000Y-53000000I0J-75000D01*
G01*
G37*
G36*
G01*
X50400000Y-53000000D02*
X50400000Y-54325000D01*
G75*
G02*
X50325000Y-54400000I-75000J0D01*
G01*
X50175000Y-54400000D01*
G75*
G02*
X50100000Y-54325000I0J75000D01*
G01*
X50100000Y-53000000D01*
G75*
G02*
X50175000Y-52925000I75000J0D01*
G01*
X50325000Y-52925000D01*
G75*
G02*
X50400000Y-53000000I0J-75000D01*
G01*
G37*
G36*
G01*
X50900000Y-53000000D02*
X50900000Y-54325000D01*
G75*
G02*
X50825000Y-54400000I-75000J0D01*
G01*
X50675000Y-54400000D01*
G75*
G02*
X50600000Y-54325000I0J75000D01*
G01*
X50600000Y-53000000D01*
G75*
G02*
X50675000Y-52925000I75000J0D01*
G01*
X50825000Y-52925000D01*
G75*
G02*
X50900000Y-53000000I0J-75000D01*
G01*
G37*
G36*
G01*
X51400000Y-53000000D02*
X51400000Y-54325000D01*
G75*
G02*
X51325000Y-54400000I-75000J0D01*
G01*
X51175000Y-54400000D01*
G75*
G02*
X51100000Y-54325000I0J75000D01*
G01*
X51100000Y-53000000D01*
G75*
G02*
X51175000Y-52925000I75000J0D01*
G01*
X51325000Y-52925000D01*
G75*
G02*
X51400000Y-53000000I0J-75000D01*
G01*
G37*
G36*
G01*
X51900000Y-53000000D02*
X51900000Y-54325000D01*
G75*
G02*
X51825000Y-54400000I-75000J0D01*
G01*
X51675000Y-54400000D01*
G75*
G02*
X51600000Y-54325000I0J75000D01*
G01*
X51600000Y-53000000D01*
G75*
G02*
X51675000Y-52925000I75000J0D01*
G01*
X51825000Y-52925000D01*
G75*
G02*
X51900000Y-53000000I0J-75000D01*
G01*
G37*
G36*
G01*
X52400000Y-53000000D02*
X52400000Y-54325000D01*
G75*
G02*
X52325000Y-54400000I-75000J0D01*
G01*
X52175000Y-54400000D01*
G75*
G02*
X52100000Y-54325000I0J75000D01*
G01*
X52100000Y-53000000D01*
G75*
G02*
X52175000Y-52925000I75000J0D01*
G01*
X52325000Y-52925000D01*
G75*
G02*
X52400000Y-53000000I0J-75000D01*
G01*
G37*
G36*
G01*
X52900000Y-53000000D02*
X52900000Y-54325000D01*
G75*
G02*
X52825000Y-54400000I-75000J0D01*
G01*
X52675000Y-54400000D01*
G75*
G02*
X52600000Y-54325000I0J75000D01*
G01*
X52600000Y-53000000D01*
G75*
G02*
X52675000Y-52925000I75000J0D01*
G01*
X52825000Y-52925000D01*
G75*
G02*
X52900000Y-53000000I0J-75000D01*
G01*
G37*
G36*
G01*
X53400000Y-53000000D02*
X53400000Y-54325000D01*
G75*
G02*
X53325000Y-54400000I-75000J0D01*
G01*
X53175000Y-54400000D01*
G75*
G02*
X53100000Y-54325000I0J75000D01*
G01*
X53100000Y-53000000D01*
G75*
G02*
X53175000Y-52925000I75000J0D01*
G01*
X53325000Y-52925000D01*
G75*
G02*
X53400000Y-53000000I0J-75000D01*
G01*
G37*
G36*
G01*
X48950000Y-73445000D02*
X48950000Y-73145000D01*
G75*
G02*
X49100000Y-72995000I150000J0D01*
G01*
X50750000Y-72995000D01*
G75*
G02*
X50900000Y-73145000I0J-150000D01*
G01*
X50900000Y-73445000D01*
G75*
G02*
X50750000Y-73595000I-150000J0D01*
G01*
X49100000Y-73595000D01*
G75*
G02*
X48950000Y-73445000I0J150000D01*
G01*
G37*
G36*
G01*
X48950000Y-74715000D02*
X48950000Y-74415000D01*
G75*
G02*
X49100000Y-74265000I150000J0D01*
G01*
X50750000Y-74265000D01*
G75*
G02*
X50900000Y-74415000I0J-150000D01*
G01*
X50900000Y-74715000D01*
G75*
G02*
X50750000Y-74865000I-150000J0D01*
G01*
X49100000Y-74865000D01*
G75*
G02*
X48950000Y-74715000I0J150000D01*
G01*
G37*
G36*
G01*
X48950000Y-75985000D02*
X48950000Y-75685000D01*
G75*
G02*
X49100000Y-75535000I150000J0D01*
G01*
X50750000Y-75535000D01*
G75*
G02*
X50900000Y-75685000I0J-150000D01*
G01*
X50900000Y-75985000D01*
G75*
G02*
X50750000Y-76135000I-150000J0D01*
G01*
X49100000Y-76135000D01*
G75*
G02*
X48950000Y-75985000I0J150000D01*
G01*
G37*
G36*
G01*
X48950000Y-77255000D02*
X48950000Y-76955000D01*
G75*
G02*
X49100000Y-76805000I150000J0D01*
G01*
X50750000Y-76805000D01*
G75*
G02*
X50900000Y-76955000I0J-150000D01*
G01*
X50900000Y-77255000D01*
G75*
G02*
X50750000Y-77405000I-150000J0D01*
G01*
X49100000Y-77405000D01*
G75*
G02*
X48950000Y-77255000I0J150000D01*
G01*
G37*
G36*
G01*
X53900000Y-77255000D02*
X53900000Y-76955000D01*
G75*
G02*
X54050000Y-76805000I150000J0D01*
G01*
X55700000Y-76805000D01*
G75*
G02*
X55850000Y-76955000I0J-150000D01*
G01*
X55850000Y-77255000D01*
G75*
G02*
X55700000Y-77405000I-150000J0D01*
G01*
X54050000Y-77405000D01*
G75*
G02*
X53900000Y-77255000I0J150000D01*
G01*
G37*
G36*
G01*
X53900000Y-75985000D02*
X53900000Y-75685000D01*
G75*
G02*
X54050000Y-75535000I150000J0D01*
G01*
X55700000Y-75535000D01*
G75*
G02*
X55850000Y-75685000I0J-150000D01*
G01*
X55850000Y-75985000D01*
G75*
G02*
X55700000Y-76135000I-150000J0D01*
G01*
X54050000Y-76135000D01*
G75*
G02*
X53900000Y-75985000I0J150000D01*
G01*
G37*
G36*
G01*
X53900000Y-74715000D02*
X53900000Y-74415000D01*
G75*
G02*
X54050000Y-74265000I150000J0D01*
G01*
X55700000Y-74265000D01*
G75*
G02*
X55850000Y-74415000I0J-150000D01*
G01*
X55850000Y-74715000D01*
G75*
G02*
X55700000Y-74865000I-150000J0D01*
G01*
X54050000Y-74865000D01*
G75*
G02*
X53900000Y-74715000I0J150000D01*
G01*
G37*
G36*
G01*
X53900000Y-73445000D02*
X53900000Y-73145000D01*
G75*
G02*
X54050000Y-72995000I150000J0D01*
G01*
X55700000Y-72995000D01*
G75*
G02*
X55850000Y-73145000I0J-150000D01*
G01*
X55850000Y-73445000D01*
G75*
G02*
X55700000Y-73595000I-150000J0D01*
G01*
X54050000Y-73595000D01*
G75*
G02*
X53900000Y-73445000I0J150000D01*
G01*
G37*
D16*
X57900000Y-51650000D03*
X60800000Y-51650000D03*
X60800000Y-49350000D03*
X57900000Y-49350000D03*
G36*
G01*
X46450001Y-44600000D02*
X45549999Y-44600000D01*
G75*
G02*
X45300000Y-44350001I0J249999D01*
G01*
X45300000Y-43699999D01*
G75*
G02*
X45549999Y-43450000I249999J0D01*
G01*
X46450001Y-43450000D01*
G75*
G02*
X46700000Y-43699999I0J-249999D01*
G01*
X46700000Y-44350001D01*
G75*
G02*
X46450001Y-44600000I-249999J0D01*
G01*
G37*
G36*
G01*
X46450001Y-42550000D02*
X45549999Y-42550000D01*
G75*
G02*
X45300000Y-42300001I0J249999D01*
G01*
X45300000Y-41649999D01*
G75*
G02*
X45549999Y-41400000I249999J0D01*
G01*
X46450001Y-41400000D01*
G75*
G02*
X46700000Y-41649999I0J-249999D01*
G01*
X46700000Y-42300001D01*
G75*
G02*
X46450001Y-42550000I-249999J0D01*
G01*
G37*
D17*
X46850000Y-59000000D03*
X44150000Y-59000000D03*
X44150000Y-61250000D03*
X46850000Y-61250000D03*
M02*
