G04 #@! TF.GenerationSoftware,KiCad,Pcbnew,(5.1.6-0-10_14)*
G04 #@! TF.CreationDate,2020-10-25T15:01:43+09:00*
G04 #@! TF.ProjectId,meishi_stm32,6d656973-6869-45f7-9374-6d33322e6b69,rev?*
G04 #@! TF.SameCoordinates,Original*
G04 #@! TF.FileFunction,Soldermask,Bot*
G04 #@! TF.FilePolarity,Negative*
%FSLAX46Y46*%
G04 Gerber Fmt 4.6, Leading zero omitted, Abs format (unit mm)*
G04 Created by KiCad (PCBNEW (5.1.6-0-10_14)) date 2020-10-25 15:01:43*
%MOMM*%
%LPD*%
G01*
G04 APERTURE LIST*
%ADD10C,0.100000*%
G04 APERTURE END LIST*
D10*
G36*
X116826359Y-76023556D02*
G01*
X116937544Y-76045672D01*
X117147013Y-76132437D01*
X117335530Y-76258400D01*
X117495850Y-76418720D01*
X117565007Y-76522221D01*
X117621814Y-76607239D01*
X117708578Y-76816707D01*
X117752810Y-77039075D01*
X117752810Y-77265805D01*
X117730694Y-77376989D01*
X117708578Y-77488174D01*
X117621813Y-77697643D01*
X117495850Y-77886160D01*
X117335530Y-78046480D01*
X117147013Y-78172443D01*
X116937544Y-78259208D01*
X116826359Y-78281324D01*
X116715175Y-78303440D01*
X116488445Y-78303440D01*
X116377261Y-78281324D01*
X116266076Y-78259208D01*
X116056607Y-78172443D01*
X115868090Y-78046480D01*
X115707770Y-77886160D01*
X115581807Y-77697643D01*
X115495042Y-77488174D01*
X115472926Y-77376989D01*
X115450810Y-77265805D01*
X115450810Y-77039075D01*
X115495042Y-76816707D01*
X115581806Y-76607239D01*
X115638613Y-76522221D01*
X115707770Y-76418720D01*
X115868090Y-76258400D01*
X116056607Y-76132437D01*
X116266076Y-76045672D01*
X116377261Y-76023556D01*
X116488445Y-76001440D01*
X116715175Y-76001440D01*
X116826359Y-76023556D01*
G37*
G36*
X33006359Y-76023556D02*
G01*
X33117544Y-76045672D01*
X33327013Y-76132437D01*
X33515530Y-76258400D01*
X33675850Y-76418720D01*
X33745007Y-76522221D01*
X33801814Y-76607239D01*
X33888578Y-76816707D01*
X33932810Y-77039075D01*
X33932810Y-77265805D01*
X33910694Y-77376989D01*
X33888578Y-77488174D01*
X33801813Y-77697643D01*
X33675850Y-77886160D01*
X33515530Y-78046480D01*
X33327013Y-78172443D01*
X33117544Y-78259208D01*
X33006359Y-78281324D01*
X32895175Y-78303440D01*
X32668445Y-78303440D01*
X32557261Y-78281324D01*
X32446076Y-78259208D01*
X32236607Y-78172443D01*
X32048090Y-78046480D01*
X31887770Y-77886160D01*
X31761807Y-77697643D01*
X31675042Y-77488174D01*
X31652926Y-77376989D01*
X31630810Y-77265805D01*
X31630810Y-77039075D01*
X31675042Y-76816707D01*
X31761806Y-76607239D01*
X31818613Y-76522221D01*
X31887770Y-76418720D01*
X32048090Y-76258400D01*
X32236607Y-76132437D01*
X32446076Y-76045672D01*
X32557261Y-76023556D01*
X32668445Y-76001440D01*
X32895175Y-76001440D01*
X33006359Y-76023556D01*
G37*
G36*
X39134425Y-76254599D02*
G01*
X39258621Y-76279302D01*
X39395022Y-76335801D01*
X39517779Y-76417825D01*
X39622175Y-76522221D01*
X39704199Y-76644978D01*
X39760698Y-76781379D01*
X39789500Y-76926181D01*
X39789500Y-77073819D01*
X39760698Y-77218621D01*
X39704199Y-77355022D01*
X39622175Y-77477779D01*
X39517779Y-77582175D01*
X39395022Y-77664199D01*
X39258621Y-77720698D01*
X39134425Y-77745401D01*
X39113820Y-77749500D01*
X38966180Y-77749500D01*
X38945575Y-77745401D01*
X38821379Y-77720698D01*
X38684978Y-77664199D01*
X38562221Y-77582175D01*
X38457825Y-77477779D01*
X38375801Y-77355022D01*
X38319302Y-77218621D01*
X38290500Y-77073819D01*
X38290500Y-76926181D01*
X38319302Y-76781379D01*
X38375801Y-76644978D01*
X38457825Y-76522221D01*
X38562221Y-76417825D01*
X38684978Y-76335801D01*
X38821379Y-76279302D01*
X38945575Y-76254599D01*
X38966180Y-76250500D01*
X39113820Y-76250500D01*
X39134425Y-76254599D01*
G37*
G36*
X36594425Y-76254599D02*
G01*
X36718621Y-76279302D01*
X36855022Y-76335801D01*
X36977779Y-76417825D01*
X37082175Y-76522221D01*
X37164199Y-76644978D01*
X37220698Y-76781379D01*
X37249500Y-76926181D01*
X37249500Y-77073819D01*
X37220698Y-77218621D01*
X37164199Y-77355022D01*
X37082175Y-77477779D01*
X36977779Y-77582175D01*
X36855022Y-77664199D01*
X36718621Y-77720698D01*
X36594425Y-77745401D01*
X36573820Y-77749500D01*
X36426180Y-77749500D01*
X36405575Y-77745401D01*
X36281379Y-77720698D01*
X36144978Y-77664199D01*
X36022221Y-77582175D01*
X35917825Y-77477779D01*
X35835801Y-77355022D01*
X35779302Y-77218621D01*
X35750500Y-77073819D01*
X35750500Y-76926181D01*
X35779302Y-76781379D01*
X35835801Y-76644978D01*
X35917825Y-76522221D01*
X36022221Y-76417825D01*
X36144978Y-76335801D01*
X36281379Y-76279302D01*
X36405575Y-76254599D01*
X36426180Y-76250500D01*
X36573820Y-76250500D01*
X36594425Y-76254599D01*
G37*
G36*
X44214425Y-76254599D02*
G01*
X44338621Y-76279302D01*
X44475022Y-76335801D01*
X44597779Y-76417825D01*
X44702175Y-76522221D01*
X44784199Y-76644978D01*
X44840698Y-76781379D01*
X44869500Y-76926181D01*
X44869500Y-77073819D01*
X44840698Y-77218621D01*
X44784199Y-77355022D01*
X44702175Y-77477779D01*
X44597779Y-77582175D01*
X44475022Y-77664199D01*
X44338621Y-77720698D01*
X44214425Y-77745401D01*
X44193820Y-77749500D01*
X44046180Y-77749500D01*
X44025575Y-77745401D01*
X43901379Y-77720698D01*
X43764978Y-77664199D01*
X43642221Y-77582175D01*
X43537825Y-77477779D01*
X43455801Y-77355022D01*
X43399302Y-77218621D01*
X43370500Y-77073819D01*
X43370500Y-76926181D01*
X43399302Y-76781379D01*
X43455801Y-76644978D01*
X43537825Y-76522221D01*
X43642221Y-76417825D01*
X43764978Y-76335801D01*
X43901379Y-76279302D01*
X44025575Y-76254599D01*
X44046180Y-76250500D01*
X44193820Y-76250500D01*
X44214425Y-76254599D01*
G37*
G36*
X41674425Y-76254599D02*
G01*
X41798621Y-76279302D01*
X41935022Y-76335801D01*
X42057779Y-76417825D01*
X42162175Y-76522221D01*
X42244199Y-76644978D01*
X42300698Y-76781379D01*
X42329500Y-76926181D01*
X42329500Y-77073819D01*
X42300698Y-77218621D01*
X42244199Y-77355022D01*
X42162175Y-77477779D01*
X42057779Y-77582175D01*
X41935022Y-77664199D01*
X41798621Y-77720698D01*
X41674425Y-77745401D01*
X41653820Y-77749500D01*
X41506180Y-77749500D01*
X41485575Y-77745401D01*
X41361379Y-77720698D01*
X41224978Y-77664199D01*
X41102221Y-77582175D01*
X40997825Y-77477779D01*
X40915801Y-77355022D01*
X40859302Y-77218621D01*
X40830500Y-77073819D01*
X40830500Y-76926181D01*
X40859302Y-76781379D01*
X40915801Y-76644978D01*
X40997825Y-76522221D01*
X41102221Y-76417825D01*
X41224978Y-76335801D01*
X41361379Y-76279302D01*
X41485575Y-76254599D01*
X41506180Y-76250500D01*
X41653820Y-76250500D01*
X41674425Y-76254599D01*
G37*
G36*
X96236902Y-74113617D02*
G01*
X96386202Y-74143314D01*
X96550174Y-74211234D01*
X96697744Y-74309837D01*
X96823243Y-74435336D01*
X96921846Y-74582906D01*
X96989766Y-74746878D01*
X97024390Y-74920949D01*
X97024390Y-75098431D01*
X96989766Y-75272502D01*
X96921846Y-75436474D01*
X96823243Y-75584044D01*
X96697744Y-75709543D01*
X96550174Y-75808146D01*
X96386202Y-75876066D01*
X96236902Y-75905763D01*
X96212132Y-75910690D01*
X96034648Y-75910690D01*
X96009878Y-75905763D01*
X95860578Y-75876066D01*
X95696606Y-75808146D01*
X95549036Y-75709543D01*
X95423537Y-75584044D01*
X95324934Y-75436474D01*
X95257014Y-75272502D01*
X95222390Y-75098431D01*
X95222390Y-74920949D01*
X95257014Y-74746878D01*
X95324934Y-74582906D01*
X95423537Y-74435336D01*
X95549036Y-74309837D01*
X95696606Y-74211234D01*
X95860578Y-74143314D01*
X96009878Y-74113617D01*
X96034648Y-74108690D01*
X96212132Y-74108690D01*
X96236902Y-74113617D01*
G37*
G36*
X93696902Y-74113617D02*
G01*
X93846202Y-74143314D01*
X94010174Y-74211234D01*
X94157744Y-74309837D01*
X94283243Y-74435336D01*
X94381846Y-74582906D01*
X94449766Y-74746878D01*
X94484390Y-74920949D01*
X94484390Y-75098431D01*
X94449766Y-75272502D01*
X94381846Y-75436474D01*
X94283243Y-75584044D01*
X94157744Y-75709543D01*
X94010174Y-75808146D01*
X93846202Y-75876066D01*
X93696902Y-75905763D01*
X93672132Y-75910690D01*
X93494648Y-75910690D01*
X93469878Y-75905763D01*
X93320578Y-75876066D01*
X93156606Y-75808146D01*
X93009036Y-75709543D01*
X92883537Y-75584044D01*
X92784934Y-75436474D01*
X92717014Y-75272502D01*
X92682390Y-75098431D01*
X92682390Y-74920949D01*
X92717014Y-74746878D01*
X92784934Y-74582906D01*
X92883537Y-74435336D01*
X93009036Y-74309837D01*
X93156606Y-74211234D01*
X93320578Y-74143314D01*
X93469878Y-74113617D01*
X93494648Y-74108690D01*
X93672132Y-74108690D01*
X93696902Y-74113617D01*
G37*
G36*
X91156902Y-74113617D02*
G01*
X91306202Y-74143314D01*
X91470174Y-74211234D01*
X91617744Y-74309837D01*
X91743243Y-74435336D01*
X91841846Y-74582906D01*
X91909766Y-74746878D01*
X91944390Y-74920949D01*
X91944390Y-75098431D01*
X91909766Y-75272502D01*
X91841846Y-75436474D01*
X91743243Y-75584044D01*
X91617744Y-75709543D01*
X91470174Y-75808146D01*
X91306202Y-75876066D01*
X91156902Y-75905763D01*
X91132132Y-75910690D01*
X90954648Y-75910690D01*
X90929878Y-75905763D01*
X90780578Y-75876066D01*
X90616606Y-75808146D01*
X90469036Y-75709543D01*
X90343537Y-75584044D01*
X90244934Y-75436474D01*
X90177014Y-75272502D01*
X90142390Y-75098431D01*
X90142390Y-74920949D01*
X90177014Y-74746878D01*
X90244934Y-74582906D01*
X90343537Y-74435336D01*
X90469036Y-74309837D01*
X90616606Y-74211234D01*
X90780578Y-74143314D01*
X90929878Y-74113617D01*
X90954648Y-74108690D01*
X91132132Y-74108690D01*
X91156902Y-74113617D01*
G37*
G36*
X88616902Y-74113617D02*
G01*
X88766202Y-74143314D01*
X88930174Y-74211234D01*
X89077744Y-74309837D01*
X89203243Y-74435336D01*
X89301846Y-74582906D01*
X89369766Y-74746878D01*
X89404390Y-74920949D01*
X89404390Y-75098431D01*
X89369766Y-75272502D01*
X89301846Y-75436474D01*
X89203243Y-75584044D01*
X89077744Y-75709543D01*
X88930174Y-75808146D01*
X88766202Y-75876066D01*
X88616902Y-75905763D01*
X88592132Y-75910690D01*
X88414648Y-75910690D01*
X88389878Y-75905763D01*
X88240578Y-75876066D01*
X88076606Y-75808146D01*
X87929036Y-75709543D01*
X87803537Y-75584044D01*
X87704934Y-75436474D01*
X87637014Y-75272502D01*
X87602390Y-75098431D01*
X87602390Y-74920949D01*
X87637014Y-74746878D01*
X87704934Y-74582906D01*
X87803537Y-74435336D01*
X87929036Y-74309837D01*
X88076606Y-74211234D01*
X88240578Y-74143314D01*
X88389878Y-74113617D01*
X88414648Y-74108690D01*
X88592132Y-74108690D01*
X88616902Y-74113617D01*
G37*
G36*
X86076902Y-74113617D02*
G01*
X86226202Y-74143314D01*
X86390174Y-74211234D01*
X86537744Y-74309837D01*
X86663243Y-74435336D01*
X86761846Y-74582906D01*
X86829766Y-74746878D01*
X86864390Y-74920949D01*
X86864390Y-75098431D01*
X86829766Y-75272502D01*
X86761846Y-75436474D01*
X86663243Y-75584044D01*
X86537744Y-75709543D01*
X86390174Y-75808146D01*
X86226202Y-75876066D01*
X86076902Y-75905763D01*
X86052132Y-75910690D01*
X85874648Y-75910690D01*
X85849878Y-75905763D01*
X85700578Y-75876066D01*
X85536606Y-75808146D01*
X85389036Y-75709543D01*
X85263537Y-75584044D01*
X85164934Y-75436474D01*
X85097014Y-75272502D01*
X85062390Y-75098431D01*
X85062390Y-74920949D01*
X85097014Y-74746878D01*
X85164934Y-74582906D01*
X85263537Y-74435336D01*
X85389036Y-74309837D01*
X85536606Y-74211234D01*
X85700578Y-74143314D01*
X85849878Y-74113617D01*
X85874648Y-74108690D01*
X86052132Y-74108690D01*
X86076902Y-74113617D01*
G37*
G36*
X83536902Y-74113617D02*
G01*
X83686202Y-74143314D01*
X83850174Y-74211234D01*
X83997744Y-74309837D01*
X84123243Y-74435336D01*
X84221846Y-74582906D01*
X84289766Y-74746878D01*
X84324390Y-74920949D01*
X84324390Y-75098431D01*
X84289766Y-75272502D01*
X84221846Y-75436474D01*
X84123243Y-75584044D01*
X83997744Y-75709543D01*
X83850174Y-75808146D01*
X83686202Y-75876066D01*
X83536902Y-75905763D01*
X83512132Y-75910690D01*
X83334648Y-75910690D01*
X83309878Y-75905763D01*
X83160578Y-75876066D01*
X82996606Y-75808146D01*
X82849036Y-75709543D01*
X82723537Y-75584044D01*
X82624934Y-75436474D01*
X82557014Y-75272502D01*
X82522390Y-75098431D01*
X82522390Y-74920949D01*
X82557014Y-74746878D01*
X82624934Y-74582906D01*
X82723537Y-74435336D01*
X82849036Y-74309837D01*
X82996606Y-74211234D01*
X83160578Y-74143314D01*
X83309878Y-74113617D01*
X83334648Y-74108690D01*
X83512132Y-74108690D01*
X83536902Y-74113617D01*
G37*
G36*
X80996902Y-74113617D02*
G01*
X81146202Y-74143314D01*
X81310174Y-74211234D01*
X81457744Y-74309837D01*
X81583243Y-74435336D01*
X81681846Y-74582906D01*
X81749766Y-74746878D01*
X81784390Y-74920949D01*
X81784390Y-75098431D01*
X81749766Y-75272502D01*
X81681846Y-75436474D01*
X81583243Y-75584044D01*
X81457744Y-75709543D01*
X81310174Y-75808146D01*
X81146202Y-75876066D01*
X80996902Y-75905763D01*
X80972132Y-75910690D01*
X80794648Y-75910690D01*
X80769878Y-75905763D01*
X80620578Y-75876066D01*
X80456606Y-75808146D01*
X80309036Y-75709543D01*
X80183537Y-75584044D01*
X80084934Y-75436474D01*
X80017014Y-75272502D01*
X79982390Y-75098431D01*
X79982390Y-74920949D01*
X80017014Y-74746878D01*
X80084934Y-74582906D01*
X80183537Y-74435336D01*
X80309036Y-74309837D01*
X80456606Y-74211234D01*
X80620578Y-74143314D01*
X80769878Y-74113617D01*
X80794648Y-74108690D01*
X80972132Y-74108690D01*
X80996902Y-74113617D01*
G37*
G36*
X78456902Y-74113617D02*
G01*
X78606202Y-74143314D01*
X78770174Y-74211234D01*
X78917744Y-74309837D01*
X79043243Y-74435336D01*
X79141846Y-74582906D01*
X79209766Y-74746878D01*
X79244390Y-74920949D01*
X79244390Y-75098431D01*
X79209766Y-75272502D01*
X79141846Y-75436474D01*
X79043243Y-75584044D01*
X78917744Y-75709543D01*
X78770174Y-75808146D01*
X78606202Y-75876066D01*
X78456902Y-75905763D01*
X78432132Y-75910690D01*
X78254648Y-75910690D01*
X78229878Y-75905763D01*
X78080578Y-75876066D01*
X77916606Y-75808146D01*
X77769036Y-75709543D01*
X77643537Y-75584044D01*
X77544934Y-75436474D01*
X77477014Y-75272502D01*
X77442390Y-75098431D01*
X77442390Y-74920949D01*
X77477014Y-74746878D01*
X77544934Y-74582906D01*
X77643537Y-74435336D01*
X77769036Y-74309837D01*
X77916606Y-74211234D01*
X78080578Y-74143314D01*
X78229878Y-74113617D01*
X78254648Y-74108690D01*
X78432132Y-74108690D01*
X78456902Y-74113617D01*
G37*
G36*
X75916902Y-74113617D02*
G01*
X76066202Y-74143314D01*
X76230174Y-74211234D01*
X76377744Y-74309837D01*
X76503243Y-74435336D01*
X76601846Y-74582906D01*
X76669766Y-74746878D01*
X76704390Y-74920949D01*
X76704390Y-75098431D01*
X76669766Y-75272502D01*
X76601846Y-75436474D01*
X76503243Y-75584044D01*
X76377744Y-75709543D01*
X76230174Y-75808146D01*
X76066202Y-75876066D01*
X75916902Y-75905763D01*
X75892132Y-75910690D01*
X75714648Y-75910690D01*
X75689878Y-75905763D01*
X75540578Y-75876066D01*
X75376606Y-75808146D01*
X75229036Y-75709543D01*
X75103537Y-75584044D01*
X75004934Y-75436474D01*
X74937014Y-75272502D01*
X74902390Y-75098431D01*
X74902390Y-74920949D01*
X74937014Y-74746878D01*
X75004934Y-74582906D01*
X75103537Y-74435336D01*
X75229036Y-74309837D01*
X75376606Y-74211234D01*
X75540578Y-74143314D01*
X75689878Y-74113617D01*
X75714648Y-74108690D01*
X75892132Y-74108690D01*
X75916902Y-74113617D01*
G37*
G36*
X73376902Y-74113617D02*
G01*
X73526202Y-74143314D01*
X73690174Y-74211234D01*
X73837744Y-74309837D01*
X73963243Y-74435336D01*
X74061846Y-74582906D01*
X74129766Y-74746878D01*
X74164390Y-74920949D01*
X74164390Y-75098431D01*
X74129766Y-75272502D01*
X74061846Y-75436474D01*
X73963243Y-75584044D01*
X73837744Y-75709543D01*
X73690174Y-75808146D01*
X73526202Y-75876066D01*
X73376902Y-75905763D01*
X73352132Y-75910690D01*
X73174648Y-75910690D01*
X73149878Y-75905763D01*
X73000578Y-75876066D01*
X72836606Y-75808146D01*
X72689036Y-75709543D01*
X72563537Y-75584044D01*
X72464934Y-75436474D01*
X72397014Y-75272502D01*
X72362390Y-75098431D01*
X72362390Y-74920949D01*
X72397014Y-74746878D01*
X72464934Y-74582906D01*
X72563537Y-74435336D01*
X72689036Y-74309837D01*
X72836606Y-74211234D01*
X73000578Y-74143314D01*
X73149878Y-74113617D01*
X73174648Y-74108690D01*
X73352132Y-74108690D01*
X73376902Y-74113617D01*
G37*
G36*
X70836902Y-74113617D02*
G01*
X70986202Y-74143314D01*
X71150174Y-74211234D01*
X71297744Y-74309837D01*
X71423243Y-74435336D01*
X71521846Y-74582906D01*
X71589766Y-74746878D01*
X71624390Y-74920949D01*
X71624390Y-75098431D01*
X71589766Y-75272502D01*
X71521846Y-75436474D01*
X71423243Y-75584044D01*
X71297744Y-75709543D01*
X71150174Y-75808146D01*
X70986202Y-75876066D01*
X70836902Y-75905763D01*
X70812132Y-75910690D01*
X70634648Y-75910690D01*
X70609878Y-75905763D01*
X70460578Y-75876066D01*
X70296606Y-75808146D01*
X70149036Y-75709543D01*
X70023537Y-75584044D01*
X69924934Y-75436474D01*
X69857014Y-75272502D01*
X69822390Y-75098431D01*
X69822390Y-74920949D01*
X69857014Y-74746878D01*
X69924934Y-74582906D01*
X70023537Y-74435336D01*
X70149036Y-74309837D01*
X70296606Y-74211234D01*
X70460578Y-74143314D01*
X70609878Y-74113617D01*
X70634648Y-74108690D01*
X70812132Y-74108690D01*
X70836902Y-74113617D01*
G37*
G36*
X68296902Y-74113617D02*
G01*
X68446202Y-74143314D01*
X68610174Y-74211234D01*
X68757744Y-74309837D01*
X68883243Y-74435336D01*
X68981846Y-74582906D01*
X69049766Y-74746878D01*
X69084390Y-74920949D01*
X69084390Y-75098431D01*
X69049766Y-75272502D01*
X68981846Y-75436474D01*
X68883243Y-75584044D01*
X68757744Y-75709543D01*
X68610174Y-75808146D01*
X68446202Y-75876066D01*
X68296902Y-75905763D01*
X68272132Y-75910690D01*
X68094648Y-75910690D01*
X68069878Y-75905763D01*
X67920578Y-75876066D01*
X67756606Y-75808146D01*
X67609036Y-75709543D01*
X67483537Y-75584044D01*
X67384934Y-75436474D01*
X67317014Y-75272502D01*
X67282390Y-75098431D01*
X67282390Y-74920949D01*
X67317014Y-74746878D01*
X67384934Y-74582906D01*
X67483537Y-74435336D01*
X67609036Y-74309837D01*
X67756606Y-74211234D01*
X67920578Y-74143314D01*
X68069878Y-74113617D01*
X68094648Y-74108690D01*
X68272132Y-74108690D01*
X68296902Y-74113617D01*
G37*
G36*
X65756902Y-74113617D02*
G01*
X65906202Y-74143314D01*
X66070174Y-74211234D01*
X66217744Y-74309837D01*
X66343243Y-74435336D01*
X66441846Y-74582906D01*
X66509766Y-74746878D01*
X66544390Y-74920949D01*
X66544390Y-75098431D01*
X66509766Y-75272502D01*
X66441846Y-75436474D01*
X66343243Y-75584044D01*
X66217744Y-75709543D01*
X66070174Y-75808146D01*
X65906202Y-75876066D01*
X65756902Y-75905763D01*
X65732132Y-75910690D01*
X65554648Y-75910690D01*
X65529878Y-75905763D01*
X65380578Y-75876066D01*
X65216606Y-75808146D01*
X65069036Y-75709543D01*
X64943537Y-75584044D01*
X64844934Y-75436474D01*
X64777014Y-75272502D01*
X64742390Y-75098431D01*
X64742390Y-74920949D01*
X64777014Y-74746878D01*
X64844934Y-74582906D01*
X64943537Y-74435336D01*
X65069036Y-74309837D01*
X65216606Y-74211234D01*
X65380578Y-74143314D01*
X65529878Y-74113617D01*
X65554648Y-74108690D01*
X65732132Y-74108690D01*
X65756902Y-74113617D01*
G37*
G36*
X64004390Y-75910690D02*
G01*
X62202390Y-75910690D01*
X62202390Y-74108690D01*
X64004390Y-74108690D01*
X64004390Y-75910690D01*
G37*
G36*
X111476902Y-74113617D02*
G01*
X111626202Y-74143314D01*
X111790174Y-74211234D01*
X111937744Y-74309837D01*
X112063243Y-74435336D01*
X112161846Y-74582906D01*
X112229766Y-74746878D01*
X112264390Y-74920949D01*
X112264390Y-75098431D01*
X112229766Y-75272502D01*
X112161846Y-75436474D01*
X112063243Y-75584044D01*
X111937744Y-75709543D01*
X111790174Y-75808146D01*
X111626202Y-75876066D01*
X111476902Y-75905763D01*
X111452132Y-75910690D01*
X111274648Y-75910690D01*
X111249878Y-75905763D01*
X111100578Y-75876066D01*
X110936606Y-75808146D01*
X110789036Y-75709543D01*
X110663537Y-75584044D01*
X110564934Y-75436474D01*
X110497014Y-75272502D01*
X110462390Y-75098431D01*
X110462390Y-74920949D01*
X110497014Y-74746878D01*
X110564934Y-74582906D01*
X110663537Y-74435336D01*
X110789036Y-74309837D01*
X110936606Y-74211234D01*
X111100578Y-74143314D01*
X111249878Y-74113617D01*
X111274648Y-74108690D01*
X111452132Y-74108690D01*
X111476902Y-74113617D01*
G37*
G36*
X108936902Y-74113617D02*
G01*
X109086202Y-74143314D01*
X109250174Y-74211234D01*
X109397744Y-74309837D01*
X109523243Y-74435336D01*
X109621846Y-74582906D01*
X109689766Y-74746878D01*
X109724390Y-74920949D01*
X109724390Y-75098431D01*
X109689766Y-75272502D01*
X109621846Y-75436474D01*
X109523243Y-75584044D01*
X109397744Y-75709543D01*
X109250174Y-75808146D01*
X109086202Y-75876066D01*
X108936902Y-75905763D01*
X108912132Y-75910690D01*
X108734648Y-75910690D01*
X108709878Y-75905763D01*
X108560578Y-75876066D01*
X108396606Y-75808146D01*
X108249036Y-75709543D01*
X108123537Y-75584044D01*
X108024934Y-75436474D01*
X107957014Y-75272502D01*
X107922390Y-75098431D01*
X107922390Y-74920949D01*
X107957014Y-74746878D01*
X108024934Y-74582906D01*
X108123537Y-74435336D01*
X108249036Y-74309837D01*
X108396606Y-74211234D01*
X108560578Y-74143314D01*
X108709878Y-74113617D01*
X108734648Y-74108690D01*
X108912132Y-74108690D01*
X108936902Y-74113617D01*
G37*
G36*
X106396902Y-74113617D02*
G01*
X106546202Y-74143314D01*
X106710174Y-74211234D01*
X106857744Y-74309837D01*
X106983243Y-74435336D01*
X107081846Y-74582906D01*
X107149766Y-74746878D01*
X107184390Y-74920949D01*
X107184390Y-75098431D01*
X107149766Y-75272502D01*
X107081846Y-75436474D01*
X106983243Y-75584044D01*
X106857744Y-75709543D01*
X106710174Y-75808146D01*
X106546202Y-75876066D01*
X106396902Y-75905763D01*
X106372132Y-75910690D01*
X106194648Y-75910690D01*
X106169878Y-75905763D01*
X106020578Y-75876066D01*
X105856606Y-75808146D01*
X105709036Y-75709543D01*
X105583537Y-75584044D01*
X105484934Y-75436474D01*
X105417014Y-75272502D01*
X105382390Y-75098431D01*
X105382390Y-74920949D01*
X105417014Y-74746878D01*
X105484934Y-74582906D01*
X105583537Y-74435336D01*
X105709036Y-74309837D01*
X105856606Y-74211234D01*
X106020578Y-74143314D01*
X106169878Y-74113617D01*
X106194648Y-74108690D01*
X106372132Y-74108690D01*
X106396902Y-74113617D01*
G37*
G36*
X103856902Y-74113617D02*
G01*
X104006202Y-74143314D01*
X104170174Y-74211234D01*
X104317744Y-74309837D01*
X104443243Y-74435336D01*
X104541846Y-74582906D01*
X104609766Y-74746878D01*
X104644390Y-74920949D01*
X104644390Y-75098431D01*
X104609766Y-75272502D01*
X104541846Y-75436474D01*
X104443243Y-75584044D01*
X104317744Y-75709543D01*
X104170174Y-75808146D01*
X104006202Y-75876066D01*
X103856902Y-75905763D01*
X103832132Y-75910690D01*
X103654648Y-75910690D01*
X103629878Y-75905763D01*
X103480578Y-75876066D01*
X103316606Y-75808146D01*
X103169036Y-75709543D01*
X103043537Y-75584044D01*
X102944934Y-75436474D01*
X102877014Y-75272502D01*
X102842390Y-75098431D01*
X102842390Y-74920949D01*
X102877014Y-74746878D01*
X102944934Y-74582906D01*
X103043537Y-74435336D01*
X103169036Y-74309837D01*
X103316606Y-74211234D01*
X103480578Y-74143314D01*
X103629878Y-74113617D01*
X103654648Y-74108690D01*
X103832132Y-74108690D01*
X103856902Y-74113617D01*
G37*
G36*
X101316902Y-74113617D02*
G01*
X101466202Y-74143314D01*
X101630174Y-74211234D01*
X101777744Y-74309837D01*
X101903243Y-74435336D01*
X102001846Y-74582906D01*
X102069766Y-74746878D01*
X102104390Y-74920949D01*
X102104390Y-75098431D01*
X102069766Y-75272502D01*
X102001846Y-75436474D01*
X101903243Y-75584044D01*
X101777744Y-75709543D01*
X101630174Y-75808146D01*
X101466202Y-75876066D01*
X101316902Y-75905763D01*
X101292132Y-75910690D01*
X101114648Y-75910690D01*
X101089878Y-75905763D01*
X100940578Y-75876066D01*
X100776606Y-75808146D01*
X100629036Y-75709543D01*
X100503537Y-75584044D01*
X100404934Y-75436474D01*
X100337014Y-75272502D01*
X100302390Y-75098431D01*
X100302390Y-74920949D01*
X100337014Y-74746878D01*
X100404934Y-74582906D01*
X100503537Y-74435336D01*
X100629036Y-74309837D01*
X100776606Y-74211234D01*
X100940578Y-74143314D01*
X101089878Y-74113617D01*
X101114648Y-74108690D01*
X101292132Y-74108690D01*
X101316902Y-74113617D01*
G37*
G36*
X98776902Y-74113617D02*
G01*
X98926202Y-74143314D01*
X99090174Y-74211234D01*
X99237744Y-74309837D01*
X99363243Y-74435336D01*
X99461846Y-74582906D01*
X99529766Y-74746878D01*
X99564390Y-74920949D01*
X99564390Y-75098431D01*
X99529766Y-75272502D01*
X99461846Y-75436474D01*
X99363243Y-75584044D01*
X99237744Y-75709543D01*
X99090174Y-75808146D01*
X98926202Y-75876066D01*
X98776902Y-75905763D01*
X98752132Y-75910690D01*
X98574648Y-75910690D01*
X98549878Y-75905763D01*
X98400578Y-75876066D01*
X98236606Y-75808146D01*
X98089036Y-75709543D01*
X97963537Y-75584044D01*
X97864934Y-75436474D01*
X97797014Y-75272502D01*
X97762390Y-75098431D01*
X97762390Y-74920949D01*
X97797014Y-74746878D01*
X97864934Y-74582906D01*
X97963537Y-74435336D01*
X98089036Y-74309837D01*
X98236606Y-74211234D01*
X98400578Y-74143314D01*
X98549878Y-74113617D01*
X98574648Y-74108690D01*
X98752132Y-74108690D01*
X98776902Y-74113617D01*
G37*
G36*
X70549755Y-67482192D02*
G01*
X70699580Y-67511994D01*
X70981844Y-67628911D01*
X71235875Y-67798649D01*
X71451911Y-68014685D01*
X71621649Y-68268716D01*
X71718346Y-68502165D01*
X71738566Y-68550981D01*
X71798170Y-68850629D01*
X71798170Y-69156151D01*
X71776920Y-69262983D01*
X71774518Y-69287369D01*
X71776920Y-69311755D01*
X71784033Y-69335204D01*
X71795584Y-69356815D01*
X71811130Y-69375757D01*
X71830072Y-69391302D01*
X71851682Y-69402853D01*
X71875131Y-69409966D01*
X71899517Y-69412368D01*
X71923903Y-69409966D01*
X71947352Y-69402853D01*
X71968963Y-69391302D01*
X71987905Y-69375757D01*
X72080027Y-69283635D01*
X72140617Y-69243150D01*
X72159559Y-69227605D01*
X72175104Y-69208663D01*
X72186655Y-69187052D01*
X72193768Y-69163603D01*
X72196170Y-69139217D01*
X72196170Y-67852390D01*
X73898170Y-67852390D01*
X73898170Y-70155886D01*
X73888970Y-70156792D01*
X73865521Y-70163905D01*
X73843910Y-70175456D01*
X73824968Y-70191001D01*
X73809423Y-70209943D01*
X73797872Y-70231554D01*
X73790759Y-70255002D01*
X73760611Y-70406565D01*
X73681385Y-70597833D01*
X73681384Y-70597835D01*
X73566365Y-70769973D01*
X73419973Y-70916365D01*
X73247835Y-71031384D01*
X73247834Y-71031385D01*
X73247833Y-71031385D01*
X73056564Y-71110611D01*
X72853516Y-71151000D01*
X72646484Y-71151000D01*
X72443436Y-71110611D01*
X72252167Y-71031385D01*
X72252166Y-71031385D01*
X72252165Y-71031384D01*
X72080027Y-70916365D01*
X71933635Y-70769973D01*
X71818616Y-70597835D01*
X71818615Y-70597833D01*
X71739389Y-70406564D01*
X71699000Y-70203516D01*
X71699000Y-70034365D01*
X71696598Y-70009979D01*
X71689485Y-69986530D01*
X71677934Y-69964919D01*
X71662389Y-69945977D01*
X71643447Y-69930432D01*
X71621836Y-69918881D01*
X71598387Y-69911768D01*
X71574001Y-69909366D01*
X71549615Y-69911768D01*
X71526166Y-69918881D01*
X71504555Y-69930432D01*
X71485613Y-69945977D01*
X71470076Y-69964910D01*
X71451911Y-69992095D01*
X71235875Y-70208131D01*
X70981844Y-70377869D01*
X70699580Y-70494786D01*
X70549755Y-70524588D01*
X70399931Y-70554390D01*
X70094409Y-70554390D01*
X69944585Y-70524588D01*
X69794760Y-70494786D01*
X69512496Y-70377869D01*
X69258465Y-70208131D01*
X69042429Y-69992095D01*
X69029930Y-69973388D01*
X69014386Y-69954448D01*
X68995444Y-69938903D01*
X68973833Y-69927352D01*
X68950384Y-69920239D01*
X68925998Y-69917837D01*
X68901612Y-69920239D01*
X68878163Y-69927352D01*
X68856553Y-69938904D01*
X68837611Y-69954449D01*
X68822066Y-69973391D01*
X68810515Y-69995002D01*
X68803402Y-70018451D01*
X68801000Y-70042836D01*
X68801000Y-70203516D01*
X68760611Y-70406564D01*
X68681385Y-70597833D01*
X68681384Y-70597835D01*
X68566365Y-70769973D01*
X68419973Y-70916365D01*
X68247835Y-71031384D01*
X68247834Y-71031385D01*
X68247833Y-71031385D01*
X68056564Y-71110611D01*
X67853516Y-71151000D01*
X67646484Y-71151000D01*
X67443436Y-71110611D01*
X67252167Y-71031385D01*
X67252166Y-71031385D01*
X67252165Y-71031384D01*
X67080027Y-70916365D01*
X66933635Y-70769973D01*
X66818616Y-70597835D01*
X66818615Y-70597833D01*
X66739389Y-70406564D01*
X66699000Y-70203516D01*
X66699000Y-69996484D01*
X66739389Y-69793436D01*
X66818615Y-69602167D01*
X66888329Y-69497833D01*
X66933635Y-69430027D01*
X67080027Y-69283635D01*
X67252165Y-69168616D01*
X67252167Y-69168615D01*
X67443436Y-69089389D01*
X67646484Y-69049000D01*
X67853516Y-69049000D01*
X68056564Y-69089389D01*
X68247833Y-69168615D01*
X68247835Y-69168616D01*
X68389065Y-69262983D01*
X68419973Y-69283635D01*
X68505030Y-69368692D01*
X68523972Y-69384237D01*
X68545583Y-69395788D01*
X68569032Y-69402901D01*
X68593418Y-69405303D01*
X68617804Y-69402901D01*
X68641253Y-69395788D01*
X68662864Y-69384237D01*
X68681806Y-69368692D01*
X68697351Y-69349750D01*
X68708902Y-69328139D01*
X68716015Y-69304690D01*
X68718417Y-69280304D01*
X68716015Y-69255918D01*
X68696170Y-69156151D01*
X68696170Y-68850629D01*
X68755774Y-68550981D01*
X68775994Y-68502165D01*
X68872691Y-68268716D01*
X69042429Y-68014685D01*
X69258465Y-67798649D01*
X69512496Y-67628911D01*
X69794760Y-67511994D01*
X69944585Y-67482192D01*
X70094409Y-67452390D01*
X70399931Y-67452390D01*
X70549755Y-67482192D01*
G37*
G36*
X108649915Y-67482192D02*
G01*
X108799740Y-67511994D01*
X109082004Y-67628911D01*
X109336035Y-67798649D01*
X109552071Y-68014685D01*
X109721809Y-68268716D01*
X109818506Y-68502165D01*
X109838726Y-68550981D01*
X109898330Y-68850629D01*
X109898330Y-69156151D01*
X109892183Y-69187052D01*
X109838726Y-69455800D01*
X109721809Y-69738064D01*
X109552071Y-69992095D01*
X109336035Y-70208131D01*
X109082004Y-70377869D01*
X108799740Y-70494786D01*
X108649915Y-70524588D01*
X108500091Y-70554390D01*
X108194569Y-70554390D01*
X108044745Y-70524588D01*
X107894920Y-70494786D01*
X107612656Y-70377869D01*
X107358625Y-70208131D01*
X107142589Y-69992095D01*
X106972851Y-69738064D01*
X106855934Y-69455800D01*
X106802477Y-69187052D01*
X106796330Y-69156151D01*
X106796330Y-68850629D01*
X106855934Y-68550981D01*
X106876154Y-68502165D01*
X106972851Y-68268716D01*
X107142589Y-68014685D01*
X107358625Y-67798649D01*
X107612656Y-67628911D01*
X107894920Y-67511994D01*
X108044745Y-67482192D01*
X108194569Y-67452390D01*
X108500091Y-67452390D01*
X108649915Y-67482192D01*
G37*
G36*
X89599835Y-67482192D02*
G01*
X89749660Y-67511994D01*
X90031924Y-67628911D01*
X90285955Y-67798649D01*
X90501991Y-68014685D01*
X90671729Y-68268716D01*
X90768426Y-68502165D01*
X90788646Y-68550981D01*
X90848250Y-68850629D01*
X90848250Y-69156151D01*
X90842103Y-69187052D01*
X90788646Y-69455800D01*
X90671729Y-69738064D01*
X90501991Y-69992095D01*
X90285955Y-70208131D01*
X90031924Y-70377869D01*
X89749660Y-70494786D01*
X89599835Y-70524588D01*
X89450011Y-70554390D01*
X89144489Y-70554390D01*
X88994665Y-70524588D01*
X88844840Y-70494786D01*
X88562576Y-70377869D01*
X88308545Y-70208131D01*
X88092509Y-69992095D01*
X87922771Y-69738064D01*
X87805854Y-69455800D01*
X87752397Y-69187052D01*
X87746250Y-69156151D01*
X87746250Y-68850629D01*
X87805854Y-68550981D01*
X87826074Y-68502165D01*
X87922771Y-68268716D01*
X88092509Y-68014685D01*
X88308545Y-67798649D01*
X88562576Y-67628911D01*
X88844840Y-67511994D01*
X88994665Y-67482192D01*
X89144489Y-67452390D01*
X89450011Y-67452390D01*
X89599835Y-67482192D01*
G37*
G36*
X92948250Y-70154390D02*
G01*
X91246250Y-70154390D01*
X91246250Y-67852390D01*
X92948250Y-67852390D01*
X92948250Y-70154390D01*
G37*
G36*
X111998330Y-70154390D02*
G01*
X110296330Y-70154390D01*
X110296330Y-67852390D01*
X111998330Y-67852390D01*
X111998330Y-70154390D01*
G37*
G36*
X57956564Y-67989389D02*
G01*
X58147833Y-68068615D01*
X58147835Y-68068616D01*
X58311344Y-68177869D01*
X58319973Y-68183635D01*
X58466365Y-68330027D01*
X58581385Y-68502167D01*
X58660611Y-68693436D01*
X58701000Y-68896484D01*
X58701000Y-69103516D01*
X58660611Y-69306564D01*
X58581385Y-69497833D01*
X58581384Y-69497835D01*
X58466365Y-69669973D01*
X58319973Y-69816365D01*
X58147835Y-69931384D01*
X58147834Y-69931385D01*
X58147833Y-69931385D01*
X57956564Y-70010611D01*
X57753516Y-70051000D01*
X57546484Y-70051000D01*
X57343436Y-70010611D01*
X57152167Y-69931385D01*
X57152166Y-69931385D01*
X57152165Y-69931384D01*
X56980027Y-69816365D01*
X56833635Y-69669973D01*
X56718616Y-69497835D01*
X56718615Y-69497833D01*
X56639389Y-69306564D01*
X56599000Y-69103516D01*
X56599000Y-68896484D01*
X56639389Y-68693436D01*
X56718615Y-68502167D01*
X56833635Y-68330027D01*
X56980027Y-68183635D01*
X56988656Y-68177869D01*
X57152165Y-68068616D01*
X57152167Y-68068615D01*
X57343436Y-67989389D01*
X57546484Y-67949000D01*
X57753516Y-67949000D01*
X57956564Y-67989389D01*
G37*
G36*
X51456564Y-67989389D02*
G01*
X51647833Y-68068615D01*
X51647835Y-68068616D01*
X51811344Y-68177869D01*
X51819973Y-68183635D01*
X51966365Y-68330027D01*
X52081385Y-68502167D01*
X52160611Y-68693436D01*
X52201000Y-68896484D01*
X52201000Y-69103516D01*
X52160611Y-69306564D01*
X52081385Y-69497833D01*
X52081384Y-69497835D01*
X51966365Y-69669973D01*
X51819973Y-69816365D01*
X51647835Y-69931384D01*
X51647834Y-69931385D01*
X51647833Y-69931385D01*
X51456564Y-70010611D01*
X51253516Y-70051000D01*
X51046484Y-70051000D01*
X50843436Y-70010611D01*
X50652167Y-69931385D01*
X50652166Y-69931385D01*
X50652165Y-69931384D01*
X50480027Y-69816365D01*
X50333635Y-69669973D01*
X50218616Y-69497835D01*
X50218615Y-69497833D01*
X50139389Y-69306564D01*
X50099000Y-69103516D01*
X50099000Y-68896484D01*
X50139389Y-68693436D01*
X50218615Y-68502167D01*
X50333635Y-68330027D01*
X50480027Y-68183635D01*
X50488656Y-68177869D01*
X50652165Y-68068616D01*
X50652167Y-68068615D01*
X50843436Y-67989389D01*
X51046484Y-67949000D01*
X51253516Y-67949000D01*
X51456564Y-67989389D01*
G37*
G36*
X84599835Y-65282192D02*
G01*
X84749660Y-65311994D01*
X85031924Y-65428911D01*
X85285955Y-65598649D01*
X85501991Y-65814685D01*
X85671729Y-66068716D01*
X85788646Y-66350980D01*
X85848250Y-66650630D01*
X85848250Y-66956150D01*
X85788646Y-67255800D01*
X85671729Y-67538064D01*
X85501991Y-67792095D01*
X85285955Y-68008131D01*
X85031924Y-68177869D01*
X84749660Y-68294786D01*
X84599835Y-68324588D01*
X84450011Y-68354390D01*
X84144489Y-68354390D01*
X83994665Y-68324588D01*
X83844840Y-68294786D01*
X83562576Y-68177869D01*
X83308545Y-68008131D01*
X83092509Y-67792095D01*
X82922771Y-67538064D01*
X82805854Y-67255800D01*
X82746250Y-66956150D01*
X82746250Y-66650630D01*
X82805854Y-66350980D01*
X82922771Y-66068716D01*
X83092509Y-65814685D01*
X83308545Y-65598649D01*
X83562576Y-65428911D01*
X83844840Y-65311994D01*
X83994665Y-65282192D01*
X84144489Y-65252390D01*
X84450011Y-65252390D01*
X84599835Y-65282192D01*
G37*
G36*
X65549755Y-65282192D02*
G01*
X65699580Y-65311994D01*
X65981844Y-65428911D01*
X66235875Y-65598649D01*
X66451911Y-65814685D01*
X66621649Y-66068716D01*
X66738566Y-66350980D01*
X66798170Y-66650630D01*
X66798170Y-66956150D01*
X66738566Y-67255800D01*
X66621649Y-67538064D01*
X66451911Y-67792095D01*
X66235875Y-68008131D01*
X65981844Y-68177869D01*
X65699580Y-68294786D01*
X65549755Y-68324588D01*
X65399931Y-68354390D01*
X65094409Y-68354390D01*
X64944585Y-68324588D01*
X64794760Y-68294786D01*
X64512496Y-68177869D01*
X64258465Y-68008131D01*
X64042429Y-67792095D01*
X63872691Y-67538064D01*
X63755774Y-67255800D01*
X63696170Y-66956150D01*
X63696170Y-66650630D01*
X63755774Y-66350980D01*
X63872691Y-66068716D01*
X64042429Y-65814685D01*
X64258465Y-65598649D01*
X64512496Y-65428911D01*
X64794760Y-65311994D01*
X64944585Y-65282192D01*
X65094409Y-65252390D01*
X65399931Y-65252390D01*
X65549755Y-65282192D01*
G37*
G36*
X103649915Y-65282192D02*
G01*
X103799740Y-65311994D01*
X104082004Y-65428911D01*
X104336035Y-65598649D01*
X104552071Y-65814685D01*
X104721809Y-66068716D01*
X104838726Y-66350980D01*
X104898330Y-66650630D01*
X104898330Y-66956150D01*
X104838726Y-67255800D01*
X104721809Y-67538064D01*
X104552071Y-67792095D01*
X104336035Y-68008131D01*
X104082004Y-68177869D01*
X103799740Y-68294786D01*
X103649915Y-68324588D01*
X103500091Y-68354390D01*
X103194569Y-68354390D01*
X103044745Y-68324588D01*
X102894920Y-68294786D01*
X102612656Y-68177869D01*
X102358625Y-68008131D01*
X102142589Y-67792095D01*
X101972851Y-67538064D01*
X101855934Y-67255800D01*
X101796330Y-66956150D01*
X101796330Y-66650630D01*
X101855934Y-66350980D01*
X101972851Y-66068716D01*
X102142589Y-65814685D01*
X102358625Y-65598649D01*
X102612656Y-65428911D01*
X102894920Y-65311994D01*
X103044745Y-65282192D01*
X103194569Y-65252390D01*
X103500091Y-65252390D01*
X103649915Y-65282192D01*
G37*
G36*
X101398330Y-67954390D02*
G01*
X99696330Y-67954390D01*
X99696330Y-65652390D01*
X101398330Y-65652390D01*
X101398330Y-67954390D01*
G37*
G36*
X82348250Y-67954390D02*
G01*
X80646250Y-67954390D01*
X80646250Y-65652390D01*
X82348250Y-65652390D01*
X82348250Y-67954390D01*
G37*
G36*
X63298170Y-67954390D02*
G01*
X61596170Y-67954390D01*
X61596170Y-65652390D01*
X63298170Y-65652390D01*
X63298170Y-67954390D01*
G37*
G36*
X57956564Y-63389389D02*
G01*
X58147833Y-63468615D01*
X58147835Y-63468616D01*
X58319973Y-63583635D01*
X58466365Y-63730027D01*
X58568677Y-63883147D01*
X58581385Y-63902167D01*
X58660611Y-64093436D01*
X58701000Y-64296484D01*
X58701000Y-64503516D01*
X58660611Y-64706564D01*
X58581385Y-64897833D01*
X58581384Y-64897835D01*
X58466365Y-65069973D01*
X58319973Y-65216365D01*
X58147835Y-65331384D01*
X58147834Y-65331385D01*
X58147833Y-65331385D01*
X57956564Y-65410611D01*
X57753516Y-65451000D01*
X57546484Y-65451000D01*
X57343436Y-65410611D01*
X57152167Y-65331385D01*
X57152166Y-65331385D01*
X57152165Y-65331384D01*
X56980027Y-65216365D01*
X56833635Y-65069973D01*
X56718616Y-64897835D01*
X56718615Y-64897833D01*
X56639389Y-64706564D01*
X56599000Y-64503516D01*
X56599000Y-64296484D01*
X56639389Y-64093436D01*
X56718615Y-63902167D01*
X56731324Y-63883147D01*
X56833635Y-63730027D01*
X56980027Y-63583635D01*
X57152165Y-63468616D01*
X57152167Y-63468615D01*
X57343436Y-63389389D01*
X57546484Y-63349000D01*
X57753516Y-63349000D01*
X57956564Y-63389389D01*
G37*
G36*
X51456564Y-63389389D02*
G01*
X51647833Y-63468615D01*
X51647835Y-63468616D01*
X51819973Y-63583635D01*
X51966365Y-63730027D01*
X52068677Y-63883147D01*
X52081385Y-63902167D01*
X52160611Y-64093436D01*
X52201000Y-64296484D01*
X52201000Y-64503516D01*
X52160611Y-64706564D01*
X52081385Y-64897833D01*
X52081384Y-64897835D01*
X51966365Y-65069973D01*
X51819973Y-65216365D01*
X51647835Y-65331384D01*
X51647834Y-65331385D01*
X51647833Y-65331385D01*
X51456564Y-65410611D01*
X51253516Y-65451000D01*
X51046484Y-65451000D01*
X50843436Y-65410611D01*
X50652167Y-65331385D01*
X50652166Y-65331385D01*
X50652165Y-65331384D01*
X50480027Y-65216365D01*
X50333635Y-65069973D01*
X50218616Y-64897835D01*
X50218615Y-64897833D01*
X50139389Y-64706564D01*
X50099000Y-64503516D01*
X50099000Y-64296484D01*
X50139389Y-64093436D01*
X50218615Y-63902167D01*
X50231324Y-63883147D01*
X50333635Y-63730027D01*
X50480027Y-63583635D01*
X50652165Y-63468616D01*
X50652167Y-63468615D01*
X50843436Y-63389389D01*
X51046484Y-63349000D01*
X51253516Y-63349000D01*
X51456564Y-63389389D01*
G37*
G36*
X108943804Y-61137074D02*
G01*
X109161804Y-61227373D01*
X109315953Y-61291223D01*
X109650878Y-61515013D01*
X109935707Y-61799842D01*
X110159497Y-62134767D01*
X110191892Y-62212976D01*
X110313646Y-62506916D01*
X110392230Y-62901984D01*
X110392230Y-63304796D01*
X110313646Y-63699864D01*
X110229850Y-63902165D01*
X110159497Y-64072013D01*
X109935707Y-64406938D01*
X109650878Y-64691767D01*
X109315953Y-64915557D01*
X109161804Y-64979407D01*
X108943804Y-65069706D01*
X108548736Y-65148290D01*
X108145924Y-65148290D01*
X107750856Y-65069706D01*
X107532856Y-64979407D01*
X107378707Y-64915557D01*
X107043782Y-64691767D01*
X106758953Y-64406938D01*
X106535163Y-64072013D01*
X106464810Y-63902165D01*
X106381014Y-63699864D01*
X106302430Y-63304796D01*
X106302430Y-62901984D01*
X106381014Y-62506916D01*
X106502768Y-62212976D01*
X106535163Y-62134767D01*
X106758953Y-61799842D01*
X107043782Y-61515013D01*
X107378707Y-61291223D01*
X107532856Y-61227373D01*
X107750856Y-61137074D01*
X108145924Y-61058490D01*
X108548736Y-61058490D01*
X108943804Y-61137074D01*
G37*
G36*
X89893724Y-61137074D02*
G01*
X90111724Y-61227373D01*
X90265873Y-61291223D01*
X90600798Y-61515013D01*
X90885627Y-61799842D01*
X91109417Y-62134767D01*
X91141812Y-62212976D01*
X91263566Y-62506916D01*
X91342150Y-62901984D01*
X91342150Y-63304796D01*
X91263566Y-63699864D01*
X91179770Y-63902165D01*
X91109417Y-64072013D01*
X90885627Y-64406938D01*
X90600798Y-64691767D01*
X90265873Y-64915557D01*
X90111724Y-64979407D01*
X89893724Y-65069706D01*
X89498656Y-65148290D01*
X89095844Y-65148290D01*
X88700776Y-65069706D01*
X88482776Y-64979407D01*
X88328627Y-64915557D01*
X87993702Y-64691767D01*
X87708873Y-64406938D01*
X87485083Y-64072013D01*
X87414730Y-63902165D01*
X87330934Y-63699864D01*
X87252350Y-63304796D01*
X87252350Y-62901984D01*
X87330934Y-62506916D01*
X87452688Y-62212976D01*
X87485083Y-62134767D01*
X87708873Y-61799842D01*
X87993702Y-61515013D01*
X88328627Y-61291223D01*
X88482776Y-61227373D01*
X88700776Y-61137074D01*
X89095844Y-61058490D01*
X89498656Y-61058490D01*
X89893724Y-61137074D01*
G37*
G36*
X70843644Y-61137074D02*
G01*
X71061644Y-61227373D01*
X71215793Y-61291223D01*
X71550718Y-61515013D01*
X71835547Y-61799842D01*
X72059337Y-62134767D01*
X72091732Y-62212976D01*
X72213486Y-62506916D01*
X72292070Y-62901984D01*
X72292070Y-63304796D01*
X72213486Y-63699864D01*
X72129690Y-63902165D01*
X72059337Y-64072013D01*
X71835547Y-64406938D01*
X71550718Y-64691767D01*
X71215793Y-64915557D01*
X71061644Y-64979407D01*
X70843644Y-65069706D01*
X70448576Y-65148290D01*
X70045764Y-65148290D01*
X69650696Y-65069706D01*
X69432696Y-64979407D01*
X69278547Y-64915557D01*
X68943622Y-64691767D01*
X68658793Y-64406938D01*
X68435003Y-64072013D01*
X68364650Y-63902165D01*
X68280854Y-63699864D01*
X68202270Y-63304796D01*
X68202270Y-62901984D01*
X68280854Y-62506916D01*
X68402608Y-62212976D01*
X68435003Y-62134767D01*
X68658793Y-61799842D01*
X68943622Y-61515013D01*
X69278547Y-61291223D01*
X69432696Y-61227373D01*
X69650696Y-61137074D01*
X70045764Y-61058490D01*
X70448576Y-61058490D01*
X70843644Y-61137074D01*
G37*
G36*
X76901000Y-64751000D02*
G01*
X74799000Y-64751000D01*
X74799000Y-63930982D01*
X74796598Y-63906596D01*
X74789485Y-63883147D01*
X74777934Y-63861536D01*
X74762389Y-63842594D01*
X74743452Y-63827054D01*
X74736879Y-63822662D01*
X74607898Y-63693681D01*
X74506559Y-63542016D01*
X74436755Y-63373494D01*
X74401170Y-63194593D01*
X74401170Y-63012187D01*
X74436755Y-62833286D01*
X74506559Y-62664764D01*
X74607898Y-62513099D01*
X74736879Y-62384118D01*
X74743452Y-62379726D01*
X74762388Y-62364186D01*
X74777934Y-62345244D01*
X74789485Y-62323633D01*
X74796598Y-62300184D01*
X74799000Y-62275798D01*
X74799000Y-61449000D01*
X76901000Y-61449000D01*
X76901000Y-64751000D01*
G37*
G36*
X66739755Y-59042192D02*
G01*
X66889580Y-59071994D01*
X67171844Y-59188911D01*
X67425875Y-59358649D01*
X67641911Y-59574685D01*
X67811649Y-59828716D01*
X67928566Y-60110980D01*
X67988170Y-60410630D01*
X67988170Y-60716150D01*
X67928566Y-61015800D01*
X67811649Y-61298064D01*
X67641911Y-61552095D01*
X67425875Y-61768131D01*
X67171844Y-61937869D01*
X66889580Y-62054786D01*
X66739755Y-62084588D01*
X66589931Y-62114390D01*
X66284409Y-62114390D01*
X66134585Y-62084588D01*
X65984760Y-62054786D01*
X65873832Y-62008839D01*
X65850385Y-62001726D01*
X65825999Y-61999324D01*
X65801613Y-62001726D01*
X65778164Y-62008839D01*
X65756553Y-62020390D01*
X65737611Y-62035936D01*
X65722066Y-62054878D01*
X65710515Y-62076488D01*
X65703402Y-62099937D01*
X65701000Y-62124323D01*
X65701000Y-62279580D01*
X65703402Y-62303966D01*
X65710515Y-62327415D01*
X65722066Y-62349026D01*
X65737611Y-62367968D01*
X65756541Y-62383503D01*
X65757461Y-62384118D01*
X65886442Y-62513099D01*
X65987781Y-62664764D01*
X66057585Y-62833286D01*
X66093170Y-63012187D01*
X66093170Y-63194593D01*
X66057585Y-63373494D01*
X65987781Y-63542016D01*
X65886442Y-63693681D01*
X65757461Y-63822662D01*
X65756541Y-63823277D01*
X65737612Y-63838811D01*
X65722067Y-63857753D01*
X65710516Y-63879364D01*
X65703402Y-63902813D01*
X65701000Y-63927200D01*
X65701000Y-64751000D01*
X63599000Y-64751000D01*
X63599000Y-61989389D01*
X63596598Y-61965003D01*
X63589485Y-61941554D01*
X63577934Y-61919943D01*
X63562389Y-61901001D01*
X63543447Y-61885456D01*
X63521836Y-61873905D01*
X63498387Y-61866792D01*
X63474001Y-61864390D01*
X61836170Y-61864390D01*
X61836170Y-59262390D01*
X64488170Y-59262390D01*
X64488170Y-61324001D01*
X64490572Y-61348387D01*
X64497685Y-61371836D01*
X64509236Y-61393447D01*
X64524781Y-61412389D01*
X64543723Y-61427934D01*
X64565334Y-61439485D01*
X64588783Y-61446598D01*
X64613169Y-61449000D01*
X64938137Y-61449000D01*
X64962523Y-61446598D01*
X64985972Y-61439485D01*
X65007583Y-61427934D01*
X65026525Y-61412389D01*
X65042070Y-61393447D01*
X65053621Y-61371836D01*
X65060734Y-61348387D01*
X65063136Y-61324001D01*
X65060734Y-61299615D01*
X65053621Y-61276166D01*
X64945774Y-61015800D01*
X64886170Y-60716150D01*
X64886170Y-60410630D01*
X64945774Y-60110980D01*
X65062691Y-59828716D01*
X65232429Y-59574685D01*
X65448465Y-59358649D01*
X65702496Y-59188911D01*
X65984760Y-59071994D01*
X66134585Y-59042192D01*
X66284409Y-59012390D01*
X66589931Y-59012390D01*
X66739755Y-59042192D01*
G37*
G36*
X84046936Y-62183425D02*
G01*
X84071323Y-62185827D01*
X84095702Y-62183426D01*
X84126047Y-62177390D01*
X84308453Y-62177390D01*
X84487354Y-62212975D01*
X84655876Y-62282779D01*
X84807541Y-62384118D01*
X84936522Y-62513099D01*
X85037861Y-62664764D01*
X85107665Y-62833286D01*
X85143250Y-63012187D01*
X85143250Y-63194593D01*
X85107665Y-63373494D01*
X85037861Y-63542016D01*
X84936522Y-63693681D01*
X84807541Y-63822662D01*
X84655876Y-63924001D01*
X84487354Y-63993805D01*
X84308453Y-64029390D01*
X84126047Y-64029390D01*
X84095702Y-64023354D01*
X84071325Y-64020953D01*
X84046936Y-64023355D01*
X83890915Y-64054390D01*
X83703583Y-64054390D01*
X83519855Y-64017844D01*
X83346784Y-63946156D01*
X83269432Y-63894471D01*
X83191023Y-63842080D01*
X83058560Y-63709617D01*
X82954485Y-63553857D01*
X82954484Y-63553856D01*
X82882796Y-63380785D01*
X82846250Y-63197057D01*
X82846250Y-63009723D01*
X82882796Y-62825995D01*
X82954484Y-62652924D01*
X83006169Y-62575572D01*
X83058560Y-62497163D01*
X83191023Y-62364700D01*
X83313627Y-62282779D01*
X83346784Y-62260624D01*
X83519855Y-62188936D01*
X83703583Y-62152390D01*
X83890915Y-62152390D01*
X84046936Y-62183425D01*
G37*
G36*
X114124725Y-62188936D02*
G01*
X114297796Y-62260624D01*
X114330953Y-62282779D01*
X114453557Y-62364700D01*
X114586020Y-62497163D01*
X114638411Y-62575572D01*
X114690096Y-62652924D01*
X114761784Y-62825995D01*
X114798330Y-63009723D01*
X114798330Y-63197057D01*
X114761784Y-63380785D01*
X114690096Y-63553856D01*
X114690095Y-63553857D01*
X114586020Y-63709617D01*
X114453557Y-63842080D01*
X114375148Y-63894471D01*
X114297796Y-63946156D01*
X114124725Y-64017844D01*
X113940997Y-64054390D01*
X113753665Y-64054390D01*
X113597644Y-64023355D01*
X113573257Y-64020953D01*
X113548878Y-64023354D01*
X113518533Y-64029390D01*
X113336127Y-64029390D01*
X113157226Y-63993805D01*
X112988704Y-63924001D01*
X112837039Y-63822662D01*
X112708058Y-63693681D01*
X112606719Y-63542016D01*
X112536915Y-63373494D01*
X112501330Y-63194593D01*
X112501330Y-63012187D01*
X112536915Y-62833286D01*
X112606719Y-62664764D01*
X112708058Y-62513099D01*
X112837039Y-62384118D01*
X112988704Y-62282779D01*
X113157226Y-62212975D01*
X113336127Y-62177390D01*
X113518533Y-62177390D01*
X113548878Y-62183426D01*
X113573255Y-62185827D01*
X113597644Y-62183425D01*
X113753665Y-62152390D01*
X113940997Y-62152390D01*
X114124725Y-62188936D01*
G37*
G36*
X103097016Y-62183425D02*
G01*
X103121403Y-62185827D01*
X103145782Y-62183426D01*
X103176127Y-62177390D01*
X103358533Y-62177390D01*
X103537434Y-62212975D01*
X103705956Y-62282779D01*
X103857621Y-62384118D01*
X103986602Y-62513099D01*
X104087941Y-62664764D01*
X104157745Y-62833286D01*
X104193330Y-63012187D01*
X104193330Y-63194593D01*
X104157745Y-63373494D01*
X104087941Y-63542016D01*
X103986602Y-63693681D01*
X103857621Y-63822662D01*
X103705956Y-63924001D01*
X103537434Y-63993805D01*
X103358533Y-64029390D01*
X103176127Y-64029390D01*
X103145782Y-64023354D01*
X103121405Y-64020953D01*
X103097016Y-64023355D01*
X102940995Y-64054390D01*
X102753663Y-64054390D01*
X102569935Y-64017844D01*
X102396864Y-63946156D01*
X102319512Y-63894471D01*
X102241103Y-63842080D01*
X102108640Y-63709617D01*
X102004565Y-63553857D01*
X102004564Y-63553856D01*
X101932876Y-63380785D01*
X101896330Y-63197057D01*
X101896330Y-63009723D01*
X101932876Y-62825995D01*
X102004564Y-62652924D01*
X102056249Y-62575572D01*
X102108640Y-62497163D01*
X102241103Y-62364700D01*
X102363707Y-62282779D01*
X102396864Y-62260624D01*
X102569935Y-62188936D01*
X102753663Y-62152390D01*
X102940995Y-62152390D01*
X103097016Y-62183425D01*
G37*
G36*
X95074645Y-62188936D02*
G01*
X95247716Y-62260624D01*
X95280873Y-62282779D01*
X95403477Y-62364700D01*
X95535940Y-62497163D01*
X95588331Y-62575572D01*
X95640016Y-62652924D01*
X95711704Y-62825995D01*
X95748250Y-63009723D01*
X95748250Y-63197057D01*
X95711704Y-63380785D01*
X95640016Y-63553856D01*
X95640015Y-63553857D01*
X95535940Y-63709617D01*
X95403477Y-63842080D01*
X95325068Y-63894471D01*
X95247716Y-63946156D01*
X95074645Y-64017844D01*
X94890917Y-64054390D01*
X94703585Y-64054390D01*
X94547564Y-64023355D01*
X94523177Y-64020953D01*
X94498798Y-64023354D01*
X94468453Y-64029390D01*
X94286047Y-64029390D01*
X94107146Y-63993805D01*
X93938624Y-63924001D01*
X93786959Y-63822662D01*
X93657978Y-63693681D01*
X93556639Y-63542016D01*
X93486835Y-63373494D01*
X93451250Y-63194593D01*
X93451250Y-63012187D01*
X93486835Y-62833286D01*
X93556639Y-62664764D01*
X93657978Y-62513099D01*
X93786959Y-62384118D01*
X93938624Y-62282779D01*
X94107146Y-62212975D01*
X94286047Y-62177390D01*
X94468453Y-62177390D01*
X94498798Y-62183426D01*
X94523175Y-62185827D01*
X94547564Y-62183425D01*
X94703585Y-62152390D01*
X94890917Y-62152390D01*
X95074645Y-62188936D01*
G37*
G36*
X32677395Y-61425546D02*
G01*
X32850466Y-61497234D01*
X32851955Y-61498229D01*
X33006227Y-61601310D01*
X33138690Y-61733773D01*
X33177917Y-61792481D01*
X33242766Y-61889534D01*
X33314454Y-62062605D01*
X33351000Y-62246333D01*
X33351000Y-62433667D01*
X33314454Y-62617395D01*
X33242766Y-62790466D01*
X33214154Y-62833287D01*
X33138690Y-62946227D01*
X33006227Y-63078690D01*
X32927818Y-63131081D01*
X32850466Y-63182766D01*
X32677395Y-63254454D01*
X32493667Y-63291000D01*
X32306333Y-63291000D01*
X32122605Y-63254454D01*
X31949534Y-63182766D01*
X31872182Y-63131081D01*
X31793773Y-63078690D01*
X31661310Y-62946227D01*
X31585846Y-62833287D01*
X31557234Y-62790466D01*
X31485546Y-62617395D01*
X31449000Y-62433667D01*
X31449000Y-62246333D01*
X31485546Y-62062605D01*
X31557234Y-61889534D01*
X31622083Y-61792481D01*
X31661310Y-61733773D01*
X31793773Y-61601310D01*
X31948045Y-61498229D01*
X31949534Y-61497234D01*
X32122605Y-61425546D01*
X32306333Y-61389000D01*
X32493667Y-61389000D01*
X32677395Y-61425546D01*
G37*
G36*
X104839915Y-59042192D02*
G01*
X104989740Y-59071994D01*
X105272004Y-59188911D01*
X105526035Y-59358649D01*
X105742071Y-59574685D01*
X105911809Y-59828716D01*
X106028726Y-60110980D01*
X106088330Y-60410630D01*
X106088330Y-60716150D01*
X106028726Y-61015800D01*
X105911809Y-61298064D01*
X105742071Y-61552095D01*
X105526035Y-61768131D01*
X105272004Y-61937869D01*
X104989740Y-62054786D01*
X104839915Y-62084588D01*
X104690091Y-62114390D01*
X104384569Y-62114390D01*
X104234745Y-62084588D01*
X104084920Y-62054786D01*
X103802656Y-61937869D01*
X103548625Y-61768131D01*
X103332589Y-61552095D01*
X103162851Y-61298064D01*
X103045934Y-61015800D01*
X102986330Y-60716150D01*
X102986330Y-60410630D01*
X103045934Y-60110980D01*
X103162851Y-59828716D01*
X103332589Y-59574685D01*
X103548625Y-59358649D01*
X103802656Y-59188911D01*
X104084920Y-59071994D01*
X104234745Y-59042192D01*
X104384569Y-59012390D01*
X104690091Y-59012390D01*
X104839915Y-59042192D01*
G37*
G36*
X85789835Y-59042192D02*
G01*
X85939660Y-59071994D01*
X86221924Y-59188911D01*
X86475955Y-59358649D01*
X86691991Y-59574685D01*
X86861729Y-59828716D01*
X86978646Y-60110980D01*
X87038250Y-60410630D01*
X87038250Y-60716150D01*
X86978646Y-61015800D01*
X86861729Y-61298064D01*
X86691991Y-61552095D01*
X86475955Y-61768131D01*
X86221924Y-61937869D01*
X85939660Y-62054786D01*
X85789835Y-62084588D01*
X85640011Y-62114390D01*
X85334489Y-62114390D01*
X85184665Y-62084588D01*
X85034840Y-62054786D01*
X84752576Y-61937869D01*
X84498545Y-61768131D01*
X84282509Y-61552095D01*
X84112771Y-61298064D01*
X83995854Y-61015800D01*
X83936250Y-60716150D01*
X83936250Y-60410630D01*
X83995854Y-60110980D01*
X84112771Y-59828716D01*
X84282509Y-59574685D01*
X84498545Y-59358649D01*
X84752576Y-59188911D01*
X85034840Y-59071994D01*
X85184665Y-59042192D01*
X85334489Y-59012390D01*
X85640011Y-59012390D01*
X85789835Y-59042192D01*
G37*
G36*
X41848228Y-60431703D02*
G01*
X42003100Y-60495853D01*
X42142481Y-60588985D01*
X42261015Y-60707519D01*
X42354147Y-60846900D01*
X42418297Y-61001772D01*
X42451000Y-61166184D01*
X42451000Y-61333816D01*
X42418297Y-61498228D01*
X42354147Y-61653100D01*
X42261015Y-61792481D01*
X42142481Y-61911015D01*
X42003100Y-62004147D01*
X41848228Y-62068297D01*
X41683816Y-62101000D01*
X41516184Y-62101000D01*
X41351772Y-62068297D01*
X41196900Y-62004147D01*
X41057519Y-61911015D01*
X40938985Y-61792481D01*
X40845853Y-61653100D01*
X40781703Y-61498228D01*
X40749000Y-61333816D01*
X40749000Y-61166184D01*
X40781703Y-61001772D01*
X40845853Y-60846900D01*
X40938985Y-60707519D01*
X41057519Y-60588985D01*
X41196900Y-60495853D01*
X41351772Y-60431703D01*
X41516184Y-60399000D01*
X41683816Y-60399000D01*
X41848228Y-60431703D01*
G37*
G36*
X49648228Y-60431703D02*
G01*
X49803100Y-60495853D01*
X49942481Y-60588985D01*
X50061015Y-60707519D01*
X50154147Y-60846900D01*
X50218297Y-61001772D01*
X50251000Y-61166184D01*
X50251000Y-61333816D01*
X50218297Y-61498228D01*
X50154147Y-61653100D01*
X50061015Y-61792481D01*
X49942481Y-61911015D01*
X49803100Y-62004147D01*
X49648228Y-62068297D01*
X49483816Y-62101000D01*
X49316184Y-62101000D01*
X49151772Y-62068297D01*
X48996900Y-62004147D01*
X48857519Y-61911015D01*
X48738985Y-61792481D01*
X48645853Y-61653100D01*
X48581703Y-61498228D01*
X48549000Y-61333816D01*
X48549000Y-61166184D01*
X48581703Y-61001772D01*
X48645853Y-60846900D01*
X48738985Y-60707519D01*
X48857519Y-60588985D01*
X48996900Y-60495853D01*
X49151772Y-60431703D01*
X49316184Y-60399000D01*
X49483816Y-60399000D01*
X49648228Y-60431703D01*
G37*
G36*
X102588330Y-61864390D02*
G01*
X99936330Y-61864390D01*
X99936330Y-59262390D01*
X102588330Y-59262390D01*
X102588330Y-61864390D01*
G37*
G36*
X83538250Y-61864390D02*
G01*
X80886250Y-61864390D01*
X80886250Y-59262390D01*
X83538250Y-59262390D01*
X83538250Y-61864390D01*
G37*
G36*
X33351000Y-60751000D02*
G01*
X31449000Y-60751000D01*
X31449000Y-58849000D01*
X33351000Y-58849000D01*
X33351000Y-60751000D01*
G37*
G36*
X49648228Y-58181703D02*
G01*
X49803100Y-58245853D01*
X49942481Y-58338985D01*
X50061015Y-58457519D01*
X50154147Y-58596900D01*
X50218297Y-58751772D01*
X50251000Y-58916184D01*
X50251000Y-59083816D01*
X50218297Y-59248228D01*
X50154147Y-59403100D01*
X50061015Y-59542481D01*
X49942481Y-59661015D01*
X49803100Y-59754147D01*
X49648228Y-59818297D01*
X49483816Y-59851000D01*
X49316184Y-59851000D01*
X49151772Y-59818297D01*
X48996900Y-59754147D01*
X48857519Y-59661015D01*
X48738985Y-59542481D01*
X48645853Y-59403100D01*
X48581703Y-59248228D01*
X48549000Y-59083816D01*
X48549000Y-58916184D01*
X48581703Y-58751772D01*
X48645853Y-58596900D01*
X48738985Y-58457519D01*
X48857519Y-58338985D01*
X48996900Y-58245853D01*
X49151772Y-58181703D01*
X49316184Y-58149000D01*
X49483816Y-58149000D01*
X49648228Y-58181703D01*
G37*
G36*
X41848228Y-58181703D02*
G01*
X42003100Y-58245853D01*
X42142481Y-58338985D01*
X42261015Y-58457519D01*
X42354147Y-58596900D01*
X42418297Y-58751772D01*
X42451000Y-58916184D01*
X42451000Y-59083816D01*
X42418297Y-59248228D01*
X42354147Y-59403100D01*
X42261015Y-59542481D01*
X42142481Y-59661015D01*
X42003100Y-59754147D01*
X41848228Y-59818297D01*
X41683816Y-59851000D01*
X41516184Y-59851000D01*
X41351772Y-59818297D01*
X41196900Y-59754147D01*
X41057519Y-59661015D01*
X40938985Y-59542481D01*
X40845853Y-59403100D01*
X40781703Y-59248228D01*
X40749000Y-59083816D01*
X40749000Y-58916184D01*
X40781703Y-58751772D01*
X40845853Y-58596900D01*
X40938985Y-58457519D01*
X41057519Y-58338985D01*
X41196900Y-58245853D01*
X41351772Y-58181703D01*
X41516184Y-58149000D01*
X41683816Y-58149000D01*
X41848228Y-58181703D01*
G37*
G36*
X111189915Y-56502192D02*
G01*
X111339740Y-56531994D01*
X111622004Y-56648911D01*
X111876035Y-56818649D01*
X112092071Y-57034685D01*
X112261809Y-57288716D01*
X112378726Y-57570980D01*
X112378726Y-57570981D01*
X112438330Y-57870629D01*
X112438330Y-58176151D01*
X112424465Y-58245853D01*
X112378726Y-58475800D01*
X112261809Y-58758064D01*
X112092071Y-59012095D01*
X111876035Y-59228131D01*
X111622004Y-59397869D01*
X111339740Y-59514786D01*
X111200513Y-59542480D01*
X111040091Y-59574390D01*
X110734569Y-59574390D01*
X110574147Y-59542480D01*
X110434920Y-59514786D01*
X110152656Y-59397869D01*
X109898625Y-59228131D01*
X109682589Y-59012095D01*
X109512851Y-58758064D01*
X109395934Y-58475800D01*
X109350195Y-58245853D01*
X109336330Y-58176151D01*
X109336330Y-57870629D01*
X109395934Y-57570981D01*
X109395934Y-57570980D01*
X109512851Y-57288716D01*
X109682589Y-57034685D01*
X109898625Y-56818649D01*
X110152656Y-56648911D01*
X110434920Y-56531994D01*
X110584745Y-56502192D01*
X110734569Y-56472390D01*
X111040091Y-56472390D01*
X111189915Y-56502192D01*
G37*
G36*
X92139835Y-56502192D02*
G01*
X92289660Y-56531994D01*
X92571924Y-56648911D01*
X92825955Y-56818649D01*
X93041991Y-57034685D01*
X93211729Y-57288716D01*
X93328646Y-57570980D01*
X93328646Y-57570981D01*
X93388250Y-57870629D01*
X93388250Y-58176151D01*
X93374385Y-58245853D01*
X93328646Y-58475800D01*
X93211729Y-58758064D01*
X93041991Y-59012095D01*
X92825955Y-59228131D01*
X92571924Y-59397869D01*
X92289660Y-59514786D01*
X92150433Y-59542480D01*
X91990011Y-59574390D01*
X91684489Y-59574390D01*
X91524067Y-59542480D01*
X91384840Y-59514786D01*
X91102576Y-59397869D01*
X90848545Y-59228131D01*
X90632509Y-59012095D01*
X90462771Y-58758064D01*
X90345854Y-58475800D01*
X90300115Y-58245853D01*
X90286250Y-58176151D01*
X90286250Y-57870629D01*
X90345854Y-57570981D01*
X90345854Y-57570980D01*
X90462771Y-57288716D01*
X90632509Y-57034685D01*
X90848545Y-56818649D01*
X91102576Y-56648911D01*
X91384840Y-56531994D01*
X91534665Y-56502192D01*
X91684489Y-56472390D01*
X91990011Y-56472390D01*
X92139835Y-56502192D01*
G37*
G36*
X73801000Y-56716031D02*
G01*
X73794515Y-56728164D01*
X73787402Y-56751613D01*
X73785000Y-56775999D01*
X73787402Y-56800385D01*
X73794515Y-56823834D01*
X73806066Y-56845445D01*
X73821602Y-56864376D01*
X73991911Y-57034685D01*
X74161649Y-57288716D01*
X74278566Y-57570980D01*
X74278566Y-57570981D01*
X74338170Y-57870629D01*
X74338170Y-58176151D01*
X74324305Y-58245853D01*
X74278566Y-58475800D01*
X74161649Y-58758064D01*
X73991911Y-59012095D01*
X73775875Y-59228131D01*
X73521844Y-59397869D01*
X73239580Y-59514786D01*
X73100353Y-59542480D01*
X72939931Y-59574390D01*
X72634409Y-59574390D01*
X72473987Y-59542480D01*
X72334760Y-59514786D01*
X72052496Y-59397869D01*
X71798465Y-59228131D01*
X71582429Y-59012095D01*
X71412691Y-58758064D01*
X71295774Y-58475800D01*
X71250035Y-58245853D01*
X71236170Y-58176151D01*
X71236170Y-57870629D01*
X71295774Y-57570981D01*
X71295774Y-57570980D01*
X71412691Y-57288716D01*
X71582429Y-57034685D01*
X71752738Y-56864376D01*
X71768274Y-56845445D01*
X71779825Y-56823834D01*
X71786938Y-56800385D01*
X71789340Y-56775999D01*
X71786938Y-56751613D01*
X71779825Y-56728164D01*
X71768274Y-56706553D01*
X71752729Y-56687611D01*
X71733787Y-56672066D01*
X71712176Y-56660515D01*
X71699000Y-56656518D01*
X71699000Y-54549000D01*
X73801000Y-54549000D01*
X73801000Y-56716031D01*
G37*
G36*
X96465250Y-59324390D02*
G01*
X94916871Y-59324390D01*
X94892485Y-59326792D01*
X94869036Y-59333905D01*
X94847428Y-59345454D01*
X94827679Y-59358650D01*
X94778245Y-59391681D01*
X94677971Y-59433216D01*
X94571520Y-59454390D01*
X94462980Y-59454390D01*
X94356529Y-59433216D01*
X94256255Y-59391681D01*
X94206821Y-59358650D01*
X94187072Y-59345454D01*
X94165465Y-59333905D01*
X94142016Y-59326792D01*
X94117629Y-59324390D01*
X93813250Y-59324390D01*
X93813250Y-56722390D01*
X96465250Y-56722390D01*
X96465250Y-59324390D01*
G37*
G36*
X77415170Y-59324390D02*
G01*
X75866791Y-59324390D01*
X75842405Y-59326792D01*
X75818956Y-59333905D01*
X75797348Y-59345454D01*
X75777599Y-59358650D01*
X75728165Y-59391681D01*
X75627891Y-59433216D01*
X75521440Y-59454390D01*
X75412900Y-59454390D01*
X75306449Y-59433216D01*
X75206175Y-59391681D01*
X75156741Y-59358650D01*
X75136992Y-59345454D01*
X75115385Y-59333905D01*
X75091936Y-59326792D01*
X75067549Y-59324390D01*
X74763170Y-59324390D01*
X74763170Y-56722390D01*
X77415170Y-56722390D01*
X77415170Y-59324390D01*
G37*
G36*
X115515330Y-59324390D02*
G01*
X113966951Y-59324390D01*
X113942565Y-59326792D01*
X113919116Y-59333905D01*
X113897508Y-59345454D01*
X113877759Y-59358650D01*
X113828325Y-59391681D01*
X113728051Y-59433216D01*
X113621600Y-59454390D01*
X113513060Y-59454390D01*
X113406609Y-59433216D01*
X113306335Y-59391681D01*
X113256901Y-59358650D01*
X113237152Y-59345454D01*
X113215545Y-59333905D01*
X113192096Y-59326792D01*
X113167709Y-59324390D01*
X112863330Y-59324390D01*
X112863330Y-56722390D01*
X115515330Y-56722390D01*
X115515330Y-59324390D01*
G37*
G36*
X43387421Y-55909143D02*
G01*
X43519557Y-55949227D01*
X43519559Y-55949228D01*
X43641339Y-56014320D01*
X43748080Y-56101920D01*
X43835680Y-56208661D01*
X43900772Y-56330441D01*
X43900773Y-56330443D01*
X43940857Y-56462579D01*
X43954391Y-56600000D01*
X43940857Y-56737421D01*
X43914643Y-56823834D01*
X43900772Y-56869559D01*
X43835680Y-56991339D01*
X43748080Y-57098080D01*
X43641339Y-57185680D01*
X43519559Y-57250772D01*
X43519557Y-57250773D01*
X43387421Y-57290857D01*
X43284432Y-57301000D01*
X42315568Y-57301000D01*
X42212579Y-57290857D01*
X42080443Y-57250773D01*
X42080441Y-57250772D01*
X41958661Y-57185680D01*
X41851920Y-57098080D01*
X41764320Y-56991339D01*
X41699228Y-56869559D01*
X41685357Y-56823834D01*
X41659143Y-56737421D01*
X41645609Y-56600000D01*
X41659143Y-56462579D01*
X41699227Y-56330443D01*
X41699228Y-56330441D01*
X41764320Y-56208661D01*
X41851920Y-56101920D01*
X41958661Y-56014320D01*
X42080441Y-55949228D01*
X42080443Y-55949227D01*
X42212579Y-55909143D01*
X42315568Y-55899000D01*
X43284432Y-55899000D01*
X43387421Y-55909143D01*
G37*
G36*
X70556564Y-54589389D02*
G01*
X70747833Y-54668615D01*
X70747835Y-54668616D01*
X70919973Y-54783635D01*
X71066365Y-54930027D01*
X71181385Y-55102167D01*
X71260611Y-55293436D01*
X71301000Y-55496484D01*
X71301000Y-55703516D01*
X71260611Y-55906564D01*
X71181385Y-56097833D01*
X71181384Y-56097835D01*
X71066365Y-56269973D01*
X70919973Y-56416365D01*
X70747835Y-56531384D01*
X70747834Y-56531385D01*
X70747833Y-56531385D01*
X70556564Y-56610611D01*
X70353516Y-56651000D01*
X70146484Y-56651000D01*
X69943436Y-56610611D01*
X69752167Y-56531385D01*
X69752166Y-56531385D01*
X69752165Y-56531384D01*
X69580027Y-56416365D01*
X69433635Y-56269973D01*
X69318616Y-56097835D01*
X69318615Y-56097833D01*
X69239389Y-55906564D01*
X69199000Y-55703516D01*
X69199000Y-55496484D01*
X69239389Y-55293436D01*
X69318615Y-55102167D01*
X69433635Y-54930027D01*
X69580027Y-54783635D01*
X69752165Y-54668616D01*
X69752167Y-54668615D01*
X69943436Y-54589389D01*
X70146484Y-54549000D01*
X70353516Y-54549000D01*
X70556564Y-54589389D01*
G37*
G36*
X68056564Y-54589389D02*
G01*
X68247833Y-54668615D01*
X68247835Y-54668616D01*
X68419973Y-54783635D01*
X68566365Y-54930027D01*
X68681385Y-55102167D01*
X68760611Y-55293436D01*
X68801000Y-55496484D01*
X68801000Y-55703516D01*
X68760611Y-55906564D01*
X68681385Y-56097833D01*
X68681384Y-56097835D01*
X68566365Y-56269973D01*
X68419973Y-56416365D01*
X68247835Y-56531384D01*
X68247834Y-56531385D01*
X68247833Y-56531385D01*
X68056564Y-56610611D01*
X67853516Y-56651000D01*
X67646484Y-56651000D01*
X67443436Y-56610611D01*
X67252167Y-56531385D01*
X67252166Y-56531385D01*
X67252165Y-56531384D01*
X67080027Y-56416365D01*
X66933635Y-56269973D01*
X66818616Y-56097835D01*
X66818615Y-56097833D01*
X66739389Y-55906564D01*
X66699000Y-55703516D01*
X66699000Y-55496484D01*
X66739389Y-55293436D01*
X66818615Y-55102167D01*
X66933635Y-54930027D01*
X67080027Y-54783635D01*
X67252165Y-54668616D01*
X67252167Y-54668615D01*
X67443436Y-54589389D01*
X67646484Y-54549000D01*
X67853516Y-54549000D01*
X68056564Y-54589389D01*
G37*
G36*
X32689890Y-53874017D02*
G01*
X32808364Y-53923091D01*
X32914988Y-53994335D01*
X33005665Y-54085012D01*
X33076910Y-54191638D01*
X33125983Y-54310110D01*
X33151000Y-54435881D01*
X33151000Y-54564119D01*
X33145973Y-54589390D01*
X33125983Y-54689890D01*
X33076909Y-54808364D01*
X33005665Y-54914988D01*
X32914988Y-55005665D01*
X32808364Y-55076909D01*
X32808363Y-55076910D01*
X32808362Y-55076910D01*
X32689890Y-55125983D01*
X32564119Y-55151000D01*
X32435881Y-55151000D01*
X32310110Y-55125983D01*
X32191638Y-55076910D01*
X32191637Y-55076910D01*
X32191636Y-55076909D01*
X32085012Y-55005665D01*
X31994335Y-54914988D01*
X31923091Y-54808364D01*
X31874017Y-54689890D01*
X31854027Y-54589390D01*
X31849000Y-54564119D01*
X31849000Y-54435881D01*
X31874017Y-54310110D01*
X31923090Y-54191638D01*
X31994335Y-54085012D01*
X32085012Y-53994335D01*
X32191636Y-53923091D01*
X32310110Y-53874017D01*
X32435881Y-53849000D01*
X32564119Y-53849000D01*
X32689890Y-53874017D01*
G37*
G36*
X39689890Y-53874017D02*
G01*
X39808364Y-53923091D01*
X39914988Y-53994335D01*
X40005665Y-54085012D01*
X40076910Y-54191638D01*
X40125983Y-54310110D01*
X40151000Y-54435881D01*
X40151000Y-54564119D01*
X40145973Y-54589390D01*
X40125983Y-54689890D01*
X40076909Y-54808364D01*
X40005665Y-54914988D01*
X39914988Y-55005665D01*
X39808364Y-55076909D01*
X39808363Y-55076910D01*
X39808362Y-55076910D01*
X39689890Y-55125983D01*
X39564119Y-55151000D01*
X39435881Y-55151000D01*
X39310110Y-55125983D01*
X39191638Y-55076910D01*
X39191637Y-55076910D01*
X39191636Y-55076909D01*
X39085012Y-55005665D01*
X38994335Y-54914988D01*
X38923091Y-54808364D01*
X38874017Y-54689890D01*
X38854027Y-54589390D01*
X38849000Y-54564119D01*
X38849000Y-54435881D01*
X38874017Y-54310110D01*
X38923090Y-54191638D01*
X38994335Y-54085012D01*
X39085012Y-53994335D01*
X39191636Y-53923091D01*
X39310110Y-53874017D01*
X39435881Y-53849000D01*
X39564119Y-53849000D01*
X39689890Y-53874017D01*
G37*
G36*
X41887421Y-51709143D02*
G01*
X42019557Y-51749227D01*
X42019559Y-51749228D01*
X42141339Y-51814320D01*
X42248080Y-51901920D01*
X42335680Y-52008661D01*
X42400772Y-52130441D01*
X42400773Y-52130443D01*
X42440857Y-52262579D01*
X42454391Y-52400000D01*
X42440857Y-52537421D01*
X42400773Y-52669557D01*
X42400772Y-52669559D01*
X42335680Y-52791339D01*
X42248080Y-52898080D01*
X42141339Y-52985680D01*
X42019559Y-53050772D01*
X42019557Y-53050773D01*
X41887421Y-53090857D01*
X41784432Y-53101000D01*
X40815568Y-53101000D01*
X40712579Y-53090857D01*
X40580443Y-53050773D01*
X40580441Y-53050772D01*
X40458661Y-52985680D01*
X40351920Y-52898080D01*
X40264320Y-52791339D01*
X40199228Y-52669559D01*
X40199227Y-52669557D01*
X40159143Y-52537421D01*
X40145609Y-52400000D01*
X40159143Y-52262579D01*
X40199227Y-52130443D01*
X40199228Y-52130441D01*
X40264320Y-52008661D01*
X40351920Y-51901920D01*
X40458661Y-51814320D01*
X40580441Y-51749228D01*
X40580443Y-51749227D01*
X40712579Y-51709143D01*
X40815568Y-51699000D01*
X41784432Y-51699000D01*
X41887421Y-51709143D01*
G37*
G36*
X34887421Y-51709143D02*
G01*
X35019557Y-51749227D01*
X35019559Y-51749228D01*
X35141339Y-51814320D01*
X35248080Y-51901920D01*
X35335680Y-52008661D01*
X35400772Y-52130441D01*
X35400773Y-52130443D01*
X35440857Y-52262579D01*
X35454391Y-52400000D01*
X35440857Y-52537421D01*
X35400773Y-52669557D01*
X35400772Y-52669559D01*
X35335680Y-52791339D01*
X35248080Y-52898080D01*
X35141339Y-52985680D01*
X35019559Y-53050772D01*
X35019557Y-53050773D01*
X34887421Y-53090857D01*
X34784432Y-53101000D01*
X33815568Y-53101000D01*
X33712579Y-53090857D01*
X33580443Y-53050773D01*
X33580441Y-53050772D01*
X33458661Y-52985680D01*
X33351920Y-52898080D01*
X33264320Y-52791339D01*
X33199228Y-52669559D01*
X33199227Y-52669557D01*
X33159143Y-52537421D01*
X33145609Y-52400000D01*
X33159143Y-52262579D01*
X33199227Y-52130443D01*
X33199228Y-52130441D01*
X33264320Y-52008661D01*
X33351920Y-51901920D01*
X33458661Y-51814320D01*
X33580441Y-51749228D01*
X33580443Y-51749227D01*
X33712579Y-51709143D01*
X33815568Y-51699000D01*
X34784432Y-51699000D01*
X34887421Y-51709143D01*
G37*
G36*
X37887421Y-51709143D02*
G01*
X38019557Y-51749227D01*
X38019559Y-51749228D01*
X38141339Y-51814320D01*
X38248080Y-51901920D01*
X38335680Y-52008661D01*
X38400772Y-52130441D01*
X38400773Y-52130443D01*
X38440857Y-52262579D01*
X38454391Y-52400000D01*
X38440857Y-52537421D01*
X38400773Y-52669557D01*
X38400772Y-52669559D01*
X38335680Y-52791339D01*
X38248080Y-52898080D01*
X38141339Y-52985680D01*
X38019559Y-53050772D01*
X38019557Y-53050773D01*
X37887421Y-53090857D01*
X37784432Y-53101000D01*
X36815568Y-53101000D01*
X36712579Y-53090857D01*
X36580443Y-53050773D01*
X36580441Y-53050772D01*
X36458661Y-52985680D01*
X36351920Y-52898080D01*
X36264320Y-52791339D01*
X36199228Y-52669559D01*
X36199227Y-52669557D01*
X36159143Y-52537421D01*
X36145609Y-52400000D01*
X36159143Y-52262579D01*
X36199227Y-52130443D01*
X36199228Y-52130441D01*
X36264320Y-52008661D01*
X36351920Y-51901920D01*
X36458661Y-51814320D01*
X36580441Y-51749228D01*
X36580443Y-51749227D01*
X36712579Y-51709143D01*
X36815568Y-51699000D01*
X37784432Y-51699000D01*
X37887421Y-51709143D01*
G37*
G36*
X73056564Y-50039389D02*
G01*
X73247833Y-50118615D01*
X73247835Y-50118616D01*
X73419973Y-50233635D01*
X73566365Y-50380027D01*
X73583533Y-50405720D01*
X73681385Y-50552167D01*
X73760611Y-50743436D01*
X73801000Y-50946484D01*
X73801000Y-51153516D01*
X73760611Y-51356564D01*
X73724101Y-51444706D01*
X73681384Y-51547835D01*
X73566365Y-51719973D01*
X73419973Y-51866365D01*
X73247835Y-51981384D01*
X73247834Y-51981385D01*
X73247833Y-51981385D01*
X73056564Y-52060611D01*
X72853516Y-52101000D01*
X72646484Y-52101000D01*
X72443436Y-52060611D01*
X72252167Y-51981385D01*
X72252166Y-51981385D01*
X72252165Y-51981384D01*
X72080027Y-51866365D01*
X71933635Y-51719973D01*
X71818616Y-51547835D01*
X71775899Y-51444706D01*
X71739389Y-51356564D01*
X71699000Y-51153516D01*
X71699000Y-50946484D01*
X71739389Y-50743436D01*
X71818615Y-50552167D01*
X71916468Y-50405720D01*
X71933635Y-50380027D01*
X72080027Y-50233635D01*
X72252165Y-50118616D01*
X72252167Y-50118615D01*
X72443436Y-50039389D01*
X72646484Y-49999000D01*
X72853516Y-49999000D01*
X73056564Y-50039389D01*
G37*
G36*
X68056564Y-50039389D02*
G01*
X68247833Y-50118615D01*
X68247835Y-50118616D01*
X68419973Y-50233635D01*
X68566365Y-50380027D01*
X68583533Y-50405720D01*
X68681385Y-50552167D01*
X68760611Y-50743436D01*
X68801000Y-50946484D01*
X68801000Y-51153516D01*
X68760611Y-51356564D01*
X68724101Y-51444706D01*
X68681384Y-51547835D01*
X68566365Y-51719973D01*
X68419973Y-51866365D01*
X68247835Y-51981384D01*
X68247834Y-51981385D01*
X68247833Y-51981385D01*
X68056564Y-52060611D01*
X67853516Y-52101000D01*
X67646484Y-52101000D01*
X67443436Y-52060611D01*
X67252167Y-51981385D01*
X67252166Y-51981385D01*
X67252165Y-51981384D01*
X67080027Y-51866365D01*
X66933635Y-51719973D01*
X66818616Y-51547835D01*
X66775899Y-51444706D01*
X66739389Y-51356564D01*
X66699000Y-51153516D01*
X66699000Y-50946484D01*
X66739389Y-50743436D01*
X66818615Y-50552167D01*
X66916468Y-50405720D01*
X66933635Y-50380027D01*
X67080027Y-50233635D01*
X67252165Y-50118616D01*
X67252167Y-50118615D01*
X67443436Y-50039389D01*
X67646484Y-49999000D01*
X67853516Y-49999000D01*
X68056564Y-50039389D01*
G37*
G36*
X108649915Y-48432112D02*
G01*
X108799740Y-48461914D01*
X109082004Y-48578831D01*
X109336035Y-48748569D01*
X109552071Y-48964605D01*
X109721809Y-49218636D01*
X109827190Y-49473050D01*
X109838726Y-49500901D01*
X109898330Y-49800549D01*
X109898330Y-50106071D01*
X109872956Y-50233635D01*
X109838726Y-50405720D01*
X109721809Y-50687984D01*
X109552071Y-50942015D01*
X109336035Y-51158051D01*
X109082004Y-51327789D01*
X108799740Y-51444706D01*
X108649915Y-51474508D01*
X108500091Y-51504310D01*
X108194569Y-51504310D01*
X108044745Y-51474508D01*
X107894920Y-51444706D01*
X107612656Y-51327789D01*
X107358625Y-51158051D01*
X107142589Y-50942015D01*
X106972851Y-50687984D01*
X106855934Y-50405720D01*
X106821704Y-50233635D01*
X106796330Y-50106071D01*
X106796330Y-49800549D01*
X106855934Y-49500901D01*
X106867470Y-49473050D01*
X106972851Y-49218636D01*
X107142589Y-48964605D01*
X107358625Y-48748569D01*
X107612656Y-48578831D01*
X107894920Y-48461914D01*
X108044745Y-48432112D01*
X108194569Y-48402310D01*
X108500091Y-48402310D01*
X108649915Y-48432112D01*
G37*
G36*
X89599835Y-48432112D02*
G01*
X89749660Y-48461914D01*
X90031924Y-48578831D01*
X90285955Y-48748569D01*
X90501991Y-48964605D01*
X90671729Y-49218636D01*
X90777110Y-49473050D01*
X90788646Y-49500901D01*
X90848250Y-49800549D01*
X90848250Y-50106071D01*
X90822876Y-50233635D01*
X90788646Y-50405720D01*
X90671729Y-50687984D01*
X90501991Y-50942015D01*
X90285955Y-51158051D01*
X90031924Y-51327789D01*
X89749660Y-51444706D01*
X89599835Y-51474508D01*
X89450011Y-51504310D01*
X89144489Y-51504310D01*
X88994665Y-51474508D01*
X88844840Y-51444706D01*
X88562576Y-51327789D01*
X88308545Y-51158051D01*
X88092509Y-50942015D01*
X87922771Y-50687984D01*
X87805854Y-50405720D01*
X87771624Y-50233635D01*
X87746250Y-50106071D01*
X87746250Y-49800549D01*
X87805854Y-49500901D01*
X87817390Y-49473050D01*
X87922771Y-49218636D01*
X88092509Y-48964605D01*
X88308545Y-48748569D01*
X88562576Y-48578831D01*
X88844840Y-48461914D01*
X88994665Y-48432112D01*
X89144489Y-48402310D01*
X89450011Y-48402310D01*
X89599835Y-48432112D01*
G37*
G36*
X92948250Y-51104310D02*
G01*
X91246250Y-51104310D01*
X91246250Y-48802310D01*
X92948250Y-48802310D01*
X92948250Y-51104310D01*
G37*
G36*
X111998330Y-51104310D02*
G01*
X110296330Y-51104310D01*
X110296330Y-48802310D01*
X111998330Y-48802310D01*
X111998330Y-51104310D01*
G37*
G36*
X37968373Y-48478299D02*
G01*
X38062812Y-48506947D01*
X38149847Y-48553468D01*
X38226135Y-48616075D01*
X38288742Y-48692363D01*
X38335263Y-48779398D01*
X38363911Y-48873837D01*
X38373584Y-48972050D01*
X38363911Y-49070263D01*
X38335263Y-49164702D01*
X38288742Y-49251737D01*
X38226135Y-49328025D01*
X38149847Y-49390632D01*
X38062812Y-49437153D01*
X37968373Y-49465801D01*
X37894772Y-49473050D01*
X36345548Y-49473050D01*
X36271947Y-49465801D01*
X36177508Y-49437153D01*
X36090473Y-49390632D01*
X36014185Y-49328025D01*
X35951578Y-49251737D01*
X35905057Y-49164702D01*
X35876409Y-49070263D01*
X35866736Y-48972050D01*
X35876409Y-48873837D01*
X35905057Y-48779398D01*
X35951578Y-48692363D01*
X36014185Y-48616075D01*
X36090473Y-48553468D01*
X36177508Y-48506947D01*
X36271947Y-48478299D01*
X36345548Y-48471050D01*
X37894772Y-48471050D01*
X37968373Y-48478299D01*
G37*
G36*
X34238373Y-48478299D02*
G01*
X34332812Y-48506947D01*
X34419847Y-48553468D01*
X34496135Y-48616075D01*
X34558742Y-48692363D01*
X34605263Y-48779398D01*
X34633911Y-48873837D01*
X34643584Y-48972050D01*
X34633911Y-49070263D01*
X34605263Y-49164702D01*
X34558742Y-49251737D01*
X34496135Y-49328025D01*
X34419847Y-49390632D01*
X34332812Y-49437153D01*
X34238373Y-49465801D01*
X34164772Y-49473050D01*
X33315548Y-49473050D01*
X33241947Y-49465801D01*
X33147508Y-49437153D01*
X33060473Y-49390632D01*
X32984185Y-49328025D01*
X32921578Y-49251737D01*
X32875057Y-49164702D01*
X32846409Y-49070263D01*
X32836736Y-48972050D01*
X32846409Y-48873837D01*
X32875057Y-48779398D01*
X32921578Y-48692363D01*
X32984185Y-48616075D01*
X33060473Y-48553468D01*
X33147508Y-48506947D01*
X33241947Y-48478299D01*
X33315548Y-48471050D01*
X34164772Y-48471050D01*
X34238373Y-48478299D01*
G37*
G36*
X103649915Y-46232112D02*
G01*
X103799740Y-46261914D01*
X104082004Y-46378831D01*
X104336035Y-46548569D01*
X104552071Y-46764605D01*
X104721809Y-47018636D01*
X104838726Y-47300900D01*
X104840650Y-47310572D01*
X104898330Y-47600549D01*
X104898330Y-47906071D01*
X104884139Y-47977412D01*
X104838726Y-48205720D01*
X104721809Y-48487984D01*
X104552071Y-48742015D01*
X104336035Y-48958051D01*
X104082004Y-49127789D01*
X103799740Y-49244706D01*
X103649915Y-49274508D01*
X103500091Y-49304310D01*
X103194569Y-49304310D01*
X103044745Y-49274508D01*
X102894920Y-49244706D01*
X102612656Y-49127789D01*
X102358625Y-48958051D01*
X102142589Y-48742015D01*
X101972851Y-48487984D01*
X101855934Y-48205720D01*
X101810521Y-47977412D01*
X101796330Y-47906071D01*
X101796330Y-47600549D01*
X101854010Y-47310572D01*
X101855934Y-47300900D01*
X101972851Y-47018636D01*
X102142589Y-46764605D01*
X102358625Y-46548569D01*
X102612656Y-46378831D01*
X102894920Y-46261914D01*
X103044745Y-46232112D01*
X103194569Y-46202310D01*
X103500091Y-46202310D01*
X103649915Y-46232112D01*
G37*
G36*
X84599835Y-46232112D02*
G01*
X84749660Y-46261914D01*
X85031924Y-46378831D01*
X85285955Y-46548569D01*
X85501991Y-46764605D01*
X85671729Y-47018636D01*
X85788646Y-47300900D01*
X85790570Y-47310572D01*
X85848250Y-47600549D01*
X85848250Y-47906071D01*
X85834059Y-47977412D01*
X85788646Y-48205720D01*
X85671729Y-48487984D01*
X85501991Y-48742015D01*
X85285955Y-48958051D01*
X85031924Y-49127789D01*
X84749660Y-49244706D01*
X84599835Y-49274508D01*
X84450011Y-49304310D01*
X84144489Y-49304310D01*
X83994665Y-49274508D01*
X83844840Y-49244706D01*
X83562576Y-49127789D01*
X83308545Y-48958051D01*
X83092509Y-48742015D01*
X82922771Y-48487984D01*
X82805854Y-48205720D01*
X82760441Y-47977412D01*
X82746250Y-47906071D01*
X82746250Y-47600549D01*
X82803930Y-47310572D01*
X82805854Y-47300900D01*
X82922771Y-47018636D01*
X83092509Y-46764605D01*
X83308545Y-46548569D01*
X83562576Y-46378831D01*
X83844840Y-46261914D01*
X83994665Y-46232112D01*
X84144489Y-46202310D01*
X84450011Y-46202310D01*
X84599835Y-46232112D01*
G37*
G36*
X101398330Y-48904310D02*
G01*
X99696330Y-48904310D01*
X99696330Y-46602310D01*
X101398330Y-46602310D01*
X101398330Y-48904310D01*
G37*
G36*
X82348250Y-48904310D02*
G01*
X80646250Y-48904310D01*
X80646250Y-46602310D01*
X82348250Y-46602310D01*
X82348250Y-48904310D01*
G37*
G36*
X36828391Y-41278755D02*
G01*
X36867127Y-41286460D01*
X36897355Y-41298981D01*
X36940104Y-41316688D01*
X37005782Y-41360573D01*
X37061637Y-41416428D01*
X37105522Y-41482106D01*
X37135750Y-41555084D01*
X37151160Y-41632554D01*
X37151160Y-41711546D01*
X37135750Y-41789016D01*
X37105522Y-41861994D01*
X37061637Y-41927672D01*
X37005781Y-41983528D01*
X36991430Y-41993117D01*
X36972488Y-42008663D01*
X36956943Y-42027605D01*
X36945392Y-42049215D01*
X36938279Y-42072664D01*
X36935877Y-42097051D01*
X36938279Y-42121437D01*
X36945392Y-42144886D01*
X36956943Y-42166496D01*
X36972489Y-42185438D01*
X36991430Y-42200983D01*
X37005781Y-42210572D01*
X37061637Y-42266428D01*
X37105522Y-42332106D01*
X37135750Y-42405084D01*
X37151160Y-42482554D01*
X37151160Y-42561546D01*
X37135750Y-42639016D01*
X37105522Y-42711994D01*
X37061637Y-42777672D01*
X37005781Y-42833528D01*
X36991430Y-42843117D01*
X36972488Y-42858663D01*
X36956943Y-42877605D01*
X36945392Y-42899215D01*
X36938279Y-42922664D01*
X36935877Y-42947051D01*
X36938279Y-42971437D01*
X36945392Y-42994886D01*
X36956943Y-43016496D01*
X36972489Y-43035438D01*
X36991430Y-43050983D01*
X37005781Y-43060572D01*
X37061637Y-43116428D01*
X37105522Y-43182106D01*
X37135750Y-43255084D01*
X37151160Y-43332554D01*
X37151160Y-43411546D01*
X37135750Y-43489016D01*
X37105522Y-43561994D01*
X37061637Y-43627672D01*
X37005781Y-43683528D01*
X36991430Y-43693117D01*
X36972488Y-43708663D01*
X36956943Y-43727605D01*
X36945392Y-43749215D01*
X36938279Y-43772664D01*
X36935877Y-43797051D01*
X36938279Y-43821437D01*
X36945392Y-43844886D01*
X36956943Y-43866496D01*
X36972489Y-43885438D01*
X36991430Y-43900983D01*
X37005781Y-43910572D01*
X37061637Y-43966428D01*
X37105522Y-44032106D01*
X37123229Y-44074855D01*
X37135750Y-44105083D01*
X37151160Y-44182555D01*
X37151160Y-44261545D01*
X37138854Y-44323414D01*
X37135750Y-44339016D01*
X37105522Y-44411994D01*
X37061637Y-44477672D01*
X37005781Y-44533528D01*
X36991430Y-44543117D01*
X36972488Y-44558663D01*
X36956943Y-44577605D01*
X36945392Y-44599215D01*
X36938279Y-44622664D01*
X36935877Y-44647051D01*
X36938279Y-44671437D01*
X36945392Y-44694886D01*
X36956943Y-44716496D01*
X36972489Y-44735438D01*
X36991430Y-44750983D01*
X37005781Y-44760572D01*
X37061637Y-44816428D01*
X37105522Y-44882106D01*
X37111308Y-44896075D01*
X37135750Y-44955083D01*
X37140569Y-44979310D01*
X37151160Y-45032554D01*
X37151160Y-45111546D01*
X37135750Y-45189016D01*
X37105522Y-45261994D01*
X37061637Y-45327672D01*
X37005781Y-45383528D01*
X36991430Y-45393117D01*
X36972488Y-45408663D01*
X36956943Y-45427605D01*
X36945392Y-45449215D01*
X36938279Y-45472664D01*
X36935877Y-45497051D01*
X36938279Y-45521437D01*
X36945392Y-45544886D01*
X36956943Y-45566496D01*
X36972489Y-45585438D01*
X36991430Y-45600983D01*
X37005781Y-45610572D01*
X37061637Y-45666428D01*
X37105522Y-45732106D01*
X37107557Y-45737020D01*
X37135430Y-45804310D01*
X37135750Y-45805084D01*
X37151160Y-45882554D01*
X37151160Y-45961546D01*
X37135750Y-46039016D01*
X37105522Y-46111994D01*
X37061637Y-46177672D01*
X37005781Y-46233528D01*
X36991430Y-46243117D01*
X36972488Y-46258663D01*
X36956943Y-46277605D01*
X36945392Y-46299215D01*
X36938279Y-46322664D01*
X36935877Y-46347051D01*
X36938279Y-46371437D01*
X36945392Y-46394886D01*
X36956943Y-46416496D01*
X36972489Y-46435438D01*
X36991430Y-46450983D01*
X37005781Y-46460572D01*
X37061637Y-46516428D01*
X37105522Y-46582106D01*
X37135750Y-46655084D01*
X37151160Y-46732554D01*
X37151160Y-46811546D01*
X37135750Y-46889016D01*
X37105522Y-46961994D01*
X37061637Y-47027672D01*
X37005781Y-47083528D01*
X36991430Y-47093117D01*
X36972488Y-47108663D01*
X36956943Y-47127605D01*
X36945392Y-47149215D01*
X36938279Y-47172664D01*
X36935877Y-47197051D01*
X36938279Y-47221437D01*
X36945392Y-47244886D01*
X36956943Y-47266496D01*
X36972489Y-47285438D01*
X36991430Y-47300983D01*
X37005781Y-47310572D01*
X37061637Y-47366428D01*
X37105522Y-47432106D01*
X37135750Y-47505084D01*
X37151160Y-47582554D01*
X37151160Y-47661546D01*
X37135750Y-47739016D01*
X37105522Y-47811994D01*
X37061637Y-47877672D01*
X37005782Y-47933527D01*
X36940104Y-47977412D01*
X36897355Y-47995119D01*
X36867127Y-48007640D01*
X36828391Y-48015345D01*
X36789656Y-48023050D01*
X36710664Y-48023050D01*
X36671929Y-48015345D01*
X36633193Y-48007640D01*
X36602965Y-47995119D01*
X36560216Y-47977412D01*
X36494538Y-47933527D01*
X36438683Y-47877672D01*
X36394798Y-47811994D01*
X36364570Y-47739016D01*
X36349160Y-47661546D01*
X36349160Y-47582554D01*
X36364570Y-47505084D01*
X36394798Y-47432106D01*
X36438683Y-47366428D01*
X36494539Y-47310572D01*
X36508890Y-47300983D01*
X36527832Y-47285437D01*
X36543377Y-47266495D01*
X36554928Y-47244885D01*
X36562041Y-47221436D01*
X36564443Y-47197049D01*
X36562041Y-47172663D01*
X36554928Y-47149214D01*
X36543377Y-47127604D01*
X36527831Y-47108662D01*
X36508890Y-47093117D01*
X36494539Y-47083528D01*
X36438683Y-47027672D01*
X36394798Y-46961994D01*
X36364570Y-46889016D01*
X36349160Y-46811546D01*
X36349160Y-46732554D01*
X36364570Y-46655084D01*
X36394798Y-46582106D01*
X36438683Y-46516428D01*
X36494539Y-46460572D01*
X36508890Y-46450983D01*
X36527832Y-46435437D01*
X36543377Y-46416495D01*
X36554928Y-46394885D01*
X36562041Y-46371436D01*
X36564443Y-46347049D01*
X36562041Y-46322663D01*
X36554928Y-46299214D01*
X36543377Y-46277604D01*
X36527831Y-46258662D01*
X36508890Y-46243117D01*
X36494539Y-46233528D01*
X36438683Y-46177672D01*
X36394798Y-46111994D01*
X36364570Y-46039016D01*
X36349160Y-45961546D01*
X36349160Y-45882554D01*
X36364570Y-45805084D01*
X36364891Y-45804310D01*
X36392763Y-45737020D01*
X36394798Y-45732106D01*
X36438683Y-45666428D01*
X36494539Y-45610572D01*
X36508890Y-45600983D01*
X36527832Y-45585437D01*
X36543377Y-45566495D01*
X36554928Y-45544885D01*
X36562041Y-45521436D01*
X36564443Y-45497049D01*
X36562041Y-45472663D01*
X36554928Y-45449214D01*
X36543377Y-45427604D01*
X36527831Y-45408662D01*
X36508890Y-45393117D01*
X36494539Y-45383528D01*
X36438683Y-45327672D01*
X36394798Y-45261994D01*
X36364570Y-45189016D01*
X36349160Y-45111546D01*
X36349160Y-45032554D01*
X36359751Y-44979310D01*
X36364570Y-44955083D01*
X36389012Y-44896075D01*
X36394798Y-44882106D01*
X36438683Y-44816428D01*
X36494539Y-44760572D01*
X36508890Y-44750983D01*
X36527832Y-44735437D01*
X36543377Y-44716495D01*
X36554928Y-44694885D01*
X36562041Y-44671436D01*
X36564443Y-44647049D01*
X36562041Y-44622663D01*
X36554928Y-44599214D01*
X36543377Y-44577604D01*
X36527831Y-44558662D01*
X36508890Y-44543117D01*
X36494539Y-44533528D01*
X36438683Y-44477672D01*
X36394798Y-44411994D01*
X36364570Y-44339016D01*
X36361467Y-44323414D01*
X36349160Y-44261545D01*
X36349160Y-44182555D01*
X36364570Y-44105083D01*
X36377091Y-44074855D01*
X36394798Y-44032106D01*
X36438683Y-43966428D01*
X36494539Y-43910572D01*
X36508890Y-43900983D01*
X36527832Y-43885437D01*
X36543377Y-43866495D01*
X36554928Y-43844885D01*
X36562041Y-43821436D01*
X36564443Y-43797049D01*
X36562041Y-43772663D01*
X36554928Y-43749214D01*
X36543377Y-43727604D01*
X36527831Y-43708662D01*
X36508890Y-43693117D01*
X36494539Y-43683528D01*
X36438683Y-43627672D01*
X36394798Y-43561994D01*
X36364570Y-43489016D01*
X36349160Y-43411546D01*
X36349160Y-43332554D01*
X36364570Y-43255084D01*
X36394798Y-43182106D01*
X36438683Y-43116428D01*
X36494539Y-43060572D01*
X36508890Y-43050983D01*
X36527832Y-43035437D01*
X36543377Y-43016495D01*
X36554928Y-42994885D01*
X36562041Y-42971436D01*
X36564443Y-42947049D01*
X36562041Y-42922663D01*
X36554928Y-42899214D01*
X36543377Y-42877604D01*
X36527831Y-42858662D01*
X36508890Y-42843117D01*
X36494539Y-42833528D01*
X36438683Y-42777672D01*
X36394798Y-42711994D01*
X36364570Y-42639016D01*
X36349160Y-42561546D01*
X36349160Y-42482554D01*
X36364570Y-42405084D01*
X36394798Y-42332106D01*
X36438683Y-42266428D01*
X36494539Y-42210572D01*
X36508890Y-42200983D01*
X36527832Y-42185437D01*
X36543377Y-42166495D01*
X36554928Y-42144885D01*
X36562041Y-42121436D01*
X36564443Y-42097049D01*
X36562041Y-42072663D01*
X36554928Y-42049214D01*
X36543377Y-42027604D01*
X36527831Y-42008662D01*
X36508890Y-41993117D01*
X36494539Y-41983528D01*
X36438683Y-41927672D01*
X36394798Y-41861994D01*
X36364570Y-41789016D01*
X36349160Y-41711546D01*
X36349160Y-41632554D01*
X36364570Y-41555084D01*
X36394798Y-41482106D01*
X36438683Y-41416428D01*
X36494538Y-41360573D01*
X36560216Y-41316688D01*
X36602965Y-41298981D01*
X36633193Y-41286460D01*
X36671929Y-41278755D01*
X36710664Y-41271050D01*
X36789656Y-41271050D01*
X36828391Y-41278755D01*
G37*
G36*
X38178391Y-41278755D02*
G01*
X38217127Y-41286460D01*
X38247355Y-41298981D01*
X38290104Y-41316688D01*
X38355782Y-41360573D01*
X38411637Y-41416428D01*
X38455522Y-41482106D01*
X38485750Y-41555084D01*
X38501160Y-41632554D01*
X38501160Y-41711546D01*
X38485750Y-41789016D01*
X38455522Y-41861994D01*
X38411637Y-41927672D01*
X38355781Y-41983528D01*
X38341430Y-41993117D01*
X38322488Y-42008663D01*
X38306943Y-42027605D01*
X38295392Y-42049215D01*
X38288279Y-42072664D01*
X38285877Y-42097051D01*
X38288279Y-42121437D01*
X38295392Y-42144886D01*
X38306943Y-42166496D01*
X38322489Y-42185438D01*
X38341430Y-42200983D01*
X38355781Y-42210572D01*
X38411637Y-42266428D01*
X38455522Y-42332106D01*
X38485750Y-42405084D01*
X38501160Y-42482554D01*
X38501160Y-42561546D01*
X38485750Y-42639016D01*
X38455522Y-42711994D01*
X38411637Y-42777672D01*
X38355781Y-42833528D01*
X38341430Y-42843117D01*
X38322488Y-42858663D01*
X38306943Y-42877605D01*
X38295392Y-42899215D01*
X38288279Y-42922664D01*
X38285877Y-42947051D01*
X38288279Y-42971437D01*
X38295392Y-42994886D01*
X38306943Y-43016496D01*
X38322489Y-43035438D01*
X38341430Y-43050983D01*
X38355781Y-43060572D01*
X38411637Y-43116428D01*
X38455522Y-43182106D01*
X38485750Y-43255084D01*
X38501160Y-43332554D01*
X38501160Y-43411546D01*
X38485750Y-43489016D01*
X38455522Y-43561994D01*
X38411637Y-43627672D01*
X38355781Y-43683528D01*
X38341430Y-43693117D01*
X38322488Y-43708663D01*
X38306943Y-43727605D01*
X38295392Y-43749215D01*
X38288279Y-43772664D01*
X38285877Y-43797051D01*
X38288279Y-43821437D01*
X38295392Y-43844886D01*
X38306943Y-43866496D01*
X38322489Y-43885438D01*
X38341430Y-43900983D01*
X38355781Y-43910572D01*
X38411637Y-43966428D01*
X38455522Y-44032106D01*
X38473229Y-44074855D01*
X38485750Y-44105083D01*
X38501160Y-44182555D01*
X38501160Y-44261545D01*
X38488854Y-44323414D01*
X38485750Y-44339016D01*
X38455522Y-44411994D01*
X38411637Y-44477672D01*
X38355781Y-44533528D01*
X38341430Y-44543117D01*
X38322488Y-44558663D01*
X38306943Y-44577605D01*
X38295392Y-44599215D01*
X38288279Y-44622664D01*
X38285877Y-44647051D01*
X38288279Y-44671437D01*
X38295392Y-44694886D01*
X38306943Y-44716496D01*
X38322489Y-44735438D01*
X38341430Y-44750983D01*
X38355781Y-44760572D01*
X38411637Y-44816428D01*
X38455522Y-44882106D01*
X38461308Y-44896075D01*
X38485750Y-44955083D01*
X38490569Y-44979310D01*
X38501160Y-45032554D01*
X38501160Y-45111546D01*
X38485750Y-45189016D01*
X38455522Y-45261994D01*
X38411637Y-45327672D01*
X38355781Y-45383528D01*
X38341430Y-45393117D01*
X38322488Y-45408663D01*
X38306943Y-45427605D01*
X38295392Y-45449215D01*
X38288279Y-45472664D01*
X38285877Y-45497051D01*
X38288279Y-45521437D01*
X38295392Y-45544886D01*
X38306943Y-45566496D01*
X38322489Y-45585438D01*
X38341430Y-45600983D01*
X38355781Y-45610572D01*
X38411637Y-45666428D01*
X38455522Y-45732106D01*
X38457557Y-45737020D01*
X38485430Y-45804310D01*
X38485750Y-45805084D01*
X38501160Y-45882554D01*
X38501160Y-45961546D01*
X38485750Y-46039016D01*
X38455522Y-46111994D01*
X38411637Y-46177672D01*
X38355781Y-46233528D01*
X38341430Y-46243117D01*
X38322488Y-46258663D01*
X38306943Y-46277605D01*
X38295392Y-46299215D01*
X38288279Y-46322664D01*
X38285877Y-46347051D01*
X38288279Y-46371437D01*
X38295392Y-46394886D01*
X38306943Y-46416496D01*
X38322489Y-46435438D01*
X38341430Y-46450983D01*
X38355781Y-46460572D01*
X38411637Y-46516428D01*
X38455522Y-46582106D01*
X38485750Y-46655084D01*
X38501160Y-46732554D01*
X38501160Y-46811546D01*
X38485750Y-46889016D01*
X38455522Y-46961994D01*
X38411637Y-47027672D01*
X38355781Y-47083528D01*
X38341430Y-47093117D01*
X38322488Y-47108663D01*
X38306943Y-47127605D01*
X38295392Y-47149215D01*
X38288279Y-47172664D01*
X38285877Y-47197051D01*
X38288279Y-47221437D01*
X38295392Y-47244886D01*
X38306943Y-47266496D01*
X38322489Y-47285438D01*
X38341430Y-47300983D01*
X38355781Y-47310572D01*
X38411637Y-47366428D01*
X38455522Y-47432106D01*
X38485750Y-47505084D01*
X38501160Y-47582554D01*
X38501160Y-47661546D01*
X38485750Y-47739016D01*
X38455522Y-47811994D01*
X38411637Y-47877672D01*
X38355782Y-47933527D01*
X38290104Y-47977412D01*
X38247355Y-47995119D01*
X38217127Y-48007640D01*
X38178391Y-48015345D01*
X38139656Y-48023050D01*
X38060664Y-48023050D01*
X38021929Y-48015345D01*
X37983193Y-48007640D01*
X37952965Y-47995119D01*
X37910216Y-47977412D01*
X37844538Y-47933527D01*
X37788683Y-47877672D01*
X37744798Y-47811994D01*
X37714570Y-47739016D01*
X37699160Y-47661546D01*
X37699160Y-47582554D01*
X37714570Y-47505084D01*
X37744798Y-47432106D01*
X37788683Y-47366428D01*
X37844539Y-47310572D01*
X37858890Y-47300983D01*
X37877832Y-47285437D01*
X37893377Y-47266495D01*
X37904928Y-47244885D01*
X37912041Y-47221436D01*
X37914443Y-47197049D01*
X37912041Y-47172663D01*
X37904928Y-47149214D01*
X37893377Y-47127604D01*
X37877831Y-47108662D01*
X37858890Y-47093117D01*
X37844539Y-47083528D01*
X37788683Y-47027672D01*
X37744798Y-46961994D01*
X37714570Y-46889016D01*
X37699160Y-46811546D01*
X37699160Y-46732554D01*
X37714570Y-46655084D01*
X37744798Y-46582106D01*
X37788683Y-46516428D01*
X37844539Y-46460572D01*
X37858890Y-46450983D01*
X37877832Y-46435437D01*
X37893377Y-46416495D01*
X37904928Y-46394885D01*
X37912041Y-46371436D01*
X37914443Y-46347049D01*
X37912041Y-46322663D01*
X37904928Y-46299214D01*
X37893377Y-46277604D01*
X37877831Y-46258662D01*
X37858890Y-46243117D01*
X37844539Y-46233528D01*
X37788683Y-46177672D01*
X37744798Y-46111994D01*
X37714570Y-46039016D01*
X37699160Y-45961546D01*
X37699160Y-45882554D01*
X37714570Y-45805084D01*
X37714891Y-45804310D01*
X37742763Y-45737020D01*
X37744798Y-45732106D01*
X37788683Y-45666428D01*
X37844539Y-45610572D01*
X37858890Y-45600983D01*
X37877832Y-45585437D01*
X37893377Y-45566495D01*
X37904928Y-45544885D01*
X37912041Y-45521436D01*
X37914443Y-45497049D01*
X37912041Y-45472663D01*
X37904928Y-45449214D01*
X37893377Y-45427604D01*
X37877831Y-45408662D01*
X37858890Y-45393117D01*
X37844539Y-45383528D01*
X37788683Y-45327672D01*
X37744798Y-45261994D01*
X37714570Y-45189016D01*
X37699160Y-45111546D01*
X37699160Y-45032554D01*
X37709751Y-44979310D01*
X37714570Y-44955083D01*
X37739012Y-44896075D01*
X37744798Y-44882106D01*
X37788683Y-44816428D01*
X37844539Y-44760572D01*
X37858890Y-44750983D01*
X37877832Y-44735437D01*
X37893377Y-44716495D01*
X37904928Y-44694885D01*
X37912041Y-44671436D01*
X37914443Y-44647049D01*
X37912041Y-44622663D01*
X37904928Y-44599214D01*
X37893377Y-44577604D01*
X37877831Y-44558662D01*
X37858890Y-44543117D01*
X37844539Y-44533528D01*
X37788683Y-44477672D01*
X37744798Y-44411994D01*
X37714570Y-44339016D01*
X37711467Y-44323414D01*
X37699160Y-44261545D01*
X37699160Y-44182555D01*
X37714570Y-44105083D01*
X37727091Y-44074855D01*
X37744798Y-44032106D01*
X37788683Y-43966428D01*
X37844539Y-43910572D01*
X37858890Y-43900983D01*
X37877832Y-43885437D01*
X37893377Y-43866495D01*
X37904928Y-43844885D01*
X37912041Y-43821436D01*
X37914443Y-43797049D01*
X37912041Y-43772663D01*
X37904928Y-43749214D01*
X37893377Y-43727604D01*
X37877831Y-43708662D01*
X37858890Y-43693117D01*
X37844539Y-43683528D01*
X37788683Y-43627672D01*
X37744798Y-43561994D01*
X37714570Y-43489016D01*
X37699160Y-43411546D01*
X37699160Y-43332554D01*
X37714570Y-43255084D01*
X37744798Y-43182106D01*
X37788683Y-43116428D01*
X37844539Y-43060572D01*
X37858890Y-43050983D01*
X37877832Y-43035437D01*
X37893377Y-43016495D01*
X37904928Y-42994885D01*
X37912041Y-42971436D01*
X37914443Y-42947049D01*
X37912041Y-42922663D01*
X37904928Y-42899214D01*
X37893377Y-42877604D01*
X37877831Y-42858662D01*
X37858890Y-42843117D01*
X37844539Y-42833528D01*
X37788683Y-42777672D01*
X37744798Y-42711994D01*
X37714570Y-42639016D01*
X37699160Y-42561546D01*
X37699160Y-42482554D01*
X37714570Y-42405084D01*
X37744798Y-42332106D01*
X37788683Y-42266428D01*
X37844539Y-42210572D01*
X37858890Y-42200983D01*
X37877832Y-42185437D01*
X37893377Y-42166495D01*
X37904928Y-42144885D01*
X37912041Y-42121436D01*
X37914443Y-42097049D01*
X37912041Y-42072663D01*
X37904928Y-42049214D01*
X37893377Y-42027604D01*
X37877831Y-42008662D01*
X37858890Y-41993117D01*
X37844539Y-41983528D01*
X37788683Y-41927672D01*
X37744798Y-41861994D01*
X37714570Y-41789016D01*
X37699160Y-41711546D01*
X37699160Y-41632554D01*
X37714570Y-41555084D01*
X37744798Y-41482106D01*
X37788683Y-41416428D01*
X37844538Y-41360573D01*
X37910216Y-41316688D01*
X37952965Y-41298981D01*
X37983193Y-41286460D01*
X38021929Y-41278755D01*
X38060664Y-41271050D01*
X38139656Y-41271050D01*
X38178391Y-41278755D01*
G37*
G36*
X108943804Y-42086994D02*
G01*
X109063225Y-42136460D01*
X109315953Y-42241143D01*
X109650878Y-42464933D01*
X109935707Y-42749762D01*
X110159497Y-43084687D01*
X110191892Y-43162896D01*
X110313646Y-43456836D01*
X110392230Y-43851904D01*
X110392230Y-44254716D01*
X110313646Y-44649784D01*
X110244620Y-44816428D01*
X110159497Y-45021933D01*
X109935707Y-45356858D01*
X109650878Y-45641687D01*
X109315953Y-45865477D01*
X109161804Y-45929327D01*
X108943804Y-46019626D01*
X108548736Y-46098210D01*
X108145924Y-46098210D01*
X107750856Y-46019626D01*
X107532856Y-45929327D01*
X107378707Y-45865477D01*
X107043782Y-45641687D01*
X106758953Y-45356858D01*
X106535163Y-45021933D01*
X106450040Y-44816428D01*
X106381014Y-44649784D01*
X106302430Y-44254716D01*
X106302430Y-43851904D01*
X106381014Y-43456836D01*
X106502768Y-43162896D01*
X106535163Y-43084687D01*
X106758953Y-42749762D01*
X107043782Y-42464933D01*
X107378707Y-42241143D01*
X107631435Y-42136460D01*
X107750856Y-42086994D01*
X108145924Y-42008410D01*
X108548736Y-42008410D01*
X108943804Y-42086994D01*
G37*
G36*
X89893724Y-42086994D02*
G01*
X90013145Y-42136460D01*
X90265873Y-42241143D01*
X90600798Y-42464933D01*
X90885627Y-42749762D01*
X91109417Y-43084687D01*
X91141812Y-43162896D01*
X91263566Y-43456836D01*
X91342150Y-43851904D01*
X91342150Y-44254716D01*
X91263566Y-44649784D01*
X91194540Y-44816428D01*
X91109417Y-45021933D01*
X90885627Y-45356858D01*
X90600798Y-45641687D01*
X90265873Y-45865477D01*
X90111724Y-45929327D01*
X89893724Y-46019626D01*
X89498656Y-46098210D01*
X89095844Y-46098210D01*
X88700776Y-46019626D01*
X88482776Y-45929327D01*
X88328627Y-45865477D01*
X87993702Y-45641687D01*
X87708873Y-45356858D01*
X87485083Y-45021933D01*
X87399960Y-44816428D01*
X87330934Y-44649784D01*
X87252350Y-44254716D01*
X87252350Y-43851904D01*
X87330934Y-43456836D01*
X87452688Y-43162896D01*
X87485083Y-43084687D01*
X87708873Y-42749762D01*
X87993702Y-42464933D01*
X88328627Y-42241143D01*
X88581355Y-42136460D01*
X88700776Y-42086994D01*
X89095844Y-42008410D01*
X89498656Y-42008410D01*
X89893724Y-42086994D01*
G37*
G36*
X76901000Y-45701000D02*
G01*
X74799000Y-45701000D01*
X74799000Y-42399000D01*
X76901000Y-42399000D01*
X76901000Y-45701000D01*
G37*
G36*
X65701000Y-45701000D02*
G01*
X63599000Y-45701000D01*
X63599000Y-42399000D01*
X65701000Y-42399000D01*
X65701000Y-45701000D01*
G37*
G36*
X114124725Y-43138856D02*
G01*
X114297796Y-43210544D01*
X114297797Y-43210545D01*
X114453557Y-43314620D01*
X114586020Y-43447083D01*
X114614039Y-43489017D01*
X114690096Y-43602844D01*
X114761784Y-43775915D01*
X114798330Y-43959643D01*
X114798330Y-44146977D01*
X114761784Y-44330705D01*
X114690096Y-44503776D01*
X114690095Y-44503777D01*
X114586020Y-44659537D01*
X114453557Y-44792000D01*
X114375148Y-44844391D01*
X114297796Y-44896076D01*
X114124725Y-44967764D01*
X113940997Y-45004310D01*
X113753665Y-45004310D01*
X113597644Y-44973275D01*
X113573257Y-44970873D01*
X113548878Y-44973274D01*
X113518533Y-44979310D01*
X113336127Y-44979310D01*
X113157226Y-44943725D01*
X112988704Y-44873921D01*
X112837039Y-44772582D01*
X112708058Y-44643601D01*
X112606719Y-44491936D01*
X112536915Y-44323414D01*
X112501330Y-44144513D01*
X112501330Y-43962107D01*
X112536915Y-43783206D01*
X112606719Y-43614684D01*
X112708058Y-43463019D01*
X112837039Y-43334038D01*
X112988704Y-43232699D01*
X113157226Y-43162895D01*
X113336127Y-43127310D01*
X113518533Y-43127310D01*
X113548878Y-43133346D01*
X113573255Y-43135747D01*
X113597644Y-43133345D01*
X113753665Y-43102310D01*
X113940997Y-43102310D01*
X114124725Y-43138856D01*
G37*
G36*
X103097016Y-43133345D02*
G01*
X103121403Y-43135747D01*
X103145782Y-43133346D01*
X103176127Y-43127310D01*
X103358533Y-43127310D01*
X103537434Y-43162895D01*
X103705956Y-43232699D01*
X103857621Y-43334038D01*
X103986602Y-43463019D01*
X104087941Y-43614684D01*
X104157745Y-43783206D01*
X104193330Y-43962107D01*
X104193330Y-44144513D01*
X104157745Y-44323414D01*
X104087941Y-44491936D01*
X103986602Y-44643601D01*
X103857621Y-44772582D01*
X103705956Y-44873921D01*
X103537434Y-44943725D01*
X103358533Y-44979310D01*
X103176127Y-44979310D01*
X103145782Y-44973274D01*
X103121405Y-44970873D01*
X103097016Y-44973275D01*
X102940995Y-45004310D01*
X102753663Y-45004310D01*
X102569935Y-44967764D01*
X102396864Y-44896076D01*
X102319512Y-44844391D01*
X102241103Y-44792000D01*
X102108640Y-44659537D01*
X102004565Y-44503777D01*
X102004564Y-44503776D01*
X101932876Y-44330705D01*
X101896330Y-44146977D01*
X101896330Y-43959643D01*
X101932876Y-43775915D01*
X102004564Y-43602844D01*
X102080621Y-43489017D01*
X102108640Y-43447083D01*
X102241103Y-43314620D01*
X102396863Y-43210545D01*
X102396864Y-43210544D01*
X102569935Y-43138856D01*
X102753663Y-43102310D01*
X102940995Y-43102310D01*
X103097016Y-43133345D01*
G37*
G36*
X95074645Y-43138856D02*
G01*
X95247716Y-43210544D01*
X95247717Y-43210545D01*
X95403477Y-43314620D01*
X95535940Y-43447083D01*
X95563959Y-43489017D01*
X95640016Y-43602844D01*
X95711704Y-43775915D01*
X95748250Y-43959643D01*
X95748250Y-44146977D01*
X95711704Y-44330705D01*
X95640016Y-44503776D01*
X95640015Y-44503777D01*
X95535940Y-44659537D01*
X95403477Y-44792000D01*
X95325068Y-44844391D01*
X95247716Y-44896076D01*
X95074645Y-44967764D01*
X94890917Y-45004310D01*
X94703585Y-45004310D01*
X94547564Y-44973275D01*
X94523177Y-44970873D01*
X94498798Y-44973274D01*
X94468453Y-44979310D01*
X94286047Y-44979310D01*
X94107146Y-44943725D01*
X93938624Y-44873921D01*
X93786959Y-44772582D01*
X93657978Y-44643601D01*
X93556639Y-44491936D01*
X93486835Y-44323414D01*
X93451250Y-44144513D01*
X93451250Y-43962107D01*
X93486835Y-43783206D01*
X93556639Y-43614684D01*
X93657978Y-43463019D01*
X93786959Y-43334038D01*
X93938624Y-43232699D01*
X94107146Y-43162895D01*
X94286047Y-43127310D01*
X94468453Y-43127310D01*
X94498798Y-43133346D01*
X94523175Y-43135747D01*
X94547564Y-43133345D01*
X94703585Y-43102310D01*
X94890917Y-43102310D01*
X95074645Y-43138856D01*
G37*
G36*
X84046936Y-43133345D02*
G01*
X84071323Y-43135747D01*
X84095702Y-43133346D01*
X84126047Y-43127310D01*
X84308453Y-43127310D01*
X84487354Y-43162895D01*
X84655876Y-43232699D01*
X84807541Y-43334038D01*
X84936522Y-43463019D01*
X85037861Y-43614684D01*
X85107665Y-43783206D01*
X85143250Y-43962107D01*
X85143250Y-44144513D01*
X85107665Y-44323414D01*
X85037861Y-44491936D01*
X84936522Y-44643601D01*
X84807541Y-44772582D01*
X84655876Y-44873921D01*
X84487354Y-44943725D01*
X84308453Y-44979310D01*
X84126047Y-44979310D01*
X84095702Y-44973274D01*
X84071325Y-44970873D01*
X84046936Y-44973275D01*
X83890915Y-45004310D01*
X83703583Y-45004310D01*
X83519855Y-44967764D01*
X83346784Y-44896076D01*
X83269432Y-44844391D01*
X83191023Y-44792000D01*
X83058560Y-44659537D01*
X82954485Y-44503777D01*
X82954484Y-44503776D01*
X82882796Y-44330705D01*
X82846250Y-44146977D01*
X82846250Y-43959643D01*
X82882796Y-43775915D01*
X82954484Y-43602844D01*
X83030541Y-43489017D01*
X83058560Y-43447083D01*
X83191023Y-43314620D01*
X83346783Y-43210545D01*
X83346784Y-43210544D01*
X83519855Y-43138856D01*
X83703583Y-43102310D01*
X83890915Y-43102310D01*
X84046936Y-43133345D01*
G37*
G36*
X104839915Y-39992112D02*
G01*
X104989740Y-40021914D01*
X105272004Y-40138831D01*
X105526035Y-40308569D01*
X105742071Y-40524605D01*
X105911809Y-40778636D01*
X106028726Y-41060900D01*
X106028726Y-41060901D01*
X106088330Y-41360549D01*
X106088330Y-41666071D01*
X106079284Y-41711546D01*
X106028726Y-41965720D01*
X105911809Y-42247984D01*
X105742071Y-42502015D01*
X105526035Y-42718051D01*
X105272004Y-42887789D01*
X104989740Y-43004706D01*
X104929497Y-43016689D01*
X104690091Y-43064310D01*
X104384569Y-43064310D01*
X104145163Y-43016689D01*
X104084920Y-43004706D01*
X103802656Y-42887789D01*
X103548625Y-42718051D01*
X103332589Y-42502015D01*
X103162851Y-42247984D01*
X103045934Y-41965720D01*
X102995376Y-41711546D01*
X102986330Y-41666071D01*
X102986330Y-41360549D01*
X103045934Y-41060901D01*
X103045934Y-41060900D01*
X103162851Y-40778636D01*
X103332589Y-40524605D01*
X103548625Y-40308569D01*
X103802656Y-40138831D01*
X104084920Y-40021914D01*
X104234745Y-39992112D01*
X104384569Y-39962310D01*
X104690091Y-39962310D01*
X104839915Y-39992112D01*
G37*
G36*
X85789835Y-39992112D02*
G01*
X85939660Y-40021914D01*
X86221924Y-40138831D01*
X86475955Y-40308569D01*
X86691991Y-40524605D01*
X86861729Y-40778636D01*
X86978646Y-41060900D01*
X86978646Y-41060901D01*
X87038250Y-41360549D01*
X87038250Y-41666071D01*
X87029204Y-41711546D01*
X86978646Y-41965720D01*
X86861729Y-42247984D01*
X86691991Y-42502015D01*
X86475955Y-42718051D01*
X86221924Y-42887789D01*
X85939660Y-43004706D01*
X85879417Y-43016689D01*
X85640011Y-43064310D01*
X85334489Y-43064310D01*
X85095083Y-43016689D01*
X85034840Y-43004706D01*
X84752576Y-42887789D01*
X84498545Y-42718051D01*
X84282509Y-42502015D01*
X84112771Y-42247984D01*
X83995854Y-41965720D01*
X83945296Y-41711546D01*
X83936250Y-41666071D01*
X83936250Y-41360549D01*
X83995854Y-41060901D01*
X83995854Y-41060900D01*
X84112771Y-40778636D01*
X84282509Y-40524605D01*
X84498545Y-40308569D01*
X84752576Y-40138831D01*
X85034840Y-40021914D01*
X85184665Y-39992112D01*
X85334489Y-39962310D01*
X85640011Y-39962310D01*
X85789835Y-39992112D01*
G37*
G36*
X83538250Y-42814310D02*
G01*
X80886250Y-42814310D01*
X80886250Y-40212310D01*
X83538250Y-40212310D01*
X83538250Y-42814310D01*
G37*
G36*
X102588330Y-42814310D02*
G01*
X99936330Y-42814310D01*
X99936330Y-40212310D01*
X102588330Y-40212310D01*
X102588330Y-42814310D01*
G37*
G36*
X37968373Y-39828299D02*
G01*
X38062812Y-39856947D01*
X38149847Y-39903468D01*
X38226135Y-39966075D01*
X38288742Y-40042363D01*
X38335263Y-40129398D01*
X38363911Y-40223837D01*
X38373584Y-40322050D01*
X38363911Y-40420263D01*
X38335263Y-40514702D01*
X38288742Y-40601737D01*
X38226135Y-40678025D01*
X38149847Y-40740632D01*
X38062812Y-40787153D01*
X37968373Y-40815801D01*
X37894772Y-40823050D01*
X36345548Y-40823050D01*
X36271947Y-40815801D01*
X36177508Y-40787153D01*
X36090473Y-40740632D01*
X36014185Y-40678025D01*
X35951578Y-40601737D01*
X35905057Y-40514702D01*
X35876409Y-40420263D01*
X35866736Y-40322050D01*
X35876409Y-40223837D01*
X35905057Y-40129398D01*
X35951578Y-40042363D01*
X36014185Y-39966075D01*
X36090473Y-39903468D01*
X36177508Y-39856947D01*
X36271947Y-39828299D01*
X36345548Y-39821050D01*
X37894772Y-39821050D01*
X37968373Y-39828299D01*
G37*
G36*
X34238373Y-39828299D02*
G01*
X34332812Y-39856947D01*
X34419847Y-39903468D01*
X34496135Y-39966075D01*
X34558742Y-40042363D01*
X34605263Y-40129398D01*
X34633911Y-40223837D01*
X34643584Y-40322050D01*
X34633911Y-40420263D01*
X34605263Y-40514702D01*
X34558742Y-40601737D01*
X34496135Y-40678025D01*
X34419847Y-40740632D01*
X34332812Y-40787153D01*
X34238373Y-40815801D01*
X34164772Y-40823050D01*
X33315548Y-40823050D01*
X33241947Y-40815801D01*
X33147508Y-40787153D01*
X33060473Y-40740632D01*
X32984185Y-40678025D01*
X32921578Y-40601737D01*
X32875057Y-40514702D01*
X32846409Y-40420263D01*
X32836736Y-40322050D01*
X32846409Y-40223837D01*
X32875057Y-40129398D01*
X32921578Y-40042363D01*
X32984185Y-39966075D01*
X33060473Y-39903468D01*
X33147508Y-39856947D01*
X33241947Y-39828299D01*
X33315548Y-39821050D01*
X34164772Y-39821050D01*
X34238373Y-39828299D01*
G37*
G36*
X111189915Y-37452112D02*
G01*
X111339740Y-37481914D01*
X111622004Y-37598831D01*
X111876035Y-37768569D01*
X112092071Y-37984605D01*
X112261809Y-38238636D01*
X112378726Y-38520900D01*
X112438330Y-38820550D01*
X112438330Y-39126070D01*
X112378726Y-39425720D01*
X112261809Y-39707984D01*
X112092071Y-39962015D01*
X111876035Y-40178051D01*
X111622004Y-40347789D01*
X111339740Y-40464706D01*
X111189915Y-40494508D01*
X111040091Y-40524310D01*
X110734569Y-40524310D01*
X110584745Y-40494508D01*
X110434920Y-40464706D01*
X110152656Y-40347789D01*
X109898625Y-40178051D01*
X109682589Y-39962015D01*
X109512851Y-39707984D01*
X109395934Y-39425720D01*
X109336330Y-39126070D01*
X109336330Y-38820550D01*
X109395934Y-38520900D01*
X109512851Y-38238636D01*
X109682589Y-37984605D01*
X109898625Y-37768569D01*
X110152656Y-37598831D01*
X110434920Y-37481914D01*
X110584745Y-37452112D01*
X110734569Y-37422310D01*
X111040091Y-37422310D01*
X111189915Y-37452112D01*
G37*
G36*
X92139835Y-37452112D02*
G01*
X92289660Y-37481914D01*
X92571924Y-37598831D01*
X92825955Y-37768569D01*
X93041991Y-37984605D01*
X93211729Y-38238636D01*
X93328646Y-38520900D01*
X93388250Y-38820550D01*
X93388250Y-39126070D01*
X93328646Y-39425720D01*
X93211729Y-39707984D01*
X93041991Y-39962015D01*
X92825955Y-40178051D01*
X92571924Y-40347789D01*
X92289660Y-40464706D01*
X92139835Y-40494508D01*
X91990011Y-40524310D01*
X91684489Y-40524310D01*
X91534665Y-40494508D01*
X91384840Y-40464706D01*
X91102576Y-40347789D01*
X90848545Y-40178051D01*
X90632509Y-39962015D01*
X90462771Y-39707984D01*
X90345854Y-39425720D01*
X90286250Y-39126070D01*
X90286250Y-38820550D01*
X90345854Y-38520900D01*
X90462771Y-38238636D01*
X90632509Y-37984605D01*
X90848545Y-37768569D01*
X91102576Y-37598831D01*
X91384840Y-37481914D01*
X91534665Y-37452112D01*
X91684489Y-37422310D01*
X91990011Y-37422310D01*
X92139835Y-37452112D01*
G37*
G36*
X115515330Y-40274310D02*
G01*
X113966951Y-40274310D01*
X113942565Y-40276712D01*
X113919116Y-40283825D01*
X113897508Y-40295374D01*
X113877759Y-40308570D01*
X113828325Y-40341601D01*
X113728051Y-40383136D01*
X113621600Y-40404310D01*
X113513060Y-40404310D01*
X113406609Y-40383136D01*
X113306335Y-40341601D01*
X113256901Y-40308570D01*
X113237152Y-40295374D01*
X113215545Y-40283825D01*
X113192096Y-40276712D01*
X113167709Y-40274310D01*
X112863330Y-40274310D01*
X112863330Y-37672310D01*
X115515330Y-37672310D01*
X115515330Y-40274310D01*
G37*
G36*
X96465250Y-40274310D02*
G01*
X94916871Y-40274310D01*
X94892485Y-40276712D01*
X94869036Y-40283825D01*
X94847428Y-40295374D01*
X94827679Y-40308570D01*
X94778245Y-40341601D01*
X94677971Y-40383136D01*
X94571520Y-40404310D01*
X94462980Y-40404310D01*
X94356529Y-40383136D01*
X94256255Y-40341601D01*
X94206821Y-40308570D01*
X94187072Y-40295374D01*
X94165465Y-40283825D01*
X94142016Y-40276712D01*
X94117629Y-40274310D01*
X93813250Y-40274310D01*
X93813250Y-37672310D01*
X96465250Y-37672310D01*
X96465250Y-40274310D01*
G37*
G36*
X33351000Y-37751000D02*
G01*
X31449000Y-37751000D01*
X31449000Y-35849000D01*
X33351000Y-35849000D01*
X33351000Y-37751000D01*
G37*
G36*
X73801000Y-37601000D02*
G01*
X71699000Y-37601000D01*
X71699000Y-35499000D01*
X73801000Y-35499000D01*
X73801000Y-37601000D01*
G37*
G36*
X70556564Y-35539389D02*
G01*
X70747833Y-35618615D01*
X70747835Y-35618616D01*
X70919973Y-35733635D01*
X71066365Y-35880027D01*
X71181385Y-36052167D01*
X71260611Y-36243436D01*
X71301000Y-36446484D01*
X71301000Y-36653516D01*
X71260611Y-36856564D01*
X71181385Y-37047833D01*
X71181384Y-37047835D01*
X71066365Y-37219973D01*
X70919973Y-37366365D01*
X70747835Y-37481384D01*
X70747834Y-37481385D01*
X70747833Y-37481385D01*
X70556564Y-37560611D01*
X70353516Y-37601000D01*
X70146484Y-37601000D01*
X69943436Y-37560611D01*
X69752167Y-37481385D01*
X69752166Y-37481385D01*
X69752165Y-37481384D01*
X69580027Y-37366365D01*
X69433635Y-37219973D01*
X69318616Y-37047835D01*
X69318615Y-37047833D01*
X69239389Y-36856564D01*
X69199000Y-36653516D01*
X69199000Y-36446484D01*
X69239389Y-36243436D01*
X69318615Y-36052167D01*
X69433635Y-35880027D01*
X69580027Y-35733635D01*
X69752165Y-35618616D01*
X69752167Y-35618615D01*
X69943436Y-35539389D01*
X70146484Y-35499000D01*
X70353516Y-35499000D01*
X70556564Y-35539389D01*
G37*
G36*
X68056564Y-35539389D02*
G01*
X68247833Y-35618615D01*
X68247835Y-35618616D01*
X68419973Y-35733635D01*
X68566365Y-35880027D01*
X68681385Y-36052167D01*
X68760611Y-36243436D01*
X68801000Y-36446484D01*
X68801000Y-36653516D01*
X68760611Y-36856564D01*
X68681385Y-37047833D01*
X68681384Y-37047835D01*
X68566365Y-37219973D01*
X68419973Y-37366365D01*
X68247835Y-37481384D01*
X68247834Y-37481385D01*
X68247833Y-37481385D01*
X68056564Y-37560611D01*
X67853516Y-37601000D01*
X67646484Y-37601000D01*
X67443436Y-37560611D01*
X67252167Y-37481385D01*
X67252166Y-37481385D01*
X67252165Y-37481384D01*
X67080027Y-37366365D01*
X66933635Y-37219973D01*
X66818616Y-37047835D01*
X66818615Y-37047833D01*
X66739389Y-36856564D01*
X66699000Y-36653516D01*
X66699000Y-36446484D01*
X66739389Y-36243436D01*
X66818615Y-36052167D01*
X66933635Y-35880027D01*
X67080027Y-35733635D01*
X67252165Y-35618616D01*
X67252167Y-35618615D01*
X67443436Y-35539389D01*
X67646484Y-35499000D01*
X67853516Y-35499000D01*
X68056564Y-35539389D01*
G37*
G36*
X32677395Y-33345546D02*
G01*
X32850466Y-33417234D01*
X32850467Y-33417235D01*
X33006227Y-33521310D01*
X33138690Y-33653773D01*
X33138691Y-33653775D01*
X33242766Y-33809534D01*
X33314454Y-33982605D01*
X33351000Y-34166333D01*
X33351000Y-34353667D01*
X33314454Y-34537395D01*
X33242766Y-34710466D01*
X33242765Y-34710467D01*
X33138690Y-34866227D01*
X33006227Y-34998690D01*
X32927818Y-35051081D01*
X32850466Y-35102766D01*
X32677395Y-35174454D01*
X32493667Y-35211000D01*
X32306333Y-35211000D01*
X32122605Y-35174454D01*
X31949534Y-35102766D01*
X31872182Y-35051081D01*
X31793773Y-34998690D01*
X31661310Y-34866227D01*
X31557235Y-34710467D01*
X31557234Y-34710466D01*
X31485546Y-34537395D01*
X31449000Y-34353667D01*
X31449000Y-34166333D01*
X31485546Y-33982605D01*
X31557234Y-33809534D01*
X31661309Y-33653775D01*
X31661310Y-33653773D01*
X31793773Y-33521310D01*
X31949533Y-33417235D01*
X31949534Y-33417234D01*
X32122605Y-33345546D01*
X32306333Y-33309000D01*
X32493667Y-33309000D01*
X32677395Y-33345546D01*
G37*
G36*
X51113512Y-31443927D02*
G01*
X51262812Y-31473624D01*
X51426784Y-31541544D01*
X51574354Y-31640147D01*
X51699853Y-31765646D01*
X51798456Y-31913216D01*
X51866376Y-32077188D01*
X51901000Y-32251259D01*
X51901000Y-32428741D01*
X51866376Y-32602812D01*
X51798456Y-32766784D01*
X51699853Y-32914354D01*
X51574354Y-33039853D01*
X51426784Y-33138456D01*
X51262812Y-33206376D01*
X51113512Y-33236073D01*
X51088742Y-33241000D01*
X50911258Y-33241000D01*
X50886488Y-33236073D01*
X50737188Y-33206376D01*
X50573216Y-33138456D01*
X50425646Y-33039853D01*
X50300147Y-32914354D01*
X50201544Y-32766784D01*
X50133624Y-32602812D01*
X50099000Y-32428741D01*
X50099000Y-32251259D01*
X50133624Y-32077188D01*
X50201544Y-31913216D01*
X50300147Y-31765646D01*
X50425646Y-31640147D01*
X50573216Y-31541544D01*
X50737188Y-31473624D01*
X50886488Y-31443927D01*
X50911258Y-31439000D01*
X51088742Y-31439000D01*
X51113512Y-31443927D01*
G37*
G36*
X54882492Y-31443927D02*
G01*
X55031792Y-31473624D01*
X55195764Y-31541544D01*
X55343334Y-31640147D01*
X55468833Y-31765646D01*
X55567436Y-31913216D01*
X55635356Y-32077188D01*
X55669980Y-32251259D01*
X55669980Y-32428741D01*
X55635356Y-32602812D01*
X55567436Y-32766784D01*
X55468833Y-32914354D01*
X55343334Y-33039853D01*
X55195764Y-33138456D01*
X55031792Y-33206376D01*
X54882492Y-33236073D01*
X54857722Y-33241000D01*
X54680238Y-33241000D01*
X54655468Y-33236073D01*
X54506168Y-33206376D01*
X54342196Y-33138456D01*
X54194626Y-33039853D01*
X54069127Y-32914354D01*
X53970524Y-32766784D01*
X53902604Y-32602812D01*
X53867980Y-32428741D01*
X53867980Y-32251259D01*
X53902604Y-32077188D01*
X53970524Y-31913216D01*
X54069127Y-31765646D01*
X54194626Y-31640147D01*
X54342196Y-31541544D01*
X54506168Y-31473624D01*
X54655468Y-31443927D01*
X54680238Y-31439000D01*
X54857722Y-31439000D01*
X54882492Y-31443927D01*
G37*
G36*
X111476902Y-31250937D02*
G01*
X111626202Y-31280634D01*
X111790174Y-31348554D01*
X111937744Y-31447157D01*
X112063243Y-31572656D01*
X112161846Y-31720226D01*
X112229766Y-31884198D01*
X112264390Y-32058269D01*
X112264390Y-32235751D01*
X112229766Y-32409822D01*
X112161846Y-32573794D01*
X112063243Y-32721364D01*
X111937744Y-32846863D01*
X111790174Y-32945466D01*
X111626202Y-33013386D01*
X111476902Y-33043083D01*
X111452132Y-33048010D01*
X111274648Y-33048010D01*
X111249878Y-33043083D01*
X111100578Y-33013386D01*
X110936606Y-32945466D01*
X110789036Y-32846863D01*
X110663537Y-32721364D01*
X110564934Y-32573794D01*
X110497014Y-32409822D01*
X110462390Y-32235751D01*
X110462390Y-32058269D01*
X110497014Y-31884198D01*
X110564934Y-31720226D01*
X110663537Y-31572656D01*
X110789036Y-31447157D01*
X110936606Y-31348554D01*
X111100578Y-31280634D01*
X111249878Y-31250937D01*
X111274648Y-31246010D01*
X111452132Y-31246010D01*
X111476902Y-31250937D01*
G37*
G36*
X88616902Y-31250937D02*
G01*
X88766202Y-31280634D01*
X88930174Y-31348554D01*
X89077744Y-31447157D01*
X89203243Y-31572656D01*
X89301846Y-31720226D01*
X89369766Y-31884198D01*
X89404390Y-32058269D01*
X89404390Y-32235751D01*
X89369766Y-32409822D01*
X89301846Y-32573794D01*
X89203243Y-32721364D01*
X89077744Y-32846863D01*
X88930174Y-32945466D01*
X88766202Y-33013386D01*
X88616902Y-33043083D01*
X88592132Y-33048010D01*
X88414648Y-33048010D01*
X88389878Y-33043083D01*
X88240578Y-33013386D01*
X88076606Y-32945466D01*
X87929036Y-32846863D01*
X87803537Y-32721364D01*
X87704934Y-32573794D01*
X87637014Y-32409822D01*
X87602390Y-32235751D01*
X87602390Y-32058269D01*
X87637014Y-31884198D01*
X87704934Y-31720226D01*
X87803537Y-31572656D01*
X87929036Y-31447157D01*
X88076606Y-31348554D01*
X88240578Y-31280634D01*
X88389878Y-31250937D01*
X88414648Y-31246010D01*
X88592132Y-31246010D01*
X88616902Y-31250937D01*
G37*
G36*
X108936902Y-31250937D02*
G01*
X109086202Y-31280634D01*
X109250174Y-31348554D01*
X109397744Y-31447157D01*
X109523243Y-31572656D01*
X109621846Y-31720226D01*
X109689766Y-31884198D01*
X109724390Y-32058269D01*
X109724390Y-32235751D01*
X109689766Y-32409822D01*
X109621846Y-32573794D01*
X109523243Y-32721364D01*
X109397744Y-32846863D01*
X109250174Y-32945466D01*
X109086202Y-33013386D01*
X108936902Y-33043083D01*
X108912132Y-33048010D01*
X108734648Y-33048010D01*
X108709878Y-33043083D01*
X108560578Y-33013386D01*
X108396606Y-32945466D01*
X108249036Y-32846863D01*
X108123537Y-32721364D01*
X108024934Y-32573794D01*
X107957014Y-32409822D01*
X107922390Y-32235751D01*
X107922390Y-32058269D01*
X107957014Y-31884198D01*
X108024934Y-31720226D01*
X108123537Y-31572656D01*
X108249036Y-31447157D01*
X108396606Y-31348554D01*
X108560578Y-31280634D01*
X108709878Y-31250937D01*
X108734648Y-31246010D01*
X108912132Y-31246010D01*
X108936902Y-31250937D01*
G37*
G36*
X101316902Y-31250937D02*
G01*
X101466202Y-31280634D01*
X101630174Y-31348554D01*
X101777744Y-31447157D01*
X101903243Y-31572656D01*
X102001846Y-31720226D01*
X102069766Y-31884198D01*
X102104390Y-32058269D01*
X102104390Y-32235751D01*
X102069766Y-32409822D01*
X102001846Y-32573794D01*
X101903243Y-32721364D01*
X101777744Y-32846863D01*
X101630174Y-32945466D01*
X101466202Y-33013386D01*
X101316902Y-33043083D01*
X101292132Y-33048010D01*
X101114648Y-33048010D01*
X101089878Y-33043083D01*
X100940578Y-33013386D01*
X100776606Y-32945466D01*
X100629036Y-32846863D01*
X100503537Y-32721364D01*
X100404934Y-32573794D01*
X100337014Y-32409822D01*
X100302390Y-32235751D01*
X100302390Y-32058269D01*
X100337014Y-31884198D01*
X100404934Y-31720226D01*
X100503537Y-31572656D01*
X100629036Y-31447157D01*
X100776606Y-31348554D01*
X100940578Y-31280634D01*
X101089878Y-31250937D01*
X101114648Y-31246010D01*
X101292132Y-31246010D01*
X101316902Y-31250937D01*
G37*
G36*
X98776902Y-31250937D02*
G01*
X98926202Y-31280634D01*
X99090174Y-31348554D01*
X99237744Y-31447157D01*
X99363243Y-31572656D01*
X99461846Y-31720226D01*
X99529766Y-31884198D01*
X99564390Y-32058269D01*
X99564390Y-32235751D01*
X99529766Y-32409822D01*
X99461846Y-32573794D01*
X99363243Y-32721364D01*
X99237744Y-32846863D01*
X99090174Y-32945466D01*
X98926202Y-33013386D01*
X98776902Y-33043083D01*
X98752132Y-33048010D01*
X98574648Y-33048010D01*
X98549878Y-33043083D01*
X98400578Y-33013386D01*
X98236606Y-32945466D01*
X98089036Y-32846863D01*
X97963537Y-32721364D01*
X97864934Y-32573794D01*
X97797014Y-32409822D01*
X97762390Y-32235751D01*
X97762390Y-32058269D01*
X97797014Y-31884198D01*
X97864934Y-31720226D01*
X97963537Y-31572656D01*
X98089036Y-31447157D01*
X98236606Y-31348554D01*
X98400578Y-31280634D01*
X98549878Y-31250937D01*
X98574648Y-31246010D01*
X98752132Y-31246010D01*
X98776902Y-31250937D01*
G37*
G36*
X106396902Y-31250937D02*
G01*
X106546202Y-31280634D01*
X106710174Y-31348554D01*
X106857744Y-31447157D01*
X106983243Y-31572656D01*
X107081846Y-31720226D01*
X107149766Y-31884198D01*
X107184390Y-32058269D01*
X107184390Y-32235751D01*
X107149766Y-32409822D01*
X107081846Y-32573794D01*
X106983243Y-32721364D01*
X106857744Y-32846863D01*
X106710174Y-32945466D01*
X106546202Y-33013386D01*
X106396902Y-33043083D01*
X106372132Y-33048010D01*
X106194648Y-33048010D01*
X106169878Y-33043083D01*
X106020578Y-33013386D01*
X105856606Y-32945466D01*
X105709036Y-32846863D01*
X105583537Y-32721364D01*
X105484934Y-32573794D01*
X105417014Y-32409822D01*
X105382390Y-32235751D01*
X105382390Y-32058269D01*
X105417014Y-31884198D01*
X105484934Y-31720226D01*
X105583537Y-31572656D01*
X105709036Y-31447157D01*
X105856606Y-31348554D01*
X106020578Y-31280634D01*
X106169878Y-31250937D01*
X106194648Y-31246010D01*
X106372132Y-31246010D01*
X106396902Y-31250937D01*
G37*
G36*
X103856902Y-31250937D02*
G01*
X104006202Y-31280634D01*
X104170174Y-31348554D01*
X104317744Y-31447157D01*
X104443243Y-31572656D01*
X104541846Y-31720226D01*
X104609766Y-31884198D01*
X104644390Y-32058269D01*
X104644390Y-32235751D01*
X104609766Y-32409822D01*
X104541846Y-32573794D01*
X104443243Y-32721364D01*
X104317744Y-32846863D01*
X104170174Y-32945466D01*
X104006202Y-33013386D01*
X103856902Y-33043083D01*
X103832132Y-33048010D01*
X103654648Y-33048010D01*
X103629878Y-33043083D01*
X103480578Y-33013386D01*
X103316606Y-32945466D01*
X103169036Y-32846863D01*
X103043537Y-32721364D01*
X102944934Y-32573794D01*
X102877014Y-32409822D01*
X102842390Y-32235751D01*
X102842390Y-32058269D01*
X102877014Y-31884198D01*
X102944934Y-31720226D01*
X103043537Y-31572656D01*
X103169036Y-31447157D01*
X103316606Y-31348554D01*
X103480578Y-31280634D01*
X103629878Y-31250937D01*
X103654648Y-31246010D01*
X103832132Y-31246010D01*
X103856902Y-31250937D01*
G37*
G36*
X96236902Y-31250937D02*
G01*
X96386202Y-31280634D01*
X96550174Y-31348554D01*
X96697744Y-31447157D01*
X96823243Y-31572656D01*
X96921846Y-31720226D01*
X96989766Y-31884198D01*
X97024390Y-32058269D01*
X97024390Y-32235751D01*
X96989766Y-32409822D01*
X96921846Y-32573794D01*
X96823243Y-32721364D01*
X96697744Y-32846863D01*
X96550174Y-32945466D01*
X96386202Y-33013386D01*
X96236902Y-33043083D01*
X96212132Y-33048010D01*
X96034648Y-33048010D01*
X96009878Y-33043083D01*
X95860578Y-33013386D01*
X95696606Y-32945466D01*
X95549036Y-32846863D01*
X95423537Y-32721364D01*
X95324934Y-32573794D01*
X95257014Y-32409822D01*
X95222390Y-32235751D01*
X95222390Y-32058269D01*
X95257014Y-31884198D01*
X95324934Y-31720226D01*
X95423537Y-31572656D01*
X95549036Y-31447157D01*
X95696606Y-31348554D01*
X95860578Y-31280634D01*
X96009878Y-31250937D01*
X96034648Y-31246010D01*
X96212132Y-31246010D01*
X96236902Y-31250937D01*
G37*
G36*
X93696902Y-31250937D02*
G01*
X93846202Y-31280634D01*
X94010174Y-31348554D01*
X94157744Y-31447157D01*
X94283243Y-31572656D01*
X94381846Y-31720226D01*
X94449766Y-31884198D01*
X94484390Y-32058269D01*
X94484390Y-32235751D01*
X94449766Y-32409822D01*
X94381846Y-32573794D01*
X94283243Y-32721364D01*
X94157744Y-32846863D01*
X94010174Y-32945466D01*
X93846202Y-33013386D01*
X93696902Y-33043083D01*
X93672132Y-33048010D01*
X93494648Y-33048010D01*
X93469878Y-33043083D01*
X93320578Y-33013386D01*
X93156606Y-32945466D01*
X93009036Y-32846863D01*
X92883537Y-32721364D01*
X92784934Y-32573794D01*
X92717014Y-32409822D01*
X92682390Y-32235751D01*
X92682390Y-32058269D01*
X92717014Y-31884198D01*
X92784934Y-31720226D01*
X92883537Y-31572656D01*
X93009036Y-31447157D01*
X93156606Y-31348554D01*
X93320578Y-31280634D01*
X93469878Y-31250937D01*
X93494648Y-31246010D01*
X93672132Y-31246010D01*
X93696902Y-31250937D01*
G37*
G36*
X91156902Y-31250937D02*
G01*
X91306202Y-31280634D01*
X91470174Y-31348554D01*
X91617744Y-31447157D01*
X91743243Y-31572656D01*
X91841846Y-31720226D01*
X91909766Y-31884198D01*
X91944390Y-32058269D01*
X91944390Y-32235751D01*
X91909766Y-32409822D01*
X91841846Y-32573794D01*
X91743243Y-32721364D01*
X91617744Y-32846863D01*
X91470174Y-32945466D01*
X91306202Y-33013386D01*
X91156902Y-33043083D01*
X91132132Y-33048010D01*
X90954648Y-33048010D01*
X90929878Y-33043083D01*
X90780578Y-33013386D01*
X90616606Y-32945466D01*
X90469036Y-32846863D01*
X90343537Y-32721364D01*
X90244934Y-32573794D01*
X90177014Y-32409822D01*
X90142390Y-32235751D01*
X90142390Y-32058269D01*
X90177014Y-31884198D01*
X90244934Y-31720226D01*
X90343537Y-31572656D01*
X90469036Y-31447157D01*
X90616606Y-31348554D01*
X90780578Y-31280634D01*
X90929878Y-31250937D01*
X90954648Y-31246010D01*
X91132132Y-31246010D01*
X91156902Y-31250937D01*
G37*
G36*
X86076902Y-31250937D02*
G01*
X86226202Y-31280634D01*
X86390174Y-31348554D01*
X86537744Y-31447157D01*
X86663243Y-31572656D01*
X86761846Y-31720226D01*
X86829766Y-31884198D01*
X86864390Y-32058269D01*
X86864390Y-32235751D01*
X86829766Y-32409822D01*
X86761846Y-32573794D01*
X86663243Y-32721364D01*
X86537744Y-32846863D01*
X86390174Y-32945466D01*
X86226202Y-33013386D01*
X86076902Y-33043083D01*
X86052132Y-33048010D01*
X85874648Y-33048010D01*
X85849878Y-33043083D01*
X85700578Y-33013386D01*
X85536606Y-32945466D01*
X85389036Y-32846863D01*
X85263537Y-32721364D01*
X85164934Y-32573794D01*
X85097014Y-32409822D01*
X85062390Y-32235751D01*
X85062390Y-32058269D01*
X85097014Y-31884198D01*
X85164934Y-31720226D01*
X85263537Y-31572656D01*
X85389036Y-31447157D01*
X85536606Y-31348554D01*
X85700578Y-31280634D01*
X85849878Y-31250937D01*
X85874648Y-31246010D01*
X86052132Y-31246010D01*
X86076902Y-31250937D01*
G37*
G36*
X83536902Y-31250937D02*
G01*
X83686202Y-31280634D01*
X83850174Y-31348554D01*
X83997744Y-31447157D01*
X84123243Y-31572656D01*
X84221846Y-31720226D01*
X84289766Y-31884198D01*
X84324390Y-32058269D01*
X84324390Y-32235751D01*
X84289766Y-32409822D01*
X84221846Y-32573794D01*
X84123243Y-32721364D01*
X83997744Y-32846863D01*
X83850174Y-32945466D01*
X83686202Y-33013386D01*
X83536902Y-33043083D01*
X83512132Y-33048010D01*
X83334648Y-33048010D01*
X83309878Y-33043083D01*
X83160578Y-33013386D01*
X82996606Y-32945466D01*
X82849036Y-32846863D01*
X82723537Y-32721364D01*
X82624934Y-32573794D01*
X82557014Y-32409822D01*
X82522390Y-32235751D01*
X82522390Y-32058269D01*
X82557014Y-31884198D01*
X82624934Y-31720226D01*
X82723537Y-31572656D01*
X82849036Y-31447157D01*
X82996606Y-31348554D01*
X83160578Y-31280634D01*
X83309878Y-31250937D01*
X83334648Y-31246010D01*
X83512132Y-31246010D01*
X83536902Y-31250937D01*
G37*
G36*
X80996902Y-31250937D02*
G01*
X81146202Y-31280634D01*
X81310174Y-31348554D01*
X81457744Y-31447157D01*
X81583243Y-31572656D01*
X81681846Y-31720226D01*
X81749766Y-31884198D01*
X81784390Y-32058269D01*
X81784390Y-32235751D01*
X81749766Y-32409822D01*
X81681846Y-32573794D01*
X81583243Y-32721364D01*
X81457744Y-32846863D01*
X81310174Y-32945466D01*
X81146202Y-33013386D01*
X80996902Y-33043083D01*
X80972132Y-33048010D01*
X80794648Y-33048010D01*
X80769878Y-33043083D01*
X80620578Y-33013386D01*
X80456606Y-32945466D01*
X80309036Y-32846863D01*
X80183537Y-32721364D01*
X80084934Y-32573794D01*
X80017014Y-32409822D01*
X79982390Y-32235751D01*
X79982390Y-32058269D01*
X80017014Y-31884198D01*
X80084934Y-31720226D01*
X80183537Y-31572656D01*
X80309036Y-31447157D01*
X80456606Y-31348554D01*
X80620578Y-31280634D01*
X80769878Y-31250937D01*
X80794648Y-31246010D01*
X80972132Y-31246010D01*
X80996902Y-31250937D01*
G37*
G36*
X78456902Y-31250937D02*
G01*
X78606202Y-31280634D01*
X78770174Y-31348554D01*
X78917744Y-31447157D01*
X79043243Y-31572656D01*
X79141846Y-31720226D01*
X79209766Y-31884198D01*
X79244390Y-32058269D01*
X79244390Y-32235751D01*
X79209766Y-32409822D01*
X79141846Y-32573794D01*
X79043243Y-32721364D01*
X78917744Y-32846863D01*
X78770174Y-32945466D01*
X78606202Y-33013386D01*
X78456902Y-33043083D01*
X78432132Y-33048010D01*
X78254648Y-33048010D01*
X78229878Y-33043083D01*
X78080578Y-33013386D01*
X77916606Y-32945466D01*
X77769036Y-32846863D01*
X77643537Y-32721364D01*
X77544934Y-32573794D01*
X77477014Y-32409822D01*
X77442390Y-32235751D01*
X77442390Y-32058269D01*
X77477014Y-31884198D01*
X77544934Y-31720226D01*
X77643537Y-31572656D01*
X77769036Y-31447157D01*
X77916606Y-31348554D01*
X78080578Y-31280634D01*
X78229878Y-31250937D01*
X78254648Y-31246010D01*
X78432132Y-31246010D01*
X78456902Y-31250937D01*
G37*
G36*
X75916902Y-31250937D02*
G01*
X76066202Y-31280634D01*
X76230174Y-31348554D01*
X76377744Y-31447157D01*
X76503243Y-31572656D01*
X76601846Y-31720226D01*
X76669766Y-31884198D01*
X76704390Y-32058269D01*
X76704390Y-32235751D01*
X76669766Y-32409822D01*
X76601846Y-32573794D01*
X76503243Y-32721364D01*
X76377744Y-32846863D01*
X76230174Y-32945466D01*
X76066202Y-33013386D01*
X75916902Y-33043083D01*
X75892132Y-33048010D01*
X75714648Y-33048010D01*
X75689878Y-33043083D01*
X75540578Y-33013386D01*
X75376606Y-32945466D01*
X75229036Y-32846863D01*
X75103537Y-32721364D01*
X75004934Y-32573794D01*
X74937014Y-32409822D01*
X74902390Y-32235751D01*
X74902390Y-32058269D01*
X74937014Y-31884198D01*
X75004934Y-31720226D01*
X75103537Y-31572656D01*
X75229036Y-31447157D01*
X75376606Y-31348554D01*
X75540578Y-31280634D01*
X75689878Y-31250937D01*
X75714648Y-31246010D01*
X75892132Y-31246010D01*
X75916902Y-31250937D01*
G37*
G36*
X73376902Y-31250937D02*
G01*
X73526202Y-31280634D01*
X73690174Y-31348554D01*
X73837744Y-31447157D01*
X73963243Y-31572656D01*
X74061846Y-31720226D01*
X74129766Y-31884198D01*
X74164390Y-32058269D01*
X74164390Y-32235751D01*
X74129766Y-32409822D01*
X74061846Y-32573794D01*
X73963243Y-32721364D01*
X73837744Y-32846863D01*
X73690174Y-32945466D01*
X73526202Y-33013386D01*
X73376902Y-33043083D01*
X73352132Y-33048010D01*
X73174648Y-33048010D01*
X73149878Y-33043083D01*
X73000578Y-33013386D01*
X72836606Y-32945466D01*
X72689036Y-32846863D01*
X72563537Y-32721364D01*
X72464934Y-32573794D01*
X72397014Y-32409822D01*
X72362390Y-32235751D01*
X72362390Y-32058269D01*
X72397014Y-31884198D01*
X72464934Y-31720226D01*
X72563537Y-31572656D01*
X72689036Y-31447157D01*
X72836606Y-31348554D01*
X73000578Y-31280634D01*
X73149878Y-31250937D01*
X73174648Y-31246010D01*
X73352132Y-31246010D01*
X73376902Y-31250937D01*
G37*
G36*
X70836902Y-31250937D02*
G01*
X70986202Y-31280634D01*
X71150174Y-31348554D01*
X71297744Y-31447157D01*
X71423243Y-31572656D01*
X71521846Y-31720226D01*
X71589766Y-31884198D01*
X71624390Y-32058269D01*
X71624390Y-32235751D01*
X71589766Y-32409822D01*
X71521846Y-32573794D01*
X71423243Y-32721364D01*
X71297744Y-32846863D01*
X71150174Y-32945466D01*
X70986202Y-33013386D01*
X70836902Y-33043083D01*
X70812132Y-33048010D01*
X70634648Y-33048010D01*
X70609878Y-33043083D01*
X70460578Y-33013386D01*
X70296606Y-32945466D01*
X70149036Y-32846863D01*
X70023537Y-32721364D01*
X69924934Y-32573794D01*
X69857014Y-32409822D01*
X69822390Y-32235751D01*
X69822390Y-32058269D01*
X69857014Y-31884198D01*
X69924934Y-31720226D01*
X70023537Y-31572656D01*
X70149036Y-31447157D01*
X70296606Y-31348554D01*
X70460578Y-31280634D01*
X70609878Y-31250937D01*
X70634648Y-31246010D01*
X70812132Y-31246010D01*
X70836902Y-31250937D01*
G37*
G36*
X68296902Y-31250937D02*
G01*
X68446202Y-31280634D01*
X68610174Y-31348554D01*
X68757744Y-31447157D01*
X68883243Y-31572656D01*
X68981846Y-31720226D01*
X69049766Y-31884198D01*
X69084390Y-32058269D01*
X69084390Y-32235751D01*
X69049766Y-32409822D01*
X68981846Y-32573794D01*
X68883243Y-32721364D01*
X68757744Y-32846863D01*
X68610174Y-32945466D01*
X68446202Y-33013386D01*
X68296902Y-33043083D01*
X68272132Y-33048010D01*
X68094648Y-33048010D01*
X68069878Y-33043083D01*
X67920578Y-33013386D01*
X67756606Y-32945466D01*
X67609036Y-32846863D01*
X67483537Y-32721364D01*
X67384934Y-32573794D01*
X67317014Y-32409822D01*
X67282390Y-32235751D01*
X67282390Y-32058269D01*
X67317014Y-31884198D01*
X67384934Y-31720226D01*
X67483537Y-31572656D01*
X67609036Y-31447157D01*
X67756606Y-31348554D01*
X67920578Y-31280634D01*
X68069878Y-31250937D01*
X68094648Y-31246010D01*
X68272132Y-31246010D01*
X68296902Y-31250937D01*
G37*
G36*
X65756902Y-31250937D02*
G01*
X65906202Y-31280634D01*
X66070174Y-31348554D01*
X66217744Y-31447157D01*
X66343243Y-31572656D01*
X66441846Y-31720226D01*
X66509766Y-31884198D01*
X66544390Y-32058269D01*
X66544390Y-32235751D01*
X66509766Y-32409822D01*
X66441846Y-32573794D01*
X66343243Y-32721364D01*
X66217744Y-32846863D01*
X66070174Y-32945466D01*
X65906202Y-33013386D01*
X65756902Y-33043083D01*
X65732132Y-33048010D01*
X65554648Y-33048010D01*
X65529878Y-33043083D01*
X65380578Y-33013386D01*
X65216606Y-32945466D01*
X65069036Y-32846863D01*
X64943537Y-32721364D01*
X64844934Y-32573794D01*
X64777014Y-32409822D01*
X64742390Y-32235751D01*
X64742390Y-32058269D01*
X64777014Y-31884198D01*
X64844934Y-31720226D01*
X64943537Y-31572656D01*
X65069036Y-31447157D01*
X65216606Y-31348554D01*
X65380578Y-31280634D01*
X65529878Y-31250937D01*
X65554648Y-31246010D01*
X65732132Y-31246010D01*
X65756902Y-31250937D01*
G37*
G36*
X64004390Y-33048010D02*
G01*
X62202390Y-33048010D01*
X62202390Y-31246010D01*
X64004390Y-31246010D01*
X64004390Y-33048010D01*
G37*
G36*
X116826359Y-29033556D02*
G01*
X116937544Y-29055672D01*
X117147013Y-29142437D01*
X117335530Y-29268400D01*
X117495850Y-29428720D01*
X117621813Y-29617237D01*
X117708578Y-29826706D01*
X117752810Y-30049076D01*
X117752810Y-30275804D01*
X117708578Y-30498174D01*
X117621813Y-30707643D01*
X117495850Y-30896160D01*
X117335530Y-31056480D01*
X117147013Y-31182443D01*
X116937544Y-31269208D01*
X116880101Y-31280634D01*
X116715175Y-31313440D01*
X116488445Y-31313440D01*
X116323519Y-31280634D01*
X116266076Y-31269208D01*
X116056607Y-31182443D01*
X115868090Y-31056480D01*
X115707770Y-30896160D01*
X115581807Y-30707643D01*
X115495042Y-30498174D01*
X115450810Y-30275804D01*
X115450810Y-30049076D01*
X115495042Y-29826706D01*
X115581807Y-29617237D01*
X115707770Y-29428720D01*
X115868090Y-29268400D01*
X116056607Y-29142437D01*
X116266076Y-29055672D01*
X116377261Y-29033556D01*
X116488445Y-29011440D01*
X116715175Y-29011440D01*
X116826359Y-29033556D01*
G37*
G36*
X33006359Y-29033556D02*
G01*
X33117544Y-29055672D01*
X33327013Y-29142437D01*
X33515530Y-29268400D01*
X33675850Y-29428720D01*
X33801813Y-29617237D01*
X33888578Y-29826706D01*
X33932810Y-30049076D01*
X33932810Y-30275804D01*
X33888578Y-30498174D01*
X33801813Y-30707643D01*
X33675850Y-30896160D01*
X33515530Y-31056480D01*
X33327013Y-31182443D01*
X33117544Y-31269208D01*
X33060101Y-31280634D01*
X32895175Y-31313440D01*
X32668445Y-31313440D01*
X32503519Y-31280634D01*
X32446076Y-31269208D01*
X32236607Y-31182443D01*
X32048090Y-31056480D01*
X31887770Y-30896160D01*
X31761807Y-30707643D01*
X31675042Y-30498174D01*
X31630810Y-30275804D01*
X31630810Y-30049076D01*
X31675042Y-29826706D01*
X31761807Y-29617237D01*
X31887770Y-29428720D01*
X32048090Y-29268400D01*
X32236607Y-29142437D01*
X32446076Y-29055672D01*
X32557261Y-29033556D01*
X32668445Y-29011440D01*
X32895175Y-29011440D01*
X33006359Y-29033556D01*
G37*
G36*
X55669980Y-30701000D02*
G01*
X53867980Y-30701000D01*
X53867980Y-28899000D01*
X55669980Y-28899000D01*
X55669980Y-30701000D01*
G37*
G36*
X51901000Y-30701000D02*
G01*
X50099000Y-30701000D01*
X50099000Y-28899000D01*
X51901000Y-28899000D01*
X51901000Y-30701000D01*
G37*
M02*
